#N canvas 332 220 356 330 10;
#X obj 101 101 cnv 15 98 198 empty empty testones_\$1 1 7 0 10 -204786
-66577 0;
#X obj 103 118 tgl 30 0 \$1/on \$1/on ON 2 16 0 24 -4034 -1 -1 1 1
;
#X obj 144 159 vradio 15 1 0 5 \$1/sel \$1/sel empty 0 -8 0 10 -262144
-1 -1 2;
#X text 161 161 pink;
#X text 161 178 sin;
#X text 162 192 saw;
#X obj 144 238 nbx 5 14 -1e+37 1e+37 0 0 \$1/pitch \$1/pitch ptch -25
7 0 10 -262144 -1 -1 40 256;
#X obj 144 268 tgl 15 0 \$1/pulse/on \$1/pulse/on pulse 17 7 0 10 -261682
-1 -1 0 1;
#X obj 144 283 nbx 4 14 -1e+37 1e+37 0 0 \$1/pulse/time \$1/pulse/time
empty 20 -8 0 10 -261682 -1 -1 500 256;
#X obj 103 151 vsl 15 128 0 127 0 0 \$1/vol \$1/vol VOL 15 3 0 10 -4034
-1 -1 8000 1;
#X obj 103 283 nbx 3 14 -1e+37 1e+37 0 0 \$1/vol \$1/vol empty 0 -8
0 10 -4034 -1 -1 80 256;
#X text 98 306 (c) GPL \, acre - winfried ritsch;
#X text 92 65 Note: id is prefix for parameter;
#X text 90 20 amb/bus/tones_ctl <id/prefix>;
#X floatatom 180 102 3 0 0 0 n #1/channels -;
#X text 93 40 n channels of generators in steps;
#X obj 144 252 nbx 5 14 -1e+37 1e+37 0 0 \$1/pitch/step \$1/pitch/step
step -25 7 0 10 -262144 -1 -1 1 256;
#X text 116 172 -0dB;
#X text 116 190 -20;
#X text 116 211 -40;
#X text 159 206 sweep;
#X text 160 220 tab;
#X obj 183 221 tgl 15 0 \$1/tab/vis \$1/tab/vis v 2 7 0 10 -257985
-1 -1 0 1;
#X obj 182 142 tgl 15 0 \$1/seq/auto \$1/seq/auto auto -7 -7 0 10 -262144
-1 -1 0 1;
#X text 267 230 sequence;
#X obj 120 266 tgl 15 0 empty \$1/pulse/amp empty 17 7 0 10 -204786
-1 -1 1 1;
#X obj 144 143 nbx 3 14 -1e+37 1e+37 0 0 \$1/seq/nr \$1/seq/nr seq
0 -8 0 10 -262144 -1 -1 -1 256;
#X msg 253 142 -1;
#X text 277 138 play all;
#X obj 252 168 s \$1/seq/nr;
#X obj 144 116 bng 15 250 50 0 empty empty all 17 7 0 10 -262144 -1
-1;
#X connect 27 0 29 0;
#X connect 30 0 27 0;
#X coords 0 -1 1 1 100 200 2 100 100;
