#N canvas 365 136 619 277 10;
#N canvas 575 372 450 300 init 0;
#X obj 103 58 loadbang;
#X obj 231 68 bng 15 250 50 0 empty empty empty 17 7 0 10 -262144 -1
-1;
#X obj 104 106 list append \$1;
#X msg 104 128 \; \$1/pulse/on 0 \; \$1/pulse/time 500 \; \$1/sel 0
\; \$1/pitch 40 \; \$1/vol 60;
#X connect 0 0 2 0;
#X connect 1 0 2 0;
#X connect 2 0 3 0;
#X restore 356 82 pd init;
#X obj 284 85 switch~;
#X obj 284 63 r \$1/on;
#N canvas 686 433 483 296 contruct-outs 0;
#X msg 167 49 clear;
#X obj 81 15 bng 15 250 50 0 empty empty empty 17 7 0 10 -262144 -1
-1;
#X obj 37 15 inlet;
#X obj 37 136 t f f b;
#X obj 37 160 * 20;
#X obj 160 16 inlet;
#X obj 37 40 i \$2;
#X obj 37 66 t f b;
#X obj 37 110 acre/count_until;
#X obj 351 10 loadbang;
#X obj 351 76 - 1;
#X obj 351 54 max 1;
#X obj 74 161 + 0;
#X text 379 78 out offset;
#X obj 351 32 i \$5;
#X obj 37 206 pack 10 1 s;
#X obj 167 73 s pd-\$0-dsp-tones;
#X obj 37 266 s pd-\$0-dsp-tones;
#X obj 111 160 symbol \$3;
#X obj 37 226 list append \$1;
#X obj 105 12 inlet;
#X obj 77 43 s \$1/channels;
#X msg 37 245 obj 10 \$1 tones_osc~ \$3-\$2 \$4 \$2;
#X obj 145 110 r \$1/offset;
#X obj 74 184 - 1;
#X connect 0 0 16 0;
#X connect 1 0 6 0;
#X connect 2 0 6 0;
#X connect 3 0 4 0;
#X connect 3 1 12 0;
#X connect 3 2 18 0;
#X connect 4 0 15 0;
#X connect 5 0 0 0;
#X connect 6 0 7 0;
#X connect 6 0 21 0;
#X connect 7 0 8 0;
#X connect 7 1 0 0;
#X connect 8 0 3 0;
#X connect 9 0 14 0;
#X connect 11 0 10 0;
#X connect 12 0 24 0;
#X connect 14 0 11 0;
#X connect 15 0 19 0;
#X connect 18 0 15 2;
#X connect 19 0 22 0;
#X connect 20 0 6 1;
#X connect 22 0 17 0;
#X connect 23 0 12 1;
#X connect 24 0 15 1;
#X restore 65 169 pd contruct-outs;
#X obj 79 126 bng 15 250 50 0 empty empty empty 17 7 0 10 -262144 -1
-1;
#X obj 175 147 bng 15 250 50 0 empty empty empty 17 7 0 10 -262144
-1 -1;
#X text 194 147 clear before save !;
#X obj 33 81 r /amb/businit;
#X obj 174 76 max 1;
#X text 97 129 reconstruct;
#X obj 174 54 r \$1/channels;
#X text 172 35 dyn set channel count;
#X obj 33 120 t b b;
#N canvas 201 486 362 410 \$0-dsp-tones 0;
#X obj 10 20 tones_osc~ MUSICIAN-0 TTs 0;
#X obj 10 40 tones_osc~ MUSICIAN-1 TTs 1;
#X obj 10 60 tones_osc~ MUSICIAN-2 TTs 2;
#X obj 10 80 tones_osc~ MUSICIAN-3 TTs 3;
#X obj 10 100 tones_osc~ MUSICIAN-4 TTs 4;
#X obj 10 120 tones_osc~ MUSICIAN-5 TTs 5;
#X obj 10 140 tones_osc~ MUSICIAN-6 TTs 6;
#X obj 10 160 tones_osc~ MUSICIAN-7 TTs 7;
#X obj 10 180 tones_osc~ MUSICIAN-8 TTs 8;
#X restore 33 53 pd \$0-dsp-tones;
#N canvas 722 694 450 300 init 0;
#X obj 231 61 bng 15 250 50 0 empty empty empty 17 7 0 10 -262144 -1
-1;
#X obj 103 85 list append \$1;
#X obj 103 58 inlet;
#X msg 103 107 \; \$1/pulse/on 0 \; \$1/pulse/time 500 \; \$1/sel 0
\; \$1/pitch 40 \; \$1/vol 60 \; \$1/pitch/step 1;
#X connect 0 0 1 0;
#X connect 1 0 3 0;
#X connect 2 0 1 0;
#X restore 31 244 pd init;
#X obj 43 218 s \$1/outname;
#X obj 344 137 loadbang;
#X obj 344 159 symbol 3;
#X obj 344 181 s \$1/outname;
#X obj 43 196 symbol \$3;
#X obj 211 214 table \$1-sweep;
#X obj 212 237 table \$1-tab;
#N canvas 879 108 681 248 tables-setup 0;
#X obj 44 58 loadbang;
#X obj 46 131 soundfiler;
#X obj 44 79 symbol \$1-sweep;
#X obj 111 56 bng 15 250 50 0 empty empty empty 17 7 0 10 -262144 -1
-1;
#X msg 46 110 read -resize sweep.wav \$1;
#X obj 46 178 s \$1/sweep/size;
#X obj 216 59 loadbang;
#X obj 218 139 soundfiler;
#X obj 283 57 bng 15 250 50 0 empty empty empty 17 7 0 10 -262144 -1
-1;
#X msg 218 111 read -resize tab.wav \$1;
#X obj 216 80 symbol \$1-tab;
#X obj 218 171 s \$1/tab/size;
#X obj 103 154 print \$1;
#X obj 371 67 r \$1/tab/load;
#X obj 371 92 list append \$1-tab;
#X msg 371 113 read -resize \$1 \$2;
#N canvas 1344 91 408 358 helper 0;
#X obj 42 161 bng 15 250 50 0 empty empty empty 17 7 0 10 -262144 -1
-1;
#X obj 44 185 symbol \$1-tab;
#X msg 44 208 write -wave tab.wav \$1;
#X obj 44 227 soundfiler;
#X text 56 25 -- make default tab helper ---;
#X text 68 248 test;
#X msg 61 270 symbol sweep.wav;
#X obj 252 163 noise~;
#X obj 350 188 bng 15 250 50 0 empty empty empty 17 7 0 10 -262144
-1 -1;
#X obj 252 184 bp~ 1000 500;
#X obj 251 250 tabwrite~ \$1-tab;
#X obj 252 121 s \$1-tab;
#X obj 255 331 s \$1-tab;
#X msg 248 287 normalize;
#X msg 253 93 resize 11050;
#X obj 59 296 s \$1-tab/load;
#X obj 52 114 s \$1-tab;
#X msg 56 54 resize 11050 \, TTS-tab sinesum 512 1 0;
#X connect 0 0 1 0;
#X connect 1 0 2 0;
#X connect 2 0 3 0;
#X connect 6 0 15 0;
#X connect 7 0 9 0;
#X connect 8 0 10 0;
#X connect 9 0 10 0;
#X connect 13 0 12 0;
#X connect 14 0 11 0;
#X connect 17 0 16 0;
#X restore 373 29 pd helper;
#X obj 540 62 r \$1/tab/vis;
#X msg 540 83 vis \$1;
#X obj 540 104 s pd-\$1-tab;
#X text 546 43 show tab;
#X text 543 127 read a tab;
#X obj 374 161 list append \$1-tab;
#X obj 374 136 r \$1/tab/save;
#X msg 374 182 write -wave \$1 \$2;
#X connect 0 0 2 0;
#X connect 1 0 5 0;
#X connect 1 1 12 0;
#X connect 2 0 4 0;
#X connect 3 0 2 0;
#X connect 4 0 1 0;
#X connect 6 0 10 0;
#X connect 7 0 11 0;
#X connect 8 0 10 0;
#X connect 9 0 7 0;
#X connect 10 0 9 0;
#X connect 13 0 14 0;
#X connect 14 0 15 0;
#X connect 15 0 7 0;
#X connect 17 0 18 0;
#X connect 18 0 19 0;
#X connect 22 0 24 0;
#X connect 23 0 22 0;
#X connect 24 0 7 0;
#X restore 211 192 pd tables-setup;
#N canvas 562 655 595 229 pulse 0;
#X obj 67 127 metro 500;
#X obj 17 128 sel 0;
#X obj 18 101 t f f;
#X msg 17 150 1;
#X obj 17 180 tgl 15 0 empty empty empty 17 7 0 10 -262144 -1 -1 1
1;
#X obj 176 73 spigot 0;
#X obj 176 94 sel 1;
#X obj 176 17 r \$1/pulse/amp;
#X obj 221 49 r \$1/seq/auto;
#X obj 176 115 s \$1/seq/next;
#X obj 17 207 s \$1/pulse/amp;
#X obj 84 96 r \$1/pulse/time;
#X obj 16 9 r \$1/pulse/on;
#X obj 310 49 i 0;
#X obj 310 16 r \$1/seq/next;
#X obj 355 48 + 1;
#X obj 310 100 s \$1/seq/nr;
#X obj 310 74 moses 6;
#X obj 405 93 t b;
#X obj 500 43 r \$1/offset;
#X obj 405 114 i 1;
#X obj 405 68 + 1;
#X obj 405 16 r \$1/channels;
#X obj 405 41 - 1;
#X obj 442 44 t b f;
#X obj 114 8 r \$1/on;
#X obj 14 45 i 0;
#X obj 111 58 sel 1;
#X obj 15 72 && 0;
#X obj 114 31 t f f;
#X connect 0 0 4 0;
#X connect 1 0 3 0;
#X connect 2 0 1 0;
#X connect 2 1 0 0;
#X connect 3 0 4 0;
#X connect 4 0 10 0;
#X connect 5 0 6 0;
#X connect 6 0 9 0;
#X connect 7 0 5 0;
#X connect 8 0 5 1;
#X connect 11 0 0 1;
#X connect 12 0 26 0;
#X connect 13 0 15 0;
#X connect 13 0 17 0;
#X connect 14 0 13 0;
#X connect 15 0 13 1;
#X connect 17 0 16 0;
#X connect 17 1 18 0;
#X connect 17 1 16 0;
#X connect 18 0 20 0;
#X connect 19 0 20 1;
#X connect 19 0 24 0;
#X connect 20 0 13 1;
#X connect 21 0 17 1;
#X connect 22 0 23 0;
#X connect 23 0 21 0;
#X connect 24 0 21 0;
#X connect 24 1 21 1;
#X connect 25 0 29 0;
#X connect 26 0 28 0;
#X connect 27 0 26 0;
#X connect 27 1 2 0;
#X connect 28 0 2 0;
#X connect 29 0 27 0;
#X connect 29 1 28 1;
#X restore 213 171 pd pulse sequence;
#X obj 487 78 bng 15 250 50 0 empty empty empty 17 7 0 10 -262144 -1
-1;
#X obj 480 175 acre/arg_default 1 \$4;
#X obj 421 80 loadbang;
#X obj 421 126 sel test-0;
#X msg 420 147 0;
#X obj 482 154 t b;
#X obj 421 105 symbol test-\$4;
#X text 36 7 amb/bus/tones~ <id> <nr channels> <out receives> [start
channel \, default 1], f 77;
#X obj 477 244 s \$1/offset;
#X obj 476 221 max 0;
#X connect 2 0 1 0;
#X connect 4 0 12 0;
#X connect 5 0 3 2;
#X connect 7 0 12 0;
#X connect 8 0 3 1;
#X connect 10 0 8 0;
#X connect 12 0 14 0;
#X connect 12 0 19 0;
#X connect 12 1 3 0;
#X connect 16 0 17 0;
#X connect 17 0 18 0;
#X connect 19 0 15 0;
#X connect 24 0 30 0;
#X connect 25 0 33 0;
#X connect 26 0 30 0;
#X connect 27 0 28 0;
#X connect 27 1 29 0;
#X connect 28 0 33 0;
#X connect 29 0 25 0;
#X connect 30 0 27 0;
#X connect 33 0 32 0;
