#N canvas 1285 61 450 375 10;
#X obj 40 133 ds/register_map \$1 \$2/sel;
#X obj 42 159 ds/register_map \$1 \$2/mute;
#X obj 42 179 ds/register_map \$1 \$2/vol;
#X obj 42 201 ds/register_map \$1 \$2/pulse/on;
#X obj 46 227 ds/register_map \$1 \$2/pulse/time;
#X obj 38 33 # ds/register_map \$1 \$2/on;
#X text 34 52 should not be stored by default;
#X text 230 35 copy to your patch an uncomment;
#X text 35 309 (c) GPL \, acre winfried ritsch;
#X obj 38 85 ds/register_map \$1 \$2/pitch;
#X obj 38 105 ds/register_map \$1 \$2/pitch/step;
#X text 38 6 amb/bus/tones_ds <domain> <id>;
#X obj 46 254 ds/register_map \$1 \$2/seq/auto;
#X obj 43 282 ds/register_map \$1 \$2/seq/nr;
