#N canvas 19 342 510 476 10;
#X obj 27 172 noise~;
#X obj 29 134 osc~ 220;
#X obj 57 287 *~;
#X obj 349 261 line~;
#X obj 349 238 pack 0 3;
#X obj 57 330 *~;
#X obj 105 370 line~;
#X obj 105 349 pack 0 100;
#X obj 173 326 r /mxr/fadetime;
#X msg 314 362 0 3;
#X obj 290 339 sel 0 1;
#X obj 113 142 phasor~;
#X obj 113 164 -~ 0.5;
#X obj 113 186 *~ 2;
#X obj 105 327 dbtorms;
#X text 154 427 (c) GPL \, acre - winfried ritsch;
#X obj 31 98 mtof;
#X obj 31 76 + \$3;
#X obj 56 423 throw~ \$1~;
#X obj 287 310 r \$2/mute;
#X obj 31 50 r \$2/pitch;
#X obj 106 305 r \$2/vol;
#X obj 58 214 r \$2/sel;
#X obj 127 78 * \$3;
#X obj 127 56 r \$2/pitch/step;
#X obj 248 38 r \$2/seq/nr;
#X obj 248 100 == \$3;
#X obj 248 121 sel 1 0;
#X obj 57 261 mux~ . . . . .;
#X obj 357 206 &&;
#X obj 248 78 i \$3;
#X obj 118 221 tabplay~ \$2-sweep;
#X obj 138 242 tabplay~ \$2-tab;
#X obj 363 113 r \$2/pulse/amp;
#X obj 248 57 sel -1;
#X text 291 56 -1 for all channels;
#X text 36 7 mxr/test/tones_osc~ <send id> <id> <channel nr>;
#X obj 399 336 env~;
#X floatatom 399 359 5 0 0 0 - - -;
#X connect 0 0 28 0;
#X connect 1 0 28 1;
#X connect 2 0 5 0;
#X connect 3 0 2 1;
#X connect 4 0 3 0;
#X connect 5 0 18 0;
#X connect 5 0 37 0;
#X connect 6 0 5 1;
#X connect 7 0 6 0;
#X connect 8 0 7 1;
#X connect 9 0 6 0;
#X connect 10 0 7 0;
#X connect 10 1 9 0;
#X connect 11 0 12 0;
#X connect 12 0 13 0;
#X connect 13 0 28 2;
#X connect 14 0 7 0;
#X connect 16 0 1 0;
#X connect 16 0 11 0;
#X connect 17 0 16 0;
#X connect 19 0 10 0;
#X connect 20 0 17 0;
#X connect 21 0 14 0;
#X connect 22 0 28 0;
#X connect 23 0 17 1;
#X connect 24 0 23 0;
#X connect 25 0 34 0;
#X connect 26 0 27 0;
#X connect 26 0 4 0;
#X connect 26 0 29 1;
#X connect 27 0 31 0;
#X connect 27 0 32 0;
#X connect 28 0 2 0;
#X connect 29 0 4 0;
#X connect 29 0 27 0;
#X connect 30 0 26 0;
#X connect 31 0 28 3;
#X connect 32 0 28 4;
#X connect 33 0 29 0;
#X connect 34 0 30 0;
#X connect 34 1 26 0;
#X connect 37 0 38 0;
