#N canvas 749 336 448 439 10;
#X obj 318 152 bng 15 250 50 0 empty empty clear 17 7 0 10 -262144
-1 -1;
#X text 315 137 before save !;
#X obj 292 115 r /amb/encinit;
#N canvas 1540 354 788 669 contruct-playbus 0;
#X msg 220 68 clear;
#X obj 174 261 t f f b;
#X obj 38 295 t f f;
#X obj 41 15 inlet;
#X obj 36 353 pack 0 1;
#X obj 38 127 acre/count_until;
#X obj 40 40 t f f b;
#X obj 38 273 * 1;
#X msg 173 411 obj \$1 \$2 throw~ \$4-\$3~;
#X obj 174 385 pack 70 10 1 s;
#X obj 175 305 t f f;
#X obj 174 358 + 10;
#X obj 174 282 - 1;
#X obj 209 336 * 20;
#X obj 40 247 + -1;
#X obj 174 336 * 10;
#X obj 38 150 t f f;
#X obj 438 79 f \$0;
#X obj 402 98 f \$0;
#X obj 322 16 inlet;
#X msg 464 107 obj 10 5 r \$1-player;
#X obj 37 469 s pd-\$0-player;
#X obj 362 548 s pd-\$0-player;
#X obj 220 88 s pd-\$0-player;
#X msg 378 287 obj 10 30 readsf~ 8 \, f 16;
#X msg 7 15 24;
#X obj 379 207 t b f f;
#X obj 442 209 * 2;
#X obj 414 234 pack 24 48;
#X msg 412 261 set obj 10 30 readsf~ \$1 \, addcomma \, add2 f \$2
;
#X msg 9 46 5;
#X msg 8 94 48;
#X obj 369 58 t f f b b;
#X msg 9 72 16;
#X obj 252 335 symbol \$3;
#X obj 423 350 acre/count_until;
#X obj 368 310 t f b b f b;
#X msg 423 372 add2 0;
#X msg 406 392 add2 200;
#X obj 209 358 + 90;
#X msg 393 423 obj 10 60 multiline~ 0 0 0 0 0 0 0 0 200;
#X msg 442 332 set obj 10 60 multiline~;
#X msg 37 438 connect 5 \$1 \$2 0 \, connect 4 \$1 5 \$1;
#X obj 70 319 + 6;
#X msg 360 514 connect 0 0 4 0 \, connect 4 \$1 1 0 \, connect 2 0
5 \$1 \, connect 5 0 3 0;
#X msg 404 131 obj 300 5 s \$1-fromplayer \, obj 500 5 r \$1-gain \,
obj 175 5 throw~ \$1-ch1;
#X connect 0 0 23 0;
#X connect 1 0 12 0;
#X connect 1 1 9 2;
#X connect 1 2 34 0;
#X connect 2 0 4 0;
#X connect 2 1 43 0;
#X connect 3 0 6 0;
#X connect 4 0 42 0;
#X connect 5 0 16 0;
#X connect 6 0 5 0;
#X connect 6 1 32 0;
#X connect 6 2 0 0;
#X connect 7 0 2 0;
#X connect 8 0 21 0;
#X connect 9 0 8 0;
#X connect 10 0 15 0;
#X connect 10 1 13 0;
#X connect 11 0 9 0;
#X connect 12 0 10 0;
#X connect 13 0 39 0;
#X connect 14 0 7 0;
#X connect 15 0 11 0;
#X connect 16 0 14 0;
#X connect 16 1 1 0;
#X connect 17 0 20 0;
#X connect 18 0 45 0;
#X connect 19 0 0 0;
#X connect 20 0 22 0;
#X connect 24 0 22 0;
#X connect 25 0 6 0;
#X connect 26 0 24 0;
#X connect 26 1 28 0;
#X connect 26 2 27 0;
#X connect 27 0 28 1;
#X connect 28 0 29 0;
#X connect 29 0 24 0;
#X connect 30 0 6 0;
#X connect 31 0 6 0;
#X connect 32 0 36 0;
#X connect 32 1 26 0;
#X connect 32 2 18 0;
#X connect 32 3 17 0;
#X connect 33 0 6 0;
#X connect 34 0 9 3;
#X connect 35 0 37 0;
#X connect 36 0 44 0;
#X connect 36 1 40 0;
#X connect 36 2 38 0;
#X connect 36 3 35 0;
#X connect 36 4 41 0;
#X connect 37 0 40 0;
#X connect 38 0 40 0;
#X connect 39 0 9 1;
#X connect 40 0 22 0;
#X connect 41 0 40 0;
#X connect 42 0 21 0;
#X connect 43 0 4 1;
#X connect 44 0 22 0;
#X connect 45 0 22 0;
#X restore 278 169 pd contruct-playbus;
#X obj 365 91 bng 15 250 50 0 empty empty empty 17 7 0 10 -262144 -1
-1;
#X obj 30 226 s \$0-player;
#N canvas 219 61 594 393 \$0-player 0;
#X restore 30 56 pd \$0-player;
#X obj 120 127 openpanel;
#X obj 30 126 t b b;
#X msg 30 148 1;
#X obj 30 104 sel 1 0;
#X msg 67 161 0;
#X obj 30 248 r \$0-fromplayer;
#X obj 278 141 f \$2;
#X obj 120 106 route bang symbol, f 21;
#X text 39 385 (c) GPL \, acre - winfried ritsch;
#X obj 274 43 switch~;
#N canvas 7 208 250 273 on+gain 0;
#X obj 37 64 t b b;
#X msg 67 84 0;
#X msg 37 154 0;
#X obj 37 43 select 0;
#X obj 88 63 t f f;
#X obj 37 130 del 60;
#X obj 67 108 f;
#X obj 98 178 f 0;
#X obj 98 134 sel 1;
#X obj 139 157 dbtorms;
#X msg 99 210 \$1;
#X obj 37 17 r \$1/on;
#X obj 140 133 r \$1/gain;
#X obj 37 178 outlet;
#X obj 98 237 outlet;
#X connect 0 0 5 0;
#X connect 0 1 1 0;
#X connect 1 0 6 0;
#X connect 2 0 13 0;
#X connect 3 0 0 0;
#X connect 3 1 4 0;
#X connect 4 0 6 0;
#X connect 4 1 13 0;
#X connect 5 0 2 0;
#X connect 6 0 8 0;
#X connect 7 0 10 0;
#X connect 8 0 7 0;
#X connect 8 1 10 0;
#X connect 9 0 7 0;
#X connect 10 0 14 0;
#X connect 11 0 3 0;
#X connect 12 0 9 0;
#X restore 274 15 pd on+gain;
#X obj 331 44 s \$0-gain;
#X obj 138 307 prvu~;
#X obj 138 329 s \$1/vu;
#X obj 120 83 r \$1/open;
#X obj 30 82 r \$1/play;
#N canvas 1224 467 325 188 init 0;
#X msg 30 78 symbol ../data/franzAmbi.wav;
#X obj 33 48 loadbang;
#X obj 30 100 s \$1/open;
#X connect 0 0 2 0;
#X connect 1 0 0 0;
#X restore 138 54 pd init;
#X obj 30 270 s \$1/played;
#X obj 256 213 r \$1/played;
#X obj 256 235 spigot;
#X obj 256 257 t b;
#X msg 256 279 1;
#X obj 256 301 s \$1/play;
#X obj 345 215 r \$1/loop;
#X text 306 265 Loop;
#X obj 138 285 catch~ \$0-ch1;
#X text 135 243 dummy throw;
#X obj 138 263 throw~ \$0-ch1;
#X text 30 5 amb/sf/player~ <id> <channels> <bus ID>;
#X obj 278 89 r \$1/channels;
#X obj 120 193 symbol default.wav;
#X msg 120 219 open \$1;
#X obj 120 151 s \$1/filename;
#X obj 120 169 r \$1/filename;
#X text 277 70 dont save channels;
#X connect 0 0 3 1;
#X connect 2 0 13 0;
#X connect 4 0 13 0;
#X connect 7 0 39 0;
#X connect 8 0 9 0;
#X connect 8 1 37 0;
#X connect 9 0 5 0;
#X connect 10 0 8 0;
#X connect 10 1 11 0;
#X connect 11 0 5 0;
#X connect 12 0 24 0;
#X connect 13 0 3 0;
#X connect 14 0 7 0;
#X connect 14 1 39 0;
#X connect 17 0 16 0;
#X connect 17 1 18 0;
#X connect 19 0 20 0;
#X connect 21 0 14 0;
#X connect 22 0 10 0;
#X connect 25 0 26 0;
#X connect 26 0 27 0;
#X connect 27 0 28 0;
#X connect 28 0 29 0;
#X connect 30 0 26 1;
#X connect 32 0 19 0;
#X connect 36 0 13 0;
#X connect 37 0 38 0;
#X connect 38 0 5 0;
#X connect 40 0 37 0;
