#N canvas 699 107 599 439 10;
#X obj 401 133 bng 15 250 50 0 empty empty clear 17 7 0 10 -262144
-1 -1;
#X text 422 121 before save !;
#X obj 336 34 r /amb/encinit;
#X obj 362 58 bng 15 250 50 0 empty empty empty 17 7 0 10 -262144 -1
-1;
#X obj 30 126 t b b;
#X obj 30 104 sel 1 0;
#X obj 322 60 f \$2;
#X obj 323 8 inlet channels;
#X obj 119 131 route bang symbol, f 21;
#X msg 118 175 set open \$1 \, bang;
#X text 250 173 bang for preload;
#X text 39 385 (c) GPL \, acre - winfried ritsch;
#X obj 355 348 switch~;
#N canvas 7 205 250 273 on+gain 0;
#X obj 37 64 t b b;
#X msg 67 84 0;
#X msg 37 154 0;
#X obj 37 43 select 0;
#X obj 88 63 t f f;
#X obj 37 130 del 60;
#X obj 67 108 f;
#X obj 98 178 f 0;
#X obj 98 134 sel 1;
#X obj 139 157 dbtorms;
#X msg 99 210 \$1;
#X obj 37 17 r \$1/on;
#X obj 140 133 r \$1/gain;
#X obj 37 178 outlet;
#X obj 98 237 outlet;
#X connect 0 0 5 0;
#X connect 0 1 1 0;
#X connect 1 0 6 0;
#X connect 2 0 13 0;
#X connect 3 0 0 0;
#X connect 3 1 4 0;
#X connect 4 0 6 0;
#X connect 4 1 13 0;
#X connect 5 0 2 0;
#X connect 6 0 8 0;
#X connect 7 0 10 0;
#X connect 8 0 7 0;
#X connect 8 1 10 0;
#X connect 9 0 7 0;
#X connect 10 0 14 0;
#X connect 11 0 3 0;
#X connect 12 0 9 0;
#X restore 356 315 pd on+gain;
#X obj 404 348 s \$0-gain;
#X obj 479 312 prvu~;
#X obj 479 334 s \$1/vu;
#X obj 118 106 r \$1/open;
#N canvas 1224 575 325 188 init 0;
#X obj 33 48 loadbang;
#X obj 30 100 s \$1/open;
#X msg 30 78 symbol /tmp/rec.wav;
#X connect 0 0 2 0;
#X connect 2 0 1 0;
#X restore 133 56 pd init;
#X obj 30 270 s \$1/played;
#X text 58 327 Note: first simple implementation...;
#X text 58 343 TODO: filename storage \, playlist;
#X obj 479 290 catch~ \$0-ch1;
#X text 476 248 dummy throw;
#X obj 479 268 throw~ \$0-ch1;
#X text 30 5 amb/sf/recorder~ <id> <channels> <receives ID>;
#N canvas 1248 476 492 494 \$0-recorder 0;
#X restore 30 56 pd \$0-recorder;
#N canvas 971 380 788 669 contruct-recorder 0;
#X msg 220 68 clear;
#X obj 174 261 t f f b;
#X obj 38 295 t f f;
#X obj 41 15 inlet;
#X obj 36 353 pack 0 1;
#X obj 38 127 acre/count_until;
#X obj 40 40 t f f b;
#X obj 38 273 * 1;
#X obj 174 385 pack 70 10 1 s;
#X obj 175 305 t f f;
#X obj 174 282 - 1;
#X obj 209 336 * 20;
#X obj 40 247 + -1;
#X obj 38 150 t f f;
#X obj 322 16 inlet;
#X msg 7 15 24;
#X obj 379 207 t b f f;
#X msg 9 46 5;
#X msg 8 94 48;
#X msg 9 72 16;
#X obj 252 335 symbol \$3;
#X obj 419 399 acre/count_until;
#X msg 419 421 add2 0;
#X msg 402 441 add2 200;
#X obj 70 319 + 6;
#X obj 362 548 s pd-\$0-recorder;
#X obj 37 469 s pd-\$0-recorder;
#X obj 220 88 s pd-\$0-recorder;
#X msg 378 287 obj 10 230 writesf~ 7 \, f 21;
#X msg 173 411 obj \$1 \$2 r~ \$4-\$3~;
#X msg 37 438 connect \$2 0 5 \$1 \, connect 5 \$1 4 \$1;
#X msg 389 472 obj 10 200 multiline~ 0 0 0 0 0 0 0 200;
#X msg 360 514 connect 0 0 4 0 \, connect 2 0 5 \$1 \, connect 5 0
3 0;
#X obj 368 310 t f b b f f;
#X obj 448 354 + 60;
#X msg 437 381 set obj 10 \$1 multiline~;
#X obj 448 333 * 20;
#X obj 174 336 * 15;
#X obj 494 193 * 20;
#X obj 414 234 pack 24 48 60;
#X msg 412 261 set obj 10 \$3 writesf~ \$1 \, addcomma \, add2 f \$2
;
#X obj 494 214 + 90;
#X obj 442 209 * 3;
#X obj 490 81 pack \$0 120;
#X obj 460 20 * 20;
#X obj 369 58 t f f b b f;
#X obj 460 41 + 120;
#X msg 490 107 obj 15 \$2 r \$1-recorder;
#X obj 402 98 pack \$0 120;
#X msg 404 131 obj 300 \$2 s \$1-to \, obj 300 10 r \$1-gain \, obj
175 \$2 throw~ \$1-ch1;
#X obj 174 358 + 10;
#X obj 209 358 + 10;
#X connect 0 0 27 0;
#X connect 1 0 10 0;
#X connect 1 1 8 2;
#X connect 1 2 20 0;
#X connect 2 0 4 0;
#X connect 2 1 24 0;
#X connect 3 0 6 0;
#X connect 4 0 30 0;
#X connect 5 0 13 0;
#X connect 6 0 5 0;
#X connect 6 1 45 0;
#X connect 6 2 0 0;
#X connect 7 0 2 0;
#X connect 8 0 29 0;
#X connect 9 0 37 0;
#X connect 9 1 11 0;
#X connect 10 0 9 0;
#X connect 11 0 51 0;
#X connect 12 0 7 0;
#X connect 13 0 12 0;
#X connect 13 1 1 0;
#X connect 14 0 0 0;
#X connect 15 0 6 0;
#X connect 16 0 28 0;
#X connect 16 1 39 0;
#X connect 16 2 38 0;
#X connect 16 2 42 0;
#X connect 17 0 6 0;
#X connect 18 0 6 0;
#X connect 19 0 6 0;
#X connect 20 0 8 3;
#X connect 21 0 22 0;
#X connect 22 0 31 0;
#X connect 23 0 31 0;
#X connect 24 0 4 1;
#X connect 28 0 25 0;
#X connect 29 0 26 0;
#X connect 30 0 26 0;
#X connect 31 0 25 0;
#X connect 32 0 25 0;
#X connect 33 0 32 0;
#X connect 33 1 31 0;
#X connect 33 2 23 0;
#X connect 33 3 21 0;
#X connect 33 4 36 0;
#X connect 34 0 35 0;
#X connect 35 0 31 0;
#X connect 36 0 34 0;
#X connect 37 0 50 0;
#X connect 38 0 41 0;
#X connect 39 0 40 0;
#X connect 40 0 28 0;
#X connect 41 0 39 2;
#X connect 42 0 39 1;
#X connect 43 0 47 0;
#X connect 44 0 46 0;
#X connect 45 0 33 0;
#X connect 45 1 16 0;
#X connect 45 2 48 0;
#X connect 45 3 43 0;
#X connect 45 4 44 0;
#X connect 46 0 43 1;
#X connect 46 0 48 1;
#X connect 47 0 25 0;
#X connect 48 0 49 0;
#X connect 49 0 25 0;
#X connect 50 0 8 0;
#X connect 51 0 8 1;
#X restore 299 153 pd contruct-recorder;
#X obj 30 82 r \$1/rec;
#X msg 30 149 start;
#X msg 49 185 stop;
#X obj 30 226 s \$0-recorder;
#X obj 30 248 r \$0-to;
#X text 77 252 does not work;
#X obj 118 153 savepanel;
#X msg 118 200 open /tmp/rec.wav;
#N canvas 988 432 528 248 timer 0;
#X obj 53 188 timer;
#X obj 53 38 r \$0-recorder;
#X obj 53 59 route start stop;
#X obj 53 139 t b b;
#X msg 98 141 1;
#X obj 136 141 metro 1000;
#X obj 96 91 t b b;
#X msg 144 109 0;
#X obj 54 222 s \$1/time;
#X obj 266 39 r \$1/time;
#X obj 266 60 * 0.001;
#X obj 266 81 int;
#X obj 266 102 mod 60;
#X msg 66 9 start;
#X msg 123 7 stop;
#X obj 310 102 / 60;
#X obj 310 123 mod 60;
#X obj 408 99 mod 1000;
#X obj 408 120 change;
#X obj 310 145 change;
#X obj 355 101 / 60;
#X obj 355 122 mod 60;
#X obj 355 144 change;
#X obj 355 163 s \$1/time/h;
#X obj 310 183 s \$1/time/m;
#X obj 266 202 s \$1/time/s;
#X obj 408 142 s \$1/time/ms;
#X connect 0 0 8 0;
#X connect 1 0 2 0;
#X connect 2 0 3 0;
#X connect 2 1 6 0;
#X connect 3 0 0 1;
#X connect 3 0 4 0;
#X connect 3 1 0 0;
#X connect 4 0 5 0;
#X connect 5 0 0 1;
#X connect 6 0 0 1;
#X connect 6 1 7 0;
#X connect 7 0 5 0;
#X connect 9 0 10 0;
#X connect 9 0 17 0;
#X connect 10 0 11 0;
#X connect 11 0 12 0;
#X connect 11 0 15 0;
#X connect 12 0 25 0;
#X connect 13 0 2 0;
#X connect 14 0 2 0;
#X connect 15 0 16 0;
#X connect 15 0 20 0;
#X connect 16 0 19 0;
#X connect 17 0 18 0;
#X connect 18 0 26 0;
#X connect 19 0 24 0;
#X connect 20 0 21 0;
#X connect 21 0 22 0;
#X connect 22 0 23 0;
#X restore 191 55 pd timer;
#X obj 322 102 s \$1/channels;
#X obj 322 81 max 1;
#X obj 298 130 r \$1/channels;
#X obj 211 251 acre/filename_shorten 16;
#X obj 211 272 s \$1/fname;
#X connect 0 0 27 1;
#X connect 2 0 6 0;
#X connect 3 0 6 0;
#X connect 4 0 29 0;
#X connect 4 1 35 0;
#X connect 5 0 4 0;
#X connect 5 1 30 0;
#X connect 6 0 38 0;
#X connect 7 0 6 0;
#X connect 8 0 34 0;
#X connect 8 1 9 0;
#X connect 8 1 40 0;
#X connect 9 0 35 0;
#X connect 13 0 12 0;
#X connect 13 1 14 0;
#X connect 15 0 16 0;
#X connect 17 0 8 0;
#X connect 22 0 15 0;
#X connect 28 0 5 0;
#X connect 29 0 31 0;
#X connect 30 0 31 0;
#X connect 32 0 19 0;
#X connect 34 0 9 0;
#X connect 34 0 40 0;
#X connect 35 0 31 0;
#X connect 38 0 37 0;
#X connect 39 0 27 0;
#X connect 40 0 41 0;
