#N canvas 860 112 448 278 10;
#X obj 11 11 cnv 15 98 198 empty empty \$1 2 10 0 12 -204786 -66577
0;
#X obj 14 27 tgl 20 0 \$1/on \$1/on ON 2 10 0 14 -4034 -1 -1 0 1;
#X obj 12 107 cnv 2 40 2 empty empty empty 20 12 0 14 -1 -66577 0;
#X obj 14 62 vsl 30 110 0 130 0 0 \$1/fad \$1/fad empty 1 140 0 8 -233017
-1 -1 0 1;
#X obj 136 77 mxr/fader/db2;
#X obj 136 163 mxr/fader/db;
#X msg 136 99 set \$1;
#X obj 136 121 s \$1/fad;
#X obj 137 144 r \$1/fad;
#X obj 50 78 vu 15 80 \$1/vu empty -1 -8 0 10 -66577 -1 1 0;
#X obj 138 50 r \$1/gain;
#X obj 136 183 s \$1/gain;
#X obj 44 161 nbx 3 14 -1e+37 1e+37 0 0 \$1/gain \$1/gain empty 0 -8
0 10 -262144 -1 -1 0 256;
#X text 122 17 amb/player/ctl <ID>;
#X obj 68 41 tgl 30 0 \$1/rec \$1/rec rec 1 15 0 12 -258113 -1 -1 0
1;
#X obj 68 25 bng 15 250 50 0 \$1/open empty open 17 7 0 10 -4032 -1
-1;
#X obj 13 199 nbx 2 10 -1e+37 1e+37 0 0 \$1/time/h \$1/time/h h 16
-4 0 8 -204786 -1 -1 0 256;
#X obj 35 199 nbx 2 10 -1e+37 1e+37 0 0 \$1/time/m \$1/time/m m 16
-4 0 8 -204786 -1 -1 0 256;
#X obj 57 199 nbx 2 10 -1e+37 1e+37 0 0 \$1/time/s \$1/time/s s 16
-4 0 8 -204786 -1 -1 0 256;
#X obj 79 199 nbx 3 10 -1e+37 1e+37 0 0 \$1/time/ms \$1/time/ms ms
16 -4 0 8 -204786 -1 -1 0 256;
#X obj 39 37 nbx 2 10 -1e+37 1e+37 0 0 \$1/channels \$1/channels chans
0 -4 0 8 -262144 -1 -1 18 256;
#X symbolatom 11 177 16 0 0 0 - #1/fname -, f 16;
#X connect 4 0 6 0;
#X connect 5 0 11 0;
#X connect 6 0 7 0;
#X connect 8 0 5 0;
#X connect 10 0 4 0;
#X coords 0 -1 1 1 100 200 2 10 10;
