#N canvas 78 182 539 402 10;
#N canvas 1412 529 421 296 contruct-outs 0;
#X msg 160 90 clear;
#X obj 81 15 bng 15 250 50 0 empty empty empty 17 7 0 10 -262144 -1
-1;
#X obj 37 15 inlet;
#X obj 160 114 s pd-\$0-dsp-outs;
#X obj 37 267 s pd-\$0-dsp-outs;
#X obj 111 160 symbol \$3;
#X obj 37 136 t f f b;
#X obj 37 160 * 20;
#X obj 160 16 inlet;
#X obj 37 40 i \$2;
#X obj 37 66 t f b;
#X obj 37 115 acre/count_until;
#X obj 240 18 loadbang;
#X obj 240 84 - 1;
#X obj 240 62 max 1;
#X obj 74 161 + 0;
#X text 268 86 out offset;
#X obj 240 40 i \$5;
#X obj 37 199 pack 10 1 s;
#X obj 37 222 list append \$4;
#X msg 38 247 obj 10 \$1 amb/out~ \$3-\$2 \$4;
#X connect 0 0 3 0;
#X connect 1 0 9 1;
#X connect 2 0 9 0;
#X connect 5 0 18 2;
#X connect 6 0 7 0;
#X connect 6 1 15 0;
#X connect 6 2 5 0;
#X connect 7 0 18 0;
#X connect 8 0 0 0;
#X connect 9 0 10 0;
#X connect 10 0 11 0;
#X connect 10 1 0 0;
#X connect 11 0 6 0;
#X connect 12 0 17 0;
#X connect 13 0 15 1;
#X connect 14 0 13 0;
#X connect 15 0 18 1;
#X connect 17 0 14 0;
#X connect 18 0 19 0;
#X connect 19 0 20 0;
#X connect 20 0 4 0;
#X restore 65 163 pd contruct-outs;
#N canvas 88 213 241 521 \$0-dsp-outs 0;
#X restore 33 33 pd \$0-dsp-outs;
#X obj 53 80 bng 15 250 50 0 empty empty empty 17 7 0 10 -262144 -1
-1;
#X obj 166 137 bng 15 250 50 0 empty empty empty 17 7 0 10 -262144
-1 -1;
#X text 185 137 clear before save !;
#X obj 33 61 r /amb/businit;
#X obj 174 86 max 1;
#X text 71 83 reconstruct;
#X obj 174 64 r \$1/channels;
#X text 172 45 dyn set channel count;
#X text 33 361 (c) GPL - acre \, ritsch;
#X obj 33 100 t b b;
#X obj 37 194 acre/count_until \$2;
#X obj 9 147 bng 15 250 50 0 empty empty empty 17 7 0 10 -262144 -1
-1;
#X obj 41 279 pack 0 s;
#X obj 39 219 t f b;
#X obj 83 244 symbol \$3;
#X text 33 11 amb/outs~ <ID> <nr channels> <ID out receives> <master
id> [out offset], f 73;
#X msg 36 307 \; \$2-\$1/vol 100 \; \$2-\$1/del 0;
#X connect 2 0 11 0;
#X connect 3 0 0 1;
#X connect 5 0 11 0;
#X connect 6 0 0 0;
#X connect 8 0 6 0;
#X connect 11 0 12 0;
#X connect 11 1 0 0;
#X connect 12 0 15 0;
#X connect 13 0 12 0;
#X connect 14 0 18 0;
#X connect 15 0 14 0;
#X connect 15 1 16 0;
#X connect 16 0 14 1;
