#N canvas 338 240 468 233 10;
#X obj 31 74 bng 15 250 50 0 empty empty empty 17 7 0 10 -262144 -1
-1;
#X obj 126 142 bng 15 250 50 0 empty empty empty 17 7 0 10 -262144
-1 -1;
#X text 145 142 clear before save !;
#X obj 16 54 r /amb/businit;
#X obj 77 116 max 1;
#X text 123 119 dyn set nr of channels;
#X text 51 71 reconstruct;
#X obj 77 94 r \$1/number;
#X text 21 185 (c) GPL - acre \, ritsch;
#X text 163 97 Be carfully some system go crazy with this;
#X obj 16 97 t b;
#X text 13 1 amb/bus/dacs~ <ID> <nr channels> <ID out receives> [dac
offset], f 63;
#N canvas 87 232 680 239 \$0-adcs 0;
#X obj 0 10 adc~ 1;
#X obj 0 50 throw~ AMBI-1~;
#X obj 80 10 adc~ 2;
#X obj 80 30 throw~ AMBI-2~;
#X obj 160 10 adc~ 3;
#X obj 160 50 throw~ AMBI-3~;
#X obj 240 10 adc~ 4;
#X obj 240 30 throw~ AMBI-4~;
#X obj 320 10 adc~ 5;
#X obj 320 50 throw~ AMBI-5~;
#X obj 400 10 adc~ 6;
#X obj 400 30 throw~ AMBI-6~;
#X obj 480 10 adc~ 7;
#X obj 480 50 throw~ AMBI-7~;
#X obj 560 10 adc~ 8;
#X obj 560 30 throw~ AMBI-8~;
#X obj 0 90 adc~ 9;
#X obj 0 130 throw~ AMBI-9~;
#X obj 80 90 adc~ 10;
#X obj 80 110 throw~ AMBI-10~;
#X obj 160 90 adc~ 11;
#X obj 160 130 throw~ AMBI-11~;
#X obj 240 90 adc~ 12;
#X obj 240 110 throw~ AMBI-12~;
#X obj 320 90 adc~ 13;
#X obj 320 130 throw~ AMBI-13~;
#X obj 400 90 adc~ 14;
#X obj 400 110 throw~ AMBI-14~;
#X obj 480 90 adc~ 15;
#X obj 480 130 throw~ AMBI-15~;
#X obj 560 90 adc~ 16;
#X obj 560 110 throw~ AMBI-16~;
#X obj 0 170 adc~ 17;
#X obj 0 210 throw~ AMBI-17~;
#X obj 80 170 adc~ 18;
#X obj 80 190 throw~ AMBI-18~;
#X obj 160 170 adc~ 19;
#X obj 160 210 throw~ AMBI-19~;
#X obj 240 170 adc~ 20;
#X obj 240 190 throw~ AMBI-20~;
#X obj 320 170 adc~ 21;
#X obj 320 210 throw~ AMBI-21~;
#X obj 400 170 adc~ 22;
#X obj 400 190 throw~ AMBI-22~;
#X obj 480 170 adc~ 23;
#X obj 480 210 throw~ AMBI-23~;
#X obj 560 170 adc~ 24;
#X obj 560 190 throw~ AMBI-24~;
#X obj 0 250 adc~ 25;
#X obj 0 290 throw~ AMBI-25~;
#X obj 80 250 adc~ 26;
#X obj 80 270 throw~ AMBI-26~;
#X obj 160 250 adc~ 27;
#X obj 160 290 throw~ AMBI-27~;
#X obj 240 250 adc~ 28;
#X obj 240 270 throw~ AMBI-28~;
#X obj 320 250 adc~ 29;
#X obj 320 290 throw~ AMBI-29~;
#X obj 400 250 adc~ 30;
#X obj 400 270 throw~ AMBI-30~;
#X obj 480 250 adc~ 31;
#X obj 480 290 throw~ AMBI-31~;
#X obj 560 250 adc~ 32;
#X obj 560 270 throw~ AMBI-32~;
#X obj 0 330 adc~ 33;
#X obj 0 370 throw~ AMBI-33~;
#X obj 80 330 adc~ 34;
#X obj 80 350 throw~ AMBI-34~;
#X obj 160 330 adc~ 35;
#X obj 160 370 throw~ AMBI-35~;
#X obj 240 330 adc~ 36;
#X obj 240 350 throw~ AMBI-36~;
#X connect 0 0 1 0;
#X connect 2 0 3 0;
#X connect 4 0 5 0;
#X connect 6 0 7 0;
#X connect 8 0 9 0;
#X connect 10 0 11 0;
#X connect 12 0 13 0;
#X connect 14 0 15 0;
#X connect 16 0 17 0;
#X connect 18 0 19 0;
#X connect 20 0 21 0;
#X connect 22 0 23 0;
#X connect 24 0 25 0;
#X connect 26 0 27 0;
#X connect 28 0 29 0;
#X connect 30 0 31 0;
#X connect 32 0 33 0;
#X connect 34 0 35 0;
#X connect 36 0 37 0;
#X connect 38 0 39 0;
#X connect 40 0 41 0;
#X connect 42 0 43 0;
#X connect 44 0 45 0;
#X connect 46 0 47 0;
#X connect 48 0 49 0;
#X connect 50 0 51 0;
#X connect 52 0 53 0;
#X connect 54 0 55 0;
#X connect 56 0 57 0;
#X connect 58 0 59 0;
#X connect 60 0 61 0;
#X connect 62 0 63 0;
#X connect 64 0 65 0;
#X connect 66 0 67 0;
#X connect 68 0 69 0;
#X connect 70 0 71 0;
#X restore 16 30 pd \$0-adcs;
#N canvas 631 304 716 403 contruct-adcs 1;
#X msg 168 93 clear;
#X obj 41 117 t b f f f;
#X obj 87 17 bng 15 250 50 0 empty empty empty 17 7 0 10 -262144 -1
-1;
#X obj 479 209 symbol \$3;
#X obj 371 112 t f f b;
#X obj 42 186 * 2;
#X obj 42 208 t f f;
#X obj 74 230 + 1;
#X msg 40 307 connect \$1 0 \$2 0;
#X obj 43 160 - 1;
#X obj 41 15 inlet;
#X obj 42 257 pack 0 1;
#X obj 369 290 pack 10 10 1 s;
#X obj 369 223 % 8;
#X obj 404 201 / 8;
#X obj 406 242 * 80;
#X obj 177 234 % 8;
#X obj 226 192 / 8;
#X obj 229 261 + 50;
#X obj 404 223 i;
#X obj 226 214 i;
#X obj 226 236 * 80;
#X obj 369 155 - 1;
#X obj 177 189 - 1;
#X obj 177 211 t f f;
#X obj 177 258 * 80;
#X obj 369 261 * 80;
#X obj 168 54 inlet;
#X obj 443 197 % 2;
#X obj 443 241 + 10;
#X obj 369 177 t f f f;
#X obj 443 219 * 20;
#X obj 41 48 i \$2;
#X obj 41 70 t f b;
#X obj 41 95 acre/count_until;
#X text 101 16 reconstruct;
#X text 216 51 clear;
#X obj 252 70 loadbang;
#X obj 252 92 i \$4;
#X obj 252 136 - 1;
#X obj 252 114 max 1;
#X obj 255 195 + 0;
#X obj 34 337 s pd-\$0-adcs;
#X msg 407 314 obj \$1 \$2 adc~ \$3;
#X obj 176 288 pack 10 50 1 s;
#X msg 177 312 obj \$1 \$2 throw~ \$4-\$3~;
#X obj 283 194 % 2;
#X obj 283 216 * 20;
#X obj 283 238 + 30;
#X text 443 43 adc offset;
#X obj 402 21 loadbang;
#X obj 402 87 - 1;
#X obj 402 65 max 1;
#X obj 408 148 + 0;
#X obj 402 43 i \$5;
#X text 277 50 bus offset;
#X obj 177 161 t f f f b;
#X obj 273 263 symbol \$3;
#X obj 405 261 + 10;
#X connect 0 0 42 0;
#X connect 1 1 9 0;
#X connect 1 2 56 0;
#X connect 1 3 4 0;
#X connect 2 0 32 0;
#X connect 3 0 12 3;
#X connect 4 0 22 0;
#X connect 4 1 53 0;
#X connect 4 2 3 0;
#X connect 5 0 6 0;
#X connect 6 0 11 0;
#X connect 6 1 7 0;
#X connect 7 0 11 1;
#X connect 8 0 42 0;
#X connect 9 0 5 0;
#X connect 10 0 32 0;
#X connect 11 0 8 0;
#X connect 12 0 43 0;
#X connect 13 0 26 0;
#X connect 14 0 19 0;
#X connect 15 0 58 0;
#X connect 16 0 25 0;
#X connect 17 0 20 0;
#X connect 18 0 44 1;
#X connect 19 0 15 0;
#X connect 20 0 21 0;
#X connect 21 0 18 0;
#X connect 22 0 30 0;
#X connect 23 0 24 0;
#X connect 24 0 16 0;
#X connect 24 1 17 0;
#X connect 25 0 44 0;
#X connect 26 0 12 0;
#X connect 27 0 0 0;
#X connect 28 0 31 0;
#X connect 30 0 13 0;
#X connect 30 1 14 0;
#X connect 30 2 28 0;
#X connect 31 0 29 0;
#X connect 32 0 33 0;
#X connect 33 0 34 0;
#X connect 33 1 0 0;
#X connect 33 1 38 0;
#X connect 34 0 1 0;
#X connect 37 0 38 0;
#X connect 38 0 40 0;
#X connect 39 0 41 1;
#X connect 40 0 39 0;
#X connect 41 0 44 2;
#X connect 43 0 42 0;
#X connect 44 0 45 0;
#X connect 45 0 42 0;
#X connect 46 0 47 0;
#X connect 47 0 48 0;
#X connect 48 0 18 1;
#X connect 50 0 54 0;
#X connect 51 0 53 1;
#X connect 52 0 51 0;
#X connect 53 0 12 2;
#X connect 54 0 52 0;
#X connect 56 0 23 0;
#X connect 56 1 41 0;
#X connect 56 2 46 0;
#X connect 56 3 57 0;
#X connect 57 0 44 3;
#X connect 58 0 12 1;
#X restore 16 163 pd contruct-adcs;
#X connect 0 0 10 0;
#X connect 1 0 13 1;
#X connect 3 0 10 0;
#X connect 4 0 13 0;
#X connect 7 0 4 0;
#X connect 10 0 13 0;
