#N canvas 1244 148 1032 413 10;
#X obj 385 179 bng 15 250 50 0 empty empty clear 17 7 0 10 -262144
-1 -1;
#X text 435 179 before save !;
#X obj 236 107 r /amb/encinit;
#X obj 237 131 amb/amb/n \$2 \$3;
#X text 26 257 (c) GPL - acre \, ritsch;
#X obj 375 141 bng 15 250 50 0 empty empty empty 17 7 0 10 -262144
-1 -1;
#X text 395 141 reinit;
#X text 237 204 default is SID;
#X text 32 65 channel ordering from SID to SID \, ACN or FUMA \, because
historical iemambi lib was SID order only.;
#X text 23 28 bus/channel_ordering~ <ID> <dimen> <order> <ambisonic
bus in> <ambisonic out> [channel order: 0=SID \, 1=ACN \, 2=FUMA],
f 117;
#N canvas 196 107 491 791 \$0-ordering 1;
#X obj 200 10 r~ AMBI-SID-1~;
#X obj 10 50 s~ AMBI-1~;
#X obj 210 30 r~ AMBI-SID-2~;
#X obj 20 70 s~ AMBI-2~;
#X obj 220 50 r~ AMBI-SID-3~;
#X obj 30 90 s~ AMBI-3~;
#X obj 230 70 r~ AMBI-SID-4~;
#X obj 40 110 s~ AMBI-4~;
#X obj 240 90 r~ AMBI-SID-5~;
#X obj 50 130 s~ AMBI-5~;
#X obj 250 110 r~ AMBI-SID-6~;
#X obj 60 150 s~ AMBI-6~;
#X obj 260 130 r~ AMBI-SID-7~;
#X obj 70 170 s~ AMBI-7~;
#X obj 270 150 r~ AMBI-SID-8~;
#X obj 80 190 s~ AMBI-8~;
#X obj 280 170 r~ AMBI-SID-9~;
#X obj 90 210 s~ AMBI-9~;
#X obj 290 190 r~ AMBI-SID-10~;
#X obj 100 230 s~ AMBI-10~;
#X obj 300 210 r~ AMBI-SID-11~;
#X obj 110 250 s~ AMBI-11~;
#X obj 310 230 r~ AMBI-SID-12~;
#X obj 120 270 s~ AMBI-12~;
#X obj 320 250 r~ AMBI-SID-13~;
#X obj 130 290 s~ AMBI-13~;
#X obj 330 270 r~ AMBI-SID-14~;
#X obj 140 310 s~ AMBI-14~;
#X obj 340 290 r~ AMBI-SID-15~;
#X obj 150 330 s~ AMBI-15~;
#X obj 350 310 r~ AMBI-SID-16~;
#X obj 160 350 s~ AMBI-16~;
#X connect 0 0 1 0;
#X connect 2 0 3 0;
#X connect 4 0 5 0;
#X connect 6 0 7 0;
#X connect 8 0 9 0;
#X connect 10 0 11 0;
#X connect 12 0 13 0;
#X connect 14 0 15 0;
#X connect 16 0 17 0;
#X connect 18 0 19 0;
#X connect 20 0 21 0;
#X connect 22 0 23 0;
#X connect 24 0 25 0;
#X connect 26 0 27 0;
#X connect 28 0 29 0;
#X connect 30 0 31 0;
#X restore 27 124 pd \$0-ordering;
#N canvas 695 291 835 463 contruct-ordering 1;
#X msg 82 75 clear;
#X obj 175 204 t f f b;
#X obj 41 15 inlet;
#X obj 37 296 pack 0 1;
#X obj 38 127 acre/count_until;
#X obj 40 40 t f f b;
#X obj 173 365 pack 70 10 1 s;
#X obj 176 248 t f f;
#X obj 175 301 + 10;
#X obj 175 225 - 1;
#X obj 210 301 + 50;
#X obj 210 279 * 20;
#X obj 41 190 + -1;
#X obj 175 279 * 10;
#X msg 7 15 5;
#X obj 322 16 inlet;
#X obj 248 294 tabread \$1-channel-order;
#X obj 249 275 - 1;
#X obj 248 315 + 1;
#X obj 31 432 s pd-\$0-ordering;
#X obj 38 150 t f f f;
#X obj 443 204 t f f b;
#X obj 441 365 pack 70 10 1 s;
#X obj 546 252 symbol \$4;
#X obj 444 248 t f f;
#X obj 443 225 - 1;
#X obj 478 279 * 20;
#X obj 443 279 * 10;
#X msg 172 391 obj \$1 \$2 s~ \$4-\$3~;
#X msg 440 391 obj \$1 \$2 r~ \$4-\$3~;
#X obj 39 216 * 2;
#X obj 71 262 + 1;
#X obj 39 238 t f f;
#X msg 39 354 connect \$1 0 \$2 0;
#X obj 82 95 s pd-\$0-ordering;
#X obj 278 252 symbol \$5;
#X obj 478 301 + 10;
#X obj 443 301 + 200;
#X connect 0 0 34 0;
#X connect 1 0 9 0;
#X connect 1 1 17 0;
#X connect 1 2 35 0;
#X connect 2 0 5 0;
#X connect 3 0 33 0;
#X connect 4 0 20 0;
#X connect 5 0 4 0;
#X connect 5 2 0 0;
#X connect 6 0 28 0;
#X connect 7 0 13 0;
#X connect 7 1 11 0;
#X connect 8 0 6 0;
#X connect 9 0 7 0;
#X connect 10 0 6 1;
#X connect 11 0 10 0;
#X connect 12 0 30 0;
#X connect 13 0 8 0;
#X connect 14 0 5 0;
#X connect 15 0 0 0;
#X connect 16 0 18 0;
#X connect 17 0 16 0;
#X connect 18 0 6 2;
#X connect 20 0 12 0;
#X connect 20 1 1 0;
#X connect 20 2 21 0;
#X connect 21 0 25 0;
#X connect 21 1 22 2;
#X connect 21 2 23 0;
#X connect 22 0 29 0;
#X connect 23 0 22 3;
#X connect 24 0 27 0;
#X connect 24 1 26 0;
#X connect 25 0 24 0;
#X connect 26 0 36 0;
#X connect 27 0 37 0;
#X connect 28 0 19 0;
#X connect 29 0 19 0;
#X connect 30 0 32 0;
#X connect 31 0 3 1;
#X connect 32 0 3 0;
#X connect 32 1 31 0;
#X connect 33 0 19 0;
#X connect 35 0 6 3;
#X connect 36 0 22 1;
#X connect 37 0 22 0;
#X restore 237 174 pd contruct-ordering;
#X obj 237 224 amb/amb/channel_order_table \$1 \$6;
#X connect 0 0 11 1;
#X connect 2 0 3 0;
#X connect 3 0 11 0;
#X connect 5 0 3 0;
