#N canvas 1063 465 464 307 10;
#X obj 265 110 switch~;
#X obj 265 88 r \$1/on;
#X obj 79 156 bng 15 250 50 0 empty empty empty 17 7 0 10 -262144 -1
-1;
#X obj 175 177 bng 15 250 50 0 empty empty empty 17 7 0 10 -262144
-1 -1;
#X text 194 177 clear before save !;
#X obj 33 111 r /amb/businit;
#X obj 174 106 max 1;
#X text 97 159 reconstruct;
#X obj 174 84 r \$1/channels;
#X text 172 65 dyn set channel count;
#X obj 33 150 t b b;
#N canvas 722 694 450 300 init 0;
#X obj 231 61 bng 15 250 50 0 empty empty empty 17 7 0 10 -262144 -1
-1;
#X obj 103 85 list append \$1;
#X obj 103 58 inlet;
#X msg 103 107 \;;
#X connect 0 0 1 0;
#X connect 1 0 3 0;
#X connect 2 0 1 0;
#X restore 33 228 pd init;
#N canvas 1314 691 929 296 contruct-crosss 0;
#X msg 160 90 clear;
#X obj 81 15 bng 15 250 50 0 empty empty empty 17 7 0 10 -262144 -1
-1;
#X obj 37 15 inlet;
#X obj 37 136 t f f b;
#X obj 37 160 * 20;
#X obj 160 16 inlet;
#X obj 37 40 i \$2;
#X obj 37 66 t f b;
#X obj 37 115 acre/count_until;
#X obj 240 18 loadbang;
#X obj 240 84 - 1;
#X obj 240 62 max 1;
#X obj 74 161 + 0;
#X text 268 86 out offset;
#X obj 105 12 inlet;
#X obj 77 43 s \$1/channels;
#X obj 240 40 i \$6;
#X obj 37 242 s pd-\$0-dsp-cross;
#X obj 160 114 s pd-\$0-dsp-cross;
#X obj 37 182 pack 10 1;
#X obj 37 202 list append \$1 \$2 \$3 \$4 \$5;
#X msg 37 222 obj 10 \$1 amb/bus/cross-filt~ \$3 \$5-\$2 \$6-\$2 \$7-\$2
;
#X connect 0 0 18 0;
#X connect 1 0 6 0;
#X connect 2 0 6 0;
#X connect 3 0 4 0;
#X connect 3 1 12 0;
#X connect 4 0 19 0;
#X connect 5 0 0 0;
#X connect 6 0 7 0;
#X connect 6 0 15 0;
#X connect 7 0 8 0;
#X connect 7 1 0 0;
#X connect 8 0 3 0;
#X connect 9 0 16 0;
#X connect 10 0 12 1;
#X connect 11 0 10 0;
#X connect 12 0 19 1;
#X connect 14 0 6 1;
#X connect 16 0 11 0;
#X connect 19 0 20 0;
#X connect 20 0 21 0;
#X connect 21 0 17 0;
#X restore 65 199 pd contruct-crosss;
#X text 36 7 mxr/test/tones~ <id> <IN-Bus> <Out-bus-low> <out-bus-high>
[offset];
#N canvas 323 311 420 611 \$0-dsp-cross 0;
#X obj 10 20 amb/bus/cross-filt~ XLOW AMB-blur-1 AMB-low-1 AMB-low-high-1
;
#X obj 10 40 amb/bus/cross-filt~ XLOW AMB-blur-2 AMB-low-2 AMB-low-high-2
;
#X obj 10 60 amb/bus/cross-filt~ XLOW AMB-blur-3 AMB-low-3 AMB-low-high-3
;
#X obj 10 80 amb/bus/cross-filt~ XLOW AMB-blur-4 AMB-low-4 AMB-low-high-4
;
#X obj 10 100 amb/bus/cross-filt~ XLOW AMB-blur-5 AMB-low-5 AMB-low-high-5
;
#X obj 10 120 amb/bus/cross-filt~ XLOW AMB-blur-6 AMB-low-6 AMB-low-high-6
;
#X obj 10 140 amb/bus/cross-filt~ XLOW AMB-blur-7 AMB-low-7 AMB-low-high-7
;
#X obj 10 160 amb/bus/cross-filt~ XLOW AMB-blur-8 AMB-low-8 AMB-low-high-8
;
#X obj 10 180 amb/bus/cross-filt~ XLOW AMB-blur-9 AMB-low-9 AMB-low-high-9
;
#X obj 10 200 amb/bus/cross-filt~ XLOW AMB-blur-10 AMB-low-10 AMB-low-high-10
;
#X obj 10 220 amb/bus/cross-filt~ XLOW AMB-blur-11 AMB-low-11 AMB-low-high-11
;
#X obj 10 240 amb/bus/cross-filt~ XLOW AMB-blur-12 AMB-low-12 AMB-low-high-12
;
#X obj 10 260 amb/bus/cross-filt~ XLOW AMB-blur-13 AMB-low-13 AMB-low-high-13
;
#X obj 10 280 amb/bus/cross-filt~ XLOW AMB-blur-14 AMB-low-14 AMB-low-high-14
;
#X obj 10 300 amb/bus/cross-filt~ XLOW AMB-blur-15 AMB-low-15 AMB-low-high-15
;
#X obj 10 320 amb/bus/cross-filt~ XLOW AMB-blur-16 AMB-low-16 AMB-low-high-16
;
#X obj 10 340 amb/bus/cross-filt~ XLOW AMB-blur-17 AMB-low-17 AMB-low-high-17
;
#X obj 10 360 amb/bus/cross-filt~ XLOW AMB-blur-18 AMB-low-18 AMB-low-high-18
;
#X obj 10 380 amb/bus/cross-filt~ XLOW AMB-blur-19 AMB-low-19 AMB-low-high-19
;
#X obj 10 400 amb/bus/cross-filt~ XLOW AMB-blur-20 AMB-low-20 AMB-low-high-20
;
#X obj 10 420 amb/bus/cross-filt~ XLOW AMB-blur-21 AMB-low-21 AMB-low-high-21
;
#X obj 10 440 amb/bus/cross-filt~ XLOW AMB-blur-22 AMB-low-22 AMB-low-high-22
;
#X obj 10 460 amb/bus/cross-filt~ XLOW AMB-blur-23 AMB-low-23 AMB-low-high-23
;
#X obj 10 480 amb/bus/cross-filt~ XLOW AMB-blur-24 AMB-low-24 AMB-low-high-24
;
#X obj 10 500 amb/bus/cross-filt~ XLOW AMB-blur-25 AMB-low-25 AMB-low-high-25
;
#X restore 33 83 pd \$0-dsp-cross;
#X connect 1 0 0 0;
#X connect 2 0 10 0;
#X connect 3 0 12 2;
#X connect 5 0 10 0;
#X connect 6 0 12 1;
#X connect 8 0 6 0;
#X connect 10 0 11 0;
#X connect 10 1 12 0;
