#N canvas 702 261 364 218 10;
#X text 11 212 (c) GPL - acre \, ritsch;
#X obj 16 106 lop~ 300;
#X obj 33 147 -~;
#X text 116 134 simple 1storder cross;
#X text 14 7 amb/cross~ <id-cross> <in signal> <out low> <out high>
;
#X obj 16 60 r~ \$2~;
#X obj 14 181 s~ \$3~;
#X obj 65 182 s~ \$4~;
#X obj 61 83 r \$1/freq;
#X connect 1 0 2 1;
#X connect 1 0 6 0;
#X connect 2 0 7 0;
#X connect 5 0 2 0;
#X connect 5 0 1 0;
#X connect 8 0 1 1;
