#N canvas 702 288 364 218 10;
#X text 11 212 (c) GPL - acre \, ritsch;
#X obj 33 147 -~;
#X text 14 7 amb/cross~ <id-cross> <in signal> <out low> <out high>
;
#X obj 16 60 r~ \$2~;
#X obj 14 181 s~ \$3~;
#X obj 65 182 s~ \$4~;
#X obj 61 83 r \$1/freq;
#X obj 16 106 \$5 300;
#X text 66 148 simple cross;
#X connect 1 0 5 0;
#X connect 3 0 1 0;
#X connect 3 0 7 0;
#X connect 6 0 7 1;
#X connect 7 0 1 1;
#X connect 7 0 4 0;
