#N canvas 786 370 710 162 10;
#N canvas 438 138 621 474 contruct-buses 0;
#X msg 173 71 clear;
#X obj 38 5 inlet;
#X obj 475 340 symbol \$3;
#X obj 383 193 t f f b;
#X obj 38 72 acre/count_until;
#X obj 38 50 t f b;
#X obj 383 215 - 1;
#X obj 383 351 + 10;
#X obj 383 327 * 120;
#X obj 383 304 % 8;
#X msg 383 392 obj \$1 \$2 catch~ \$4-\$3~;
#X obj 383 371 pack 10 10 1 s;
#X obj 424 284 / 8;
#X obj 424 306 i;
#X obj 424 351 + 10;
#X obj 383 237 t f f;
#X obj 302 344 symbol \$3;
#X obj 207 206 t f f b;
#X obj 207 228 - 1;
#X obj 207 323 * 120;
#X obj 207 301 % 8;
#X obj 207 367 pack 10 10 1 s;
#X obj 249 279 / 8;
#X obj 249 301 i;
#X obj 207 250 t f f;
#X obj 38 124 t f f f f;
#X msg 207 389 obj \$1 \$2 s~ \$4-\$3~;
#X obj 249 345 + 30;
#X obj 38 254 pack 0 1;
#X obj 37 193 * 2;
#X obj 37 215 t f f;
#X obj 91 219 + 1;
#X msg 38 276 connect \$1 0 \$2 0;
#X obj 38 410 s pd-\$0-dsp-buses;
#X obj 38 146 - 1;
#X obj 207 345 + 10;
#X obj 249 323 * 40;
#X obj 424 327 * 40;
#X obj 173 34 inlet;
#X obj 38 94 + \$4;
#X obj 38 27 - \$4;
#X obj 38 168 - \$4;
#X connect 0 0 33 0;
#X connect 1 0 40 0;
#X connect 2 0 11 3;
#X connect 3 0 6 0;
#X connect 3 1 11 2;
#X connect 3 2 2 0;
#X connect 4 0 39 0;
#X connect 5 0 4 0;
#X connect 5 1 0 0;
#X connect 6 0 15 0;
#X connect 7 0 11 0;
#X connect 8 0 7 0;
#X connect 9 0 8 0;
#X connect 10 0 33 0;
#X connect 11 0 10 0;
#X connect 12 0 13 0;
#X connect 13 0 37 0;
#X connect 14 0 11 1;
#X connect 15 0 9 0;
#X connect 15 1 12 0;
#X connect 16 0 21 3;
#X connect 17 0 18 0;
#X connect 17 1 21 2;
#X connect 17 2 16 0;
#X connect 18 0 24 0;
#X connect 19 0 35 0;
#X connect 20 0 19 0;
#X connect 21 0 26 0;
#X connect 22 0 23 0;
#X connect 23 0 36 0;
#X connect 24 0 20 0;
#X connect 24 1 22 0;
#X connect 25 0 34 0;
#X connect 25 2 17 0;
#X connect 25 3 3 0;
#X connect 26 0 33 0;
#X connect 27 0 21 1;
#X connect 28 0 32 0;
#X connect 29 0 30 0;
#X connect 30 0 28 0;
#X connect 30 1 31 0;
#X connect 31 0 28 1;
#X connect 32 0 33 0;
#X connect 34 0 41 0;
#X connect 35 0 21 0;
#X connect 36 0 27 0;
#X connect 37 0 14 0;
#X connect 38 0 0 0;
#X connect 39 0 25 0;
#X connect 40 0 5 0;
#X connect 41 0 29 0;
#X restore 207 116 pd contruct-buses;
#N canvas 138 616 977 226 \$0-dsp-buses 0;
#X restore 40 89 pd \$0-dsp-buses;
#X obj 207 87 amb/amb/n \$1 \$2;
#X obj 349 115 bng 15 250 50 0 empty empty empty 17 7 0 10 -262144
-1 -1;
#X text 366 116 clear before save !;
#X obj 207 63 r /amb/businit;
#X text 21 125 (c) GPL - acre \, ritsch;
#X obj 321 65 bng 15 250 50 0 empty empty empty 17 7 0 10 -262144 -1
-1;
#X text 338 65 reconstruct;
#X text 12 2 amb/bus/dsp~ <dimen> <order> <ID ambisonic bus> [offset
to extent bus], f 71;
#X text 7 24 a bus is a routing of signals from catch~ (does mixing)
to send~, f 71;
#X text 11 44 Extend option is to extend an Ambisonics bus to higher
order (eg. 16 from 3D3O to 3D4O), f 88;
#X connect 2 0 0 0;
#X connect 3 0 0 1;
#X connect 5 0 2 0;
#X connect 7 0 2 0;
