#N canvas 1653 159 747 242 10;
#X obj 129 128 bng 15 250 50 0 empty empty empty 17 7 0 10 -262144
-1 -1;
#X text 147 127 clear before save !;
#X obj 158 86 bng 15 250 50 0 empty empty empty 17 7 0 10 -262144 -1
-1;
#X text 174 84 reconstruct;
#X text 18 23 Status: experimental untestet;
#X text 45 188 part of acre/amb library (c) GPL \, winfried ritsch
;
#X text 14 4 amb/bus/fader~ <ID> <channels> <receive name> <send name>
[in offset] [out offset], f 85;
#N canvas 235 706 1659 343 \$0-fader 0;
#X restore 44 55 pd \$0-fader;
#X obj 44 85 r /amb/businit;
#X obj 296 75 r \$1/vol;
#X obj 296 104 dbtorms;
#N canvas 567 116 1056 733 contruct-fader 0;
#X msg 109 118 clear;
#X obj 39 41 inlet;
#X obj 615 500 t f f b;
#X obj 616 648 pack 70 10 1 s;
#X obj 616 544 t f f;
#X obj 615 521 - 1;
#X obj 454 511 t f f;
#X obj 651 621 + 10;
#X obj 191 461 t f f b;
#X obj 191 607 pack 70 10 1 s;
#X obj 191 503 t f f;
#X obj 191 482 - 1;
#X obj 226 558 * 20;
#X obj 120 68 inlet;
#X text 586 466 [r~ \$3-n~];
#X obj 651 599 * 20;
#X msg 616 674 obj \$1 \$2 r~ \$4-\$3~;
#X msg 190 633 obj \$1 \$2 s~ \$4-\$3~;
#X text 658 154 [multiline];
#X obj 604 171 until;
#X msg 604 202 add2 1;
#X msg 584 239 add2 50;
#X obj 651 572 % 4;
#X obj 616 599 * 40;
#X obj 451 460 i 0;
#X obj 452 485 + 1;
#X obj 445 409 until;
#X msg 479 654 connect \$1 0 \$2 \$3;
#X obj 505 458 i 0;
#X obj 505 480 + 1;
#X obj 441 384 t f f b;
#X msg 510 405 0;
#X obj 448 431 t b b;
#X obj 550 586 - 1;
#X obj 226 530 % 4;
#X obj 191 558 * 40;
#X obj 191 580 + 10;
#X obj 616 621 + 10;
#X obj 37 520 t f f;
#X obj 46 577 + 1;
#X obj 34 469 i 0;
#X obj 35 494 + 1;
#X obj 28 418 until;
#X obj 88 467 i 0;
#X obj 88 489 + 1;
#X obj 24 393 t f f b;
#X msg 93 414 0;
#X obj 31 440 t b b;
#X obj 108 568 - 1;
#X obj 41 607 pack 1 2 3;
#X obj 226 580 + 180;
#X text 571 383 connect r~;
#X text 153 346 connect sends;
#X obj 564 307 s pd-\$0-fader;
#X obj 109 138 s pd-\$0-fader;
#X text 551 5 construct multiline;
#X msg 564 270 obj 10 120 multiline~ 1 1 1 1 1 1 1 1 1 1 1 1 1 1 1
1 50;
#X obj 564 118 t b b f b;
#X msg 652 173 set obj 10 120 multiline~, f 26;
#X msg 124 31 25;
#X obj 479 695 s pd-\$0-fader;
#X obj 55 685 s pd-\$0-fader;
#X obj 710 572 symbol \$3;
#X obj 478 622 pack 1 0 3;
#X obj 475 80 t f f f;
#X obj 470 140 pack 1000 \$0;
#X msg 386 221 connect 1 0 0 \$1;
#X msg 40 633 connect 0 \$3 \$1 0;
#X obj 286 577 symbol \$4;
#X obj 39 70 t f f f b;
#X obj 497 104 * 22;
#X msg 381 197 obj \$1 120 r \$2-amplitude;
#X obj 364 252 pack 1000 \$0;
#X obj 355 118 t f f;
#X obj 355 140 + 1;
#X msg 355 301 connect 2 0 0 \$1;
#X obj 448 110 t f f;
#X obj 436 164 pack 1000 \$0;
#X obj 463 568 + 2;
#X obj 63 553 + 2;
#X obj 422 138 + 150;
#X msg 368 274 obj \$1 120 r \$2-fadetime;
#X connect 0 0 54 0;
#X connect 1 0 69 0;
#X connect 2 0 5 0;
#X connect 2 1 3 2;
#X connect 2 2 62 0;
#X connect 3 0 16 0;
#X connect 4 0 23 0;
#X connect 4 1 22 0;
#X connect 5 0 4 0;
#X connect 6 0 78 0;
#X connect 6 0 79 0;
#X connect 6 1 2 0;
#X connect 7 0 3 1;
#X connect 8 0 11 0;
#X connect 8 1 9 2;
#X connect 8 2 68 0;
#X connect 9 0 17 0;
#X connect 10 0 35 0;
#X connect 10 1 34 0;
#X connect 11 0 10 0;
#X connect 12 0 50 0;
#X connect 13 0 0 0;
#X connect 15 0 7 0;
#X connect 16 0 60 0;
#X connect 17 0 61 0;
#X connect 19 0 20 0;
#X connect 20 0 56 0;
#X connect 21 0 56 0;
#X connect 22 0 15 0;
#X connect 23 0 37 0;
#X connect 24 0 25 0;
#X connect 25 0 24 1;
#X connect 25 0 6 0;
#X connect 26 0 32 0;
#X connect 27 0 60 0;
#X connect 28 0 29 0;
#X connect 29 0 28 1;
#X connect 29 0 33 0;
#X connect 30 0 26 0;
#X connect 30 2 31 0;
#X connect 31 0 28 1;
#X connect 31 0 24 1;
#X connect 32 0 24 0;
#X connect 32 1 28 0;
#X connect 33 0 63 2;
#X connect 34 0 12 0;
#X connect 35 0 36 0;
#X connect 36 0 9 0;
#X connect 37 0 3 0;
#X connect 38 0 39 0;
#X connect 38 1 8 0;
#X connect 39 0 49 0;
#X connect 40 0 41 0;
#X connect 41 0 40 1;
#X connect 41 0 38 0;
#X connect 42 0 47 0;
#X connect 43 0 44 0;
#X connect 44 0 43 1;
#X connect 44 0 48 0;
#X connect 45 0 42 0;
#X connect 45 2 46 0;
#X connect 46 0 43 1;
#X connect 46 0 40 1;
#X connect 47 0 40 0;
#X connect 47 1 43 0;
#X connect 48 0 49 2;
#X connect 49 0 67 0;
#X connect 50 0 9 1;
#X connect 56 0 53 0;
#X connect 57 0 56 0;
#X connect 57 1 21 0;
#X connect 57 2 19 0;
#X connect 57 3 58 0;
#X connect 58 0 56 0;
#X connect 59 0 69 0;
#X connect 62 0 3 3;
#X connect 63 0 27 0;
#X connect 64 0 73 0;
#X connect 64 1 70 0;
#X connect 64 2 57 0;
#X connect 65 0 71 0;
#X connect 66 0 53 0;
#X connect 67 0 61 0;
#X connect 68 0 9 3;
#X connect 69 0 45 0;
#X connect 69 1 30 0;
#X connect 69 2 64 0;
#X connect 69 3 0 0;
#X connect 70 0 76 0;
#X connect 71 0 53 0;
#X connect 72 0 81 0;
#X connect 73 0 74 0;
#X connect 73 1 66 0;
#X connect 74 0 75 0;
#X connect 75 0 53 0;
#X connect 76 0 80 0;
#X connect 76 1 65 0;
#X connect 77 0 72 0;
#X connect 78 0 63 0;
#X connect 79 0 39 1;
#X connect 80 0 77 0;
#X connect 81 0 53 0;
#X restore 42 152 pd contruct-fader;
#X obj 45 124 i \$2;
#X obj 296 147 s \$0-amplitude;
#X obj 407 88 r \$1/fadetime;
#X obj 407 146 s \$0-fadetime;
#X obj 407 110 max 0;
#X obj 455 109 r mxr/fadetime;
#X connect 0 0 11 1;
#X connect 2 0 12 0;
#X connect 8 0 12 0;
#X connect 9 0 10 0;
#X connect 10 0 13 0;
#X connect 12 0 11 0;
#X connect 14 0 16 0;
#X connect 16 0 15 0;
#X connect 17 0 15 0;
