#N canvas 347 465 534 246 10;
#X obj 334 109 bng 15 250 50 0 empty empty empty 17 7 0 10 -262144
-1 -1;
#X text 334 128 clear before save !;
#X obj 183 60 r /amb/encinit;
#X text 21 205 (c) GPL - acre \, ritsch;
#X obj 246 94 max 1;
#X obj 296 61 r \$1/number;
#X obj 142 96 bng 15 250 50 0 empty empty reconstruct 17 7 0 10 -262144
-1 -1;
#N canvas 78 207 383 521 \$0-ds-ins 0;
#X restore 49 59 pd \$0-ds-ins;
#N canvas 746 377 433 351 contruct-in_ds 0;
#X msg 154 70 clear;
#X obj 59 40 bng 15 250 50 0 empty empty empty 17 7 0 10 -262144 -1
-1;
#X obj 41 15 inlet;
#X obj 36 150 t f f b;
#X obj 31 174 * 20;
#X obj 35 115 acre/count_until;
#X obj 179 16 inlet;
#X obj 35 214 pack 10 1 s s s;
#X obj 35 93 t f b;
#X obj 37 64 i \$3;
#X obj 105 174 symbol \$2;
#X obj 68 177 + \$6;
#X obj 179 176 symbol \$1;
#X obj 255 180 symbol \$4;
#X obj 31 269 s pd-\$0-ds-ins;
#X obj 154 95 s pd-\$0-ds-ins;
#X msg 33 242 obj 10 \$1 amb/bus/in_ds \$4 \$5-\$2;
#X connect 0 0 15 0;
#X connect 1 0 9 0;
#X connect 2 0 9 0;
#X connect 3 0 4 0;
#X connect 3 1 11 0;
#X connect 3 2 10 0;
#X connect 3 2 12 0;
#X connect 3 2 13 0;
#X connect 4 0 7 0;
#X connect 5 0 3 0;
#X connect 6 0 0 0;
#X connect 7 0 16 0;
#X connect 8 0 5 0;
#X connect 8 1 0 0;
#X connect 9 0 8 0;
#X connect 10 0 7 2;
#X connect 11 0 7 1;
#X connect 12 0 7 3;
#X connect 13 0 7 4;
#X connect 16 0 14 0;
#X restore 183 130 pd contruct-in_ds;
#X text 33 11 amb/ins_ds <storage domain> <ID> <nr channels> <ID-prefix>
<ID-prefix in [offset], f 84;
#X text 36 34 Data storage for amb/ins~;
#X connect 0 0 8 1;
#X connect 2 0 8 0;
#X connect 4 0 8 0;
#X connect 5 0 4 0;
#X connect 6 0 8 0;
