#N canvas 564 356 410 372 10;
#X obj 79 106 bng 15 250 50 0 empty empty empty 17 7 0 10 -262144 -1
-1;
#X obj 175 141 bng 15 250 50 0 empty empty empty 17 7 0 10 -262144
-1 -1;
#X text 194 141 clear before save !;
#X obj 33 61 r /amb/businit;
#X obj 174 86 max 1;
#X text 97 109 reconstruct;
#X obj 174 64 r \$1/channels;
#X text 172 45 dyn set channel count;
#X text 33 351 (c) GPL - acre \, ritsch;
#X obj 33 100 t b b;
#X text 24 5 amb/bus/ins~ <ID> <nr channels> <bus ID> [in offset],
f 77;
#N canvas 128 171 306 521 \$0-dsp-ins 0;
#X restore 33 33 pd \$0-dsp-ins;
#N canvas 703 58 574 296 contruct-ins 0;
#X msg 160 90 clear;
#X obj 81 15 bng 15 250 50 0 empty empty empty 17 7 0 10 -262144 -1
-1;
#X obj 37 15 inlet;
#X obj 37 136 t f f b;
#X obj 37 160 * 20;
#X obj 160 16 inlet;
#X obj 37 40 i \$2;
#X obj 37 66 t f b;
#X obj 37 115 acre/count_until;
#X obj 240 18 loadbang;
#X obj 240 84 - 1;
#X obj 240 62 max 1;
#X obj 74 161 + 0;
#X text 268 86 out offset;
#X obj 37 267 s pd-\$0-dsp-ins;
#X obj 160 114 s pd-\$0-dsp-ins;
#X obj 240 40 i \$4;
#X obj 67 222 list append \$0;
#X obj 111 159 symbol \$1;
#X obj 192 158 symbol \$1;
#X msg 38 249 obj 10 \$1 amb/bus/in~ \$3-\$2 \$4-\$2 \$5-\$2;
#X obj 260 160 symbol \$3;
#X obj 37 199 pack 10 1 s s s;
#X connect 0 0 15 0;
#X connect 1 0 6 0;
#X connect 2 0 6 0;
#X connect 3 0 4 0;
#X connect 3 1 12 0;
#X connect 3 2 18 0;
#X connect 3 2 19 0;
#X connect 3 2 21 0;
#X connect 4 0 22 0;
#X connect 5 0 0 0;
#X connect 6 0 7 0;
#X connect 7 0 8 0;
#X connect 7 1 0 0;
#X connect 8 0 3 0;
#X connect 9 0 16 0;
#X connect 10 0 12 1;
#X connect 11 0 10 0;
#X connect 12 0 22 1;
#X connect 16 0 11 0;
#X connect 18 0 22 2;
#X connect 19 0 22 3;
#X connect 20 0 14 0;
#X connect 21 0 22 4;
#X connect 22 0 17 0;
#X connect 22 0 20 0;
#X restore 65 163 pd contruct-ins;
#X obj 33 194 acre/count_until \$2;
#X obj 33 269 pack 0 s;
#X obj 33 219 t f b;
#X msg 33 289 \; \$2-\$1/vol 100;
#X obj 77 244 symbol \$1;
#X obj 2 168 bng 15 250 50 0 empty empty empty 17 7 0 10 -262144 -1
-1;
#X connect 0 0 9 0;
#X connect 1 0 12 1;
#X connect 3 0 9 0;
#X connect 4 0 12 0;
#X connect 6 0 4 0;
#X connect 9 0 13 0;
#X connect 9 1 12 0;
#X connect 13 0 15 0;
#X connect 14 0 16 0;
#X connect 15 0 14 0;
#X connect 15 1 17 0;
#X connect 17 0 14 1;
#X connect 18 0 13 0;
