#N canvas 564 640 410 372 10;
#X obj 79 106 bng 15 250 50 0 empty empty empty 17 7 0 10 -262144 -1
-1;
#X obj 175 141 bng 15 250 50 0 empty empty empty 17 7 0 10 -262144
-1 -1;
#X text 194 141 clear before save !;
#X obj 33 61 r /amb/businit;
#X obj 174 86 max 1;
#X text 97 109 reconstruct;
#X obj 174 64 r \$1/channels;
#X text 172 45 dyn set channel count;
#X text 33 351 (c) GPL - acre \, ritsch;
#X obj 33 100 t b b;
#X obj 33 194 acre/count_until \$2;
#X obj 33 269 pack 0 s;
#X obj 33 219 t f b;
#X obj 77 244 symbol \$3;
#X text 24 5 amb/bus/ins~ <ID> <nr channels> <bus ID> [in offset],
f 77;
#N canvas 62 193 306 521 \$0-dsp-ins 0;
#X obj 10 20 amb/bus/in~ mics-1 mic-1 1070;
#X obj 10 40 amb/bus/in~ mics-2 mic-2 1070;
#X obj 10 60 amb/bus/in~ mics-3 mic-3 1070;
#X obj 10 80 amb/bus/in~ mics-4 mic-4 1070;
#X obj 10 100 amb/bus/in~ mics-5 mic-5 1070;
#X obj 10 120 amb/bus/in~ mics-6 mic-6 1070;
#X obj 10 140 amb/bus/in~ mics-7 mic-7 1070;
#X obj 10 160 amb/bus/in~ mics-8 mic-8 1070;
#X obj 10 180 amb/bus/in~ mics-9 mic-9 1070;
#X obj 10 200 amb/bus/in~ mics-10 mic-10 1070;
#X obj 10 220 amb/bus/in~ mics-11 mic-11 1070;
#X obj 10 240 amb/bus/in~ mics-12 mic-12 1070;
#X obj 10 260 amb/bus/in~ mics-13 mic-13 1070;
#X obj 10 280 amb/bus/in~ mics-14 mic-14 1070;
#X obj 10 300 amb/bus/in~ mics-15 mic-15 1070;
#X obj 10 320 amb/bus/in~ mics-16 mic-16 1070;
#X obj 10 340 amb/bus/in~ mics-17 mic-17 1070;
#X obj 10 360 amb/bus/in~ mics-18 mic-18 1070;
#X restore 33 33 pd \$0-dsp-ins;
#X msg 33 289 \; \$2-\$1/vol 100;
#N canvas 703 58 574 296 contruct-ins 0;
#X msg 160 90 clear;
#X obj 81 15 bng 15 250 50 0 empty empty empty 17 7 0 10 -262144 -1
-1;
#X obj 37 15 inlet;
#X obj 37 136 t f f b;
#X obj 37 160 * 20;
#X obj 160 16 inlet;
#X obj 37 40 i \$2;
#X obj 37 66 t f b;
#X obj 37 115 acre/count_until;
#X obj 240 18 loadbang;
#X obj 240 84 - 1;
#X obj 240 62 max 1;
#X obj 74 161 + 0;
#X text 268 86 out offset;
#X obj 37 267 s pd-\$0-dsp-ins;
#X obj 160 114 s pd-\$0-dsp-ins;
#X obj 240 40 i \$4;
#X obj 37 221 list append \$0;
#X obj 192 158 symbol \$3;
#X obj 37 199 pack 10 1 s s;
#X obj 111 159 symbol \$1;
#X msg 37 248 obj 10 \$1 amb/bus/in~ \$3-\$2 \$4-\$2 \$5;
#X connect 0 0 15 0;
#X connect 1 0 6 0;
#X connect 2 0 6 0;
#X connect 3 0 4 0;
#X connect 3 1 12 0;
#X connect 3 2 20 0;
#X connect 3 2 18 0;
#X connect 4 0 19 0;
#X connect 5 0 0 0;
#X connect 6 0 7 0;
#X connect 7 0 8 0;
#X connect 7 1 0 0;
#X connect 8 0 3 0;
#X connect 9 0 16 0;
#X connect 10 0 12 1;
#X connect 11 0 10 0;
#X connect 12 0 19 1;
#X connect 16 0 11 0;
#X connect 17 0 21 0;
#X connect 18 0 19 3;
#X connect 19 0 17 0;
#X connect 20 0 19 2;
#X connect 21 0 14 0;
#X restore 65 163 pd contruct-ins;
#X connect 0 0 9 0;
#X connect 1 0 17 1;
#X connect 3 0 9 0;
#X connect 4 0 17 0;
#X connect 6 0 4 0;
#X connect 9 0 10 0;
#X connect 9 1 17 0;
#X connect 10 0 12 0;
#X connect 11 0 16 0;
#X connect 12 0 11 0;
#X connect 12 1 13 0;
#X connect 13 0 11 1;
