#N canvas 119 356 528 372 10;
#N canvas 599 261 421 296 contruct-outs 1;
#X msg 160 90 clear;
#X obj 81 15 bng 15 250 50 0 empty empty empty 17 7 0 10 -262144 -1
-1;
#X obj 37 15 inlet;
#X obj 37 136 t f f b;
#X obj 37 160 * 20;
#X obj 160 16 inlet;
#X obj 37 40 i \$2;
#X obj 37 66 t f b;
#X obj 37 115 acre/count_until;
#X obj 240 18 loadbang;
#X obj 240 84 - 1;
#X obj 240 62 max 1;
#X obj 74 161 + 0;
#X text 268 86 out offset;
#X obj 37 267 s pd-\$0-dsp-ins;
#X obj 160 114 s pd-\$0-dsp-ins;
#X obj 240 40 i \$4;
#X obj 37 221 list append \$0;
#X obj 192 158 symbol \$3;
#X obj 37 199 pack 10 1 s s;
#X obj 111 159 symbol \$1;
#X msg 37 248 obj 10 \$1 amb/bus/in~ \$3-\$2 \$4-\$2 \$5;
#X connect 0 0 15 0;
#X connect 1 0 6 0;
#X connect 2 0 6 0;
#X connect 3 0 4 0;
#X connect 3 1 12 0;
#X connect 3 2 20 0;
#X connect 3 2 18 0;
#X connect 4 0 19 0;
#X connect 5 0 0 0;
#X connect 6 0 7 0;
#X connect 7 0 8 0;
#X connect 7 1 0 0;
#X connect 8 0 3 0;
#X connect 9 0 16 0;
#X connect 10 0 12 1;
#X connect 11 0 10 0;
#X connect 12 0 19 1;
#X connect 16 0 11 0;
#X connect 17 0 21 0;
#X connect 18 0 19 3;
#X connect 19 0 17 0;
#X connect 20 0 19 2;
#X connect 21 0 14 0;
#X restore 65 163 pd contruct-outs;
#X obj 79 106 bng 15 250 50 0 empty empty empty 17 7 0 10 -262144 -1
-1;
#X obj 175 141 bng 15 250 50 0 empty empty empty 17 7 0 10 -262144
-1 -1;
#X text 194 141 clear before save !;
#X obj 33 61 r /amb/businit;
#X obj 174 86 max 1;
#X text 97 109 reconstruct;
#X obj 174 64 r \$1/channels;
#X text 172 45 dyn set channel count;
#X text 33 351 (c) GPL - acre \, ritsch;
#X obj 33 100 t b b;
#X obj 33 194 acre/count_until \$2;
#X obj 33 269 pack 0 s;
#X obj 33 219 t f b;
#X obj 77 244 symbol \$3;
#X text 24 5 amb/bus/ins~ <ID> <nr channels> <bus ID> [in offset],
f 77;
#N canvas 62 85 306 521 \$0-dsp-ins 1;
#X obj 10 20 amb/bus/in~ AMBI-1-1 AMBI-1 2209;
#X obj 10 40 amb/bus/in~ AMBI-1-2 AMBI-2 2209;
#X obj 10 60 amb/bus/in~ AMBI-1-3 AMBI-3 2209;
#X obj 10 80 amb/bus/in~ AMBI-1-4 AMBI-4 2209;
#X obj 10 100 amb/bus/in~ AMBI-1-5 AMBI-5 2209;
#X obj 10 120 amb/bus/in~ AMBI-1-6 AMBI-6 2209;
#X obj 10 140 amb/bus/in~ AMBI-1-7 AMBI-7 2209;
#X obj 10 160 amb/bus/in~ AMBI-1-8 AMBI-8 2209;
#X obj 10 180 amb/bus/in~ AMBI-1-9 AMBI-9 2209;
#X obj 10 200 amb/bus/in~ AMBI-1-10 AMBI-10 2209;
#X obj 10 220 amb/bus/in~ AMBI-1-11 AMBI-11 2209;
#X obj 10 240 amb/bus/in~ AMBI-1-12 AMBI-12 2209;
#X obj 10 260 amb/bus/in~ AMBI-1-13 AMBI-13 2209;
#X obj 10 280 amb/bus/in~ AMBI-1-14 AMBI-14 2209;
#X obj 10 300 amb/bus/in~ AMBI-1-15 AMBI-15 2209;
#X obj 10 320 amb/bus/in~ AMBI-1-16 AMBI-16 2209;
#X obj 10 340 amb/bus/in~ AMBI-1-17 AMBI-17 2209;
#X obj 10 360 amb/bus/in~ AMBI-1-18 AMBI-18 2209;
#X obj 10 380 amb/bus/in~ AMBI-1-19 AMBI-19 2209;
#X obj 10 400 amb/bus/in~ AMBI-1-20 AMBI-20 2209;
#X obj 10 420 amb/bus/in~ AMBI-1-21 AMBI-21 2209;
#X obj 10 440 amb/bus/in~ AMBI-1-22 AMBI-22 2209;
#X obj 10 460 amb/bus/in~ AMBI-1-23 AMBI-23 2209;
#X obj 10 480 amb/bus/in~ AMBI-1-24 AMBI-24 2209;
#X obj 10 500 amb/bus/in~ AMBI-1-25 AMBI-25 2209;
#X obj 10 520 amb/bus/in~ AMBI-1-26 AMBI-26 2209;
#X obj 10 540 amb/bus/in~ AMBI-1-27 AMBI-27 2209;
#X obj 10 560 amb/bus/in~ AMBI-1-28 AMBI-28 2209;
#X obj 10 580 amb/bus/in~ AMBI-1-29 AMBI-29 2209;
#X obj 10 600 amb/bus/in~ AMBI-1-30 AMBI-30 2209;
#X obj 10 620 amb/bus/in~ AMBI-1-31 AMBI-31 2209;
#X obj 10 640 amb/bus/in~ AMBI-1-32 AMBI-32 2209;
#X obj 10 660 amb/bus/in~ AMBI-1-33 AMBI-33 2209;
#X obj 10 680 amb/bus/in~ AMBI-1-34 AMBI-34 2209;
#X obj 10 700 amb/bus/in~ AMBI-1-35 AMBI-35 2209;
#X obj 10 720 amb/bus/in~ AMBI-1-36 AMBI-36 2209;
#X restore 33 33 pd \$0-dsp-ins;
#X msg 33 289 \; \$2-\$1/vol 100;
#X connect 1 0 10 0;
#X connect 2 0 0 1;
#X connect 4 0 10 0;
#X connect 5 0 0 0;
#X connect 7 0 5 0;
#X connect 10 0 11 0;
#X connect 10 1 0 0;
#X connect 11 0 13 0;
#X connect 12 0 17 0;
#X connect 13 0 12 0;
#X connect 13 1 14 0;
#X connect 14 0 12 1;
