#N canvas 614 464 518 264 10;
#N canvas 396 540 327 132 init 0;
#X msg 59 50 100;
#X obj 59 29 loadbang;
#X obj 59 73 s \$2-vol;
#X connect 0 0 2 0;
#X connect 1 0 0 0;
#X restore 335 11 pd init;
#X text 5 247 (c) GPL - acre \, ritsch;
#X obj 8 83 r~ \$1~;
#X obj 128 138 mxr/prvu/send~ \$2/vu;
#X text 13 38 In Channel with volume control \, to be used for calibration
or so.;
#X text 14 7 amb/in~ <id in signals> <fader-id> <out bus id>;
#X obj 6 111 mxr/fader/fader~ \$2;
#X obj 8 137 throw~ \$3~;
#X connect 2 0 6 0;
#X connect 6 0 3 0;
#X connect 6 0 7 0;
