#N canvas 862 947 754 162 10;
#N canvas 1414 810 802 498 contruct-buses 1;
#X msg 173 71 clear;
#X obj 38 28 inlet;
#X obj 383 163 t f f b;
#X obj 38 72 acre/count_until;
#X obj 38 50 t f b;
#X obj 383 185 - 1;
#X obj 383 321 + 10;
#X obj 383 297 * 120;
#X obj 383 274 % 8;
#X obj 383 341 pack 10 10 1 s;
#X obj 424 254 / 8;
#X obj 424 276 i;
#X obj 383 207 t f f;
#X obj 207 176 t f f b;
#X obj 207 198 - 1;
#X obj 207 293 * 120;
#X obj 207 271 % 8;
#X obj 207 337 pack 10 10 1 s;
#X obj 249 249 / 8;
#X obj 249 271 i;
#X obj 207 220 t f f;
#X msg 207 359 obj \$1 \$2 s~ \$4-\$3~;
#X obj 38 160 t f f;
#X obj 91 189 + 1;
#X obj 36 441 s pd-\$0-dsp-buses;
#X obj 38 116 - 1;
#X obj 207 315 + 10;
#X obj 173 34 inlet;
#X obj 588 168 t f f b;
#X obj 588 188 - 1;
#X obj 588 326 + 10;
#X obj 588 302 * 120;
#X obj 588 276 % 8;
#X obj 588 346 pack 10 10 1 s;
#X obj 629 259 / 8;
#X obj 629 281 i;
#X obj 629 326 + 10;
#X obj 588 212 t f f;
#X obj 680 315 symbol \$1;
#X obj 38 94 t f f f f f;
#X msg 588 366 obj \$1 \$2 r~ \$4-\$3~;
#X obj 292 45 inlet offset;
#X msg 383 362 obj \$1 \$2 mxr/master/gain~ \$4;
#X obj 424 321 + 30;
#X obj 249 315 + 50;
#X obj 249 293 * 60;
#X obj 424 297 * 60;
#X obj 629 302 * 60;
#X obj 38 224 pack 0 1 2;
#X obj 38 138 * 3;
#X obj 122 189 + 2;
#X msg 37 396 connect \$1 0 \$2 0 \, connect \$2 0 \$3 0;
#X obj 475 310 symbol \$4;
#X obj 302 314 symbol \$3;
#X obj 655 211 + \$5;
#X obj 247 205 + \$6;
#X connect 0 0 24 0;
#X connect 1 0 4 0;
#X connect 2 0 5 0;
#X connect 2 1 9 2;
#X connect 2 2 52 0;
#X connect 3 0 39 0;
#X connect 4 0 3 0;
#X connect 4 1 0 0;
#X connect 5 0 12 0;
#X connect 6 0 9 0;
#X connect 7 0 6 0;
#X connect 8 0 7 0;
#X connect 9 0 42 0;
#X connect 10 0 11 0;
#X connect 11 0 46 0;
#X connect 12 0 8 0;
#X connect 12 1 10 0;
#X connect 13 0 14 0;
#X connect 13 1 55 0;
#X connect 13 2 53 0;
#X connect 14 0 20 0;
#X connect 15 0 26 0;
#X connect 16 0 15 0;
#X connect 17 0 21 0;
#X connect 18 0 19 0;
#X connect 19 0 45 0;
#X connect 20 0 16 0;
#X connect 20 1 18 0;
#X connect 21 0 24 0;
#X connect 22 0 48 0;
#X connect 22 1 23 0;
#X connect 22 1 50 0;
#X connect 23 0 48 1;
#X connect 25 0 49 0;
#X connect 26 0 17 0;
#X connect 27 0 0 0;
#X connect 28 0 29 0;
#X connect 28 1 54 0;
#X connect 28 2 38 0;
#X connect 29 0 37 0;
#X connect 30 0 33 0;
#X connect 31 0 30 0;
#X connect 32 0 31 0;
#X connect 33 0 40 0;
#X connect 34 0 35 0;
#X connect 35 0 47 0;
#X connect 36 0 33 1;
#X connect 37 0 32 0;
#X connect 37 1 34 0;
#X connect 38 0 33 3;
#X connect 39 0 25 0;
#X connect 39 2 13 0;
#X connect 39 3 2 0;
#X connect 39 4 28 0;
#X connect 40 0 24 0;
#X connect 41 0 55 1;
#X connect 42 0 24 0;
#X connect 43 0 9 1;
#X connect 44 0 17 1;
#X connect 45 0 44 0;
#X connect 46 0 43 0;
#X connect 47 0 36 0;
#X connect 48 0 51 0;
#X connect 49 0 22 0;
#X connect 50 0 48 2;
#X connect 51 0 24 0;
#X connect 52 0 9 3;
#X connect 53 0 17 3;
#X connect 54 0 33 2;
#X connect 55 0 17 2;
#X restore 207 116 pd contruct-buses;
#N canvas 75 1062 977 226 \$0-dsp-buses 0;
#X restore 40 89 pd \$0-dsp-buses;
#X obj 349 115 bng 15 250 50 0 empty empty empty 17 7 0 10 #fcfcfc
#000000 #000000;
#X text 366 116 clear before save !;
#X obj 207 63 r /amb/businit;
#X text 21 125 (c) GPL - acre \, ritsch;
#X obj 183 63 bng 15 250 50 0 empty empty empty 17 7 0 10 #fcfcfc #000000
#000000;
#X text 338 65 reconstruct;
#X obj 207 87 i \$2;
#X text 27 40 adds a master to a bus with r~ bus and s~ out (for eg.
dacs);
#X obj 430 47 r \$1/channels;
#X obj 429 70 r \$1/offset;
#X text 33 9 amb/bus/mgain~ <ID in bus> <nr channels> <ID out bus>
<Master ID> [in channel offset] [out channel offset], f 107;
#X connect 2 0 0 1;
#X connect 4 0 8 0;
#X connect 6 0 8 0;
#X connect 8 0 0 0;
#X connect 10 0 8 0;
#X connect 11 0 0 2;
