#N canvas 2462 386 843 179 10;
#N canvas 2695 644 1089 498 contruct-buses 0;
#X msg 173 71 clear;
#X obj 38 28 inlet;
#X obj 383 163 t f f b;
#X obj 38 72 acre/count_until;
#X obj 38 50 t f b;
#X obj 383 185 - 1;
#X obj 383 274 % 8;
#X obj 424 254 / 8;
#X obj 424 276 i;
#X obj 383 207 t f f;
#X obj 207 176 t f f b;
#X obj 207 198 - 1;
#X obj 207 271 % 8;
#X obj 207 337 pack 10 10 1 s;
#X obj 249 249 / 8;
#X obj 249 271 i;
#X obj 207 220 t f f;
#X msg 207 359 obj \$1 \$2 s~ \$4-\$3~;
#X obj 38 160 t f f;
#X obj 91 189 + 1;
#X obj 36 441 s pd-\$0-dsp-buses;
#X obj 38 116 - 1;
#X obj 207 315 + 10;
#X obj 173 34 inlet;
#X obj 696 168 t f f b;
#X obj 696 188 - 1;
#X obj 696 326 + 10;
#X obj 696 276 % 8;
#X obj 696 346 pack 10 10 1 s;
#X obj 737 259 / 8;
#X obj 737 281 i;
#X obj 737 326 + 10;
#X obj 696 212 t f f;
#X msg 696 366 obj \$1 \$2 r~ \$4-\$3~;
#X obj 292 45 inlet offset;
#X obj 122 189 + 2;
#X msg 383 362 obj \$1 \$2 *~ \$4;
#X obj 383 341 pack 10 10 1 0;
#X obj 475 310 \$4;
#X obj 302 314 symbol \$5;
#X obj 207 293 * 200;
#X obj 383 297 * 200;
#X obj 696 302 * 200;
#X obj 529 166 t f f b;
#X obj 529 186 - 1;
#X obj 529 274 % 8;
#X obj 529 344 pack 10 10 1 s;
#X obj 570 257 / 8;
#X obj 570 279 i;
#X obj 529 210 t f f;
#X obj 529 300 * 200;
#X obj 570 324 + 30;
#X obj 570 300 * 80;
#X obj 737 303 * 80;
#X obj 424 297 * 80;
#X obj 249 293 * 80;
#X obj 249 315 + 70;
#X obj 424 321 + 50;
#X msg 529 364 obj \$1 \$2 r \$4;
#X obj 581 227 symbol \$1/gain;
#X obj 38 94 t f f f f f f;
#X obj 247 205 + \$6;
#X obj 38 138 * 4;
#X obj 38 224 pack 0 1 2 3;
#X obj 146 190 + 3;
#X msg 38 396 connect \$1 0 \$3 0 \, connect \$2 0 \$3 1 \, connect
\$3 0 \$4 0;
#X obj 383 321 + 10;
#X obj 529 324 + 30;
#X obj 788 315 symbol \$3;
#X connect 0 0 20 0;
#X connect 1 0 4 0;
#X connect 2 0 5 0;
#X connect 2 1 37 2;
#X connect 2 2 38 0;
#X connect 3 0 60 0;
#X connect 4 0 3 0;
#X connect 4 1 0 0;
#X connect 5 0 9 0;
#X connect 6 0 41 0;
#X connect 7 0 8 0;
#X connect 8 0 54 0;
#X connect 9 0 6 0;
#X connect 9 1 7 0;
#X connect 10 0 11 0;
#X connect 10 1 61 0;
#X connect 10 2 39 0;
#X connect 11 0 16 0;
#X connect 12 0 40 0;
#X connect 13 0 17 0;
#X connect 14 0 15 0;
#X connect 15 0 55 0;
#X connect 16 0 12 0;
#X connect 16 1 14 0;
#X connect 17 0 20 0;
#X connect 18 0 63 0;
#X connect 18 1 19 0;
#X connect 18 1 35 0;
#X connect 18 1 64 0;
#X connect 19 0 63 1;
#X connect 21 0 62 0;
#X connect 22 0 13 0;
#X connect 23 0 0 0;
#X connect 24 0 25 0;
#X connect 24 1 28 2;
#X connect 24 2 68 0;
#X connect 25 0 32 0;
#X connect 26 0 28 0;
#X connect 27 0 42 0;
#X connect 28 0 33 0;
#X connect 29 0 30 0;
#X connect 30 0 53 0;
#X connect 31 0 28 1;
#X connect 32 0 27 0;
#X connect 32 1 29 0;
#X connect 33 0 20 0;
#X connect 34 0 61 1;
#X connect 35 0 63 2;
#X connect 36 0 20 0;
#X connect 37 0 36 0;
#X connect 38 0 37 3;
#X connect 39 0 13 3;
#X connect 40 0 22 0;
#X connect 41 0 66 0;
#X connect 42 0 26 0;
#X connect 43 0 44 0;
#X connect 43 1 46 2;
#X connect 43 2 59 0;
#X connect 44 0 49 0;
#X connect 45 0 50 0;
#X connect 46 0 58 0;
#X connect 47 0 48 0;
#X connect 48 0 52 0;
#X connect 49 0 45 0;
#X connect 49 1 47 0;
#X connect 50 0 67 0;
#X connect 51 0 46 1;
#X connect 52 0 51 0;
#X connect 53 0 31 0;
#X connect 54 0 57 0;
#X connect 55 0 56 0;
#X connect 56 0 13 1;
#X connect 57 0 37 1;
#X connect 58 0 20 0;
#X connect 59 0 46 3;
#X connect 60 0 21 0;
#X connect 60 2 10 0;
#X connect 60 3 2 0;
#X connect 60 4 43 0;
#X connect 60 5 24 0;
#X connect 61 0 13 2;
#X connect 62 0 18 0;
#X connect 63 0 65 0;
#X connect 64 0 63 3;
#X connect 65 0 20 0;
#X connect 66 0 37 0;
#X connect 67 0 46 0;
#X connect 68 0 28 3;
#X restore 207 116 pd contruct-buses;
#N canvas 1104 794 1660 217 \$0-dsp-buses 0;
#X obj 10 10 r~ /musician/0-1~;
#X obj 30 30 r /musician/0/out/sub/gain;
#X obj 10 50 *~ -1;
#X obj 10 70 s~ /musician/0/out-1~;
#X obj 210 10 r~ /musician/0-2~;
#X obj 230 30 r /musician/0/out/sub/gain;
#X obj 210 50 *~ -1;
#X obj 210 70 s~ /musician/0/out-2~;
#X obj 410 10 r~ /musician/0-3~;
#X obj 430 30 r /musician/0/out/sub/gain;
#X obj 410 50 *~ -1;
#X obj 410 70 s~ /musician/0/out-3~;
#X obj 610 10 r~ /musician/0-4~;
#X obj 630 30 r /musician/0/out/sub/gain;
#X obj 610 50 *~ -1;
#X obj 610 70 s~ /musician/0/out-4~;
#X obj 810 10 r~ /musician/0-5~;
#X obj 830 30 r /musician/0/out/sub/gain;
#X obj 810 50 *~ -1;
#X obj 810 70 s~ /musician/0/out-5~;
#X obj 1010 10 r~ /musician/0-6~;
#X obj 1030 30 r /musician/0/out/sub/gain;
#X obj 1010 50 *~ -1;
#X obj 1010 70 s~ /musician/0/out-6~;
#X obj 1210 10 r~ /musician/0-7~;
#X obj 1230 30 r /musician/0/out/sub/gain;
#X obj 1210 50 *~ -1;
#X obj 1210 70 s~ /musician/0/out-7~;
#X obj 1410 10 r~ /musician/0-8~;
#X obj 1430 30 r /musician/0/out/sub/gain;
#X obj 1410 50 *~ -1;
#X obj 1410 70 s~ /musician/0/out-8~;
#X obj 10 90 r~ /musician/0-9~;
#X obj 30 110 r /musician/0/out/sub/gain;
#X obj 10 130 *~ -1;
#X obj 10 150 s~ /musician/0/out-9~;
#X obj 210 90 r~ /musician/0-10~;
#X obj 230 110 r /musician/0/out/sub/gain;
#X obj 210 130 *~ -1;
#X obj 210 150 s~ /musician/0/out-10~;
#X obj 410 90 r~ /musician/0-11~;
#X obj 430 110 r /musician/0/out/sub/gain;
#X obj 410 130 *~ -1;
#X obj 410 150 s~ /musician/0/out-11~;
#X obj 610 90 r~ /musician/0-12~;
#X obj 630 110 r /musician/0/out/sub/gain;
#X obj 610 130 *~ -1;
#X obj 610 150 s~ /musician/0/out-12~;
#X obj 810 90 r~ /musician/0-13~;
#X obj 830 110 r /musician/0/out/sub/gain;
#X obj 810 130 *~ -1;
#X obj 810 150 s~ /musician/0/out-13~;
#X obj 1010 90 r~ /musician/0-14~;
#X obj 1030 110 r /musician/0/out/sub/gain;
#X obj 1010 130 *~ -1;
#X obj 1010 150 s~ /musician/0/out-14~;
#X obj 1210 90 r~ /musician/0-15~;
#X obj 1230 110 r /musician/0/out/sub/gain;
#X obj 1210 130 *~ -1;
#X obj 1210 150 s~ /musician/0/out-15~;
#X obj 1410 90 r~ /musician/0-16~;
#X obj 1430 110 r /musician/0/out/sub/gain;
#X obj 1410 130 *~ -1;
#X obj 1410 150 s~ /musician/0/out-16~;
#X connect 0 0 2 0;
#X connect 1 0 2 1;
#X connect 2 0 3 0;
#X connect 4 0 6 0;
#X connect 5 0 6 1;
#X connect 6 0 7 0;
#X connect 8 0 10 0;
#X connect 9 0 10 1;
#X connect 10 0 11 0;
#X connect 12 0 14 0;
#X connect 13 0 14 1;
#X connect 14 0 15 0;
#X connect 16 0 18 0;
#X connect 17 0 18 1;
#X connect 18 0 19 0;
#X connect 20 0 22 0;
#X connect 21 0 22 1;
#X connect 22 0 23 0;
#X connect 24 0 26 0;
#X connect 25 0 26 1;
#X connect 26 0 27 0;
#X connect 28 0 30 0;
#X connect 29 0 30 1;
#X connect 30 0 31 0;
#X connect 32 0 34 0;
#X connect 33 0 34 1;
#X connect 34 0 35 0;
#X connect 36 0 38 0;
#X connect 37 0 38 1;
#X connect 38 0 39 0;
#X connect 40 0 42 0;
#X connect 41 0 42 1;
#X connect 42 0 43 0;
#X connect 44 0 46 0;
#X connect 45 0 46 1;
#X connect 46 0 47 0;
#X connect 48 0 50 0;
#X connect 49 0 50 1;
#X connect 50 0 51 0;
#X connect 52 0 54 0;
#X connect 53 0 54 1;
#X connect 54 0 55 0;
#X connect 56 0 58 0;
#X connect 57 0 58 1;
#X connect 58 0 59 0;
#X connect 60 0 62 0;
#X connect 61 0 62 1;
#X connect 62 0 63 0;
#X restore 40 89 pd \$0-dsp-buses;
#X obj 349 115 bng 15 250 50 0 empty empty empty 17 7 0 10 -262144
-1 -1;
#X text 366 116 clear before save !;
#X obj 207 63 r /amb/businit;
#X text 21 125 (c) GPL - acre \, ritsch;
#X obj 183 63 bng 15 250 50 0 empty empty empty 17 7 0 10 -262144 -1
-1;
#X text 338 65 reconstruct;
#X obj 207 87 i \$2;
#X obj 430 47 r \$1/channels;
#X obj 429 70 r \$1/offset;
#X text 32 9 amb/bus/mixgain~ <ID bus> <nr channels> <bus in> <gain
fakt> <bus out>[channel offset], f 88;
#X text 26 40 multiplies a gain factor to an in bus with and sends
it s~ out;
#X obj 539 63 inlet~;
#X obj 539 104 outlet~;
#X text 531 86 for order forcing if needed;
#X obj 603 68 inlet;
#X obj 604 104 s \$1/gain;
#X connect 2 0 0 1;
#X connect 4 0 8 0;
#X connect 6 0 8 0;
#X connect 8 0 0 0;
#X connect 9 0 8 0;
#X connect 10 0 0 2;
#X connect 16 0 17 0;
