#N canvas 988 461 630 233 10;
#X obj 26 101 bng 15 250 50 0 empty empty empty 17 7 0 10 -262144 -1
-1;
#X obj 121 169 bng 15 250 50 0 empty empty empty 17 7 0 10 -262144
-1 -1;
#X text 140 169 clear before save !;
#X obj 11 81 r /amb/businit;
#X obj 72 143 max 1;
#X text 118 146 dyn set nr of channels;
#X text 46 98 reconstruct;
#X obj 72 121 r \$1/number;
#X text 16 212 (c) GPL - acre \, ritsch;
#X text 158 124 Be carfully some system go crazy with this;
#X obj 11 124 t b;
#N canvas 271 127 1041 337 \$0-mix 0;
#X restore 11 57 pd \$0-mix;
#N canvas 631 383 716 403 contruct-mix 0;
#X msg 168 93 clear;
#X obj 41 117 t b f f f;
#X obj 87 17 bng 15 250 50 0 empty empty empty 17 7 0 10 -262144 -1
-1;
#X obj 479 209 symbol \$3;
#X obj 371 112 t f f b;
#X obj 42 186 * 2;
#X obj 42 208 t f f;
#X obj 74 230 + 1;
#X msg 40 307 connect \$1 0 \$2 0;
#X obj 43 160 - 1;
#X obj 42 14 inlet;
#X obj 42 257 pack 0 1;
#X obj 369 290 pack 10 10 1 s;
#X obj 369 223 % 8;
#X obj 404 201 / 8;
#X obj 406 242 * 80;
#X obj 177 234 % 8;
#X obj 226 192 / 8;
#X obj 229 261 + 50;
#X obj 404 223 i;
#X obj 226 214 i;
#X obj 226 236 * 80;
#X obj 369 155 - 1;
#X obj 177 189 - 1;
#X obj 177 211 t f f;
#X obj 177 258 * 80;
#X obj 369 261 * 80;
#X obj 168 54 inlet;
#X obj 443 197 % 2;
#X obj 443 241 + 10;
#X obj 369 177 t f f f;
#X obj 443 219 * 20;
#X obj 42 47 i \$2;
#X obj 42 69 t f b;
#X obj 41 95 acre/count_until;
#X text 101 16 reconstruct;
#X text 216 51 clear;
#X obj 252 70 loadbang;
#X obj 252 136 - 1;
#X obj 252 114 max 1;
#X obj 255 195 + 0;
#X obj 176 288 pack 10 50 1 s;
#X obj 283 194 % 2;
#X obj 283 216 * 20;
#X obj 402 21 loadbang;
#X obj 402 87 - 1;
#X obj 402 65 max 1;
#X obj 408 148 + 0;
#X text 277 50 bus offset;
#X obj 177 161 t f f f b;
#X obj 405 261 + 10;
#X obj 34 337 s pd-\$0-mix;
#X obj 252 92 i \$5;
#X obj 402 43 i \$6;
#X msg 177 312 obj \$1 \$2 throw~ \$4-\$3~;
#X obj 273 263 symbol \$4;
#X msg 407 314 obj \$1 \$2 r~ \$4-\$3~;
#X obj 283 238 + 50;
#X text 443 43 receives offset;
#X connect 0 0 51 0;
#X connect 1 1 9 0;
#X connect 1 2 49 0;
#X connect 1 3 4 0;
#X connect 2 0 32 0;
#X connect 3 0 12 3;
#X connect 4 0 22 0;
#X connect 4 1 47 0;
#X connect 4 2 3 0;
#X connect 5 0 6 0;
#X connect 6 0 11 0;
#X connect 6 1 7 0;
#X connect 7 0 11 1;
#X connect 8 0 51 0;
#X connect 9 0 5 0;
#X connect 10 0 32 0;
#X connect 11 0 8 0;
#X connect 12 0 56 0;
#X connect 13 0 26 0;
#X connect 14 0 19 0;
#X connect 15 0 50 0;
#X connect 16 0 25 0;
#X connect 17 0 20 0;
#X connect 18 0 41 1;
#X connect 19 0 15 0;
#X connect 20 0 21 0;
#X connect 21 0 18 0;
#X connect 22 0 30 0;
#X connect 23 0 24 0;
#X connect 24 0 16 0;
#X connect 24 1 17 0;
#X connect 25 0 41 0;
#X connect 26 0 12 0;
#X connect 27 0 0 0;
#X connect 28 0 31 0;
#X connect 29 0 50 1;
#X connect 30 0 13 0;
#X connect 30 1 14 0;
#X connect 30 2 28 0;
#X connect 31 0 29 0;
#X connect 32 0 33 0;
#X connect 33 0 34 0;
#X connect 33 1 0 0;
#X connect 33 1 52 0;
#X connect 34 0 1 0;
#X connect 37 0 52 0;
#X connect 38 0 40 1;
#X connect 39 0 38 0;
#X connect 40 0 41 2;
#X connect 41 0 54 0;
#X connect 42 0 43 0;
#X connect 43 0 57 0;
#X connect 44 0 53 0;
#X connect 45 0 47 1;
#X connect 46 0 45 0;
#X connect 47 0 12 2;
#X connect 49 0 23 0;
#X connect 49 1 40 0;
#X connect 49 2 42 0;
#X connect 49 3 55 0;
#X connect 50 0 12 1;
#X connect 52 0 39 0;
#X connect 53 0 46 0;
#X connect 54 0 51 0;
#X connect 55 0 41 3;
#X connect 56 0 51 0;
#X connect 57 0 18 1;
#X restore 11 190 pd contruct-mix;
#X text 13 1 amb/bus/mix~ <ID> <nr channels> <ID received signals>
<Bus ID> [in offset] [bus offset], f 89;
#X text 18 23 Collects signals from s~ and mix in multi channel bus
with throw~ with optional number ins offset and outs., f 76;
#X connect 0 0 10 0;
#X connect 1 0 12 1;
#X connect 3 0 10 0;
#X connect 4 0 12 0;
#X connect 7 0 4 0;
#X connect 10 0 12 0;
