#N canvas 443 456 434 246 10;
#X obj 334 109 bng 15 250 50 0 empty empty empty 17 7 0 10 -262144
-1 -1;
#X text 298 86 clear before save !;
#X obj 183 60 r /amb/encinit;
#X text 21 205 (c) GPL - acre \, ritsch;
#N canvas 746 667 781 351 contruct-out_ds 0;
#X msg 154 70 clear;
#X obj 59 40 bng 15 250 50 0 empty empty empty 17 7 0 10 -262144 -1
-1;
#X obj 41 15 inlet;
#X obj 36 150 t f f b;
#X obj 31 174 * 20;
#X obj 35 115 acre/count_until;
#X obj 179 16 inlet;
#X obj 154 95 s pd-\$0-ds-outs;
#X obj 31 269 s pd-\$0-ds-outs;
#X obj 35 93 t f b;
#X obj 37 64 i \$3;
#X obj 105 174 symbol \$2;
#X obj 179 176 symbol \$1;
#X msg 33 242 obj 10 \$1 amb/bus/out_ds \$4 \$3-\$2;
#X obj 35 214 pack 10 1 s s;
#X obj 68 177 + \$4;
#X connect 0 0 7 0;
#X connect 1 0 10 0;
#X connect 2 0 10 0;
#X connect 3 0 4 0;
#X connect 3 1 15 0;
#X connect 3 2 11 0;
#X connect 3 2 12 0;
#X connect 4 0 14 0;
#X connect 5 0 3 0;
#X connect 6 0 0 0;
#X connect 9 0 5 0;
#X connect 9 1 0 0;
#X connect 10 0 9 0;
#X connect 11 0 14 2;
#X connect 12 0 14 3;
#X connect 13 0 8 0;
#X connect 14 0 13 0;
#X connect 15 0 14 1;
#X restore 183 130 pd contruct-out_ds;
#N canvas 78 528 383 521 \$0-ds-outs 1;
#X restore 49 59 pd \$0-ds-outs;
#X obj 246 94 max 1;
#X obj 296 61 r \$1/number;
#X text 33 33 Data storage for amb/outs~;
#X obj 142 96 bng 15 250 50 0 empty empty reconstruct 17 7 0 10 -262144
-1 -1;
#X text 33 11 amb/outs_ds <storage domain> <ID> <nr channels> [offset]
, f 84;
#X connect 0 0 4 1;
#X connect 2 0 4 0;
#X connect 6 0 4 0;
#X connect 7 0 6 0;
#X connect 9 0 4 0;
