#N canvas 352 594 439 264 10;
#N canvas 396 917 327 132 init 0;
#X msg 59 50 100;
#X msg 136 51 0;
#X obj 59 29 loadbang;
#X obj 59 73 s \$3/vol;
#X obj 135 75 s \$3/del;
#X connect 0 0 3 0;
#X connect 1 0 4 0;
#X connect 2 0 0 0;
#X connect 2 0 1 0;
#X restore 287 9 pd init;
#X text 5 247 (c) GPL - acre \, ritsch;
#X obj 8 162 delread~ \$0-amb_out_del 0;
#X obj 7 137 delwrite~ \$0-amb_out_del 100;
#X text 222 138 time compensation;
#X obj 280 118 min 100;
#X text 12 39 Out Channel \, eg used for compensation of time and Amplitude
and master-gain.;
#X obj 7 184 mxr/master/gain~ \$2;
#X obj 7 228 s~ \$1~;
#X text 73 207 Pre-Master Vu;
#X obj 8 83 r~ \$3~;
#X text 14 7 amb/out~ <id out> <master id> <id>;
#X obj 7 111 mxr/fader/fader~ \$3;
#X obj 280 96 r \$3/del;
#X obj 65 228 mxr/prvu/send~ \$3/vu;
#X connect 2 0 14 0;
#X connect 2 0 7 0;
#X connect 5 0 2 0;
#X connect 7 0 8 0;
#X connect 10 0 12 0;
#X connect 12 0 3 0;
#X connect 13 0 5 0;
