#N canvas 1325 455 591 483 10;
#X obj 57 82 bng 15 250 50 0 empty empty empty 17 7 0 10 -262144 -1
-1;
#X obj 175 141 bng 15 250 50 0 empty empty empty 17 7 0 10 -262144
-1 -1;
#X text 194 141 clear before save !;
#X obj 33 61 r /amb/businit;
#X obj 174 86 max 1;
#X text 75 85 reconstruct;
#X obj 174 64 r \$1/channels;
#X text 172 45 dyn set channel count;
#X text 30 380 (c) GPL - acre \, ritsch;
#X obj 33 194 acre/count_until \$2;
#X text 24 4 amb/bus/spats~ <ID> <nr channels> <bus ID> <AMBI bus>
<dimen> <order> [in offset], f 84;
#N canvas 73 778 306 562 \$0-dsp-spats 0;
#X obj 10 40 r~ ZUSP-1~;
#X obj 10 60 amb/spat/ch~ zusp-1 3D 5 AMBI 1;
#X obj 10 80 r~ ZUSP-2~;
#X obj 10 100 amb/spat/ch~ zusp-2 3D 5 AMBI 1;
#X obj 10 120 r~ ZUSP-3~;
#X obj 10 140 amb/spat/ch~ zusp-3 3D 5 AMBI 1;
#X obj 10 160 r~ ZUSP-4~;
#X obj 10 180 amb/spat/ch~ zusp-4 3D 5 AMBI 1;
#X obj 10 200 r~ ZUSP-5~;
#X obj 10 220 amb/spat/ch~ zusp-5 3D 5 AMBI 1;
#X obj 10 240 r~ ZUSP-6~;
#X obj 10 260 amb/spat/ch~ zusp-6 3D 5 AMBI 1;
#X obj 10 280 r~ ZUSP-7~;
#X obj 10 300 amb/spat/ch~ zusp-7 3D 5 AMBI 1;
#X obj 10 320 r~ ZUSP-8~;
#X obj 10 340 amb/spat/ch~ zusp-8 3D 5 AMBI 1;
#X obj 10 360 r~ ZUSP-9~;
#X obj 10 380 amb/spat/ch~ zusp-9 3D 5 AMBI 1;
#X obj 10 400 r~ ZUSP-10~;
#X obj 10 420 amb/spat/ch~ zusp-10 3D 5 AMBI 1;
#X obj 10 440 r~ ZUSP-11~;
#X obj 10 460 amb/spat/ch~ zusp-11 3D 5 AMBI 1;
#X obj 10 480 r~ ZUSP-12~;
#X obj 10 500 amb/spat/ch~ zusp-12 3D 5 AMBI 1;
#X obj 10 520 r~ ZUSP-13~;
#X obj 10 540 amb/spat/ch~ zusp-13 3D 5 AMBI 1;
#X connect 0 0 1 0;
#X connect 2 0 3 0;
#X connect 4 0 5 0;
#X connect 6 0 7 0;
#X connect 8 0 9 0;
#X connect 10 0 11 0;
#X connect 12 0 13 0;
#X connect 14 0 15 0;
#X connect 16 0 17 0;
#X connect 18 0 19 0;
#X connect 20 0 21 0;
#X connect 22 0 23 0;
#X connect 24 0 25 0;
#X restore 33 33 pd \$0-dsp-spats;
#N canvas 618 176 886 452 contruct-spats 0;
#X msg 156 150 clear;
#X obj 81 15 bng 15 250 50 0 empty empty empty 17 7 0 10 -262144 -1
-1;
#X obj 37 15 inlet;
#X obj 108 220 t f f b;
#X obj 160 16 inlet;
#X obj 33 100 i \$2;
#X obj 33 126 t f b;
#X obj 33 175 acre/count_until;
#X obj 145 245 + 0;
#X obj 182 243 symbol \$1;
#X obj 236 100 i \$7;
#X obj 109 378 s pd-\$0-dsp-spats;
#X obj 156 174 s pd-\$0-dsp-spats;
#X obj 107 284 pack 10 1 s;
#X obj 109 303 list append \$3 \$4 \$5 \$6;
#X obj 33 196 t f f f;
#X obj 353 245 t f f b;
#X obj 390 270 + 0;
#X obj 353 376 s pd-\$0-dsp-spats;
#X obj 354 307 pack 10 1 s;
#X obj 427 268 symbol \$3;
#X obj 353 269 * 40;
#X obj 108 244 * 40;
#X obj 108 265 + 20;
#X obj 33 381 pack 0 1;
#X obj 33 421 s pd-\$0-dsp-spats;
#X obj 33 316 * 2;
#X obj 33 337 t f f;
#X obj 33 358 + 1;
#X msg 33 401 connect \$2 0 \$1 0;
#X obj 36 246 - 1;
#X msg 354 358 obj 10 \$1 r~ \$3-\$2~;
#X text 264 146 BUS offset;
#X msg 108 357 obj 10 \$1 amb/spat/ch~ \$3-\$2 \$5 \$6 \$7 \$8;
#X obj 109 328 list append \$8;
#X obj 236 122 max 0;
#X obj 236 144 + 0;
#X obj 55 77 bng 15 250 50 0 empty empty empty 17 7 0 10 -262144 -1
-1;
#X obj 37 36 t a b;
#X obj 98 100 i \$8;
#X connect 0 0 12 0;
#X connect 1 0 38 0;
#X connect 2 0 38 0;
#X connect 3 0 22 0;
#X connect 3 1 8 0;
#X connect 3 2 9 0;
#X connect 4 0 0 0;
#X connect 5 0 6 0;
#X connect 6 0 7 0;
#X connect 6 1 0 0;
#X connect 7 0 15 0;
#X connect 8 0 13 1;
#X connect 9 0 13 2;
#X connect 10 0 35 0;
#X connect 13 0 14 0;
#X connect 14 0 34 0;
#X connect 15 0 30 0;
#X connect 15 1 3 0;
#X connect 15 2 16 0;
#X connect 16 0 21 0;
#X connect 16 1 17 0;
#X connect 16 2 20 0;
#X connect 17 0 19 1;
#X connect 19 0 31 0;
#X connect 20 0 19 2;
#X connect 21 0 19 0;
#X connect 22 0 23 0;
#X connect 23 0 13 0;
#X connect 24 0 29 0;
#X connect 26 0 27 0;
#X connect 27 0 28 0;
#X connect 27 1 24 1;
#X connect 28 0 24 0;
#X connect 29 0 25 0;
#X connect 30 0 26 0;
#X connect 31 0 18 0;
#X connect 33 0 11 0;
#X connect 34 0 33 0;
#X connect 35 0 36 0;
#X connect 36 0 17 1;
#X connect 37 0 5 0;
#X connect 38 0 5 0;
#X connect 38 1 10 0;
#X connect 38 1 39 0;
#X connect 39 0 34 1;
#X restore 63 163 pd contruct-spats;
#X obj 58 273 symbol \$1;
#X obj 33 219 t f b f f;
#X obj 30 298 pack 0 s 0;
#X obj 144 274 * 15;
#X msg 165 220 360 \$1;
#X obj 165 196 i \$2;
#X obj 165 241 /;
#X obj 33 100 t b b b;
#X msg 30 318 \; \$2-\$1/azimuth \$3 \; \$2-\$1/elevation 0 \; \$2-\$1/dist
1;
#X connect 0 0 20 0;
#X connect 1 0 12 1;
#X connect 3 0 20 0;
#X connect 4 0 12 0;
#X connect 6 0 4 0;
#X connect 9 0 14 0;
#X connect 13 0 15 1;
#X connect 14 0 15 0;
#X connect 14 1 13 0;
#X connect 14 3 16 0;
#X connect 15 0 21 0;
#X connect 16 0 15 2;
#X connect 17 0 19 0;
#X connect 18 0 17 0;
#X connect 19 0 16 1;
#X connect 20 0 9 0;
#X connect 20 1 12 0;
#X connect 20 2 18 0;
