#N canvas 1325 455 591 483 10;
#X obj 57 82 bng 15 250 50 0 empty empty empty 17 7 0 10 -262144 -1
-1;
#X obj 175 141 bng 15 250 50 0 empty empty empty 17 7 0 10 -262144
-1 -1;
#X text 194 141 clear before save !;
#X obj 33 61 r /amb/businit;
#X obj 174 86 max 1;
#X text 75 85 reconstruct;
#X obj 174 64 r \$1/channels;
#X text 172 45 dyn set channel count;
#X text 30 380 (c) GPL - acre \, ritsch;
#X obj 33 194 acre/count_until \$2;
#X text 24 4 amb/bus/spats~ <ID> <nr channels> <bus ID> <AMBI bus>
<dimen> <order> [in offset], f 84;
#N canvas 24 274 306 562 \$0-dsp-spats 1;
#X restore 33 33 pd \$0-dsp-spats;
#N canvas 618 176 670 452 contruct-spats 0;
#X msg 160 90 clear;
#X obj 81 15 bng 15 250 50 0 empty empty empty 17 7 0 10 -262144 -1
-1;
#X obj 37 15 inlet;
#X obj 111 184 t f f b;
#X obj 160 16 inlet;
#X obj 37 40 i \$2;
#X obj 37 66 t f b;
#X obj 37 115 acre/count_until;
#X obj 240 18 loadbang;
#X obj 240 84 - 1;
#X obj 240 62 max 1;
#X obj 148 209 + 0;
#X text 268 86 out offset;
#X obj 185 207 symbol \$1;
#X obj 240 40 i \$7;
#X obj 113 318 s pd-\$0-dsp-spats;
#X obj 160 114 s pd-\$0-dsp-spats;
#X obj 110 248 pack 10 1 s;
#X obj 112 267 list append \$3 \$4 \$5 \$6;
#X obj 37 136 t f f f;
#X obj 357 185 t f f b;
#X obj 394 210 + 0;
#X obj 357 316 s pd-\$0-dsp-spats;
#X obj 358 247 pack 10 1 s;
#X obj 431 208 symbol \$3;
#X obj 357 209 * 40;
#X obj 111 208 * 40;
#X obj 111 229 + 20;
#X obj 37 321 pack 0 1;
#X obj 37 361 s pd-\$0-dsp-spats;
#X obj 37 256 * 2;
#X obj 37 277 t f f;
#X obj 37 298 + 1;
#X msg 37 341 connect \$2 0 \$1 0;
#X obj 40 186 - 1;
#X msg 358 298 obj 10 \$1 r~ \$3-\$2~;
#X msg 112 297 obj 10 \$1 amb/spat/ch~ \$3-\$2 \$5 \$6 \$7 1;
#X connect 0 0 16 0;
#X connect 1 0 5 0;
#X connect 2 0 5 0;
#X connect 3 0 26 0;
#X connect 3 1 11 0;
#X connect 3 2 13 0;
#X connect 4 0 0 0;
#X connect 5 0 6 0;
#X connect 6 0 7 0;
#X connect 6 1 0 0;
#X connect 7 0 19 0;
#X connect 8 0 14 0;
#X connect 9 0 11 1;
#X connect 10 0 9 0;
#X connect 11 0 17 1;
#X connect 13 0 17 2;
#X connect 14 0 10 0;
#X connect 17 0 18 0;
#X connect 18 0 36 0;
#X connect 19 0 34 0;
#X connect 19 1 3 0;
#X connect 19 2 20 0;
#X connect 20 0 25 0;
#X connect 20 1 21 0;
#X connect 20 2 24 0;
#X connect 21 0 23 1;
#X connect 23 0 35 0;
#X connect 24 0 23 2;
#X connect 25 0 23 0;
#X connect 26 0 27 0;
#X connect 27 0 17 0;
#X connect 28 0 33 0;
#X connect 30 0 31 0;
#X connect 31 0 32 0;
#X connect 31 1 28 1;
#X connect 32 0 28 0;
#X connect 33 0 29 0;
#X connect 34 0 30 0;
#X connect 35 0 22 0;
#X connect 36 0 15 0;
#X restore 63 163 pd contruct-spats;
#X obj 74 273 symbol \$1;
#X obj 33 219 t f b f f;
#X obj 30 298 pack 0 s 0;
#X obj 144 276 * 15;
#X msg 196 222 360 \$1;
#X obj 195 198 i \$2;
#X obj 196 243 /;
#X obj 33 100 t b b b;
#X msg 30 318 \; \$2-\$1/azimuth \$3 \; \$2-\$1/elevation 0 \; \$2-\$1/dist
1;
#X connect 0 0 20 0;
#X connect 1 0 12 1;
#X connect 3 0 20 0;
#X connect 4 0 12 0;
#X connect 6 0 4 0;
#X connect 9 0 14 0;
#X connect 13 0 15 1;
#X connect 14 0 15 0;
#X connect 14 1 13 0;
#X connect 14 3 16 0;
#X connect 15 0 21 0;
#X connect 16 0 15 2;
#X connect 17 0 19 0;
#X connect 18 0 17 0;
#X connect 19 0 16 1;
#X connect 20 0 9 0;
#X connect 20 1 12 0;
#X connect 20 2 18 0;
