#N canvas 1115 454 464 476 10;
#N canvas 574 367 450 300 init 0;
#X obj 103 58 loadbang;
#X obj 231 68 bng 15 250 50 0 empty empty empty 17 7 0 10 -262144 -1
-1;
#X msg 104 128 \; \$1/pulse/on 0 \; \$1/pulse/time 500 \; \$1/sel 0
\; \$1/freq 220 \; \$1/vol 60;
#X obj 104 106 list append \$1;
#X connect 0 0 3 0;
#X connect 1 0 3 0;
#X connect 3 0 2 0;
#X restore 356 112 pd init;
#X obj 276 134 switch~;
#X obj 276 112 r \$1/on;
#N canvas 1414 538 421 296 contruct-outs 1;
#X msg 160 90 clear;
#X obj 81 15 bng 15 250 50 0 empty empty empty 17 7 0 10 -262144 -1
-1;
#X obj 37 15 inlet;
#X obj 111 160 symbol \$3;
#X obj 37 136 t f f b;
#X obj 37 160 * 20;
#X obj 160 16 inlet;
#X obj 37 40 i \$2;
#X obj 37 66 t f b;
#X obj 37 115 acre/count_until;
#X obj 240 18 loadbang;
#X obj 240 84 - 1;
#X obj 240 62 max 1;
#X obj 74 161 + 0;
#X text 268 86 out offset;
#X obj 240 40 i \$5;
#X obj 37 182 pack 10 1 s;
#X obj 37 202 list append \$4;
#X msg 37 222 obj 10 \$1 amb/bus/out~ \$3-\$2 \$4;
#X obj 160 114 s pd-\$0-dsp-tones;
#X obj 37 242 s pd-\$0-dsp-tones;
#X connect 0 0 19 0;
#X connect 1 0 7 0;
#X connect 2 0 7 0;
#X connect 3 0 16 2;
#X connect 4 0 5 0;
#X connect 4 1 13 0;
#X connect 4 2 3 0;
#X connect 5 0 16 0;
#X connect 6 0 0 0;
#X connect 7 0 8 0;
#X connect 8 0 9 0;
#X connect 8 1 0 0;
#X connect 9 0 4 0;
#X connect 10 0 15 0;
#X connect 11 0 13 1;
#X connect 12 0 11 0;
#X connect 13 0 16 1;
#X connect 15 0 12 0;
#X connect 16 0 17 0;
#X connect 17 0 18 0;
#X connect 18 0 20 0;
#X restore 65 213 pd contruct-outs;
#X obj 79 156 bng 15 250 50 0 empty empty empty 17 7 0 10 -262144 -1
-1;
#X obj 175 191 bng 15 250 50 0 empty empty empty 17 7 0 10 -262144
-1 -1;
#X text 194 191 clear before save !;
#X obj 33 111 r /amb/businit;
#X obj 174 106 max 1;
#X text 97 159 reconstruct;
#X obj 174 84 r \$1/channels;
#X text 172 65 dyn set channel count;
#X obj 33 150 t b b;
#X obj 33 244 acre/count_until \$2;
#X obj 33 319 pack 0 s;
#X obj 33 269 t f b;
#X obj 77 294 symbol \$3;
#X msg 33 339 \; \$2-\$1/vol 100 \; \$2-\$1/del 0;
#N canvas 91 528 241 521 \$0-dsp-tones 0;
#X obj 10 20 amb/bus/out~ out-1 M;
#X obj 10 40 amb/bus/out~ out-2 M;
#X obj 10 60 amb/bus/out~ out-3 M;
#X obj 10 80 amb/bus/out~ out-4 M;
#X obj 10 100 amb/bus/out~ out-5 M;
#X obj 10 120 amb/bus/out~ out-6 M;
#X obj 10 140 amb/bus/out~ out-7 M;
#X obj 10 160 amb/bus/out~ out-8 M;
#X obj 10 180 amb/bus/out~ out-9 M;
#X obj 10 200 amb/bus/out~ out-10 M;
#X obj 10 220 amb/bus/out~ out-11 M;
#X obj 10 240 amb/bus/out~ out-12 M;
#X obj 10 260 amb/bus/out~ out-13 M;
#X obj 10 280 amb/bus/out~ out-14 M;
#X obj 10 300 amb/bus/out~ out-15 M;
#X obj 10 320 amb/bus/out~ out-16 M;
#X obj 10 340 amb/bus/out~ out-17 M;
#X obj 10 360 amb/bus/out~ out-18 M;
#X obj 10 380 amb/bus/out~ out-19 M;
#X obj 10 400 amb/bus/out~ out-20 M;
#X obj 10 420 amb/bus/out~ out-21 M;
#X obj 10 440 amb/bus/out~ out-22 M;
#X obj 10 460 amb/bus/out~ out-23 M;
#X obj 10 480 amb/bus/out~ out-24 M;
#X obj 10 500 amb/bus/out~ out-25 M;
#X obj 10 520 amb/bus/out~ out-26 M;
#X obj 10 540 amb/bus/out~ out-27 M;
#X obj 10 560 amb/bus/out~ out-28 M;
#X obj 10 580 amb/bus/out~ out-29 M;
#X obj 10 600 amb/bus/out~ out-30 M;
#X obj 10 620 amb/bus/out~ out-31 M;
#X obj 10 640 amb/bus/out~ out-32 M;
#X obj 10 660 amb/bus/out~ out-33 M;
#X obj 10 680 amb/bus/out~ out-34 M;
#X obj 10 700 amb/bus/out~ out-35 M;
#X restore 33 83 pd \$0-dsp-tones;
#X text 36 7 mxr/test/tones~ <id> <nr channels> <out receives>;
#X connect 2 0 1 0;
#X connect 4 0 12 0;
#X connect 5 0 3 1;
#X connect 7 0 12 0;
#X connect 8 0 3 0;
#X connect 10 0 8 0;
#X connect 12 0 13 0;
#X connect 12 1 3 0;
#X connect 13 0 15 0;
#X connect 14 0 17 0;
#X connect 15 0 14 0;
#X connect 15 1 16 0;
#X connect 16 0 14 1;
