#N canvas 811 428 464 476 10;
#X obj 57 261 mux~ . . .;
#X obj 27 172 noise~;
#X obj 29 134 osc~ 220;
#X obj 57 287 *~;
#X obj 237 285 line~;
#X obj 237 262 pack 0 3;
#X obj 233 217 metro 500;
#X obj 183 218 sel 0;
#X obj 188 192 t f f;
#X msg 183 240 1;
#X obj 57 330 *~;
#X obj 105 370 line~;
#X obj 105 349 pack 0 100;
#X obj 173 326 r /mxr/fadetime;
#X msg 314 362 0 3;
#X obj 290 339 sel 0 1;
#X obj 113 142 phasor~;
#X obj 113 164 -~ 0.5;
#X obj 113 186 *~ 2;
#X obj 105 327 dbtorms;
#X obj 244 241 tgl 15 0 empty empty empty 17 7 0 10 -262144 -1 -1 0
1;
#X text 36 7 mxr/test/tones~ <id>;
#X text 154 427 (c) GPL \, acre - winfried ritsch;
#X obj 31 98 mtof;
#X obj 31 76 + \$3;
#X obj 56 423 throw~ \$1~;
#X obj 190 170 r \$2/pulse/on;
#X obj 251 197 r \$2/pulse/time;
#X obj 287 310 r \$2/mute;
#X obj 31 50 r \$2/pitch;
#X obj 106 305 r \$2/vol;
#X obj 58 214 r \$2/sel;
#X connect 0 0 3 0;
#X connect 1 0 0 0;
#X connect 2 0 0 1;
#X connect 3 0 10 0;
#X connect 4 0 3 1;
#X connect 5 0 4 0;
#X connect 6 0 20 0;
#X connect 7 0 9 0;
#X connect 8 0 7 0;
#X connect 8 1 6 0;
#X connect 9 0 5 0;
#X connect 10 0 25 0;
#X connect 11 0 10 1;
#X connect 12 0 11 0;
#X connect 13 0 12 1;
#X connect 14 0 11 0;
#X connect 15 0 12 0;
#X connect 15 1 14 0;
#X connect 16 0 17 0;
#X connect 17 0 18 0;
#X connect 18 0 0 2;
#X connect 19 0 12 0;
#X connect 20 0 5 0;
#X connect 23 0 2 0;
#X connect 23 0 16 0;
#X connect 24 0 23 0;
#X connect 26 0 8 0;
#X connect 27 0 6 1;
#X connect 28 0 15 0;
#X connect 29 0 24 0;
#X connect 30 0 19 0;
#X connect 31 0 0 0;
