#N canvas 1139 568 356 330 10;
#X obj 101 101 cnv 15 98 198 empty empty testones_\$1 1 7 0 10 -204786
-66577 0;
#X obj 145 116 tgl 30 0 \$1/on \$1/on ON 2 16 0 24 -4034 -1 -1 0 1
;
#X obj 145 144 vradio 15 1 0 5 \$1/sel \$1/sel empty 0 -8 0 10 -262144
-1 -1 2;
#X text 162 146 pink;
#X text 162 163 sin;
#X text 163 177 saw;
#X obj 145 225 nbx 5 14 -1e+37 1e+37 0 0 \$1/pitch \$1/pitch ptch -25
7 0 10 -262144 -1 -1 40 256;
#X obj 143 260 tgl 15 0 \$1/pulse/on \$1/pulse/on pulse 17 7 0 10 -261682
-1 -1 1 1;
#X obj 144 283 nbx 4 14 -1e+37 1e+37 0 0 \$1/pulse/time \$1/pulse/time
time 20 -8 0 10 -261682 -1 -1 250 256;
#X obj 103 151 vsl 15 128 0 127 0 0 \$1/vol \$1/vol tt_\$1 0 -9 0 10
-4034 -1 -1 8000 1;
#X obj 103 283 nbx 3 14 -1e+37 1e+37 0 0 \$1/vol \$1/vol empty 0 -8
0 10 -4034 -1 -1 80 256;
#X text 98 306 (c) GPL \, acre - winfried ritsch;
#X text 92 65 Note: id is prefix for parameter;
#X text 90 20 amb/bus/tones_ctl <id/prefix>;
#X symbolatom 209 116 13 0 0 0 - #1/outname -, f 13;
#X floatatom 116 117 3 0 0 0 n #1/channels -, f 3;
#X text 93 40 n channels of generators in steps;
#X obj 145 243 nbx 5 14 -1e+37 1e+37 0 0 \$1/pitch/step \$1/pitch/step
step -25 7 0 10 -262144 -1 -1 1 256;
#X text 116 172 -0dB;
#X text 116 190 -20;
#X text 116 211 -40;
#X text 160 191 sweep;
#X text 161 205 tab;
#X obj 184 206 tgl 15 0 \$1/tab/vis \$1/tab/vis tab 0 7 0 10 -257985
-1 -1 0 1;
#X coords 0 -1 1 1 100 200 2 100 100;
