#N canvas 649 382 464 307 10;
#N canvas 575 372 450 300 init 0;
#X obj 103 58 loadbang;
#X obj 231 68 bng 15 250 50 0 empty empty empty 17 7 0 10 -262144 -1
-1;
#X obj 104 106 list append \$1;
#X msg 104 128 \; \$1/pulse/on 0 \; \$1/pulse/time 500 \; \$1/sel 0
\; \$1/pitch 40 \; \$1/vol 60;
#X connect 0 0 2 0;
#X connect 1 0 2 0;
#X connect 2 0 3 0;
#X restore 356 112 pd init;
#X obj 276 134 switch~;
#X obj 276 112 r \$1/on;
#N canvas 1418 558 542 296 contruct-outs 0;
#X msg 160 90 clear;
#X obj 81 15 bng 15 250 50 0 empty empty empty 17 7 0 10 -262144 -1
-1;
#X obj 37 15 inlet;
#X obj 37 136 t f f b;
#X obj 37 160 * 20;
#X obj 160 16 inlet;
#X obj 37 40 i \$2;
#X obj 37 66 t f b;
#X obj 37 115 acre/count_until;
#X obj 240 18 loadbang;
#X obj 240 84 - 1;
#X obj 240 62 max 1;
#X obj 74 161 + 0;
#X text 268 86 out offset;
#X obj 240 40 i \$5;
#X obj 37 182 pack 10 1 s;
#X obj 160 114 s pd-\$0-dsp-tones;
#X obj 37 242 s pd-\$0-dsp-tones;
#X obj 111 160 symbol \$3;
#X obj 37 202 list append \$1;
#X msg 37 222 obj 10 \$1 amb/bus/tones_osc~ \$3-\$2 \$4 \$2;
#X obj 105 12 inlet;
#X obj 77 43 s \$1/channels;
#X connect 0 0 16 0;
#X connect 1 0 6 0;
#X connect 2 0 6 0;
#X connect 3 0 4 0;
#X connect 3 1 12 0;
#X connect 3 2 18 0;
#X connect 4 0 15 0;
#X connect 5 0 0 0;
#X connect 6 0 7 0;
#X connect 6 0 22 0;
#X connect 7 0 8 0;
#X connect 7 1 0 0;
#X connect 8 0 3 0;
#X connect 9 0 14 0;
#X connect 10 0 12 1;
#X connect 11 0 10 0;
#X connect 12 0 15 1;
#X connect 14 0 11 0;
#X connect 15 0 19 0;
#X connect 18 0 15 2;
#X connect 19 0 20 0;
#X connect 20 0 17 0;
#X connect 21 0 6 1;
#X restore 65 199 pd contruct-outs;
#X obj 79 156 bng 15 250 50 0 empty empty empty 17 7 0 10 -262144 -1
-1;
#X obj 175 177 bng 15 250 50 0 empty empty empty 17 7 0 10 -262144
-1 -1;
#X text 194 177 clear before save !;
#X obj 33 111 r /amb/businit;
#X obj 174 106 max 1;
#X text 97 159 reconstruct;
#X obj 174 84 r \$1/channels;
#X text 172 65 dyn set channel count;
#X obj 33 150 t b b;
#N canvas 223 528 362 521 \$0-dsp-tones 1;
#X obj 10 20 amb/bus/tones_osc~ testsig-1 TTS 1;
#X obj 10 40 amb/bus/tones_osc~ testsig-2 TTS 2;
#X obj 10 60 amb/bus/tones_osc~ testsig-3 TTS 3;
#X obj 10 80 amb/bus/tones_osc~ testsig-4 TTS 4;
#X obj 10 100 amb/bus/tones_osc~ testsig-5 TTS 5;
#X obj 10 120 amb/bus/tones_osc~ testsig-6 TTS 6;
#X restore 33 83 pd \$0-dsp-tones;
#N canvas 722 694 450 300 init 0;
#X obj 231 61 bng 15 250 50 0 empty empty empty 17 7 0 10 -262144 -1
-1;
#X obj 103 85 list append \$1;
#X obj 103 58 inlet;
#X msg 103 107 \; \$1/pulse/on 0 \; \$1/pulse/time 500 \; \$1/sel 0
\; \$1/pitch 40 \; \$1/vol 60 \; \$1/pitch/step 1;
#X connect 0 0 1 0;
#X connect 1 0 3 0;
#X connect 2 0 1 0;
#X restore 31 274 pd init;
#X obj 43 248 s \$1/outname;
#X obj 344 167 loadbang;
#X obj 344 189 symbol 3;
#X obj 344 211 s \$1/outname;
#X obj 43 226 symbol \$3;
#X text 36 7 amb/bus/tones~ <id> <nr channels> <out receives>;
#X obj 211 244 table \$1-sweep;
#X obj 212 267 table \$1-tab;
#N canvas 879 108 514 212 tables-setup 0;
#X obj 44 58 loadbang;
#X obj 46 131 soundfiler;
#X obj 44 79 symbol \$1-sweep;
#X obj 111 56 bng 15 250 50 0 empty empty empty 17 7 0 10 -262144 -1
-1;
#X msg 46 110 read -resize sweep.wav \$1;
#X obj 46 178 s \$1/sweep/size;
#X obj 216 59 loadbang;
#X obj 218 139 soundfiler;
#X obj 283 57 bng 15 250 50 0 empty empty empty 17 7 0 10 -262144 -1
-1;
#X msg 218 111 read -resize tab.wav \$1;
#X obj 216 80 symbol \$1-tab;
#X obj 218 171 s \$1/tab/size;
#X obj 103 154 print \$1;
#X obj 371 67 r \$1/tab/load;
#X obj 371 92 list append \$1-tab;
#X msg 371 113 read -resize \$1 \$2;
#N canvas 4 85 282 273 helper 0;
#X msg 56 54 \; TTS-tab resize 514 \; TTS-tab sinesum 512 1 0;
#X obj 54 102 bng 15 250 50 0 empty empty empty 17 7 0 10 -262144 -1
-1;
#X obj 56 126 symbol \$1-tab;
#X msg 56 149 write -wave tab.wav \$1;
#X obj 56 168 soundfiler;
#X text 56 25 -- make default tab helper ---;
#X obj 70 246 s \$1/tab/load;
#X text 79 198 test;
#X msg 72 220 symbol sweep.wav;
#X connect 1 0 2 0;
#X connect 2 0 3 0;
#X connect 3 0 4 0;
#X connect 8 0 6 0;
#X restore 371 164 pd helper;
#X connect 0 0 2 0;
#X connect 1 0 5 0;
#X connect 1 1 12 0;
#X connect 2 0 4 0;
#X connect 3 0 2 0;
#X connect 4 0 1 0;
#X connect 6 0 10 0;
#X connect 7 0 11 0;
#X connect 8 0 10 0;
#X connect 9 0 7 0;
#X connect 10 0 9 0;
#X connect 13 0 14 0;
#X connect 14 0 15 0;
#X connect 15 0 7 0;
#X restore 211 222 pd tables-setup;
#X connect 2 0 1 0;
#X connect 4 0 12 0;
#X connect 5 0 3 2;
#X connect 7 0 12 0;
#X connect 8 0 3 1;
#X connect 10 0 8 0;
#X connect 12 0 14 0;
#X connect 12 0 19 0;
#X connect 12 1 3 0;
#X connect 16 0 17 0;
#X connect 17 0 18 0;
#X connect 19 0 15 0;
