#N canvas 1139 514 356 330 10;
#X obj 101 101 cnv 15 98 198 empty empty testones_\$1 1 7 0 10 -204786
-66577 0;
#X obj 145 142 tgl 30 0 \$1/on \$1/on ON 2 16 0 24 -4034 -1 -1 0 1
;
#X obj 145 174 vradio 15 1 0 3 \$1/sel \$1/sel empty 0 -8 0 10 -262144
-1 -1 0;
#X text 162 176 pink;
#X text 162 193 sin;
#X text 163 207 saw;
#X obj 145 225 nbx 5 14 -1e+37 1e+37 0 0 \$1/pitch \$1/pitch ptch -25
7 0 10 -262144 -1 -1 40 256;
#X obj 143 260 tgl 15 0 \$1/pulse/on \$1/pulse/on pulse 17 7 0 10 -261682
-1 -1 0 1;
#X obj 144 283 nbx 4 14 -1e+37 1e+37 0 0 \$1/pulse/time \$1/pulse/time
time 20 -8 0 10 -261682 -1 -1 500 256;
#X obj 103 151 vsl 15 128 0 127 0 0 \$1/vol \$1/vol tt_\$1 0 -9 0 10
-4034 -1 -1 6000 1;
#X obj 103 283 nbx 3 14 -1e+37 1e+37 0 0 \$1/vol \$1/vol empty 0 -8
0 10 -4034 -1 -1 60 256;
#X text 98 306 (c) GPL \, acre - winfried ritsch;
#X text 92 65 Note: id is prefix for parameter;
#X text 90 20 amb/bus/tones_ctl <id/prefix>;
#X symbolatom 209 116 13 0 0 0 - #1/outname -, f 13;
#X floatatom 116 117 3 0 0 0 n #1/channels -, f 3;
#X text 93 40 n channels of generators in steps;
#X obj 145 243 nbx 5 14 -1e+37 1e+37 0 0 \$1/pitch/step \$1/pitch/step
step -25 7 0 10 -262144 -1 -1 1 256;
#X coords 0 -1 1 1 100 200 2 100 100;
