#N canvas 534 105 608 597 10;
#X text 43 121 not found;
#X text 34 79 cube_sphere;
#X text 156 148 iemgui or;
#X obj 392 139 r \$0_sphere_fromgui;
#X obj 392 161 route 1;
#X obj 392 183 unpack 0 0;
#X obj 392 204 s \$1/elevation;
#X obj 500 204 s \$1/azimuth;
#X obj 391 278 r \$1/elevation;
#X obj 509 278 r \$1/azimuth;
#X obj 509 316 t b f;
#X obj 392 370 pack 0 0;
#X obj 392 437 s \$0_sphere_togui;
#X obj 641 153 r \$1/dist;
#X obj 641 175 min 1;
#X obj 641 197 max 0;
#X obj 641 219 * -1;
#X obj 641 241 + 1;
#X obj 641 263 * 100;
#X obj 654 378 s \$0_sphere_togui;
#X msg 654 356 src_font \$1;
#X obj 641 285 max 10;
#X obj 391 333 + 0;
#X obj 418 310 t b f;
#X msg 392 392 src_dp 1 \$1 \$2;
#X obj 606 332 + 4;
#X obj 606 310 * 0.7;
#X obj 92 30 nbx 4 14 0 1 0 0 \$1/dist \$1/dist dist -20 8 0 8 -262144
-1 -1 0 256;
#X text 349 0 (c) GPL \, acre winfried ritsch;
#X obj 653 310 * 0.8;
#X obj 651 333 + 4;
#N canvas 282 111 616 300 configure 0;
#X obj 55 125 s \$0_sphere_togui;
#X msg 55 102 size \$1;
#X text 33 8 parameter are stored in object !;
#X msg 491 181 frame_col \$1;
#X obj 47 182 s \$1-hemisphere;
#X msg 47 159 coords 0 -1 1 1 \$1 \$1 2 10 220;
#X obj 47 76 r \$1/size;
#X msg 286 232 src_font \$1;
#X msg 373 180 sphere_col \$1;
#X msg 287 103 nr_src \$1;
#X msg 397 62 vis \$1 \$2;
#X obj 33 252 s \$1-hemi-canvas;
#X obj 33 205 - 2;
#X msg 33 230 vis_size \$1 \$1;
#X obj 373 157 r \$1/color;
#X obj 491 159 r \$1/frame_color;
#X obj 373 209 s \$0_sphere_togui;
#X msg 395 91 src_color \$1 \$2;
#X obj 290 72 r \$1/nr;
#X connect 1 0 0 0;
#X connect 3 0 16 0;
#X connect 5 0 4 0;
#X connect 6 0 1 0;
#X connect 6 0 5 0;
#X connect 6 0 12 0;
#X connect 8 0 16 0;
#X connect 12 0 13 0;
#X connect 13 0 11 0;
#X connect 14 0 8 0;
#X connect 15 0 3 0;
#X connect 18 0 9 0;
#X restore 166 52 pd configure;
#X text 194 5 amb/spat/hemi <id>;
#X text 202 27 collect channels for visual and control;
#X obj 310 58 namecanvas \$1-hemisphere;
#N canvas 4 57 450 300 map 0;
#X restore 166 80 pd map;
#X obj 11 221 cnv 15 196 196 empty \$1-hemi-canvas \$1 2 7 0 10 -233017
-66577 0;
#X obj 11 532 s \$0_sphere_fromgui;
#X obj 35 7 r \$0_sphere_togui;
#X obj 10 220 cube_sphere 1 99 12 241290 233016 354 23 35;
#N canvas 4 57 624 296 \$0-edit 0;
#X text 20 22 Edit parameter and save object;
#X floatatom 74 94 7 0 0 0 size - #1/size, f 7;
#X obj 158 91 colorpicker;
#X floatatom 158 196 5 0 0 0 - - -, f 5;
#X obj 158 215 s \$1/color;
#X floatatom 70 132 7 0 0 0 count - #1/count, f 7;
#X connect 2 0 3 0;
#X connect 3 0 4 0;
#X restore 39 175 pd \$0-edit;
#X connect 3 0 4 0;
#X connect 4 0 5 0;
#X connect 5 0 6 0;
#X connect 5 1 7 0;
#X connect 8 0 22 0;
#X connect 9 0 10 0;
#X connect 10 0 11 0;
#X connect 10 1 11 1;
#X connect 11 0 24 0;
#X connect 13 0 14 0;
#X connect 14 0 15 0;
#X connect 15 0 16 0;
#X connect 16 0 17 0;
#X connect 17 0 18 0;
#X connect 18 0 21 0;
#X connect 20 0 19 0;
#X connect 21 0 26 0;
#X connect 21 0 29 0;
#X connect 22 0 11 0;
#X connect 23 0 22 0;
#X connect 23 1 22 1;
#X connect 24 0 12 0;
#X connect 25 0 23 0;
#X connect 26 0 25 0;
#X connect 29 0 30 0;
#X connect 30 0 20 0;
#X connect 38 0 39 0;
#X connect 39 0 37 0;
#X coords 0 -1 1 1 198 198 2 10 220;
