#N canvas 658 137 440 597 10;
#X text 186 5 (c) GPL \, acre winfried ritsch;
#N canvas 279 57 616 300 configure 0;
#X obj 58 92 s \$0_sphere_togui;
#X msg 58 69 size \$1;
#X text 33 8 parameter are stored in object !;
#X msg 460 119 frame_col \$1;
#X obj 50 149 s \$1-hemisphere;
#X msg 50 126 coords 0 -1 1 1 \$1 \$1 2 10 220;
#X obj 36 43 r \$1/size;
#X msg 322 209 src_font \$1;
#X msg 459 199 sphere_col \$1;
#X msg 310 50 nr_src \$1;
#X msg 317 127 vis \$1 \$2;
#X obj 36 219 s \$1-hemi-canvas;
#X obj 36 172 - 2;
#X msg 36 197 vis_size \$1 \$1;
#X obj 459 176 r \$1/color;
#X obj 460 97 r \$1/frame_color;
#X obj 459 228 s \$0_sphere_togui;
#X obj 458 28 r \$1/ch_color;
#X obj 460 73 s \$0_sphere_togui;
#X msg 459 51 src_col \$2 \$1;
#X obj 311 30 r \$1/count;
#X obj 310 73 s \$0_sphere_togui;
#X text 307 11 count of channels;
#X obj 317 149 s \$0_sphere_togui;
#X obj 317 102 r \$1/show;
#X obj 461 140 s \$0_sphere_togui;
#X obj 321 187 r \$1/ch_size;
#X obj 323 230 s \$0_sphere_togui;
#X connect 1 0 0 0;
#X connect 3 0 25 0;
#X connect 5 0 4 0;
#X connect 6 0 1 0;
#X connect 6 0 5 0;
#X connect 6 0 12 0;
#X connect 8 0 16 0;
#X connect 9 0 21 0;
#X connect 10 0 23 0;
#X connect 12 0 13 0;
#X connect 13 0 11 0;
#X connect 14 0 8 0;
#X connect 15 0 3 0;
#X connect 17 0 19 0;
#X connect 19 0 18 0;
#X connect 20 0 9 0;
#X connect 24 0 10 0;
#X connect 26 0 7 0;
#X restore 13 119 pd configure;
#X text 9 6 amb/spat/hemi <id>;
#X text 17 28 collect channels for visual and control;
#X obj 218 54 namecanvas \$1-hemisphere;
#N canvas 5 61 408 335 map 0;
#X obj 14 33 r \$0_sphere_fromgui;
#X obj 14 55 route 1;
#X obj 14 77 unpack 0 0;
#X obj 14 98 s \$1/elevation;
#X obj 127 89 s \$1/azimuth;
#X obj 13 139 r \$1/elevation;
#X obj 131 139 r \$1/azimuth;
#X obj 131 177 t b f;
#X obj 13 169 pack 0 0;
#X obj 13 213 s \$0_sphere_togui;
#X msg 13 191 src_dp 1 \$1 \$2;
#X connect 0 0 1 0;
#X connect 1 0 2 0;
#X connect 2 0 3 0;
#X connect 2 1 4 0;
#X connect 5 0 8 0;
#X connect 6 0 7 0;
#X connect 7 0 8 0;
#X connect 7 1 8 1;
#X connect 8 0 10 0;
#X connect 10 0 9 0;
#X restore 13 147 pd map;
#X obj 11 221 cnv 15 210 210 empty \$1-hemi-canvas \$1 2 7 0 10 -233017
-66577 0;
#X obj 143 197 s \$0_sphere_fromgui;
#X obj 11 197 r \$0_sphere_togui;
#X obj 150 109 t f b;
#X obj 148 129 pack f s;
#X msg 148 151 \; \$2 vis \$1;
#X obj 150 80 r \$1/edit;
#X obj 195 104 symbol pd-\$0-edit;
#N canvas 26 357 624 296 \$0-edit 1;
#X text 27 11 Edit parameter and save object;
#X floatatom 74 94 7 0 0 0 size - #1/size, f 7;
#X obj 158 41 colorpicker;
#X floatatom 158 146 5 0 0 0 - - -, f 5;
#X obj 158 165 s \$1/color;
#X floatatom 70 132 7 0 0 0 count - #1/count, f 7;
#X obj 367 40 colorpicker;
#X floatatom 367 146 5 0 0 0 - - -, f 5;
#X obj 367 188 pack 0 0;
#X floatatom 420 147 5 0 0 0 - - -, f 5;
#X text 463 145 channel number;
#X obj 390 166 t b f;
#X obj 367 210 s \$1/ch_color;
#X text 365 21 color for each channel or in map;
#X text 180 25 hemisphere color;
#X text 68 48 Paramters;
#X connect 2 0 3 0;
#X connect 3 0 4 0;
#X connect 6 0 7 0;
#X connect 7 0 8 0;
#X connect 8 0 12 0;
#X connect 9 0 11 0;
#X connect 11 0 8 0;
#X connect 11 1 8 1;
#X restore 13 170 pd \$0-edit;
#X obj 11 221 cube_sphere 3 105 12 24197 233016 258698 30 32 258698
74 125 258698 114 146;
#X connect 8 0 15 0;
#X connect 9 0 10 0;
#X connect 9 1 13 0;
#X connect 10 0 11 0;
#X connect 12 0 9 0;
#X connect 13 0 10 1;
#X connect 15 0 7 0;
#X coords 0 -1 1 1 212 212 2 10 220;
