#N canvas 2299 350 588 528 10;
#X obj 58 324 t b f;
#X obj 29 383 pack 0 0;
#X obj 29 240 r \$1\$2/azimuth;
#X obj 136 240 r \$1\$2/elevation;
#X obj 29 406 list prepend \$2;
#X obj 30 456 s \$3_sphere_togui;
#X text 91 23 hemi_receive_dp <channel prefix> <nr> <\\\$0>;
#X msg 30 430 src_dp \$1 \$3 \$2;
#X obj 381 55 min 1;
#X obj 381 77 max 0;
#X obj 381 99 * -1;
#X obj 381 121 + 1;
#X obj 381 143 * 100;
#X msg 394 236 src_font \$1;
#X obj 381 165 max 10;
#X obj 78 355 + 0;
#X obj 341 238 t b f;
#X obj 346 212 + 4;
#X obj 346 190 * 0.7;
#X obj 393 190 * 0.8;
#X obj 391 213 + 4;
#X obj 394 278 s \$3_sphere_togui;
#X obj 381 33 r \$1\$2/dist;
#X text 331 309 not for all;
#X obj 44 122 unpack 0 0;
#X obj 188 213 s \$1\$2/azimuth;
#X obj 28 212 s \$1\$2/elevation;
#X obj 28 187 + 0;
#X obj 12 39 r \$3_sphere_fromgui;
#X obj 44 99 route \$2;
#X floatatom 96 156 5 0 0 0 - - - 0;
#X obj 29 274 spigot 1;
#X msg 168 95 0;
#X msg 11 95 1;
#X obj 114 274 spigot 1;
#X obj 26 67 t b l b;
#X obj 184 181 * -1;
#X obj 28 297 * -1;
#X connect 0 0 1 0;
#X connect 0 1 15 0;
#X connect 1 0 4 0;
#X connect 2 0 31 0;
#X connect 3 0 34 0;
#X connect 4 0 7 0;
#X connect 7 0 5 0;
#X connect 8 0 9 0;
#X connect 9 0 10 0;
#X connect 10 0 11 0;
#X connect 11 0 12 0;
#X connect 12 0 14 0;
#X connect 14 0 18 0;
#X connect 14 0 19 0;
#X connect 15 0 1 1;
#X connect 17 0 16 0;
#X connect 18 0 17 0;
#X connect 19 0 20 0;
#X connect 20 0 13 0;
#X connect 22 0 8 0;
#X connect 24 0 27 0;
#X connect 24 1 30 0;
#X connect 24 1 36 0;
#X connect 27 0 26 0;
#X connect 28 0 35 0;
#X connect 29 0 24 0;
#X connect 31 0 37 0;
#X connect 32 0 31 1;
#X connect 32 0 34 1;
#X connect 33 0 31 1;
#X connect 33 0 34 1;
#X connect 34 0 0 0;
#X connect 35 0 33 0;
#X connect 35 1 29 0;
#X connect 35 2 32 0;
#X connect 36 0 25 0;
#X connect 37 0 1 0;
