#N canvas 1913 254 453 498 10;
#X text 13 456 (c) GPL \, acre winfried ritsch;
#N canvas 942 163 672 292 configure 0;
#X obj 180 105 s \$0_sphere_togui;
#X msg 180 82 size \$1;
#X text 386 0 parameter are stored in object !;
#X msg 514 127 frame_col \$1;
#X obj 172 162 s \$1-hemisphere;
#X msg 172 139 coords 0 -1 1 1 \$1 \$1 2 10 220;
#X obj 158 56 r \$1/size;
#X msg 368 210 src_font \$1;
#X msg 513 207 sphere_col \$1;
#X msg 364 58 nr_src \$1;
#X msg 371 135 vis \$1 \$2;
#X obj 158 232 s \$1-hemi-canvas;
#X obj 156 180 - 2;
#X msg 158 210 vis_size \$1 \$1;
#X obj 513 184 r \$1/color;
#X obj 514 105 r \$1/frame_color;
#X obj 513 236 s \$0_sphere_togui;
#X obj 512 36 r \$1/ch_color;
#X obj 514 81 s \$0_sphere_togui;
#X msg 513 59 src_col \$2 \$1;
#X obj 365 38 r \$1/count;
#X obj 364 81 s \$0_sphere_togui;
#X text 340 16 count of channels;
#X obj 371 157 s \$0_sphere_togui;
#X obj 371 110 r \$1/show;
#X obj 515 148 s \$0_sphere_togui;
#X obj 367 188 r \$1/ch_size;
#X obj 369 231 s \$0_sphere_togui;
#X obj 19 98 acre/arg_default \$1 \$2;
#X obj 17 70 loadbang;
#X msg 18 148 label \$1;
#X obj 19 123 symbol;
#X obj 18 177 s \$1-hemi-canvas;
#X text 27 50 Name;
#X connect 1 0 0 0;
#X connect 3 0 25 0;
#X connect 5 0 4 0;
#X connect 6 0 1 0;
#X connect 6 0 5 0;
#X connect 6 0 12 0;
#X connect 7 0 27 0;
#X connect 8 0 16 0;
#X connect 9 0 21 0;
#X connect 10 0 23 0;
#X connect 12 0 13 0;
#X connect 13 0 11 0;
#X connect 14 0 8 0;
#X connect 15 0 3 0;
#X connect 17 0 19 0;
#X connect 19 0 18 0;
#X connect 20 0 9 0;
#X connect 24 0 10 0;
#X connect 26 0 7 0;
#X connect 28 0 31 0;
#X connect 29 0 28 0;
#X connect 30 0 32 0;
#X connect 31 0 30 0;
#X restore 10 159 pd configure;
#X obj 229 79 namecanvas \$1-hemisphere;
#X obj 11 221 cnv 15 198 198 empty \$1-hemi-canvas VRR 2 7 0 10 -233017
-66577 0;
#X obj 143 197 s \$0_sphere_fromgui;
#X obj 11 197 r \$0_sphere_togui;
#X obj 150 109 t f b;
#X obj 148 129 pack f s;
#X msg 148 151 \; \$2 vis \$1;
#X obj 150 80 r \$1/edit;
#X obj 195 104 symbol pd-\$0-edit;
#N canvas 1175 254 624 296 \$0-edit 0;
#X text 27 11 Edit parameter and save object;
#X floatatom 68 98 7 0 0 0 size - #1/size;
#X floatatom 158 146 5 0 0 0 - - -;
#X obj 158 180 s \$1/color;
#X floatatom 70 132 7 0 0 0 count - #1/count;
#X floatatom 367 159 5 0 0 0 - - -;
#X obj 367 216 pack 0 0;
#X floatatom 420 160 5 0 0 0 - - -;
#X text 463 158 channel number;
#X obj 390 194 t b f;
#X obj 367 238 s \$1/ch_color;
#X text 365 21 color for each channel or in map;
#X text 180 25 hemisphere color;
#X text 36 71 Paramters;
#X obj 158 41 amb/sphere/colorpicker;
#X obj 367 40 amb/sphere/colorpicker;
#X floatatom 65 180 7 0 0 0 ch_size - #1/ch_size;
#X connect 2 0 3 0;
#X connect 5 0 6 0;
#X connect 6 0 10 0;
#X connect 7 0 9 0;
#X connect 9 0 6 0;
#X connect 9 1 6 1;
#X connect 14 0 2 0;
#X connect 15 0 5 0;
#X restore 9 128 pd \$0-edit;
#X obj 11 221 cube_sphere 8 99 24 24197 24197 258698 6 65 258698 23
35 258698 50 13 258698 82 2 258698 115 2 258698 148 13 258698 174 35
258698 191 65;
#X text 9 6 amb/sphere/hemi_template <channel prefix> [label];
#X text 11 31 NOTE: COPY to your abs and edit \, since hemisphere gui
parameter and positions are stored in object \, this here is an example
!;
#X obj 281 189 r \$0_sphere_fromgui;
#X obj 258 269 list prepend \$1;
#N canvas 1423 110 396 434 construct 0;
#X obj 80 82 s pd-\$0-receives;
#X floatatom 95 26 5 0 0 0 - - -;
#X obj 34 54 t f b;
#X msg 79 57 clear;
#X obj 35 138 t f f b;
#X obj 35 160 - 1;
#X obj 34 284 + 10;
#X obj 76 251 i;
#X obj 76 296 + 10;
#X obj 35 182 t f f;
#X obj 34 368 s pd-\$0-receives;
#X obj 127 285 symbol \$1;
#X obj 34 108 acre/count_until;
#X msg 150 28 8;
#X obj 35 316 pack 10 10 1 s \$0;
#X obj 76 272 * 20;
#X msg 187 31 16;
#X obj 33 240 i 0;
#X obj 34 8 r \$1/count;
#X msg 35 337 obj \$1 \$2 amb/sphere/hemi_receive_dp \$4 \$3 \$5;
#X obj 34 260 * 250;
#X obj 33 217 / 16;
#X obj 76 229 % 16;
#X connect 1 0 2 0;
#X connect 2 0 12 0;
#X connect 2 1 3 0;
#X connect 3 0 0 0;
#X connect 4 0 5 0;
#X connect 4 1 14 2;
#X connect 4 2 11 0;
#X connect 5 0 9 0;
#X connect 6 0 14 0;
#X connect 7 0 15 0;
#X connect 8 0 14 1;
#X connect 9 0 21 0;
#X connect 9 1 22 0;
#X connect 11 0 14 3;
#X connect 12 0 4 0;
#X connect 13 0 2 0;
#X connect 14 0 19 0;
#X connect 15 0 8 0;
#X connect 16 0 2 0;
#X connect 17 0 20 0;
#X connect 18 0 2 0;
#X connect 19 0 10 0;
#X connect 20 0 6 0;
#X connect 21 0 17 0;
#X connect 22 0 7 0;
#X restore 259 362 pd construct receives;
#N canvas 1817 201 450 409 \$0-receives 0;
#X obj 10 10 amb/sphere/hemi_receive_dp ch 1 2410;
#X obj 10 30 amb/sphere/hemi_receive_dp ch 2 2410;
#X obj 10 50 amb/sphere/hemi_receive_dp ch 3 2410;
#X obj 10 70 amb/sphere/hemi_receive_dp ch 4 2410;
#X obj 10 90 amb/sphere/hemi_receive_dp ch 5 2410;
#X obj 10 110 amb/sphere/hemi_receive_dp ch 6 2410;
#X obj 10 130 amb/sphere/hemi_receive_dp ch 7 2410;
#X obj 10 150 amb/sphere/hemi_receive_dp ch 8 2410;
#X restore 260 395 pd \$0-receives;
#X msg 259 300 \; \$1\$2/elevation \$3 \; \$1\$2/azimuth \$4;
#X obj 9 90 tgl 15 0 \$1/edit \$1/edit edit 17 7 0 10 -262144 -1 -1
0 1;
#X connect 5 0 12 0;
#X connect 6 0 7 0;
#X connect 6 1 10 0;
#X connect 7 0 8 0;
#X connect 9 0 6 0;
#X connect 10 0 7 1;
#X connect 12 0 4 0;
#X connect 16 0 19 0;
#X coords 0 -1 1 1 200 200 2 10 220;
