#N canvas 706 61 508 380 10;
#X obj 11 11 cnv 15 98 198 empty empty \$1 2 10 0 12 -228856 -66577
0;
#N canvas 571 518 450 250 (subpatch) 0;
#X array \$1-view 512 float 0;
#X coords 0 1 511 -1 98 98 1 0 0;
#X restore 11 112 graph;
#X obj 13 75 nbx 4 14 -1e+37 1e+37 0 0 \$1/index \$1/index index 0
-8 0 10 -262144 -1 -1 0 256;
#X obj 213 50 r \$1/index;
#X msg 239 236 set \$2-\$1 \, bang;
#X obj 240 116 list append \$3;
#X obj 212 213 t b l;
#X obj 13 292 r \$3;
#X obj 13 316 s \$1-view;
#X obj 214 311 tabwrite~ \$1-view;
#X obj 63 74 bng 15 250 50 0 empty empty set 0 -5 0 10 -262144 -1 -1
;
#X obj 213 85 sel 0;
#X msg 213 147 const 0;
#X obj 213 168 s \$1-view, f 8;
#X obj 348 316 tabwrite~ \$1-view;
#X obj 365 257 tabplay~ \$1-view;
#X obj 346 220 t b b l;
#X msg 384 289 set \$2-\$1;
#X obj 347 192 list append \$3;
#X obj 239 256 tabplay~ \$3-1;
#X obj 347 169 i 0;
#X text 11 265 for resize and so on;
#X obj 82 74 bng 15 250 50 0 empty empty clear -1 -5 0 10 -262144 -1
-1;
#X obj 126 80 t b b;
#X obj 14 38 nbx 4 14 -1e+37 1e+37 0 0 empty empty view 0 -8 0 10 -257985
-1 -1 0 256;
#N canvas 67 264 450 381 view 0;
#X obj 42 29 inlet;
#X obj 42 50 sel -1 0;
#X obj 91 104 list append \$3;
#X obj 192 101 i 0;
#X obj 89 76 t f b;
#X text 192 76 last;
#X obj 191 124 list append \$3;
#X obj 61 188 acre/count_until \$2;
#X obj 59 217 list append \$3;
#X text 143 242 close all;
#X obj 32 278 acre/count_until \$2;
#X obj 30 307 list append \$3;
#X text 114 333 show all;
#X obj 247 207 r \$1/number;
#X msg 59 237 \; pd-\$2-\$1 vis 0;
#X msg 30 327 \; pd-\$2-\$1 vis 1;
#X msg 91 125 \; pd-\$2-\$1 vis 1;
#X msg 174 16 1;
#X msg 191 143 \; pd-\$2-\$1 vis 0;
#X connect 0 0 1 0;
#X connect 1 0 10 0;
#X connect 1 1 7 0;
#X connect 1 2 4 0;
#X connect 2 0 16 0;
#X connect 3 0 6 0;
#X connect 4 0 2 0;
#X connect 4 0 3 1;
#X connect 4 1 3 0;
#X connect 6 0 18 0;
#X connect 7 0 8 0;
#X connect 8 0 14 0;
#X connect 10 0 11 0;
#X connect 11 0 15 0;
#X connect 13 0 7 1;
#X connect 13 0 10 1;
#X connect 17 0 4 0;
#X restore 166 46 pd view;
#X msg 129 46 0;
#X obj 59 37 bng 15 250 50 0 empty empty 0 5 8 0 10 -257985 -1 -1;
#X text 122 16 amb/arrays/ctl <ID> <number of arrays> <arrays id>;
#X connect 3 0 11 0;
#X connect 3 0 20 1;
#X connect 4 0 19 0;
#X connect 5 0 6 0;
#X connect 6 0 9 0;
#X connect 6 1 4 0;
#X connect 7 0 8 0;
#X connect 10 0 20 0;
#X connect 11 0 12 0;
#X connect 11 1 5 0;
#X connect 12 0 13 0;
#X connect 15 0 14 0;
#X connect 16 0 14 0;
#X connect 16 1 15 0;
#X connect 16 2 17 0;
#X connect 17 0 14 0;
#X connect 18 0 16 0;
#X connect 19 0 9 0;
#X connect 20 0 18 0;
#X connect 22 0 23 0;
#X connect 23 0 20 0;
#X connect 23 1 12 0;
#X connect 24 0 25 0;
#X connect 26 0 24 0;
#X connect 27 0 26 0;
#X coords 0 -1 1 1 100 200 2 10 10;
