#N canvas 821 646 630 233 10;
#X obj 26 101 bng 15 250 50 0 empty empty empty 17 7 0 10 -262144 -1
-1;
#X obj 121 169 bng 15 250 50 0 empty empty empty 17 7 0 10 -262144
-1 -1;
#X text 140 169 clear before save !;
#X obj 11 81 r /amb/businit;
#X obj 72 143 max 1;
#X text 118 146 dyn set nr of channels;
#X text 46 98 reconstruct;
#X obj 72 121 r \$1/number;
#X text 16 212 (c) GPL - acre \, ritsch;
#X text 158 124 Be carfully some system go crazy with this;
#X obj 11 124 t b;
#N canvas 473 622 716 403 contruct-adcs 1;
#X msg 168 93 clear;
#X obj 41 117 t b f f f;
#X obj 479 209 symbol \$3;
#X obj 371 112 t f f b;
#X obj 42 186 * 2;
#X obj 42 208 t f f;
#X obj 74 230 + 1;
#X msg 40 307 connect \$1 0 \$2 0;
#X obj 43 160 - 1;
#X obj 41 15 inlet;
#X obj 42 257 pack 0 1;
#X obj 369 290 pack 10 10 1 s;
#X obj 369 223 % 8;
#X obj 404 201 / 8;
#X obj 406 242 * 80;
#X obj 177 234 % 8;
#X obj 226 192 / 8;
#X obj 229 261 + 50;
#X obj 404 223 i;
#X obj 226 214 i;
#X obj 226 236 * 80;
#X obj 369 155 - 1;
#X obj 177 189 - 1;
#X obj 177 211 t f f;
#X obj 177 258 * 80;
#X obj 369 261 * 80;
#X obj 168 54 inlet;
#X obj 443 197 % 2;
#X obj 443 241 + 10;
#X obj 369 177 t f f f;
#X obj 443 219 * 20;
#X obj 41 48 i \$2;
#X obj 41 70 t f b;
#X obj 41 95 acre/count_until;
#X text 210 47 clear;
#X obj 252 70 loadbang;
#X obj 252 92 i \$4;
#X obj 252 136 - 1;
#X obj 252 114 max 1;
#X obj 255 195 + 0;
#X obj 176 288 pack 10 50 1 s;
#X obj 283 194 % 2;
#X obj 283 216 * 20;
#X obj 283 238 + 30;
#X obj 408 148 + 0;
#X obj 177 161 t f f f b;
#X obj 273 263 symbol \$3;
#X obj 405 261 + 10;
#X obj 34 337 s pd-\$0-arrays;
#X msg 177 312 obj \$1 \$2 array define \$4-\$3;
#X text 270 40 number offset;
#X obj 129 7 inlet offset;
#X obj 129 28 t b f;
#X msg 407 314 obj \$1 \$2 r \$4;
#X connect 0 0 48 0;
#X connect 1 1 8 0;
#X connect 1 2 45 0;
#X connect 1 3 3 0;
#X connect 2 0 11 3;
#X connect 3 0 21 0;
#X connect 3 1 44 0;
#X connect 3 2 2 0;
#X connect 4 0 5 0;
#X connect 5 0 10 0;
#X connect 5 1 6 0;
#X connect 6 0 10 1;
#X connect 7 0 48 0;
#X connect 8 0 4 0;
#X connect 9 0 31 0;
#X connect 10 0 7 0;
#X connect 11 0 53 0;
#X connect 12 0 25 0;
#X connect 13 0 18 0;
#X connect 14 0 47 0;
#X connect 15 0 24 0;
#X connect 16 0 19 0;
#X connect 17 0 40 1;
#X connect 18 0 14 0;
#X connect 19 0 20 0;
#X connect 20 0 17 0;
#X connect 21 0 29 0;
#X connect 22 0 23 0;
#X connect 23 0 15 0;
#X connect 23 1 16 0;
#X connect 24 0 40 0;
#X connect 25 0 11 0;
#X connect 26 0 0 0;
#X connect 27 0 30 0;
#X connect 29 0 12 0;
#X connect 29 1 13 0;
#X connect 29 2 27 0;
#X connect 30 0 28 0;
#X connect 31 0 32 0;
#X connect 32 0 33 0;
#X connect 32 1 0 0;
#X connect 32 1 36 0;
#X connect 33 0 1 0;
#X connect 35 0 36 0;
#X connect 36 0 38 0;
#X connect 37 0 39 1;
#X connect 37 0 44 1;
#X connect 38 0 37 0;
#X connect 39 0 40 2;
#X connect 40 0 49 0;
#X connect 41 0 42 0;
#X connect 42 0 43 0;
#X connect 43 0 17 1;
#X connect 44 0 11 2;
#X connect 45 0 22 0;
#X connect 45 1 39 0;
#X connect 45 2 41 0;
#X connect 45 3 46 0;
#X connect 46 0 40 3;
#X connect 47 0 11 1;
#X connect 49 0 48 0;
#X connect 51 0 52 0;
#X connect 52 0 31 0;
#X connect 52 1 36 1;
#X connect 53 0 48 0;
#X restore 11 190 pd contruct-adcs;
#N canvas 87 377 680 360 \$0-arrays 1;
#X obj 0 10 r micin;
#X obj 0 50 array define micin-1;
#X obj 80 10 r micin;
#X obj 80 30 array define micin-2;
#X obj 160 10 r micin;
#X obj 160 50 array define micin-3;
#X obj 240 10 r micin;
#X obj 240 30 array define micin-4;
#X obj 320 10 r micin;
#X obj 320 50 array define micin-5;
#X obj 400 10 r micin;
#X obj 400 30 array define micin-6;
#X obj 480 10 r micin;
#X obj 480 50 array define micin-7;
#X obj 560 10 r micin;
#X obj 560 30 array define micin-8;
#X obj 0 90 r micin;
#X obj 0 130 array define micin-9;
#X obj 80 90 r micin;
#X obj 80 110 array define micin-10;
#X obj 160 90 r micin;
#X obj 160 130 array define micin-11;
#X obj 240 90 r micin;
#X obj 240 110 array define micin-12;
#X obj 320 90 r micin;
#X obj 320 130 array define micin-13;
#X obj 400 90 r micin;
#X obj 400 110 array define micin-14;
#X obj 480 90 r micin;
#X obj 480 130 array define micin-15;
#X obj 560 90 r micin;
#X obj 560 110 array define micin-16;
#X obj 0 170 r micin;
#X obj 0 210 array define micin-17;
#X obj 80 170 r micin;
#X obj 80 190 array define micin-18;
#X connect 0 0 1 0;
#X connect 2 0 3 0;
#X connect 4 0 5 0;
#X connect 6 0 7 0;
#X connect 8 0 9 0;
#X connect 10 0 11 0;
#X connect 12 0 13 0;
#X connect 14 0 15 0;
#X connect 16 0 17 0;
#X connect 18 0 19 0;
#X connect 20 0 21 0;
#X connect 22 0 23 0;
#X connect 24 0 25 0;
#X connect 26 0 27 0;
#X connect 28 0 29 0;
#X connect 30 0 31 0;
#X connect 32 0 33 0;
#X connect 34 0 35 0;
#X restore 11 57 pd \$0-arrays;
#X obj 175 63 r \$1/offset;
#X obj 175 85 max 0;
#X text 13 1 amb/arrays/storage~ <ID> <nr channels> <ID of arrays>
[arrays offset], f 76;
#X text 18 23 Ditributes <ID of arrays> to all arrays also accessable
as <ID of arrays>-<number> with optional number offset.;
#X connect 0 0 10 0;
#X connect 1 0 11 2;
#X connect 3 0 10 0;
#X connect 4 0 11 0;
#X connect 7 0 4 0;
#X connect 10 0 11 0;
#X connect 13 0 14 0;
#X connect 14 0 11 1;
