#N canvas 591 345 630 233 10;
#X obj 26 101 bng 15 250 50 0 empty empty empty 17 7 0 10 -262144 -1
-1;
#X obj 121 169 bng 15 250 50 0 empty empty empty 17 7 0 10 -262144
-1 -1;
#X text 137 169 clear before save !;
#X obj 11 81 r /amb/businit;
#X obj 72 143 max 1;
#X text 118 146 dyn set nr of channels;
#X text 46 98 reconstruct;
#X obj 72 121 r \$1/number;
#X text 16 212 (c) GPL - acre \, ritsch;
#X text 158 124 Be carfully some system go crazy with this;
#X obj 11 124 t b;
#X obj 175 63 r \$1/offset;
#X obj 175 85 max 0;
#N canvas 4 58 450 300 init 0;
#X obj 96 29 r ambinited;
#X obj 97 59 list append \$1 \$2 \$3;
#X msg 96 84 \; \$3/size 512;
#X obj 206 29 bng 15 250 50 0 empty empty empty 17 7 0 10 -262144 -1
-1;
#X connect 0 0 1 0;
#X connect 1 0 2 0;
#X connect 3 0 1 0;
#X restore 316 59 pd init;
#N canvas 490 492 716 479 contruct-array-writes 0;
#X msg 338 93 clear;
#X obj 541 112 t f f b;
#X obj 212 186 * 2;
#X obj 212 208 t f f;
#X obj 244 230 + 1;
#X msg 210 307 connect \$1 0 \$2 0;
#X obj 213 160 - 1;
#X obj 192 13 inlet;
#X obj 212 257 pack 0 1;
#X obj 539 290 pack 10 10 1 s;
#X obj 539 210 % 8;
#X obj 574 201 / 8;
#X obj 576 242 * 80;
#X obj 347 229 % 8;
#X obj 396 192 / 8;
#X obj 399 261 + 50;
#X obj 574 223 i;
#X obj 396 214 i;
#X obj 396 236 * 80;
#X obj 539 155 - 1;
#X obj 347 189 - 1;
#X obj 347 211 t f f;
#X obj 347 269 * 80;
#X obj 539 261 * 80;
#X obj 338 54 inlet;
#X obj 613 197 % 2;
#X obj 613 241 + 10;
#X obj 539 177 t f f f;
#X obj 613 219 * 20;
#X obj 192 46 i \$2;
#X obj 211 95 acre/count_until;
#X text 380 47 clear;
#X obj 422 70 loadbang;
#X obj 422 136 - 1;
#X obj 422 114 max 1;
#X obj 425 195 + 0;
#X obj 346 288 pack 10 50 1 s;
#X obj 453 194 % 2;
#X obj 453 216 * 20;
#X obj 453 238 + 30;
#X obj 578 148 + 0;
#X obj 347 161 t f f f b;
#X obj 443 263 symbol \$3;
#X obj 575 261 + 10;
#X text 440 40 number offset;
#X obj 299 7 inlet offset;
#X obj 299 28 t b f;
#X obj 53 150 acre/count_until;
#X obj 211 117 t b f f f;
#X obj 192 68 t f f b;
#X obj 53 194 - 0;
#X obj 53 215 * 20;
#X obj 95 209 symbol \$3;
#X obj 119 234 + 0;
#X obj 53 171 t f b f;
#X obj 53 236 + 10;
#X obj 347 250 + 2;
#X obj 538 233 + 2;
#X obj 204 337 s pd-\$0-arrays-write;
#X obj 422 93 i \$5;
#X msg 577 314 obj \$1 \$2 r~ \$4-\$3~;
#X msg 347 312 obj \$1 \$2 tabwrite~ \$4-\$3;
#X obj 649 209 symbol \$4;
#X obj 139 60 bng 15 250 50 0 empty empty empty 17 7 0 10 -262144 -1
-1;
#X obj 56 70 t f b f;
#X obj 51 314 pack 100 s 1 1;
#X obj 163 153 * 2;
#X obj 119 255 * 2;
#X msg 51 337 connect \$4 0 \$3 0;
#X msg 75 127 obj 10 10 r \$1-write;
#X obj 73 100 i \$0;
#X obj 119 276 + -1;
#X connect 0 0 58 0;
#X connect 1 0 19 0;
#X connect 1 1 40 0;
#X connect 1 2 62 0;
#X connect 2 0 3 0;
#X connect 3 0 8 0;
#X connect 3 1 4 0;
#X connect 4 0 8 1;
#X connect 5 0 58 0;
#X connect 6 0 2 0;
#X connect 7 0 29 0;
#X connect 8 0 5 0;
#X connect 9 0 60 0;
#X connect 10 0 57 0;
#X connect 11 0 16 0;
#X connect 12 0 43 0;
#X connect 13 0 56 0;
#X connect 14 0 17 0;
#X connect 15 0 36 1;
#X connect 16 0 12 0;
#X connect 17 0 18 0;
#X connect 18 0 15 0;
#X connect 19 0 27 0;
#X connect 20 0 21 0;
#X connect 21 0 13 0;
#X connect 21 1 14 0;
#X connect 22 0 36 0;
#X connect 23 0 9 0;
#X connect 24 0 0 0;
#X connect 25 0 28 0;
#X connect 27 0 10 0;
#X connect 27 1 11 0;
#X connect 27 2 25 0;
#X connect 28 0 26 0;
#X connect 29 0 49 0;
#X connect 30 0 48 0;
#X connect 32 0 59 0;
#X connect 33 0 35 1;
#X connect 33 0 40 1;
#X connect 33 0 53 1;
#X connect 34 0 33 0;
#X connect 35 0 36 2;
#X connect 36 0 61 0;
#X connect 37 0 38 0;
#X connect 38 0 39 0;
#X connect 39 0 15 1;
#X connect 40 0 9 2;
#X connect 41 0 20 0;
#X connect 41 1 35 0;
#X connect 41 2 37 0;
#X connect 41 3 42 0;
#X connect 42 0 36 3;
#X connect 43 0 9 1;
#X connect 45 0 46 0;
#X connect 46 0 29 0;
#X connect 46 1 59 1;
#X connect 47 0 54 0;
#X connect 48 1 6 0;
#X connect 48 2 41 0;
#X connect 48 3 1 0;
#X connect 49 0 64 0;
#X connect 49 1 30 0;
#X connect 49 2 0 0;
#X connect 49 2 59 0;
#X connect 50 0 51 0;
#X connect 51 0 55 0;
#X connect 52 0 65 1;
#X connect 53 0 67 0;
#X connect 54 0 50 0;
#X connect 54 1 52 0;
#X connect 54 2 53 0;
#X connect 55 0 65 0;
#X connect 56 0 22 0;
#X connect 57 0 23 0;
#X connect 59 0 34 0;
#X connect 60 0 58 0;
#X connect 61 0 58 0;
#X connect 62 0 9 3;
#X connect 63 0 29 0;
#X connect 64 0 47 0;
#X connect 64 1 70 0;
#X connect 64 2 66 0;
#X connect 65 0 68 0;
#X connect 66 0 65 3;
#X connect 67 0 71 0;
#X connect 68 0 58 0;
#X connect 69 0 58 0;
#X connect 70 0 69 0;
#X connect 71 0 65 2;
#X restore 11 190 pd contruct-array-writes;
#N canvas 136 190 843 418 \$0-arrays-write 0;
#X restore 11 57 pd \$0-arrays-write;
#X obj 402 53 r \$1/write;
#X msg 402 74 bang;
#X obj 402 95 s \$0-write;
#X text 13 1 amb/arrays/write~ <ID> <nr channels> <in bus> <ID of arrays>
[arrays offset], f 80;
#X text 18 23 Writes into <ID of arrays> bus signal <in bus> with optional
number offset of arrays and bus.;
#X connect 0 0 10 0;
#X connect 1 0 14 2;
#X connect 3 0 10 0;
#X connect 4 0 14 0;
#X connect 7 0 4 0;
#X connect 10 0 14 0;
#X connect 11 0 12 0;
#X connect 12 0 14 1;
#X connect 16 0 17 0;
#X connect 17 0 18 0;
