#N canvas 0 22 449 338 10;
#X obj 35 12 catch~ ch\$1;
#X obj 35 315 s~ ch\$1;
#X obj 35 127 *~ 1;
#X obj 126 128 *~ 0;
#N canvas 312 121 450 300 filter-hp-lp 0;
#X obj 45 9 inlet~;
#X obj 45 264 outlet~;
#X obj 220 108 switch~;
#X obj 234 31 r filter;
#X msg 244 69 0;
#X obj 300 59 loadbang;
#X obj 45 53 lp2~ 20000 0.707 100;
#X obj 45 171 hp2~ 50 0.707 100;
#X obj 84 32 r lowpass;
#X obj 79 148 r highpass;
#X obj 45 233 hp2~ 50 0.707 100;
#X obj 79 210 r highpass;
#X obj 45 115 lp2~ 20000 0.707 100;
#X obj 84 94 r lowpass;
#X connect 0 0 6 0;
#X connect 3 0 2 0;
#X connect 4 0 2 0;
#X connect 5 0 4 0;
#X connect 6 0 12 0;
#X connect 7 0 10 0;
#X connect 8 0 6 1;
#X connect 9 0 7 1;
#X connect 10 0 1 0;
#X connect 11 0 10 1;
#X connect 12 0 7 0;
#X connect 13 0 12 1;
#X restore 126 154 pd filter-hp-lp;
#X obj 188 16 r filter;
#X obj 188 49 sel 0 1;
#X msg 65 88 1;
#X msg 99 87 0;
#X msg 141 99 1;
#X msg 175 98 0;
#X connect 0 0 2 0;
#X connect 0 0 3 0;
#X connect 2 0 1 0;
#X connect 3 0 4 0;
#X connect 4 0 1 0;
#X connect 5 0 6 0;
#X connect 6 0 7 0;
#X connect 6 0 10 0;
#X connect 6 1 9 0;
#X connect 6 1 8 0;
#X connect 7 0 2 1;
#X connect 8 0 2 1;
#X connect 9 0 3 1;
#X connect 10 0 3 1;
