#N canvas 469 22 619 575 10;
#X msg 67 75 matrix 2 1 \$1 \$2;
#X obj 67 55 pack 0 0;
#X obj 142 11 t b f;
#X obj 67 -113 loadbang;
#X msg 242 126 t_release \$1;
#X obj 242 104 r release_time;
#X obj 67 -93 t b b;
#N canvas 274 71 996 516 5th-order-decoder 0;
#X obj 48 45 r~ ch1;
#X obj 97 58 r~ ch2;
#X obj 125 78 r~ ch3;
#X obj 153 98 r~ ch4;
#X obj 216 93 r~ ch5;
#X obj 244 112 r~ ch6;
#X obj 272 132 r~ ch7;
#X obj 300 152 r~ ch8;
#X obj 329 172 r~ ch9;
#X obj 97 88 *~;
#X obj 125 100 *~;
#X obj 153 120 *~;
#X obj 216 115 *~;
#X obj 244 134 *~;
#X obj 272 154 *~;
#X obj 300 174 *~;
#X obj 329 194 *~;
#N canvas 427 76 722 298 weighting 0;
#X obj 10 23 r weighting;
#X obj 10 48 sel 0 1 2;
#X obj 16 232 outlet first-o;
#X obj 129 231 outlet second-o;
#X msg 10 132 1;
#X msg 44 133 1;
#X text 108 49 no \, max-re \, in-phase;
#X obj 145 7 loadbang;
#X msg 147 28 0;
#X obj 255 229 outlet third-o;
#X obj 10 110 t b b b;
#X msg 74 133 1;
#X obj 368 227 outlet fourth-o;
#X obj 495 225 outlet fifth-o;
#X obj 167 96 t b b b b b;
#X obj 462 91 t b b b b b;
#X msg 155 131 0.9659;
#X msg 207 131 0.866;
#X msg 255 128 0.7071;
#X msg 307 125 0.5;
#X msg 355 122 0.2588;
#X msg 457 122 0.8333;
#X msg 504 122 0.4762;
#X msg 558 120 0.1786;
#X msg 623 114 0.0397;
#X msg 678 115 0.004;
#X connect 0 0 1 0;
#X connect 1 0 10 0;
#X connect 1 1 14 0;
#X connect 1 2 15 0;
#X connect 4 0 2 0;
#X connect 5 0 3 0;
#X connect 7 0 8 0;
#X connect 8 0 1 0;
#X connect 10 0 4 0;
#X connect 10 1 5 0;
#X connect 10 2 11 0;
#X connect 11 0 9 0;
#X connect 11 0 12 0;
#X connect 11 0 13 0;
#X connect 14 0 16 0;
#X connect 14 1 17 0;
#X connect 14 2 18 0;
#X connect 14 3 19 0;
#X connect 14 4 20 0;
#X connect 15 0 21 0;
#X connect 15 1 22 0;
#X connect 15 2 23 0;
#X connect 15 3 24 0;
#X connect 15 4 25 0;
#X connect 16 0 2 0;
#X connect 17 0 3 0;
#X connect 18 0 9 0;
#X connect 19 0 12 0;
#X connect 20 0 13 0;
#X connect 21 0 2 0;
#X connect 22 0 3 0;
#X connect 23 0 9 0;
#X connect 24 0 12 0;
#X connect 25 0 13 0;
#X restore 349 43 pd weighting;
#X text 357 25 ambi weighting;
#X obj 292 262 *~;
#X obj 320 281 *~;
#X obj 348 301 *~;
#X obj 376 321 *~;
#X obj 405 341 *~;
#X obj 292 240 r~ ch10;
#X obj 320 259 r~ ch11;
#X obj 348 279 r~ ch12;
#X obj 377 299 r~ ch13;
#X obj 405 319 r~ ch14;
#X obj 431 364 *~;
#X obj 460 384 *~;
#X obj 432 342 r~ ch15;
#X obj 460 362 r~ ch16;
#X obj 15 291 inlet;
#X obj 311 459 outlet~;
#X obj 469 425 mtx_*~ 1 36 100 . . . . . . . . . . . . . . . . . .
. . . .;
#X obj 449 174 *~;
#X obj 477 193 *~;
#X obj 505 213 *~;
#X obj 533 233 *~;
#X obj 562 253 *~;
#X obj 588 276 *~;
#X obj 617 296 *~;
#X obj 449 152 r~ ch17;
#X obj 477 171 r~ ch18;
#X obj 505 191 r~ ch19;
#X obj 534 211 r~ ch20;
#X obj 562 231 r~ ch21;
#X obj 589 254 r~ ch22;
#X obj 617 274 r~ ch23;
#X obj 646 319 *~;
#X obj 646 297 r~ ch24;
#X obj 674 345 *~;
#X obj 591 78 *~;
#X obj 619 98 *~;
#X obj 647 118 *~;
#X obj 676 138 *~;
#X obj 702 161 *~;
#X obj 731 181 *~;
#X obj 762 205 *~;
#X obj 674 323 r~ ch25;
#X obj 591 58 r~ ch26;
#X obj 619 76 r~ ch27;
#X obj 648 96 r~ ch28;
#X obj 676 116 r~ ch29;
#X obj 703 139 r~ ch30;
#X obj 731 159 r~ ch31;
#X obj 762 183 r~ ch32;
#X obj 791 226 *~;
#X obj 822 250 *~;
#X obj 791 204 r~ ch33;
#X obj 822 228 r~ ch34;
#X obj 850 272 *~;
#X obj 881 296 *~;
#X obj 881 274 r~ ch36;
#X obj 850 251 r~ ch35;
#X connect 0 0 35 1;
#X connect 1 0 9 0;
#X connect 2 0 10 0;
#X connect 3 0 11 0;
#X connect 4 0 12 0;
#X connect 5 0 13 0;
#X connect 6 0 14 0;
#X connect 7 0 15 0;
#X connect 8 0 16 0;
#X connect 9 0 35 2;
#X connect 10 0 35 3;
#X connect 11 0 35 4;
#X connect 12 0 35 5;
#X connect 13 0 35 6;
#X connect 14 0 35 7;
#X connect 15 0 35 8;
#X connect 16 0 35 9;
#X connect 17 0 9 1;
#X connect 17 0 10 1;
#X connect 17 0 11 1;
#X connect 17 1 12 1;
#X connect 17 1 13 1;
#X connect 17 1 14 1;
#X connect 17 1 15 1;
#X connect 17 1 16 1;
#X connect 17 2 19 1;
#X connect 17 2 20 1;
#X connect 17 2 21 1;
#X connect 17 2 22 1;
#X connect 17 2 23 1;
#X connect 17 2 29 1;
#X connect 17 2 30 1;
#X connect 17 3 36 1;
#X connect 17 3 37 1;
#X connect 17 3 38 1;
#X connect 17 3 39 1;
#X connect 17 3 40 1;
#X connect 17 3 41 1;
#X connect 17 3 42 1;
#X connect 17 3 50 1;
#X connect 17 3 52 1;
#X connect 17 4 53 1;
#X connect 17 4 54 1;
#X connect 17 4 55 1;
#X connect 17 4 56 1;
#X connect 17 4 57 1;
#X connect 17 4 58 1;
#X connect 17 4 59 1;
#X connect 17 4 68 1;
#X connect 17 4 69 1;
#X connect 17 4 72 1;
#X connect 17 4 73 1;
#X connect 19 0 35 10;
#X connect 20 0 35 11;
#X connect 21 0 35 12;
#X connect 22 0 35 13;
#X connect 23 0 35 14;
#X connect 24 0 19 0;
#X connect 25 0 20 0;
#X connect 26 0 21 0;
#X connect 27 0 22 0;
#X connect 28 0 23 0;
#X connect 29 0 35 15;
#X connect 30 0 35 16;
#X connect 31 0 29 0;
#X connect 32 0 30 0;
#X connect 33 0 35 0;
#X connect 35 0 34 0;
#X connect 36 0 35 17;
#X connect 37 0 35 18;
#X connect 38 0 35 19;
#X connect 39 0 35 20;
#X connect 40 0 35 21;
#X connect 41 0 35 22;
#X connect 42 0 35 23;
#X connect 43 0 36 0;
#X connect 44 0 37 0;
#X connect 45 0 38 0;
#X connect 46 0 39 0;
#X connect 47 0 40 0;
#X connect 48 0 41 0;
#X connect 49 0 42 0;
#X connect 50 0 35 24;
#X connect 51 0 50 0;
#X connect 52 0 35 25;
#X connect 53 0 35 26;
#X connect 54 0 35 27;
#X connect 55 0 35 28;
#X connect 56 0 35 29;
#X connect 57 0 35 30;
#X connect 58 0 35 31;
#X connect 59 0 35 32;
#X connect 60 0 52 0;
#X connect 61 0 53 0;
#X connect 62 0 54 0;
#X connect 63 0 55 0;
#X connect 64 0 56 0;
#X connect 65 0 57 0;
#X connect 66 0 58 0;
#X connect 67 0 59 0;
#X connect 68 0 35 33;
#X connect 69 0 35 34;
#X connect 70 0 68 0;
#X connect 71 0 69 0;
#X connect 72 0 35 35;
#X connect 73 0 35 36;
#X connect 74 0 73 0;
#X connect 75 0 72 0;
#X restore 67 146 pd 5th-order-decoder;
#X text 281 -116 arg 1: azimuth;
#X text 284 -88 arg 2: elevation in degrees;
#X obj 234 3 nbx 5 14 -1e+37 1e+37 0 0 empty empty empty 0 -8 0 10
-262144 -1 -1 26.0014 256;
#X obj 309 3 nbx 5 14 -1e+37 1e+37 0 0 empty empty empty 0 -8 0 10
-262144 -1 -1 74.5361 256;
#X obj 234 -21 * 57.2958;
#X obj 309 -21 * 57.2958;
#X obj 131 -113 bng 15 250 50 0 empty empty empty 17 7 0 10 -262144
-1 -1;
#X obj 148 330 mtx;
#X obj 172 300 t b f;
#X obj 148 358 mtx_mul 1;
#X obj 43 319 mtx;
#X obj 43 348 mtx_mul 1;
#X obj 67 289 t b f;
#X msg 243 171 t_metro \$1;
#X obj 243 150 r metro_time;
#X obj 148 382 s peak-sh;
#X obj 43 371 s rms-sh;
#X msg 262 222 stop;
#X obj 262 200 loadbang;
#X obj 327 202 r freeze;
#X obj 327 225 sel 1 0;
#X msg 346 252 start;
#X obj 67 98 mtx_spherical_harmonics 5;
#X obj -72 310 mtx_print;
#X obj 67 236 + 100;
#X obj 67 257 dbtorms;
#X obj 122 247 + 100;
#X obj 122 268 dbtorms;
#X obj 67 -71 float \$1;
#X obj 142 -71 float \$2;
#X obj -86 114 mtx_spherical_harmonics 5;
#X obj 413 235 switch~;
#X obj 413 213 == 0;
#X obj 67 177 pvu~ 30 350 0;
#N canvas 63 70 320 221 release 0;
#X obj 35 21 inlet;
#X obj 130 174 outlet;
#X obj 35 123 moses;
#X obj 91 49 f;
#X obj 91 89 t f f f;
#X obj 136 57 - 1;
#X obj 35 156 t b;
#X obj 151 17 r peak-release;
#X connect 0 0 2 0;
#X connect 2 0 6 0;
#X connect 2 1 3 0;
#X connect 3 0 4 0;
#X connect 4 0 2 1;
#X connect 4 1 5 0;
#X connect 4 2 1 0;
#X connect 5 0 3 1;
#X connect 6 0 3 0;
#X connect 7 0 5 1;
#X restore 122 226 pd release;
#X obj 67 200 t f f;
#X connect 0 0 30 0;
#X connect 0 0 38 0;
#X connect 1 0 0 0;
#X connect 2 0 1 0;
#X connect 2 1 1 1;
#X connect 3 0 6 0;
#X connect 4 0 41 0;
#X connect 5 0 4 0;
#X connect 6 0 36 0;
#X connect 6 1 37 0;
#X connect 7 0 41 0;
#X connect 12 0 10 0;
#X connect 13 0 11 0;
#X connect 14 0 6 0;
#X connect 15 0 17 0;
#X connect 16 0 15 0;
#X connect 16 1 17 1;
#X connect 17 0 23 0;
#X connect 18 0 19 0;
#X connect 19 0 24 0;
#X connect 20 0 18 0;
#X connect 20 1 19 1;
#X connect 21 0 41 0;
#X connect 22 0 21 0;
#X connect 25 0 41 0;
#X connect 26 0 25 0;
#X connect 27 0 28 0;
#X connect 27 0 40 0;
#X connect 28 0 25 0;
#X connect 28 1 29 0;
#X connect 29 0 41 0;
#X connect 30 0 7 0;
#X connect 32 0 33 0;
#X connect 33 0 20 0;
#X connect 34 0 35 0;
#X connect 35 0 16 0;
#X connect 36 0 1 0;
#X connect 36 0 12 0;
#X connect 37 0 2 0;
#X connect 37 0 13 0;
#X connect 38 0 18 1;
#X connect 38 0 15 1;
#X connect 40 0 39 0;
#X connect 41 0 43 0;
#X connect 42 0 34 0;
#X connect 43 0 32 0;
#X connect 43 1 42 0;
