#N canvas 444 57 619 575 10;
#X msg 67 75 matrix 2 1 \$1 \$2;
#X obj 67 55 pack 0 0;
#X obj 142 11 t b f;
#X obj 67 -113 loadbang;
#X msg 242 126 t_release \$1;
#X obj 242 104 r release_time;
#X obj 67 -93 t b b;
#X text 281 -116 arg 1: azimuth;
#X text 284 -88 arg 2: elevation in degrees;
#X obj 234 3 nbx 5 14 -1e+37 1e+37 0 0 empty empty empty 0 -8 0 10
-262144 -1 -1 26.0014 256;
#X obj 309 3 nbx 5 14 -1e+37 1e+37 0 0 empty empty empty 0 -8 0 10
-262144 -1 -1 74.5361 256;
#X obj 234 -21 * 57.2958;
#X obj 309 -21 * 57.2958;
#X obj 131 -113 bng 15 250 50 0 empty empty empty 17 7 0 10 -262144
-1 -1;
#X obj 148 330 mtx;
#X obj 172 300 t b f;
#X obj 148 358 mtx_mul 1;
#X obj 43 319 mtx;
#X obj 43 348 mtx_mul 1;
#X obj 67 289 t b f;
#X msg 243 171 t_metro \$1;
#X obj 243 150 r metro_time;
#X obj 148 382 s peak-sh;
#X obj 43 371 s rms-sh;
#X msg 262 222 stop;
#X obj 262 200 loadbang;
#X obj 327 202 r freeze;
#X obj 327 225 sel 1 0;
#X msg 346 252 start;
#X obj -72 310 mtx_print;
#X obj 67 236 + 100;
#X obj 67 257 dbtorms;
#X obj 122 247 + 100;
#X obj 122 268 dbtorms;
#X obj 67 -71 float \$1;
#X obj 142 -71 float \$2;
#X obj 413 235 switch~;
#X obj 413 213 == 0;
#X obj 67 200 t f f;
#X obj 67 98 mtx_spherical_harmonics 3;
#N canvas 164 61 996 516 3rd-order-decoder 1;
#X obj 48 45 r~ ch1;
#X obj 97 58 r~ ch2;
#X obj 125 78 r~ ch3;
#X obj 153 98 r~ ch4;
#X obj 216 93 r~ ch5;
#X obj 244 112 r~ ch6;
#X obj 272 132 r~ ch7;
#X obj 300 152 r~ ch8;
#X obj 329 172 r~ ch9;
#X obj 97 88 *~;
#X obj 125 100 *~;
#X obj 153 120 *~;
#X obj 216 115 *~;
#X obj 244 134 *~;
#X obj 272 154 *~;
#X obj 300 174 *~;
#X obj 329 194 *~;
#N canvas 428 80 801 327 weighting 1;
#X obj 10 23 r weighting;
#X obj 10 48 sel 0 1 2;
#X obj 16 232 outlet first-o;
#X obj 129 231 outlet second-o;
#X msg 10 132 1;
#X msg 44 133 1;
#X text 108 49 no \, max-re \, in-phase;
#X obj 145 7 loadbang;
#X msg 147 28 0;
#X obj 255 229 outlet third-o;
#X obj 10 110 t b b b;
#X msg 74 133 1;
#X obj 167 96 t b b b b b;
#X obj 462 91 t b b b b b;
#X msg 457 122 0.75;
#X msg 504 122 0.3;
#X msg 558 120 0.05;
#X msg 155 131 0.861;
#X msg 207 131 0.6119;
#X msg 255 128 0.304;
#X text 312 130 spherical;
#X text 601 122 where is this from?;
#X connect 0 0 1 0;
#X connect 1 0 10 0;
#X connect 1 1 12 0;
#X connect 1 2 13 0;
#X connect 4 0 2 0;
#X connect 5 0 3 0;
#X connect 7 0 8 0;
#X connect 8 0 1 0;
#X connect 10 0 4 0;
#X connect 10 1 5 0;
#X connect 10 2 11 0;
#X connect 11 0 9 0;
#X connect 12 0 17 0;
#X connect 12 1 18 0;
#X connect 12 2 19 0;
#X connect 13 0 14 0;
#X connect 13 1 15 0;
#X connect 13 2 16 0;
#X connect 14 0 2 0;
#X connect 15 0 3 0;
#X connect 16 0 9 0;
#X connect 17 0 2 0;
#X connect 18 0 3 0;
#X connect 19 0 9 0;
#X restore 349 43 pd weighting;
#X text 357 25 ambi weighting;
#X obj 292 262 *~;
#X obj 320 281 *~;
#X obj 348 301 *~;
#X obj 376 321 *~;
#X obj 405 341 *~;
#X obj 292 240 r~ ch10;
#X obj 320 259 r~ ch11;
#X obj 348 279 r~ ch12;
#X obj 377 299 r~ ch13;
#X obj 405 319 r~ ch14;
#X obj 431 364 *~;
#X obj 460 384 *~;
#X obj 432 342 r~ ch15;
#X obj 460 362 r~ ch16;
#X obj 15 291 inlet;
#X obj 311 459 outlet~;
#X obj 469 425 mtx_*~ 1 16 100 . . . . . . . . . . . . . . . . . .
. . . .;
#X connect 0 0 35 1;
#X connect 1 0 9 0;
#X connect 2 0 10 0;
#X connect 3 0 11 0;
#X connect 4 0 12 0;
#X connect 5 0 13 0;
#X connect 6 0 14 0;
#X connect 7 0 15 0;
#X connect 8 0 16 0;
#X connect 9 0 35 2;
#X connect 10 0 35 3;
#X connect 11 0 35 4;
#X connect 12 0 35 5;
#X connect 13 0 35 6;
#X connect 14 0 35 7;
#X connect 15 0 35 8;
#X connect 16 0 35 9;
#X connect 17 0 9 1;
#X connect 17 0 10 1;
#X connect 17 0 11 1;
#X connect 17 1 12 1;
#X connect 17 1 13 1;
#X connect 17 1 14 1;
#X connect 17 1 15 1;
#X connect 17 1 16 1;
#X connect 17 2 19 1;
#X connect 17 2 20 1;
#X connect 17 2 21 1;
#X connect 17 2 22 1;
#X connect 17 2 23 1;
#X connect 17 2 29 1;
#X connect 17 2 30 1;
#X connect 19 0 35 10;
#X connect 20 0 35 11;
#X connect 21 0 35 12;
#X connect 22 0 35 13;
#X connect 23 0 35 14;
#X connect 24 0 19 0;
#X connect 25 0 20 0;
#X connect 26 0 21 0;
#X connect 27 0 22 0;
#X connect 28 0 23 0;
#X connect 29 0 35 15;
#X connect 30 0 35 16;
#X connect 31 0 29 0;
#X connect 32 0 30 0;
#X connect 33 0 35 0;
#X connect 35 0 34 0;
#X restore 67 146 pd 3rd-order-decoder;
#X obj 67 177 prvu~ 30 350 0;
#N canvas 63 70 320 221 release 0;
#X obj 35 21 inlet;
#X obj 130 174 outlet;
#X obj 35 123 moses;
#X obj 91 49 f;
#X obj 91 89 t f f f;
#X obj 136 57 - 1;
#X obj 35 156 t b;
#X obj 151 17 r peak-release;
#X connect 0 0 2 0;
#X connect 2 0 6 0;
#X connect 2 1 3 0;
#X connect 3 0 4 0;
#X connect 4 0 2 1;
#X connect 4 1 5 0;
#X connect 4 2 1 0;
#X connect 5 0 3 1;
#X connect 6 0 3 0;
#X connect 7 0 5 1;
#X restore 122 222 pd release;
#X obj 67 122 t a a a;
#X connect 0 0 39 0;
#X connect 1 0 0 0;
#X connect 2 0 1 0;
#X connect 2 1 1 1;
#X connect 3 0 6 0;
#X connect 4 0 41 0;
#X connect 5 0 4 0;
#X connect 6 0 34 0;
#X connect 6 1 35 0;
#X connect 11 0 9 0;
#X connect 12 0 10 0;
#X connect 13 0 6 0;
#X connect 14 0 16 0;
#X connect 15 0 14 0;
#X connect 15 1 16 1;
#X connect 16 0 22 0;
#X connect 17 0 18 0;
#X connect 18 0 23 0;
#X connect 19 0 17 0;
#X connect 19 1 18 1;
#X connect 20 0 41 0;
#X connect 21 0 20 0;
#X connect 24 0 41 0;
#X connect 25 0 24 0;
#X connect 26 0 27 0;
#X connect 26 0 37 0;
#X connect 27 0 24 0;
#X connect 27 1 28 0;
#X connect 28 0 41 0;
#X connect 30 0 31 0;
#X connect 31 0 19 0;
#X connect 32 0 33 0;
#X connect 33 0 15 0;
#X connect 34 0 1 0;
#X connect 34 0 11 0;
#X connect 35 0 2 0;
#X connect 35 0 12 0;
#X connect 37 0 36 0;
#X connect 38 0 30 0;
#X connect 38 1 42 0;
#X connect 39 0 43 0;
#X connect 40 0 41 0;
#X connect 41 0 38 0;
#X connect 42 0 32 0;
#X connect 43 0 40 0;
#X connect 43 1 17 1;
#X connect 43 2 14 1;
