#N canvas 225 57 1037 742 10;
#X msg 114 238 matrix 2 1 \$1 \$2;
#X obj 114 218 pack 0 0;
#X obj 199 152 * 0.0174532;
#X obj 199 174 t b f;
#X obj 114 108 nbx 5 14 -1e+37 1e+37 0 0 empty empty empty 0 -8 0 10
-262144 -1 -1 -175.5 256;
#X obj 199 129 nbx 5 14 -1e+37 1e+37 0 0 empty empty empty 0 -8 0 10
-262144 -1 -1 0 256;
#X obj 114 52 float \$1;
#X obj 114 10 loadbang;
#X obj 189 52 float \$2;
#X obj 87 525 min 1;
#X obj 87 444 + 103;
#X obj 87 601 jet-gradient;
#X text 165 599 -1...1;
#X msg 140 650 1 0 0;
#X obj 58 196 r freeze;
#X obj 58 223 == 0;
#X obj 115 421 t b f;
#N canvas 770 342 449 368 draw-sphere 0;
#X obj 27 151 rotateXYZ 0 \$1 0;
#X obj 27 181 rotateXYZ \$2 0 0;
#X obj 199 87 loadbang;
#X obj 199 118 f \$2;
#X obj 26 213 translateXYZ 0 0 2;
#X floatatom 240 119 5 0 0 0 - - -, f 5;
#X obj 27 331 sphere 0.07 20;
#X obj 27 9 r gemhead_decoder;
#X obj 27 63 separator;
#X obj 27 295 color 1 1 1;
#X obj 90 248 inlet;
#X text 243 144 + 90;
#X obj 199 143 + 90;
#X obj 27 95 rotateXYZ 90 0 0;
#X obj 27 41 spigot 0;
#X obj 255 10 inlet active;
#X obj 159 240 r points-alpha;
#X obj 90 271 pack 0 0 0 1;
#X connect 0 0 1 0;
#X connect 1 0 4 0;
#X connect 2 0 3 0;
#X connect 3 0 12 0;
#X connect 4 0 9 0;
#X connect 5 0 12 0;
#X connect 7 0 14 0;
#X connect 8 0 13 0;
#X connect 9 0 6 0;
#X connect 10 0 17 0;
#X connect 12 0 1 1;
#X connect 13 0 0 0;
#X connect 14 0 8 0;
#X connect 15 0 14 1;
#X connect 16 0 17 3;
#X connect 17 0 9 1;
#X restore 378 585 pd draw-sphere;
#N canvas 758 271 454 392 draw-rectangle 0;
#X obj 43 71 r gemhead_rect;
#X obj 43 93 separator;
#X obj 43 195 translateXYZ 0 0 0;
#X obj 106 221 inlet;
#X obj 155 4 loadbang;
#X obj 155 26 t b b;
#X obj 155 68 float \$1;
#X text 336 20 \$1: azimuth;
#X text 337 51 \$2: elevation;
#X obj 155 90 / 360;
#X obj 243 68 float \$2;
#X obj 243 90 / 180;
#X text 238 263 20x10 texture;
#X text 239 307 now 25x10;
#X obj 43 307 color 1 1 1 1;
#X obj 105 243 unpack 0 0 0;
#X obj 105 269 pack 0 0 0 1;
#X obj 215 219 r tex-alpha;
#X obj 243 133 + 4;
#X msg 154 305 1 0 0 1;
#X floatatom 239 185 5 0 0 0 - - -, f 5;
#X floatatom 178 190 5 0 0 0 - - -, f 5;
#X obj 227 7 bng 15 250 50 0 empty empty empty 17 7 0 10 -262144 -1
-1;
#X obj 243 111 * -7.2;
#X obj 243 156 - 0.4;
#X floatatom 151 169 5 0 0 0 - - -, f 5;
#X floatatom 108 145 5 0 0 0 - - -, f 5;
#X floatatom 103 119 5 0 0 0 - - -, f 5;
#X obj 43 337 rectangle 0.166666 0.4;
#X text 249 329 eg. 8 / 24 / 2;
#X obj 155 111 * 7.66667;
#X obj 155 131 - 3.83333;
#X connect 0 0 1 0;
#X connect 1 0 2 0;
#X connect 2 0 14 0;
#X connect 3 0 15 0;
#X connect 4 0 5 0;
#X connect 5 0 6 0;
#X connect 5 1 10 0;
#X connect 6 0 9 0;
#X connect 9 0 30 0;
#X connect 10 0 11 0;
#X connect 11 0 23 0;
#X connect 14 0 28 0;
#X connect 15 0 16 0;
#X connect 15 1 16 1;
#X connect 15 2 16 2;
#X connect 16 0 14 1;
#X connect 17 0 16 3;
#X connect 18 0 24 0;
#X connect 19 0 14 1;
#X connect 22 0 5 0;
#X connect 23 0 18 0;
#X connect 24 0 2 2;
#X connect 24 0 20 0;
#X connect 25 0 2 2;
#X connect 26 0 2 1;
#X connect 30 0 31 0;
#X connect 31 0 2 1;
#X connect 31 0 27 0;
#X restore 87 673 pd draw-rectangle;
#N canvas 528 159 214 205 grey 0;
#X obj 50 38 inlet;
#X msg 50 104 \$1 \$1 \$1;
#X obj 51 138 outlet;
#X obj 48 71 max 0.1;
#X obj 118 39 r min;
#X connect 0 0 3 0;
#X connect 1 0 2 0;
#X connect 3 0 1 0;
#X connect 4 0 3 1;
#X restore 216 603 pd grey;
#N canvas 304 497 306 218 switch 0;
#X obj 55 46 inlet;
#X obj 183 51 inlet;
#X obj 55 157 outlet;
#X obj 55 72 t a a;
#X obj 55 132 spigot 1;
#X obj 125 157 outlet;
#X obj 125 132 spigot 0;
#X obj 183 78 t f f;
#X obj 131 100 == 0;
#X connect 0 0 3 0;
#X connect 1 0 7 0;
#X connect 3 0 4 0;
#X connect 3 1 6 0;
#X connect 4 0 2 0;
#X connect 6 0 5 0;
#X connect 7 0 8 0;
#X connect 7 1 6 1;
#X connect 8 0 4 1;
#X restore 87 575 pd switch;
#X obj 87 629 t a;
#X obj 87 547 max 0;
#X msg 160 423 100 \$1;
#X obj 160 447 -;
#X obj 87 476 -;
#X obj 87 503 *;
#X msg 193 468 1 \$1;
#X obj 193 489 /;
#X obj 114 30 t b b;
#X obj 190 12 bng 15 250 50 0 empty empty empty 17 7 0 10 -262144 -1
-1;
#X obj 13 274 spigot 0;
#X obj 87 353 rmstodb;
#X obj 13 246 r rms-sh-sum;
#X obj 87 308 mtx_*;
#X msg 87 329 \$3;
#X obj 114 281 mtx_transpose;
#X obj 378 447 min 1;
#X obj 378 366 + 103;
#X obj 378 523 jet-gradient;
#X text 456 521 -1...1;
#X obj 406 343 t b f;
#N canvas 528 159 214 205 grey 0;
#X obj 50 38 inlet;
#X msg 50 104 \$1 \$1 \$1;
#X obj 51 138 outlet;
#X obj 48 71 max 0.1;
#X obj 118 39 r min;
#X connect 0 0 3 0;
#X connect 1 0 2 0;
#X connect 3 0 1 0;
#X connect 4 0 3 1;
#X restore 507 525 pd grey;
#N canvas 304 497 306 218 switch 0;
#X obj 55 46 inlet;
#X obj 183 51 inlet;
#X obj 55 157 outlet;
#X obj 55 72 t a a;
#X obj 55 132 spigot 1;
#X obj 125 157 outlet;
#X obj 125 132 spigot 0;
#X obj 183 78 t f f;
#X obj 131 100 == 0;
#X connect 0 0 3 0;
#X connect 1 0 7 0;
#X connect 3 0 4 0;
#X connect 3 1 6 0;
#X connect 4 0 2 0;
#X connect 6 0 5 0;
#X connect 7 0 8 0;
#X connect 7 1 6 1;
#X connect 8 0 4 1;
#X restore 378 497 pd switch;
#X obj 378 551 t a;
#X obj 378 469 max 0;
#X msg 451 345 100 \$1;
#X obj 451 369 -;
#X obj 378 398 -;
#X obj 378 425 *;
#X msg 484 390 1 \$1;
#X obj 484 411 /;
#X obj 378 188 spigot 0;
#X obj 378 285 rmstodb;
#X obj 378 240 mtx_*;
#X msg 378 261 \$3;
#X obj 378 160 r peak-sh-sum;
#X obj 406 302 r peak-gain;
#X obj 451 322 r peak-range;
#X obj 484 367 r peak-range;
#X obj 160 400 r rms-range;
#X obj 115 380 r rms-gain;
#X obj 429 467 r peak-grey;
#X obj 138 545 r rms-grey;
#X obj 193 445 r rms-range;
#X text 661 96 DISTORTED SPHERE-directional plot;
#X msg 602 326 setSpherical \$1 \$2 \$3 \$4 \$5;
#X obj 617 140 loadbang;
#X obj 617 172 float \$1;
#X text 493 47 arg 1: azimuth;
#X text 494 63 arg 2: elevation;
#X obj 602 261 int;
#X obj 689 172 float \$2;
#X obj 602 295 pack 0 0 0 \$1 \$2;
#X obj 602 230 t b f;
#X obj 602 366 s setSpherical;
#X text 737 268 zenith to elevation conversion;
#X obj 767 196 - 90;
#X floatatom 814 248 5 0 0 0 - - -, f 5;
#X obj 114 76 - 180;
#X text 236 93 translate the azimuth by -180 deg;
#X text 248 112 to have 0deg at texture middle;
#X obj 547 133 t f;
#X obj 658 448 int \$0;
#X obj 658 421 loadbang;
#X obj 658 496 sel 0;
#X msg 658 525 1;
#X obj 658 472 % 2;
#X text 713 441 show every second only;
#X msg 694 542 0;
#X obj 694 519 t b;
#X obj 658 564 t f;
#X obj 465 136 r freeze;
#X obj 465 163 == 0;
#X obj 378 215 spigot 0;
#X obj 617 195 / 9;
#X text 694 218 180/v;
#X text 631 212 360/h;
#X obj 649 254 int;
#X obj 689 198 / 12.857;
#X obj 547 155 spigot 0;
#X obj 592 119 r directional-plot;
#X obj 114 152 * 0.0174532;
#X obj 114 128 * 1;
#X text 495 80 arg 3: order;
#X obj 114 260 mtx_spherical_harmonics 3;
#X obj 767 219 * 1;
#X connect 0 0 105 0;
#X connect 1 0 0 0;
#X connect 2 0 3 0;
#X connect 3 0 1 0;
#X connect 3 1 1 1;
#X connect 4 0 103 0;
#X connect 5 0 2 0;
#X connect 6 0 79 0;
#X connect 7 0 29 0;
#X connect 8 0 5 0;
#X connect 9 0 22 0;
#X connect 10 0 25 0;
#X connect 11 0 21 0;
#X connect 13 0 18 0;
#X connect 14 0 15 0;
#X connect 15 0 31 1;
#X connect 16 0 10 0;
#X connect 16 1 10 1;
#X connect 19 0 21 0;
#X connect 20 0 11 0;
#X connect 20 1 19 0;
#X connect 21 0 18 0;
#X connect 22 0 20 0;
#X connect 22 0 82 0;
#X connect 23 0 24 0;
#X connect 24 0 25 1;
#X connect 25 0 26 0;
#X connect 26 0 9 0;
#X connect 27 0 28 0;
#X connect 28 0 26 1;
#X connect 29 0 6 0;
#X connect 29 1 8 0;
#X connect 30 0 29 0;
#X connect 31 0 34 0;
#X connect 32 0 10 0;
#X connect 33 0 31 0;
#X connect 34 0 35 0;
#X connect 35 0 32 0;
#X connect 36 0 34 1;
#X connect 36 0 54 1;
#X connect 37 0 45 0;
#X connect 38 0 48 0;
#X connect 39 0 44 0;
#X connect 41 0 38 0;
#X connect 41 1 38 1;
#X connect 42 0 44 0;
#X connect 43 0 39 0;
#X connect 43 1 42 0;
#X connect 44 0 17 0;
#X connect 45 0 43 0;
#X connect 46 0 47 0;
#X connect 47 0 48 1;
#X connect 48 0 49 0;
#X connect 49 0 37 0;
#X connect 50 0 51 0;
#X connect 51 0 49 1;
#X connect 52 0 94 0;
#X connect 53 0 38 0;
#X connect 54 0 55 0;
#X connect 55 0 53 0;
#X connect 56 0 52 0;
#X connect 57 0 41 0;
#X connect 58 0 46 0;
#X connect 59 0 50 0;
#X connect 60 0 23 0;
#X connect 61 0 16 0;
#X connect 62 0 43 1;
#X connect 63 0 20 1;
#X connect 64 0 27 0;
#X connect 66 0 75 0;
#X connect 67 0 68 0;
#X connect 67 0 72 0;
#X connect 68 0 95 0;
#X connect 71 0 73 0;
#X connect 72 0 77 0;
#X connect 72 0 99 0;
#X connect 73 0 66 0;
#X connect 74 0 71 0;
#X connect 74 1 73 2;
#X connect 77 0 106 0;
#X connect 79 0 4 0;
#X connect 82 0 100 0;
#X connect 83 0 87 0;
#X connect 84 0 83 0;
#X connect 85 0 86 0;
#X connect 85 1 90 0;
#X connect 86 0 91 0;
#X connect 87 0 85 0;
#X connect 89 0 91 0;
#X connect 90 0 89 0;
#X connect 91 0 17 1;
#X connect 91 0 52 1;
#X connect 92 0 93 0;
#X connect 93 0 94 1;
#X connect 94 0 54 0;
#X connect 95 0 71 1;
#X connect 98 0 73 1;
#X connect 99 0 98 0;
#X connect 100 0 74 0;
#X connect 101 0 100 1;
#X connect 102 0 1 0;
#X connect 103 0 102 0;
#X connect 105 0 36 0;
#X connect 106 0 73 4;
#X connect 106 0 78 0;
