#N canvas 713 73 664 720 10;
#X msg 97 189 matrix 2 1 \$1 \$2;
#X obj 97 169 pack 0 0;
#X obj 97 103 * 0.0174532;
#X obj 172 103 * 0.0174532;
#X obj 172 125 t b f;
#X obj 97 273 mtx_transpose;
#X text 390 103 encode....;
#X obj 290 293 *~;
#X obj 388 207 loadbang;
#X obj 388 234 tgl 15 0 empty empty empty 17 7 0 10 -262144 -1 -1 0
1;
#X obj 388 254 metro 500;
#X obj 388 298 vline~;
#X obj 58 306 mtx_print;
#X floatatom 172 77 5 0 0 0 - - -, f 5;
#X floatatom 97 77 5 0 0 0 - - -, f 5;
#N canvas 227 114 224 206 rotate 0;
#X obj 40 39 inlet;
#X obj 40 84 int 0;
#X obj 40 106 t f f;
#X obj 108 100 + 1;
#X obj 40 150 outlet;
#X obj 108 122 mod 360;
#X obj 89 38 inlet;
#X obj 40 62 metro 30;
#X connect 0 0 7 0;
#X connect 1 0 2 0;
#X connect 2 0 4 0;
#X connect 2 1 3 0;
#X connect 3 0 5 0;
#X connect 5 0 1 1;
#X connect 6 0 7 1;
#X connect 7 0 1 0;
#X restore 97 44 pd rotate;
#X obj 97 11 tgl 15 0 empty empty empty 17 7 0 10 -262144 -1 -1 0 1
;
#X floatatom 141 13 5 0 0 0 - - -, f 5;
#X obj 17 681 throw~ ch1;
#X obj 29 651 throw~ ch2;
#X obj 57 631 throw~ ch3;
#X obj 85 611 throw~ ch4;
#X obj 93 584 throw~ ch5;
#X obj 121 563 throw~ ch6;
#X obj 149 543 throw~ ch7;
#X obj 177 523 throw~ ch8;
#X obj 206 503 throw~ ch9;
#X obj 212 665 throw~ ch10;
#X obj 226 646 throw~ ch11;
#X obj 240 627 throw~ ch12;
#X obj 252 607 throw~ ch13;
#X obj 261 587 throw~ ch14;
#X obj 268 567 throw~ ch15;
#X obj 280 548 throw~ ch16;
#X obj 180 334 mtx_*~ 36 1 100 . . . . . . . . . . . . . . . . . .
. . . .;
#X obj 290 242 pink~;
#X obj 269 99 loadbang;
#X msg 498 296 0;
#X msg 522 311 0.5;
#X msg 388 276 0.5 10 \, 0 50 350;
#X obj 97 239 mtx_resize 1 36;
#X text 226 190 change order if wanted;
#X obj 97 212 mtx_spherical_harmonics 5;
#X msg 269 125 0.785 1.5707;
#X text 275 70 45deg 90deg;
#X obj 494 16 noise~;
#X obj 494 82 throw~ ch1;
#X obj 494 60 *~;
#X obj 509 40 tgl 15 0 empty empty empty 17 7 0 10 -262144 -1 -1 0
1;
#X text 486 -4 equal distributed source;
#X obj 232 251 noise~;
#X obj 27 243 mtx_size;
#X floatatom 25 275 5 0 0 0 - - -, f 5;
#X floatatom 61 276 5 0 0 0 - - -, f 5;
#X connect 0 0 42 0;
#X connect 1 0 0 0;
#X connect 2 0 1 0;
#X connect 3 0 4 0;
#X connect 4 0 1 0;
#X connect 4 1 1 1;
#X connect 5 0 34 0;
#X connect 7 0 34 1;
#X connect 9 0 10 0;
#X connect 10 0 39 0;
#X connect 11 0 7 1;
#X connect 13 0 3 0;
#X connect 14 0 2 0;
#X connect 15 0 14 0;
#X connect 16 0 15 0;
#X connect 17 0 15 1;
#X connect 34 0 18 0;
#X connect 34 1 19 0;
#X connect 34 2 20 0;
#X connect 34 3 21 0;
#X connect 34 4 22 0;
#X connect 34 5 23 0;
#X connect 34 6 24 0;
#X connect 34 7 25 0;
#X connect 34 8 26 0;
#X connect 34 9 27 0;
#X connect 34 10 28 0;
#X connect 34 11 29 0;
#X connect 34 12 30 0;
#X connect 34 13 31 0;
#X connect 34 14 32 0;
#X connect 34 15 33 0;
#X connect 36 0 43 0;
#X connect 37 0 11 0;
#X connect 38 0 11 0;
#X connect 39 0 11 0;
#X connect 40 0 5 0;
#X connect 42 0 40 0;
#X connect 42 0 51 0;
#X connect 43 0 1 0;
#X connect 45 0 47 0;
#X connect 47 0 46 0;
#X connect 48 0 47 1;
#X connect 50 0 7 0;
#X connect 51 0 52 0;
#X connect 51 1 53 0;
