#N canvas 116 114 588 368 10;
#X obj 410 136 moses -0.75;
#X obj 68 304 pack 0 0 0;
#X obj 68 85 t f f f;
#X text 427 116 B;
#X obj 410 158 + 1.75;
#X obj 409 226 t f;
#X obj 473 158 moses 0.25;
#X msg 473 180 0.25 \$1;
#X obj 473 202 -;
#X obj 530 183 t b;
#X msg 530 205 0;
#X obj 214 136 moses -0.5;
#X obj 214 168 t b;
#X msg 214 190 0;
#X obj 214 242 t f;
#X obj 271 157 moses 0.5;
#X obj 271 189 expr 1-2*abs($f1);
#X obj 28 137 moses -0.25;
#X obj 28 169 t b;
#X msg 28 191 0;
#X obj 28 233 t f;
#X obj 91 165 moses 0.75;
#X obj 91 187 + 0.25;
#X msg 148 189 1.75 \$1;
#X obj 148 211 -;
#X text 59 118 R;
#X text 232 120 G;
#X obj 68 13 inlet;
#X obj 67 337 outlet;
#X text 124 15 0....1;
#X obj 68 37 * 2;
#X obj 68 57 - 1;
#X text 126 48 -1....1;
#X connect 0 0 4 0;
#X connect 0 1 6 0;
#X connect 1 0 28 0;
#X connect 2 0 17 0;
#X connect 2 1 11 0;
#X connect 2 2 0 0;
#X connect 4 0 5 0;
#X connect 5 0 1 2;
#X connect 6 0 7 0;
#X connect 6 1 9 0;
#X connect 7 0 8 0;
#X connect 8 0 5 0;
#X connect 9 0 10 0;
#X connect 10 0 5 0;
#X connect 11 0 12 0;
#X connect 11 1 15 0;
#X connect 12 0 13 0;
#X connect 13 0 14 0;
#X connect 14 0 1 1;
#X connect 15 0 16 0;
#X connect 15 1 12 0;
#X connect 16 0 14 0;
#X connect 17 0 18 0;
#X connect 17 1 21 0;
#X connect 18 0 19 0;
#X connect 19 0 20 0;
#X connect 20 0 1 0;
#X connect 21 0 22 0;
#X connect 21 1 23 0;
#X connect 22 0 20 0;
#X connect 23 0 24 0;
#X connect 24 0 20 0;
#X connect 27 0 30 0;
#X connect 30 0 31 0;
#X connect 31 0 2 0;
