#N canvas 1668 121 574 541 10;
#X obj 137 27 inlet;
#X obj 159 72 list length;
#X obj 200 175 list split;
#X msg 255 220 \$1;
#X obj 159 112 until;
#X obj 159 92 t f b;
#X msg 199 92 0;
#X obj 200 112 f;
#X obj 227 112 + 1;
#X obj 200 132 t b f;
#X obj 200 154 list;
#X obj 255 301 f;
#X obj 255 281 until;
#X obj 291 322 t l;
#X obj 255 260 f;
#X obj 255 322 list;
#X obj 255 240 t b b f;
#X obj 232 198 t b f;
#X obj 251 377 t l;
#X obj 232 345 list;
#X obj 160 377 list prepend;
#X obj 137 400 list;
#X obj 137 50 t b l l;
#X obj 242 131 * 2;
#X obj 268 131 + 1;
#X obj 137 425 outlet;
#X text 330 53 makes from order weights;
#X text 326 73 a weighting matrix for all;
#X text 351 93 nm indices of the;
#X text 366 110 spherical harmonics;
#X text 358 378 Franz Zotter \, 2010;
#X connect 0 0 22 0;
#X connect 1 0 5 0;
#X connect 2 1 17 0;
#X connect 3 0 16 0;
#X connect 4 0 7 0;
#X connect 5 0 4 0;
#X connect 5 1 6 0;
#X connect 5 1 20 1;
#X connect 6 0 7 1;
#X connect 7 0 8 0;
#X connect 7 0 9 0;
#X connect 8 0 7 1;
#X connect 9 0 10 0;
#X connect 9 1 2 1;
#X connect 9 1 23 0;
#X connect 10 0 2 0;
#X connect 11 0 15 0;
#X connect 12 0 11 0;
#X connect 13 0 15 1;
#X connect 14 0 12 0;
#X connect 15 0 13 0;
#X connect 15 0 19 1;
#X connect 16 0 14 0;
#X connect 16 1 15 1;
#X connect 16 2 11 1;
#X connect 17 0 19 0;
#X connect 17 1 3 0;
#X connect 18 0 20 1;
#X connect 19 0 20 0;
#X connect 20 0 18 0;
#X connect 20 0 21 1;
#X connect 21 0 25 0;
#X connect 22 0 21 0;
#X connect 22 1 1 0;
#X connect 22 2 10 1;
#X connect 23 0 24 0;
#X connect 24 0 14 1;
