#N canvas 4 57 819 544 10;
#X obj 50 69 mtx_concat;
#X obj 50 140 mtx_size;
#X obj 131 21 loadbang;
#X obj 193 21 bng 15 250 50 0 empty empty empty 17 7 0 10 -262144 -1
-1;
#X obj 50 211 sel 1;
#X obj 50 319 mtx_sum;
#X obj 50 264 mtx;
#X obj 50 93 t a a a;
#X obj 50 234 t b b;
#X obj 50 344 mtx;
#X obj 118 259 pack 1 0;
#X obj 118 318 mtx_ones;
#X obj 252 274 mtx_diag;
#X obj 50 369 mtx_*;
#X text 216 216 -23dB;
#X msg 253 214 2.75;
#X obj 253 194 loadbang;
#X obj 252 233 spherical_kaiser;
#X obj 252 254 listn2listnm;
#X text 92 180 NUM OF DECODERS!;
#X obj 274 372 mtx_diag;
#X msg 274 330 1 1 1 1 1 1 1 1 1 1 1 1 1 1 1 1 1 1 1 1 1 1 1 1 1 1
1 1 1 1 1 1 1 1 1 1;
#X text 287 95 sum all ambi message outputs of audio signal decoders
;
#X text 342 314 no weighting;
#X text 349 15 arg 1: ambi channels;
#X text 351 38 arg 2: num signal decoders;
#X text 351 68 arg3: rms or peak;
#X obj 131 52 mtx_zeros 1 \$1;
#X obj 50 182 > \$2;
#X obj 50 411 s \$3-sh-sum;
#X obj 50 17 r \$3-sh;
#X obj 107 355 mtx_resize \$1 \$1;
#X connect 0 0 7 0;
#X connect 1 0 28 0;
#X connect 1 1 10 1;
#X connect 2 0 27 0;
#X connect 3 0 27 0;
#X connect 4 0 8 0;
#X connect 4 0 27 0;
#X connect 5 0 9 0;
#X connect 6 0 5 0;
#X connect 7 0 1 0;
#X connect 7 1 0 1;
#X connect 7 2 6 1;
#X connect 8 0 6 0;
#X connect 8 1 10 0;
#X connect 9 0 13 0;
#X connect 10 0 11 0;
#X connect 11 0 9 1;
#X connect 12 0 31 0;
#X connect 13 0 29 0;
#X connect 15 0 17 0;
#X connect 16 0 15 0;
#X connect 17 0 18 0;
#X connect 18 0 12 0;
#X connect 20 0 31 0;
#X connect 21 0 20 0;
#X connect 27 0 0 1;
#X connect 28 0 4 0;
#X connect 30 0 0 0;
#X connect 31 0 13 1;
