#N canvas 31 33 527 292 10;
#X obj 2 16 r~ ch1;
#X obj 12 36 r~ ch2;
#X obj 22 56 r~ ch3;
#X obj 32 76 r~ ch4;
#X obj 42 96 r~ ch5;
#X obj 52 116 r~ ch6;
#X obj 62 136 r~ ch7;
#X obj 72 156 r~ ch8;
#X obj 76 9 r~ ch9;
#X obj 86 29 r~ ch10;
#X obj 96 49 r~ ch11;
#X obj 106 69 r~ ch12;
#X obj 116 89 r~ ch13;
#X obj 126 109 r~ ch14;
#X obj 136 129 r~ ch15;
#X obj 146 149 r~ ch16;
#X obj 59 208 dac~ 1 2 3 4 5 6 7 8 9 10 11 12 13 14 15 16 17 18 19
20 21 22 23 24 25 26 27 28 29 30 31 32 33 34 35 36;
#X obj 173 9 r~ ch17;
#X obj 183 29 r~ ch18;
#X obj 193 49 r~ ch19;
#X obj 203 69 r~ ch20;
#X obj 213 89 r~ ch21;
#X obj 223 109 r~ ch22;
#X obj 233 129 r~ ch23;
#X obj 243 149 r~ ch24;
#X obj 284 4 r~ ch25;
#X obj 294 24 r~ ch26;
#X obj 304 44 r~ ch27;
#X obj 314 64 r~ ch28;
#X obj 324 84 r~ ch29;
#X obj 334 104 r~ ch30;
#X obj 344 124 r~ ch31;
#X obj 354 144 r~ ch32;
#X obj 400 81 r~ ch33;
#X obj 411 102 r~ ch34;
#X obj 421 122 r~ ch35;
#X obj 431 142 r~ ch36;
#X connect 0 0 16 0;
#X connect 1 0 16 1;
#X connect 2 0 16 2;
#X connect 3 0 16 3;
#X connect 4 0 16 4;
#X connect 5 0 16 5;
#X connect 6 0 16 6;
#X connect 7 0 16 7;
#X connect 8 0 16 8;
#X connect 9 0 16 9;
#X connect 10 0 16 10;
#X connect 11 0 16 11;
#X connect 12 0 16 12;
#X connect 13 0 16 13;
#X connect 14 0 16 14;
#X connect 15 0 16 15;
#X connect 17 0 16 16;
#X connect 18 0 16 17;
#X connect 19 0 16 18;
#X connect 20 0 16 19;
#X connect 21 0 16 20;
#X connect 22 0 16 21;
#X connect 23 0 16 22;
#X connect 24 0 16 23;
#X connect 25 0 16 24;
#X connect 26 0 16 25;
#X connect 27 0 16 26;
#X connect 28 0 16 27;
#X connect 29 0 16 28;
#X connect 30 0 16 29;
#X connect 31 0 16 30;
#X connect 32 0 16 31;
#X connect 33 0 16 32;
#X connect 34 0 16 33;
#X connect 35 0 16 34;
#X connect 36 0 16 35;
