#N canvas 597 76 503 455 12;
#X obj 108 129 mtx_window;
#X obj 353 82 bng 15 250 50 0 empty empty empty 17 7 0 10 -262144 -1
-1;
#X obj 327 108 mtx W.mtx;
#X obj 108 202 mtx_reverse;
#X obj 108 258 mtx_*;
#X obj 327 175 mtx_transpose;
#X obj 327 56 loadbang;
#X msg 108 90 kaiser 11 \$1;
#X obj 108 173 mtx_slice 1 1 1 6;
#X obj 327 145 mtx_resize 6 6;
#X obj 108 335 list split 3;
#X obj 327 197 mtx_* 1.8;
#X obj 108 35 inlet;
#X obj 159 363 outlet;
#X text 109 -2 spherical kaiser window smoothing;
#X text 324 343 Dr Franz 2010;
#N canvas 0 0 794 385 normalize_beam 0;
#X obj 128 39 inlet;
#X obj 128 313 outlet;
#X obj 128 68 t a a;
#X obj 218 92 t a a;
#X obj 412 115 mtx_:;
#X obj 258 115 mtx_size;
#X obj 335 115 - 1;
#X msg 368 115 0 \$1;
#X obj 462 115 mtx_* 2;
#X obj 531 115 mtx_+ 1;
#X obj 128 276 mtx_.* 1;
#X obj 219 182 mtx_transpose;
#X obj 219 204 mtx_sum;
#X obj 218 160 mtx_./;
#X connect 0 0 2 0;
#X connect 2 0 10 0;
#X connect 2 1 3 0;
#X connect 3 0 13 0;
#X connect 3 1 5 0;
#X connect 4 0 8 0;
#X connect 5 1 6 0;
#X connect 6 0 7 0;
#X connect 7 0 4 0;
#X connect 8 0 9 0;
#X connect 9 0 13 1;
#X connect 10 0 1 0;
#X connect 11 0 12 0;
#X connect 12 0 10 1;
#X connect 13 0 11 0;
#X restore 108 301 pd normalize_beam;
#X connect 0 0 8 0;
#X connect 1 0 2 0;
#X connect 2 0 9 0;
#X connect 3 0 4 0;
#X connect 4 0 16 0;
#X connect 5 0 11 0;
#X connect 6 0 2 0;
#X connect 7 0 0 0;
#X connect 8 0 3 0;
#X connect 9 0 5 0;
#X connect 10 1 13 0;
#X connect 11 0 4 1;
#X connect 12 0 7 0;
#X connect 16 0 10 0;
