#N canvas 473 50 889 770 10;
#X floatatom 593 182 5 0 0 0 - - -, f 5;
#X text 636 181 Hz;
#X floatatom 628 198 5 0 0 0 - - -, f 5;
#X text 671 197 Q;
#X floatatom 661 216 5 0 0 0 - - -, f 5;
#X text 704 215 dB;
#X obj 25 277 para_bp2~ 48 1 -3 100;
#X obj 105 253 para_bp2~ 48 1 -3 100;
#X obj 184 277 para_bp2~ 48 1 -3 100;
#X obj 267 254 para_bp2~ 48 1 -3 100;
#X obj 350 275 para_bp2~ 48 1 -3 100;
#X obj 434 256 para_bp2~ 48 1 -3 100;
#X floatatom 604 313 5 0 0 0 - - -, f 5;
#X text 647 312 Hz;
#X floatatom 639 330 5 0 0 0 - - -, f 5;
#X text 682 328 Q;
#X floatatom 672 347 5 0 0 0 - - -, f 5;
#X obj 26 393 para_bp2~ 48 1 -3 100;
#X obj 108 372 para_bp2~ 48 1 -3 100;
#X obj 193 393 para_bp2~ 48 1 -3 100;
#X obj 276 371 para_bp2~ 48 1 -3 100;
#X obj 359 392 para_bp2~ 48 1 -3 100;
#X obj 446 371 para_bp2~ 48 1 -3 100;
#X obj 806 22 loadbang;
#X floatatom 596 454 5 0 0 0 - - -, f 5;
#X text 639 453 Hz;
#X floatatom 631 471 5 0 0 0 - - -, f 5;
#X text 674 469 Q;
#X floatatom 664 488 5 0 0 0 - - -, f 5;
#X obj 18 534 para_bp2~ 48 1 -3 100;
#X obj 100 513 para_bp2~ 48 1 -3 100;
#X obj 185 534 para_bp2~ 48 1 -3 100;
#X obj 268 512 para_bp2~ 48 1 -3 100;
#X obj 351 533 para_bp2~ 48 1 -3 100;
#X obj 438 512 para_bp2~ 48 1 -3 100;
#X obj 27 16 inlet~;
#X obj 20 727 outlet~;
#X obj 105 17 inlet~;
#X obj 98 728 outlet~;
#X obj 188 19 inlet~;
#X obj 181 730 outlet~;
#X obj 267 19 inlet~;
#X obj 260 730 outlet~;
#X obj 349 19 inlet~;
#X obj 342 730 outlet~;
#X obj 441 22 inlet~;
#X obj 434 733 outlet~;
#X msg 598 409 47 2 -6;
#X msg 595 137 705 2 -4;
#X msg 606 268 330 2 -4;
#X floatatom 595 569 5 0 0 0 - - -, f 5;
#X text 638 568 Hz;
#X floatatom 630 586 5 0 0 0 - - -, f 5;
#X text 673 584 Q;
#X floatatom 663 603 5 0 0 0 - - -, f 5;
#X obj 17 649 para_bp2~ 48 1 -3 100;
#X obj 99 628 para_bp2~ 48 1 -3 100;
#X obj 184 649 para_bp2~ 48 1 -3 100;
#X obj 267 627 para_bp2~ 48 1 -3 100;
#X obj 350 648 para_bp2~ 48 1 -3 100;
#X obj 437 627 para_bp2~ 48 1 -3 100;
#X msg 597 524 33 2 -6;
#X floatatom 495 67 5 0 0 0 - - -, f 5;
#X text 538 66 Hz;
#X floatatom 530 83 5 0 0 0 - - -, f 5;
#X text 573 82 Q;
#X floatatom 563 101 5 0 0 0 - - -, f 5;
#X text 608 104 dB;
#X obj 25 167 para_bp2~ 48 1 -3 100;
#X obj 105 143 para_bp2~ 48 1 -3 100;
#X obj 184 167 para_bp2~ 48 1 -3 100;
#X obj 267 144 para_bp2~ 48 1 -3 100;
#X obj 350 165 para_bp2~ 48 1 -3 100;
#X obj 434 146 para_bp2~ 48 1 -3 100;
#X msg 497 22 1220 2 -4;
#X obj 497 47 unpack 1220 2 -4;
#X obj 595 162 unpack 705 2 -4;
#X obj 607 294 unpack 33 2 -4;
#X obj 598 434 unpack 47 2 -6;
#X obj 597 549 unpack 33 2 -6;
#X obj 600 18 r \$1/eq/1/freq;
#X obj 635 39 r \$1/eq/1/q;
#X obj 665 61 r \$1/eq/1/gain;
#X obj 680 132 r \$1/eq/2/freq;
#X obj 715 153 r \$1/eq/2/q;
#X obj 745 175 r \$1/eq/2/gain;
#X obj 681 263 r \$1/eq/3/freq;
#X obj 716 284 r \$1/eq/3/q;
#X obj 746 306 r \$1/eq/3/gain;
#X obj 673 396 r \$1/eq/4/freq;
#X obj 708 417 r \$1/eq/4/q;
#X obj 738 439 r \$1/eq/4/gain;
#X obj 673 515 r \$1/eq/5/freq;
#X obj 709 536 r \$1/eq/5/q;
#X obj 738 558 r \$1/eq/5/gain;
#X obj 31 672 pvu~;
#X obj 32 696 s \$1/eq/1/vu;
#X obj 122 674 pvu~;
#X obj 213 675 pvu~;
#X obj 310 674 pvu~;
#X obj 401 676 pvu~;
#X obj 492 677 pvu~;
#X obj 493 701 s \$1/eq/6/vu;
#X obj 402 700 s \$1/eq/5/vu;
#X obj 311 698 s \$1/eq/4/vu;
#X obj 214 699 s \$1/eq/3/vu;
#X obj 123 698 s \$1/eq/2/vu;
#X connect 0 0 6 1;
#X connect 0 0 7 1;
#X connect 0 0 9 1;
#X connect 0 0 10 1;
#X connect 0 0 11 1;
#X connect 2 0 6 2;
#X connect 2 0 7 2;
#X connect 2 0 8 2;
#X connect 2 0 9 2;
#X connect 2 0 10 2;
#X connect 2 0 11 2;
#X connect 4 0 6 3;
#X connect 4 0 7 3;
#X connect 4 0 8 3;
#X connect 4 0 9 3;
#X connect 4 0 10 3;
#X connect 4 0 11 3;
#X connect 6 0 17 0;
#X connect 7 0 18 0;
#X connect 8 0 19 0;
#X connect 9 0 20 0;
#X connect 10 0 21 0;
#X connect 11 0 22 0;
#X connect 12 0 17 1;
#X connect 12 0 18 1;
#X connect 12 0 20 1;
#X connect 12 0 21 1;
#X connect 12 0 22 1;
#X connect 14 0 17 2;
#X connect 14 0 18 2;
#X connect 14 0 19 2;
#X connect 14 0 20 2;
#X connect 14 0 21 2;
#X connect 14 0 22 2;
#X connect 16 0 17 3;
#X connect 16 0 18 3;
#X connect 16 0 19 3;
#X connect 16 0 20 3;
#X connect 16 0 21 3;
#X connect 16 0 22 3;
#X connect 17 0 29 0;
#X connect 18 0 30 0;
#X connect 19 0 31 0;
#X connect 20 0 32 0;
#X connect 21 0 33 0;
#X connect 22 0 34 0;
#X connect 23 0 48 0;
#X connect 23 0 49 0;
#X connect 23 0 47 0;
#X connect 23 0 61 0;
#X connect 23 0 74 0;
#X connect 24 0 29 1;
#X connect 24 0 30 1;
#X connect 24 0 32 1;
#X connect 24 0 33 1;
#X connect 24 0 34 1;
#X connect 26 0 29 2;
#X connect 26 0 30 2;
#X connect 26 0 31 2;
#X connect 26 0 32 2;
#X connect 26 0 33 2;
#X connect 26 0 34 2;
#X connect 28 0 29 3;
#X connect 28 0 30 3;
#X connect 28 0 31 3;
#X connect 28 0 32 3;
#X connect 28 0 33 3;
#X connect 28 0 34 3;
#X connect 29 0 55 0;
#X connect 30 0 56 0;
#X connect 31 0 57 0;
#X connect 32 0 58 0;
#X connect 33 0 59 0;
#X connect 34 0 60 0;
#X connect 35 0 68 0;
#X connect 37 0 69 0;
#X connect 39 0 70 0;
#X connect 41 0 71 0;
#X connect 43 0 72 0;
#X connect 45 0 73 0;
#X connect 47 0 78 0;
#X connect 48 0 76 0;
#X connect 49 0 77 0;
#X connect 50 0 55 1;
#X connect 50 0 56 1;
#X connect 50 0 58 1;
#X connect 50 0 59 1;
#X connect 50 0 60 1;
#X connect 52 0 55 2;
#X connect 52 0 56 2;
#X connect 52 0 57 2;
#X connect 52 0 58 2;
#X connect 52 0 59 2;
#X connect 52 0 60 2;
#X connect 54 0 55 3;
#X connect 54 0 56 3;
#X connect 54 0 57 3;
#X connect 54 0 58 3;
#X connect 54 0 59 3;
#X connect 54 0 60 3;
#X connect 55 0 36 0;
#X connect 55 0 95 0;
#X connect 56 0 38 0;
#X connect 56 0 97 0;
#X connect 57 0 40 0;
#X connect 57 0 98 0;
#X connect 58 0 42 0;
#X connect 58 0 99 0;
#X connect 59 0 44 0;
#X connect 59 0 100 0;
#X connect 60 0 46 0;
#X connect 60 0 101 0;
#X connect 61 0 79 0;
#X connect 62 0 68 1;
#X connect 62 0 69 1;
#X connect 62 0 71 1;
#X connect 62 0 72 1;
#X connect 62 0 73 1;
#X connect 64 0 68 2;
#X connect 64 0 69 2;
#X connect 64 0 70 2;
#X connect 64 0 71 2;
#X connect 64 0 72 2;
#X connect 64 0 73 2;
#X connect 66 0 68 3;
#X connect 66 0 69 3;
#X connect 66 0 70 3;
#X connect 66 0 71 3;
#X connect 66 0 72 3;
#X connect 66 0 73 3;
#X connect 68 0 6 0;
#X connect 69 0 7 0;
#X connect 70 0 8 0;
#X connect 71 0 9 0;
#X connect 72 0 10 0;
#X connect 73 0 11 0;
#X connect 74 0 75 0;
#X connect 75 0 62 0;
#X connect 75 1 64 0;
#X connect 75 2 66 0;
#X connect 76 0 0 0;
#X connect 76 1 2 0;
#X connect 76 2 4 0;
#X connect 77 0 12 0;
#X connect 77 1 14 0;
#X connect 77 2 16 0;
#X connect 78 0 24 0;
#X connect 78 1 26 0;
#X connect 78 2 28 0;
#X connect 79 0 50 0;
#X connect 79 1 52 0;
#X connect 79 2 54 0;
#X connect 80 0 62 0;
#X connect 81 0 64 0;
#X connect 82 0 66 0;
#X connect 83 0 0 0;
#X connect 84 0 2 0;
#X connect 85 0 4 0;
#X connect 86 0 12 0;
#X connect 87 0 14 0;
#X connect 88 0 16 0;
#X connect 89 0 24 0;
#X connect 90 0 26 0;
#X connect 91 0 28 0;
#X connect 92 0 50 0;
#X connect 93 0 52 0;
#X connect 94 0 54 0;
#X connect 95 0 96 0;
#X connect 97 0 106 0;
#X connect 98 0 105 0;
#X connect 99 0 104 0;
#X connect 100 0 103 0;
#X connect 101 0 102 0;
