#N canvas 512 71 425 300 10;
#X obj 38 65 mxr/fader/db2;
#X obj 38 151 mxr/fader/db;
#X text 39 208 (c) GPL \, acre - winfried ritsch;
#X text 41 9 gain_crl <parent id> <prefix> <name>;
#X text 156 59 Map with fader ctl;
#X obj 38 180 s \$2/\$3/gain;
#X obj 39 38 r \$2/\$3/gain;
#X msg 38 87 set \$1;
#X obj 38 109 s \$1/\$3/fad;
#X obj 38 126 r \$1/\$3/fad;
#X connect 0 0 7 0;
#X connect 1 0 5 0;
#X connect 6 0 0 0;
#X connect 7 0 8 0;
#X connect 9 0 1 0;
