#N canvas 473 50 637 208 10;
#X obj 27 16 inlet~;
#X obj 25 133 outlet~;
#X obj 105 17 inlet~;
#X obj 103 134 outlet~;
#X obj 188 19 inlet~;
#X obj 186 136 outlet~;
#X obj 267 19 inlet~;
#X obj 265 136 outlet~;
#X obj 349 19 inlet~;
#X obj 347 136 outlet~;
#X obj 441 22 inlet~;
#X obj 439 139 outlet~;
#X obj 521 41 r \$1/hp/freq;
#X obj 26 92 hip~ 100;
#X obj 102 92 hip~ 100;
#X obj 182 93 hip~ 100;
#X obj 267 86 hip~ 100;
#X obj 352 88 hip~ 100;
#X obj 440 86 hip~ 100;
#X obj 529 101 loadbang;
#X msg 529 124 100;
#X obj 529 147 s \$1/hp/freq;
#X connect 0 0 13 0;
#X connect 2 0 14 0;
#X connect 4 0 15 0;
#X connect 6 0 16 0;
#X connect 8 0 17 0;
#X connect 10 0 18 0;
#X connect 12 0 18 1;
#X connect 12 0 17 1;
#X connect 12 0 16 1;
#X connect 12 0 15 1;
#X connect 12 0 14 1;
#X connect 12 0 13 1;
#X connect 13 0 1 0;
#X connect 14 0 3 0;
#X connect 15 0 5 0;
#X connect 16 0 7 0;
#X connect 17 0 9 0;
#X connect 18 0 11 0;
#X connect 19 0 20 0;
#X connect 20 0 21 0;
