#N canvas 954 571 448 278 10;
#X obj 11 11 cnv 15 98 198 empty empty \$1 2 10 0 12 -228992 -66577
0;
#X obj 16 38 tgl 15 0 \$1/on \$1/on ON 0 -6 0 8 -233017 -1 -1 0 1;
#X obj 13 103 cnv 2 40 2 empty empty empty 20 12 0 14 -1 -66577 0;
#X obj 16 60 vsl 30 131 0 130 0 0 \$1/fad \$1/fad empty 1 140 0 8 -233017
-1 -1 9700 1;
#X obj 136 77 mxr/fader/db2;
#X obj 136 163 mxr/fader/db;
#X msg 136 99 set \$1;
#X obj 136 121 s \$1/fad;
#X obj 137 144 r \$1/fad;
#X text 122 16 abs/master_ctl <ID>;
#X obj 65 67 vu 15 120 \$1/vu empty -1 -8 0 10 -66577 -1 1 0;
#X obj 138 50 r \$1/gain;
#X obj 136 183 s \$1/gain;
#X obj 34 38 tgl 15 0 \$1/eq/vis \$1/eq/vis EQ 2 7 0 10 -4034 -1 -1
0 1;
#X obj 69 30 tgl 30 0 \$1/vis \$1/vis EDIT 0 -6 0 8 -4160 -1 -1 1 1
;
#X obj 16 194 nbx 3 14 -1e+37 1e+37 0 0 \$1/gain \$1/gain empty 0 -8
0 10 -262144 -1 -1 102.333 256;
#X connect 4 0 6 0;
#X connect 5 0 12 0;
#X connect 6 0 7 0;
#X connect 8 0 5 0;
#X connect 11 0 4 0;
#X coords 0 -1 1 1 100 200 2 10 10;
