#N canvas 557 143 235 190 10;
#X obj 32 76 t b f;
#X obj 32 120 outlet;
#X obj 32 96 pack \$2 0;
#X obj 31 43 r \$1/early/delay/\$2;
#X connect 0 0 2 0;
#X connect 0 1 2 1;
#X connect 2 0 1 0;
#X connect 3 0 0 0;
