#N canvas 216 256 253 248 10;
#X obj 40 99 + 100;
#X obj 40 120 dbtorms;
#X obj 40 142 t b f;
#X obj 40 186 outlet;
#X obj 40 74 t f;
#X obj 40 162 pack \$2 0;
#X obj 40 47 r \$1/early/damp/\$2;
#X connect 0 0 1 0;
#X connect 1 0 2 0;
#X connect 2 0 5 0;
#X connect 2 1 5 1;
#X connect 4 0 0 0;
#X connect 5 0 3 0;
#X connect 6 0 4 0;
