#N canvas 1560 69 450 300 10;
#X obj 70 140 t b f;
#X obj 112 117 t b f;
#X obj 70 204 outlet;
#X obj 70 166 pack \$1 0 0;
#X text 69 34 \$1: rev-output#;
#X obj 70 74 r \$2/\$1/pos/elv;
#X obj 112 96 r \$2/\$1/pos/azm;
#X connect 0 0 3 0;
#X connect 0 1 3 1;
#X connect 1 0 3 0;
#X connect 1 1 3 2;
#X connect 3 0 2 0;
#X connect 5 0 0 0;
#X connect 6 0 1 0;
