#N canvas 263 66 727 601 10;
#X declare -lib zexy;
#X declare -lib iemmatrix/mtx_mul~;
#X declare -lib iemmatrix/mtx_add;
#X declare -lib iemmatrix/mtx_mul;
#X declare -lib iemmatrix/mtx_0x210x3d;
#X declare -lib iemmatrix/mtx_0x21;
#X declare -lib iemmatrix/mtx_0x260x26;
#X declare -lib iemmatrix/mtx_0x26;
#X declare -lib iemmatrix/mtx_0x2a0x7e;
#X declare -lib iemmatrix/mtx_0x2a;
#X declare -lib iemmatrix/mtx_0x2b;
#X declare -lib iemmatrix/mtx_0x2d;
#X declare -lib iemmatrix/mtx_0x2e0x2a;
#X declare -lib iemmatrix/mtx_0x2e0x2f;
#X declare -lib iemmatrix/mtx_0x2e0x5e;
#X declare -lib iemmatrix/mtx_0x2f;
#X declare -lib iemmatrix/mtx_0x3a;
#X declare -lib iemmatrix/mtx_0x3c0x3c;
#X declare -lib iemmatrix/mtx_0x3c0x3d;
#X declare -lib iemmatrix/mtx_0x3c;
#X declare -lib iemmatrix/mtx_0x3d0x3d;
#X declare -lib iemmatrix/mtx_0x3e0x3d;
#X declare -lib iemmatrix/mtx_0x3e0x3e;
#X declare -lib iemmatrix/mtx_0x3e;
#X declare -lib iemmatrix/mtx_0x7c0x7c;
#X declare -lib iemmatrix/mtx_0x7c;
#X declare -lib iem_bin_ambi;
#X declare -lib iem_ambi;
#X declare -lib iemmatrix;
#X declare -path libs/iemlib -stdpath iemlib;
#X declare -lib iemlib/iemlib1 -lib iemlib/iemlib2;
#X declare -path libs/iemmatrix -stdpath iemmatrix;
#X declare -path libs/iem_ambi -stdpath iem_ambi;
#X declare -path libs/acre -stdpath acre;
#X declare -path libs/iem_bin_ambi -stdpath iem_bin_ambi;
#X declare -path libs/iem_spec2 -stdpath iem_spec2;
#X declare -lib iem_spec2;
#X declare -path . -path abs -path data -path libs;
#X obj 31 283 declare -lib zexy;
#N canvas 659 253 424 343 matrix_specialnames 0;
#X obj 13 15 declare -lib iemmatrix/mtx_mul~;
#X obj 13 35 declare -lib iemmatrix/mtx_add;
#X obj 13 55 declare -lib iemmatrix/mtx_mul;
#X obj 12 80 declare -lib iemmatrix/mtx_0x210x3d;
#X obj 12 100 declare -lib iemmatrix/mtx_0x21;
#X obj 12 120 declare -lib iemmatrix/mtx_0x260x26;
#X obj 12 140 declare -lib iemmatrix/mtx_0x26;
#X obj 12 160 declare -lib iemmatrix/mtx_0x2a0x7e;
#X obj 12 180 declare -lib iemmatrix/mtx_0x2a;
#X obj 12 200 declare -lib iemmatrix/mtx_0x2b;
#X obj 12 220 declare -lib iemmatrix/mtx_0x2d;
#X obj 12 240 declare -lib iemmatrix/mtx_0x2e0x2a;
#X obj 12 260 declare -lib iemmatrix/mtx_0x2e0x2f;
#X obj 12 280 declare -lib iemmatrix/mtx_0x2e0x5e;
#X obj 12 300 declare -lib iemmatrix/mtx_0x2f;
#X obj 42 380 declare -lib iemmatrix/mtx_0x3a;
#X obj 42 400 declare -lib iemmatrix/mtx_0x3c0x3c;
#X obj 42 420 declare -lib iemmatrix/mtx_0x3c0x3d;
#X obj 42 440 declare -lib iemmatrix/mtx_0x3c;
#X obj 42 480 declare -lib iemmatrix/mtx_0x3d0x3d;
#X obj 42 500 declare -lib iemmatrix/mtx_0x3e0x3d;
#X obj 42 520 declare -lib iemmatrix/mtx_0x3e0x3e;
#X obj 42 540 declare -lib iemmatrix/mtx_0x3e;
#X obj 42 580 declare -lib iemmatrix/mtx_0x7c0x7c;
#X obj 42 600 declare -lib iemmatrix/mtx_0x7c;
#X restore 167 350 pd matrix_specialnames;
#X obj 16 510 declare -lib iem_bin_ambi;
#X obj 22 414 declare -lib iem_ambi;
#X obj 24 349 declare -lib iemmatrix;
#X obj 31 199 declare -path libs/iemlib -stdpath iemlib;
#X obj 32 219 declare -lib iemlib/iemlib1 -lib iemlib/iemlib2;
#X obj 24 327 declare -path libs/iemmatrix -stdpath iemmatrix;
#X obj 22 395 declare -path libs/iem_ambi -stdpath iem_ambi;
#X obj 25 553 declare -path libs/acre -stdpath acre;
#X obj 19 465 declare -path libs/iem_bin_ambi -stdpath iem_bin_ambi
;
#X obj 18 488 declare -path libs/iem_spec2 -stdpath iem_spec2;
#X obj 174 510 declare -lib iem_spec2;
#N canvas 834 148 450 300 spec2_specialnames 0;
#X obj 21 34 spec2_mul~;
#X obj 23 54 spec2_add~;
#X obj 22 78 spec2_sub~;
#X obj 104 53 spec2_add_scalar~;
#X obj 104 33 spec2_mul_scalar~;
#X restore 317 511 pd spec2_specialnames;
#X text 45 105 externals: first search local in libs \, second in system
--- \, if installed there so both path are listed here;
#X text 28 268 zexy set path itself \, dont know why ...;
#X text 27 307 IEM-Matrix new version (not iem-matrix !);
#X text 317 340 Trick: if library is split in multiple lib files \,
extended used to do this \, find names like *~ with specialnames,
f 65;
#X text 28 535 ACRE Library base (abstractions only until now);
#X text 285 557 GPL \, acre \, IEM - winfried ritsch;
#X text 44 46 Declares should be copied to main patch as subpatch \,
(will not work as an abstraction at least fo Version 0.47.1);
#X text 37 17 Collection/Suggestion of declare statements;
#X obj 31 155 declare -path . -path abs -path data -path libs;
#X text 31 184 iemlib is old and historical and therefore weird organized.
;
#X text 21 368 Ambilib was a first implementation of spherical harmonics
calcs and useful;
#X text 14 441 for binaural tools an old binaural decoder iem_spec2
needed;
