#N canvas 764 305 881 382 10;
#X declare -path ../../acre -path ../..;
#X declare -path ../../../acre -path ../../..;
#X declare -lib iemlib1;
#X declare -lib zexy;
#X declare -stdpath iemlib;
#X declare -lib iemlib2;
#X declare -lib iemmatrix;
#X declare -lib iem_ambi;
#X declare -lib iem_bin_ambi;
#X declare -path libs -path libs/acre -path iemlib;
#X declare -path libs -lib iemgui -path iemgui -stdpath iemgui;
#X obj 613 77 declare -path ../../acre -path ../..;
#X obj 614 114 declare -path ../../../acre -path ../../..;
#N canvas 594 466 560 317 declares 0;
#X obj 18 58 declare -lib iemlib1;
#X obj 18 111 declare -lib zexy;
#X obj 18 92 declare -stdpath iemlib;
#X text 33 30 for acre;
#X text 38 141 for amb;
#X obj 17 75 declare -lib iemlib2;
#X obj 20 164 declare -lib iemmatrix;
#X text 44 248 for binaural tools;
#X obj 17 190 declare -lib iem_ambi;
#X obj 20 276 declare -lib iem_bin_ambi;
#X obj 15 11 declare -path libs -path libs/acre -path iemlib;
#X obj 20 211 declare -path libs -lib iemgui -path iemgui -stdpath
iemgui;
#X restore 17 38 pd declares;
#N canvas 177 420 966 440 init 0;
#X msg 44 115 \; pd-GUI vis 1;
#X obj 45 32 acre/initbang;
#X obj 44 93 r second_init;
#X obj 217 10 acre/initbang;
#X msg 45 54 \; /mxr/fadetime 30 \;;
#X obj 264 47 bng 15 250 50 0 empty empty empty 17 7 0 10 -262144 -1
-1;
#X obj 217 45 t b b;
#X text 410 50 inits for dynamic patching;
#X text 263 104 load a default calibration;
#X text 511 103 (relative to ds/ lib );
#X text 197 187 load settings for mixer and playback relativ to acre
lib;
#X msg 247 126 \; /cal/program/load symbol amb/examples/mixer3D3O-13.1_cal.txt
\; /cal/program/nr 0 \; /cal/program/recall bang, f 76;
#X msg 201 222 \; /set/program/load symbol amb/examples/mixer3D3O-13.1.txt
/set/program/recall bang;
#X obj 649 273 openpanel;
#X obj 668 250 bng 15 250 50 0 empty empty empty 17 7 0 10 -262144
-1 -1;
#X msg 647 294 set \, add \, add /amb/dec/load symbol \$1;
#X obj 247 77 amb/amb/initbangs;
#X msg 134 373 \; /amb/dec/lehrstudio/print bang, f 88;
#X msg 135 333 \; /amb/dec/example/load symbol ../examples/mixer3D3O.txt
\;, f 88;
#X connect 1 0 4 0;
#X connect 2 0 0 0;
#X connect 3 0 6 0;
#X connect 5 0 16 0;
#X connect 6 0 18 0;
#X connect 6 1 16 0;
#X connect 13 0 15 0;
#X connect 14 0 13 0;
#X connect 15 0 18 0;
#X connect 16 0 11 0;
#X connect 16 0 12 0;
#X restore 17 19 pd init;
#X text 607 33 patch should work in parent dir;
#N canvas 36 492 788 416 GUI 1;
#X obj 219 55 mxr/test/tones_ctl 1;
#X obj 118 55 mxr/mo/ctl;
#X obj 419 55 ds/ctl /set;
#X obj 319 55 ds/ctl /cal;
#X obj 22 34 bng 15 250 50 0 /amb/initbang /amb/initbang REINIT 17
7 0 10 -262144 -1 -1;
#X text 229 37 testchannel;
#X obj 519 55 amb/rrr/ctl /REV;
#X obj 127 35 tgl 15 0 /tt/mo/send /tt/mo/send TT 2 7 0 10 -257985
-1 -1 0 1;
#X obj 19 55 mxr/master/ctl M;
#X obj 220 355 amb/spat/rotz_ctl 1;
#X obj 220 255 amb/spat/ch_ctl 1 3D;
#X obj 320 306 amb/spat/ch_hemi 1;
#X text 43 8 Example Patch 3.order 3D with Ambisonics Bus out with
Master;
#X obj 639 58 amb/sf/player_ctl ambifile;
#X obj 19 255 amb/bus/ctl~ 3D 3 AMB;
#X obj 84 339 amb/decoder/ctl DEC;
#X obj 69 255 amb/bus/outs_ctl BOXEN 13 out;
#X restore 396 35 pd GUI;
#X obj 301 95 mxr/test/tones~ 1;
#X obj 223 285 mxr/mo/master~;
#X obj 326 122 mxr/mo/send~ /tt;
#X text 33 219 --- Out Kanaele (DACs) und Monitor ---;
#X text 17 113 --- Ambisonics Bus AMB1/Decoder ---;
#X obj 334 280 ds/storage_logic /cal;
#X obj 451 97 mxr/test/tones_ds /set 1;
#X text 343 67 --- TEST Channel with encoder ---;
#X text 317 172 --- Ambisonics Player ---;
#X obj 112 39 ds/storage_logic /set;
#X obj 340 223 amb/amb/n 3D 3;
#X obj 340 200 r /amb/encinit;
#X text 13 262 13 Boxen;
#X text 230 265 Monitoring;
#X text 16 3 Example 3.order Ambisonics Player with test channel;
#X obj 15 283 mxr/master/master~ M;
#X obj 222 305 throw~ out-1~;
#X text 174 195 Make a bus;
#X obj 13 310 amb/bus/outs~ BOXEN 13 out M;
#X obj 14 331 amb/bus/dacs~ studio 13 out 0;
#X obj 475 150 amb/spat/ch_ds /set ch1;
#X obj 300 149 amb/spat/ch~ ch1 3D 3 AMB1;
#X text 612 95 from acre/amb;
#X text 612 60 from acre-amb;
#X obj 340 247 amb/sf/player~ ambifile 25 AMB;
#X obj 15 195 amb/bus/dsp~ 3D 3 AMB;
#X text 33 133 13 Speaker out;
#X obj 17 155 amb/decoder/dsp~ DEC 3D 3 AMB BOXEN 13;
#X obj 334 303 amb/bus/outs_ds /cal BOXEN 13 out;
#X obj 14 95 amb/bus/adcs~ AMBIN 16 AMB 0 0;
#X text 14 71 DACs direct to Ambisonics Bus without fader;
#X connect 6 0 8 0;
#X connect 6 0 27 0;
#X connect 7 0 22 0;
#X connect 16 0 30 0;
#X connect 17 0 16 0;
