#N canvas 331 474 881 471 10;
#X declare -path ../../acre -path ../..;
#X declare -path ../../../acre -path ../../..;
#X declare -lib iemlib1;
#X declare -lib zexy;
#X declare -stdpath iemlib;
#X declare -lib iemlib2;
#X declare -lib iemmatrix;
#X declare -lib iem_ambi;
#X declare -lib iem_bin_ambi;
#X declare -path libs -path libs/acre -path iemlib;
#X declare -path libs -lib iemgui -path iemgui -stdpath iemgui;
#X obj 609 61 declare -path ../../acre -path ../..;
#X obj 610 98 declare -path ../../../acre -path ../../..;
#N canvas 530 644 560 317 declares 0;
#X obj 18 58 declare -lib iemlib1;
#X obj 18 111 declare -lib zexy;
#X obj 18 92 declare -stdpath iemlib;
#X text 33 30 for acre;
#X text 38 141 for amb;
#X obj 17 75 declare -lib iemlib2;
#X obj 20 164 declare -lib iemmatrix;
#X text 44 248 for binaural tools;
#X obj 17 190 declare -lib iem_ambi;
#X obj 20 276 declare -lib iem_bin_ambi;
#X obj 15 11 declare -path libs -path libs/acre -path iemlib;
#X obj 20 211 declare -path libs -lib iemgui -path iemgui -stdpath
iemgui;
#X restore 16 54 pd declares;
#N canvas 177 420 751 222 init 1;
#X msg 44 115 \; pd-GUI vis 1;
#X obj 45 32 acre/initbang;
#X obj 44 93 r second_init;
#X obj 217 10 acre/initbang;
#X msg 45 54 \; /mxr/fadetime 30 \;;
#X obj 264 47 bng 15 250 50 0 empty empty empty 17 7 0 10 -262144 -1
-1;
#X obj 217 45 t b b;
#X text 410 50 inits for dynamic patching;
#X text 242 119 load settings for mixer and playback relativ to acre
lib;
#X msg 246 154 \; /set/program/load symbol amb/examples/mixer3D3O-13.1.txt
/set/program/recall bang;
#X obj 247 77 amb/amb/initbangs;
#X connect 1 0 4 0;
#X connect 2 0 0 0;
#X connect 3 0 6 0;
#X connect 5 0 10 0;
#X connect 6 1 10 0;
#X connect 10 0 9 0;
#X restore 16 35 pd init;
#X text 603 17 patch should work in parent dir;
#N canvas 859 541 560 485 GUI 1;
#X obj 309 55 mxr/test/tones_ctl 1;
#X obj 9 55 ds/ctl /set;
#X obj 112 34 bng 15 250 50 0 /amb/initbang /amb/initbang REINIT 17
7 0 10 -262144 -1 -1;
#X text 319 37 testchannel;
#X obj 109 55 mxr/master/ctl M;
#X obj 209 55 amb/sf/player_ctl Ambifile 16;
#X obj 109 255 amb/bus/ctl~ 3D 3 AMB;
#X obj 159 255 amb/bus/bus_ctl~ AMB_M 16;
#X text 264 13 Example Patch 3D 3.order;
#X obj 309 355 amb/spat/ch_hemi ch1;
#X obj 309 255 amb/spat/ch_ctl ch1 3D;
#X obj 409 55 mxr/test/ts_ctl TS;
#X obj 409 255 amb/spat/ch_ctl ch2 3D;
#X obj 409 355 amb/spat/ch_hemi ch2;
#X restore 392 19 pd GUI;
#X text 29 203 --- Out Kanaele (DACs) und Monitor ---;
#X text 19 79 --- Ambisonics Bus AMB1/Decoder ---;
#X obj 380 109 mxr/test/tones_ds /set 1;
#X text 339 51 --- TEST Channel with encoder ---;
#X obj 112 39 ds/storage_logic /set;
#X obj 20 156 amb/amb/n 3D 3;
#X obj 20 133 r /amb/encinit;
#X obj 8 299 mxr/master/master~ M;
#X text 608 79 from acre/amb;
#X text 608 44 from acre-amb;
#X text 16 3 Example 3.order Ambisonics Player with test channel outs
Ambisonics Signals;
#X obj 24 237 amb/bus/dsp~ 3D 3 AMB;
#X text 6 277 16 Ambisonics Channels with master M;
#X obj 8 322 amb/bus/mgain~ AMB 16 M AMB_M 0;
#X obj 21 180 amb/sf/player~ Ambifile 16 AMB;
#X text -3 99 Configure Pd with 16 out channels as Ambisonics signals
to be patched into a decoder;
#X obj 7 347 amb/bus/dacs~ anbibus 16 AMB_M 0;
#X text 161 238 Ambisonic bus;
#X text 18 255 can also be done with amb/bus/bus~ and channel count
;
#X obj 384 181 amb/spat/ch_ds /set ch1 1;
#X obj 384 135 mxr/test/tones~ 1;
#X obj 384 159 amb/spat/ch~ ch1 3D 3 AMB 1;
#X obj 388 232 mxr/test/ts TS;
#X obj 386 259 amb/spat/ch~ ch2 3D 3 AMB 1;
#X obj 384 282 amb/spat/ch_ds /set ch2 1;
#X obj 485 235 mxr/test/ts_ds /set TS;
#X obj 144 141 amb/sf/player_ds /set Ambifile;
#X connect 12 0 11 0;
#X connect 26 0 27 0;
#X connect 28 0 29 0;
