#N canvas 452 221 910 471 10;
#X declare -lib iemlib1;
#X declare -lib zexy;
#X declare -stdpath iemlib;
#X declare -lib iemlib2;
#X declare -lib iemmatrix;
#X declare -lib iem_ambi;
#X declare -lib iem_bin_ambi;
#X declare -path iemlib;
#X declare -path ../..;
#N canvas 291 609 966 440 init 0;
#X msg 44 115 \; pd-GUI vis 1;
#X obj 45 32 acre/initbang;
#X obj 44 93 r second_init;
#X obj 217 10 acre/initbang;
#X msg 45 54 \; /mxr/fadetime 30 \;;
#X obj 264 47 bng 15 250 50 0 empty empty empty 17 7 0 10 -262144 -1
-1;
#X obj 217 45 t b b;
#X text 374 77 inits for dynamic patching;
#X text 233 117 load a default calibration;
#X text 481 116 (relative to ds/ lib );
#X text 188 203 load settings for mixer and playback relativ to acre
lib;
#X msg 217 139 \; /cal/program/load symbol amb/examples/mixer3D3O-13.1_cal.txt
\; /cal/program/nr 0 \; /cal/program/recall bang, f 76;
#X obj 649 273 openpanel;
#X obj 668 250 bng 15 250 50 0 empty empty empty 17 7 0 10 -262144
-1 -1;
#X msg 647 294 set \, add \, add /amb/dec/load symbol \$1;
#X obj 247 77 amb/amb/initbangs;
#X msg 134 373 \; /amb/dec/lehrstudio/print bang, f 88;
#X msg 135 333 \; /amb/dec/lehrstudio/load symbol ../amb/examples/mixer3D3O-13.1_allrad.mtx
, f 88;
#X msg 58 252 \; /set/program/load symbol ../amb/examples/mixer3D3O-13.1.txt
\; /set/program/nr 0 \; /set/program/recall bang, f 64;
#X obj 54 208 del 10;
#X obj 53 164 r /amb/inited;
#X connect 1 0 4 0;
#X connect 2 0 0 0;
#X connect 3 0 6 0;
#X connect 5 0 15 0;
#X connect 6 0 17 0;
#X connect 6 1 15 0;
#X connect 12 0 14 0;
#X connect 13 0 12 0;
#X connect 14 0 17 0;
#X connect 15 0 11 0;
#X connect 19 0 18 0;
#X connect 20 0 19 0;
#X restore 17 35 pd init;
#N canvas 571 273 303 290 declares 0;
#X obj 18 58 declare -lib iemlib1;
#X obj 18 111 declare -lib zexy;
#X obj 18 94 declare -stdpath iemlib;
#X text 33 30 for acre;
#X text 38 141 for amb;
#X obj 17 75 declare -lib iemlib2;
#X obj 20 164 declare -lib iemmatrix;
#X text 41 210 for binaural tools;
#X obj 17 190 declare -lib iem_ambi;
#X obj 17 238 declare -lib iem_bin_ambi;
#X obj 20 8 declare -path iemlib;
#X restore 17 54 pd declares;
#X text 16 82 patch should work in parent dir;
#N canvas 57 145 978 449 GUI 1;
#X obj 418 55 mxr/test/tones_ctl 1;
#X obj 118 55 mxr/mo/ctl;
#X obj 318 55 ds/ctl /set;
#X obj 218 55 ds/ctl /cal;
#X obj 22 34 bng 15 250 50 0 /amb/initbang /amb/initbang REINIT 17
7 0 10 -262144 -1 -1;
#X text 525 32 testchannel;
#X obj 241 275 bng 15 250 50 0 empty empty empty 17 7 0 10 -262144
-1 -1;
#X obj 240 296 openpanel;
#X obj 239 344 bng 15 250 50 0 /amb/dec/lehrstudio/print /amb/dec/lehrstudio/print
print_decoder 17 7 0 10 -262144 -1 -1;
#X text 280 266 load decoder matrix;
#X obj 727 54 amb/rrr/ctl /REV;
#X obj 127 35 tgl 15 0 /tt/mo/send /tt/mo/send TT 2 7 0 10 -257985
-1 -1 0 1;
#X obj 19 55 mxr/master/ctl M;
#X obj 240 317 s /amb/dec/lehrstudio/load;
#X text 17 10 Example Mixer 3rd order 3D to an Ambisonics Bus output
;
#X text 470 381 use another Pd as decoder or any other like Ambix;
#X obj 69 255 amb/bus/outs_ctl AMBIBUS 16 AMBI;
#X obj 19 255 amb/bus/ctl~ 3D 3 AMBI;
#X obj 168 255 amb/bus/ctl~ 2D 0 MON;
#X obj 827 54 amb/player/ctl player;
#X obj 518 155 amb/spat/ctl /ch/1 3D;
#X obj 518 255 amb/spat/rotz_ctl /ch/1;
#X obj 518 55 amb/spat/sphere /ch/1 3D;
#X obj 618 155 amb/spat/ctl /ch/2 2D;
#X text 328 33 settings;
#X text 224 33 calibrations;
#X connect 6 0 7 0;
#X connect 7 0 13 0;
#X restore 441 54 pd GUI;
#X obj 403 105 mxr/test/tones~ 1;
#X obj 223 284 mxr/mo/master~;
#X obj 428 132 mxr/mo/send~ /tt;
#X text 10 241 --- Out Kanaele (DACs) und Monitor ---;
#X text 18 130 --- Ambisonics Bus AMB1/Decoder ---;
#X obj 553 107 mxr/test/tones_ds /set 1;
#X text 445 77 --- TEST Channel with encoder ---;
#X text 471 233 --- Ambisonics Player ---;
#X obj 112 55 ds/storage_logic /set;
#X obj 473 276 amb/amb/n 3D 3;
#X obj 18 102 declare -path ../..;
#X text 205 265 Monitoring;
#X text 662 236 --- REV ---;
#X obj 702 282 amb/rrr/ds /rrr /REV;
#X obj 703 304 amb/rrr/presets;
#X obj 563 135 throw~ rev-1~;
#X obj 10 283 mxr/master/master~ M;
#X text 128 148 (3+1)²=16;
#X obj 703 259 amb/rrr/dsp~ /REV rev AMBI;
#X text 9 262 16 Ambisonics channels out;
#X text 295 308 DAC 17 for monitoring;
#X obj 222 308 s~ MON-1~;
#X text 7 328 Output Ambisonic to DACs;
#X text 16 3 Example 3.order Ambisonics Test and Player to Ambisonics
Bus;
#X text 513 49 patch a decoder to PD output (maybe via Jack);
#X text 44 146 Make a bus;
#X text 195 170 without fader master;
#X text 241 195 with fader master;
#X obj 12 171 # amb/bus/dsp~ 3D 3 AMBI;
#X obj 223 329 amb/bus/dacs~ monitor 1 MON 17;
#X obj 9 308 amb/bus/dacs~ outbus 16 AMBI;
#X obj 12 197 amb/bus/outs~ AMBIBUS 16 AMBI M;
#X obj 473 254 r /amb/encinit;
#X text 491 295 max channel count;
#X obj 473 312 amb/player/dsp~ player 16 AMBI;
#X obj 473 332 amb/player/ds /set player;
#X obj 644 158 amb/spat/ds /set /ch/1;
#X obj 402 159 amb/spat/encode~ /ch/1 3D 3 AMBI;
#X obj 402 183 amb/spat/rotz /ch/1;
#X obj 610 182 amb/spat/rotz_ds /set /ch/1;
#X connect 4 0 6 0;
#X connect 4 0 19 0;
#X connect 4 0 41 0;
#X connect 5 0 25 0;
#X connect 13 0 38 0;
#X connect 36 0 13 0;
