#N canvas 544 125 779 354 10;
#X declare -lib iemlib1;
#X declare -lib zexy;
#X declare -stdpath iemlib;
#X declare -lib iemlib2;
#X declare -lib iemmatrix;
#X declare -lib iem_ambi;
#X declare -lib iem_bin_ambi;
#X declare -path iemlib;
#X declare -path ../..;
#N canvas 279 564 966 440 init 0;
#X msg 44 115 \; pd-GUI vis 1;
#X obj 45 32 acre/initbang;
#X obj 44 93 r second_init;
#X obj 217 10 acre/initbang;
#X msg 45 54 \; /mxr/fadetime 30 \;;
#X obj 264 47 bng 15 250 50 0 empty empty empty 17 7 0 10 -262144 -1
-1;
#X obj 217 45 t b b;
#X text 410 50 inits for dynamic patching;
#X text 233 117 load a default calibration;
#X text 481 116 (relative to ds/ lib );
#X text 188 203 load settings for mixer and playback relativ to acre
lib;
#X msg 217 139 \; /cal/program/load symbol amb/examples/mixer3D3O-13.1_cal.txt
\; /cal/program/nr 0 \; /cal/program/recall bang, f 76;
#X msg 192 238 \; /set/program/load symbol amb/examples/mixer3D3O-13.1.txt
/set/program/recall bang;
#X obj 649 273 openpanel;
#X obj 668 250 bng 15 250 50 0 empty empty empty 17 7 0 10 -262144
-1 -1;
#X msg 647 294 set \, add \, add /amb/dec/load symbol \$1;
#X obj 247 77 amb/amb/initbangs;
#X msg 134 373 \; /amb/dec/lehrstudio/print bang, f 88;
#X msg 135 333 \; /amb/dec/lehrstudio/load symbol ../../amb/examples/mixer3D3O-13.1_allrad.mtx
, f 88;
#X connect 1 0 4 0;
#X connect 2 0 0 0;
#X connect 3 0 6 0;
#X connect 5 0 16 0;
#X connect 6 0 18 0;
#X connect 6 1 16 0;
#X connect 13 0 15 0;
#X connect 14 0 13 0;
#X connect 15 0 18 0;
#X connect 16 0 11 0;
#X connect 16 0 12 0;
#X restore 17 19 pd init;
#N canvas 570 242 303 290 declares 0;
#X obj 18 58 declare -lib iemlib1;
#X obj 18 111 declare -lib zexy;
#X obj 18 94 declare -stdpath iemlib;
#X text 33 30 for acre;
#X text 38 141 for amb;
#X obj 17 75 declare -lib iemlib2;
#X obj 20 164 declare -lib iemmatrix;
#X text 41 210 for binaural tools;
#X obj 17 190 declare -lib iem_ambi;
#X obj 17 238 declare -lib iem_bin_ambi;
#X obj 20 8 declare -path iemlib;
#X restore 17 38 pd declares;
#X text 16 66 patch should work in parent dir;
#N canvas 619 393 788 416 GUI 1;
#X obj 219 55 mxr/test/tones_ctl 1;
#X obj 118 55 mxr/mo/ctl;
#X obj 419 55 ds/ctl /set;
#X obj 319 55 ds/ctl /cal;
#X obj 136 328 tgl 15 0 /amb/player/A/play /amb/player/A/play play_A
17 7 0 10 -262144 -1 -1 0 1;
#X obj 91 328 bng 15 250 50 0 /amb/player/A/open /amb/player/A/open
open 17 7 0 10 -262144 -1 -1;
#X obj 19 255 amb/bus/ctl~ 3D 3 AMB1;
#X obj 22 34 bng 15 250 50 0 /amb/initbang /amb/initbang REINIT 17
7 0 10 -262144 -1 -1;
#X text 229 37 testchannel;
#X obj 219 255 amb/spat/ctl ch1;
#X obj 356 290 bng 15 250 50 0 empty empty empty 17 7 0 10 -262144
-1 -1;
#X obj 358 312 openpanel;
#X obj 356 270 bng 15 250 50 0 /amb/dec/lehrstudio/print /amb/dec/lehrstudio/print
print_decoder 17 7 0 10 -262144 -1 -1;
#X text 375 289 load decoder matrix;
#X obj 69 255 amb/bus/outs_ctl BOXEN 13 out;
#X text 35 328 player:;
#X obj 527 54 amb/rrr/ctl /REV;
#X obj 127 35 tgl 15 0 /tt/mo/send /tt/mo/send TT 2 7 0 10 -257985
-1 -1 0 1;
#X obj 19 55 mxr/master/ctl M;
#X obj 358 333 s /amb/dec/lehrstudio/load;
#X connect 10 0 11 0;
#X connect 11 0 19 0;
#X restore 392 19 pd GUI;
#X obj 297 79 mxr/test/tones~ 1;
#X obj 219 269 mxr/mo/master~;
#X obj 322 106 mxr/mo/send~ /tt;
#X text 10 225 --- Out Kanaele (DACs) und Monitor ---;
#X text 18 114 --- Ambisonics Bus AMB1/Decoder ---;
#X obj 330 264 ds/storage_logic /cal;
#X obj 447 81 mxr/test/tones_ds /set 1;
#X text 339 51 --- TEST Channel with encoder ---;
#X text 313 156 --- Ambisonics Player ---;
#X obj 112 39 ds/storage_logic /set;
#X obj 336 207 amb/amb/n 3D 3;
#X obj 336 184 r /amb/encinit;
#X obj 18 86 declare -path ../..;
#X text 225 202 13 outs;
#X obj 516 133 amb/spat/ds /set ch1;
#X text 9 246 13 Boxen;
#X text 226 249 Monitoring;
#X text 16 3 Example 3.order Ambisonics Player with test channel;
#X text 504 159 --- REV ---;
#X obj 533 204 amb/rrr/ds /rrr /REV;
#X obj 534 181 amb/rrr/dsp~ /REV rev AMB1;
#X obj 534 226 amb/rrr/presets;
#X obj 457 109 throw~ rev-1~;
#X obj 11 267 mxr/master/master~ M;
#X obj 218 289 throw~ out-1~;
#X obj 575 287 r~ out-1~;
#X obj 575 309 env~;
#X floatatom 575 331 5 0 0 0 - - -, f 5;
#X obj 296 133 amb/spat/encode~ ch1 3D 3 AMB1;
#X obj 16 138 amb/bus/dsp~ 3D 3 AMB1;
#X text 177 138 Make a bus;
#X obj 9 294 amb/bus/outs~ BOXEN 13 out M;
#X obj 10 315 amb/bus/dacs~ studio 13 out 0;
#X obj 330 287 amb/bus/outs_ds /cal BOXEN 14 out;
#X obj 18 172 amb/decoder/dsp~ lehrstudio 3D 3 AMB1 out 13;
#X obj 336 230 amb/player/dsp~ A 16 AMB1;
#X connect 4 0 6 0;
#X connect 4 0 26 0;
#X connect 4 0 32 0;
#X connect 5 0 28 0;
#X connect 14 0 39 0;
#X connect 15 0 14 0;
#X connect 29 0 30 0;
#X connect 30 0 31 0;
