#N canvas 545 129 779 354 10;
#X declare -lib iemlib1;
#X declare -lib zexy;
#X declare -stdpath iemlib;
#X declare -lib iemlib2;
#X declare -lib iemmatrix;
#X declare -lib iem_ambi;
#X declare -lib iem_bin_ambi;
#X declare -path iemlib;
#X declare -path ../..;
#N canvas 278 560 966 440 init 0;
#X msg 44 115 \; pd-GUI vis 1;
#X obj 45 32 acre/initbang;
#X obj 44 93 r second_init;
#X obj 217 10 acre/initbang;
#X msg 45 54 \; /mxr/fadetime 30 \;;
#X obj 264 47 bng 15 250 50 0 empty empty empty 17 7 0 10 -262144 -1
-1;
#X obj 217 45 t b b;
#X text 410 50 inits for dynamic patching;
#X text 233 117 load a default calibration;
#X text 481 116 (relative to ds/ lib );
#X text 188 203 load settings for mixer and playback relativ to acre
lib;
#X msg 217 139 \; /cal/program/load symbol amb/examples/mixer3D3O-13.1_cal.txt
\; /cal/program/nr 0 \; /cal/program/recall bang, f 76;
#X msg 192 238 \; /set/program/load symbol amb/examples/mixer3D3O-13.1.txt
/set/program/recall bang;
#X obj 649 273 openpanel;
#X obj 668 250 bng 15 250 50 0 empty empty empty 17 7 0 10 -262144
-1 -1;
#X msg 647 294 set \, add \, add /amb/dec/load symbol \$1;
#X obj 247 77 amb/initbangs;
#X msg 134 373 \; /amb/dec/lehrstudio/print bang, f 88;
#X msg 135 333 \; /amb/dec/lehrstudio/load symbol ../amb/examples/mixer3D3O-13.1_allrad.mtx
, f 88;
#X connect 1 0 4 0;
#X connect 2 0 0 0;
#X connect 3 0 6 0;
#X connect 5 0 16 0;
#X connect 6 0 18 0;
#X connect 6 1 16 0;
#X connect 13 0 15 0;
#X connect 14 0 13 0;
#X connect 15 0 18 0;
#X connect 16 0 11 0;
#X connect 16 0 12 0;
#X restore 17 35 pd init;
#N canvas 570 242 303 290 declares 0;
#X obj 18 58 declare -lib iemlib1;
#X obj 18 111 declare -lib zexy;
#X obj 18 94 declare -stdpath iemlib;
#X text 33 30 for acre;
#X text 38 141 for amb;
#X obj 17 75 declare -lib iemlib2;
#X obj 20 164 declare -lib iemmatrix;
#X text 41 210 for binaural tools;
#X obj 17 190 declare -lib iem_ambi;
#X obj 17 238 declare -lib iem_bin_ambi;
#X obj 20 8 declare -path iemlib;
#X restore 17 54 pd declares;
#X text 16 82 patch should work in parent dir;
#N canvas 574 318 788 416 GUI 1;
#X obj 219 55 mxr/test/tones_ctl 1;
#X obj 118 55 mxr/mo/ctl;
#X obj 419 55 ds/ctl /set;
#X obj 319 55 ds/ctl /cal;
#X obj 653 107 tgl 15 0 /amb/player/A/play /amb/player/A/play play_A
17 7 0 10 -262144 -1 -1 0 1;
#X obj 653 87 bng 15 250 50 0 /amb/player/A/open /amb/player/A/open
open 17 7 0 10 -262144 -1 -1;
#X obj 22 34 bng 15 250 50 0 /amb/initbang /amb/initbang REINIT 17
7 0 10 -262144 -1 -1;
#X text 229 37 testchannel;
#X obj 219 255 amb/spat_ctl ch1;
#X obj 356 290 bng 15 250 50 0 empty empty empty 17 7 0 10 -262144
-1 -1;
#X obj 358 312 openpanel;
#X obj 356 270 bng 15 250 50 0 /amb/dec/lehrstudio/print /amb/dec/lehrstudio/print
print_decoder 17 7 0 10 -262144 -1 -1;
#X text 375 289 load decoder matrix;
#X text 644 60 player:;
#X obj 527 54 amb/rrr/ctl /REV;
#X obj 127 35 tgl 15 0 /tt/mo/send /tt/mo/send TT 2 7 0 10 -257985
-1 -1 1 1;
#X obj 19 55 mxr/master/ctl M;
#X obj 358 333 s /amb/dec/lehrstudio/load;
#X text 162 10 Example Mixer 3rd order 3D to an Ambisonics Bus output
;
#X text 333 30 use another Pd as decoder or any other like Ambix;
#X obj 69 255 amb/outs_ctl AMBIBUS 16 AMBI;
#X obj 19 255 amb/bus_ctl~ 3D 3 AMBI;
#X obj 131 257 amb/bus_ctl~ 2D 0 MON;
#X connect 9 0 10 0;
#X connect 10 0 17 0;
#X restore 335 44 pd GUI;
#X obj 297 95 mxr/test/tones~ 1;
#X obj 199 287 mxr/mo/master~;
#X obj 322 122 mxr/mo/send~ /tt;
#X text 162 158 1 Make a bus;
#X text 10 241 --- Out Kanaele (DACs) und Monitor ---;
#X text 18 130 --- Ambisonics Bus AMB1/Decoder ---;
#X obj 447 97 mxr/test/tones_ds /set 1;
#X text 339 67 --- TEST Channel with encoder ---;
#X text 313 172 --- Ambisonics Player ---;
#X obj 112 55 ds/storage_logic /set;
#X obj 315 215 amb/order2chls 3D 3;
#X obj 315 192 r /amb/encinit;
#X obj 18 102 declare -path ../..;
#X obj 466 150 amb/spat_ds /set ch1;
#X text 205 265 Monitoring;
#X text 504 175 --- REV ---;
#X obj 506 219 amb/rrr/ds /rrr /REV;
#X obj 507 241 amb/rrr/presets;
#X obj 457 125 throw~ rev-1~;
#X obj 10 283 mxr/master/master~ M;
#X obj 16 154 # amb/bus~ 3D 3 AMBI;
#X text 214 180 (3+1)²=16;
#X obj 296 149 amb/spat~ ch1 3D 3 AMBI;
#X obj 315 238 amb/player A 16 AMBI;
#X obj 507 196 amb/rrr/dsp~ /REV rev AMBI;
#X text 9 262 16 Ambisonics channels out;
#X obj 17 179 amb/outs~ AMBIBUS 16 AMBI M;
#X obj 9 308 amb/dacs~ outbus 16 AMBI;
#X obj 199 332 amb/dacs~ monitor 1 MON 17;
#X text 271 311 DAC 17 for monitoring;
#X obj 198 311 s~ MON-1~;
#X text 7 328 Output Ambisonic to DACs;
#X text 16 3 Example 3.order Ambisonics Test and Player to Ambisonics
Bus;
#X text 407 39 patch a decoder to PD output (maybe via Jack);
#X connect 4 0 6 0;
#X connect 4 0 22 0;
#X connect 4 0 26 0;
#X connect 5 0 34 0;
#X connect 14 0 27 0;
#X connect 15 0 14 0;
