#N canvas 1158 495 747 397 10;
#N canvas 402 235 1056 733 contruct-decoder 0;
#X msg 101 72 clear;
#X obj 41 15 inlet;
#X obj 615 500 t f f b;
#X obj 616 648 pack 70 10 1 s;
#X obj 616 544 t f f;
#X obj 615 521 - 1;
#X obj 454 511 t f f;
#X obj 651 621 + 10;
#X obj 191 461 t f f b;
#X obj 191 607 pack 70 10 1 s;
#X obj 191 503 t f f;
#X obj 191 482 - 1;
#X obj 226 558 * 20;
#X obj 100 48 inlet;
#X text 586 466 [r~ \$3-n~];
#X obj 710 572 symbol \$4;
#X obj 286 577 symbol \$5;
#X obj 101 92 s pd-\$0-blur;
#X obj 55 685 s pd-\$0-blur;
#X obj 479 695 s pd-\$0-blur;
#X obj 565 252 s pd-\$0-blur;
#X obj 651 599 * 20;
#X msg 616 674 obj \$1 \$2 r~ \$4-\$3~;
#X msg 190 633 obj \$1 \$2 s~ \$4-\$3~;
#X text 659 113 [multiline];
#X obj 41 44 t l b b;
#X msg 64 135 0;
#X obj 605 130 until;
#X msg 605 161 add2 1;
#X msg 585 198 add2 50;
#X msg 565 229 obj 1210 120 multiline~ 1 1 1 1 1 1 1 1 1 1 1 50;
#X obj 565 130 * 100;
#X obj 565 77 t f b f f;
#X obj 301 13 t l l l l;
#X obj 647 73 * 120;
#X obj 230 117 + 1;
#X obj 212 85 t f f;
#X obj 230 139 + 1;
#X obj 285 117 * 135;
#X obj 523 270 * 2;
#X obj 523 292 + 1;
#X obj 463 568 + 1;
#X obj 651 572 % 4;
#X obj 616 599 * 40;
#X obj 645 46 - 1;
#X obj 647 95 + 10;
#X obj 285 140 - 20;
#X msg 653 132 set obj \$1 120 multiline~, f 26;
#X obj 478 622 pack 1 2 3;
#X obj 451 460 i 0;
#X obj 452 485 + 1;
#X obj 445 409 until;
#X msg 479 654 connect \$1 0 \$2 \$3;
#X obj 441 362 swap;
#X obj 505 458 i 0;
#X obj 505 480 + 1;
#X obj 441 384 t f f b;
#X msg 510 405 0;
#X obj 448 431 t b b;
#X obj 550 586 - 1;
#X obj 226 530 % 4;
#X obj 191 558 * 40;
#X obj 191 580 + 10;
#X obj 616 621 + 10;
#X obj 37 520 t f f;
#X obj 46 577 + 1;
#X obj 34 469 i 0;
#X obj 35 494 + 1;
#X obj 28 418 until;
#X obj 24 371 swap;
#X obj 88 467 i 0;
#X obj 88 489 + 1;
#X obj 24 393 t f f b;
#X msg 93 414 0;
#X obj 31 440 t b b;
#X obj 108 568 - 1;
#X obj 41 607 pack 1 2 3;
#X obj 259 387 + 10;
#X text 295 388 object number;
#X msg 55 633 connect \$2 \$3 \$1 0;
#X obj 226 580 + 180;
#X obj 210 169 pack 1 2 120 2 \$0;
#X msg 210 195 obj \$3 100 r \$5-weight-\$1 \, connect \$4 0 \$1 \$2
;
#X obj 208 219 s pd-\$0-blur;
#X text 551 5 first construct multiline;
#X text 346 112 2nd connect weight-ctl;
#X text 571 383 connect r~;
#X text 153 346 connect sends;
#X obj 213 62 amb/amb/foreach_order;
#X obj 560 22 amb/amb/foreach_order;
#X obj 440 333 amb/amb/foreach_order;
#X obj 52 313 amb/amb/foreach_order;
#X msg 101 10 1 1 0.5 0.25 0.333 0.125;
#X connect 0 0 17 0;
#X connect 1 0 25 0;
#X connect 2 0 5 0;
#X connect 2 1 3 2;
#X connect 2 2 15 0;
#X connect 3 0 22 0;
#X connect 4 0 43 0;
#X connect 4 1 42 0;
#X connect 5 0 4 0;
#X connect 6 0 41 0;
#X connect 6 0 77 0;
#X connect 6 1 2 0;
#X connect 7 0 3 1;
#X connect 8 0 11 0;
#X connect 8 1 9 2;
#X connect 8 2 16 0;
#X connect 9 0 23 0;
#X connect 10 0 61 0;
#X connect 10 1 60 0;
#X connect 11 0 10 0;
#X connect 12 0 80 0;
#X connect 13 0 0 0;
#X connect 15 0 3 3;
#X connect 16 0 9 3;
#X connect 21 0 7 0;
#X connect 22 0 19 0;
#X connect 23 0 18 0;
#X connect 25 0 33 0;
#X connect 25 1 26 0;
#X connect 25 2 0 0;
#X connect 26 0 49 1;
#X connect 26 0 66 1;
#X connect 27 0 28 0;
#X connect 28 0 30 0;
#X connect 29 0 30 0;
#X connect 30 0 20 0;
#X connect 31 0 30 0;
#X connect 32 0 31 0;
#X connect 32 1 29 0;
#X connect 32 2 27 0;
#X connect 32 3 44 0;
#X connect 33 0 91 0;
#X connect 33 1 90 0;
#X connect 33 2 88 0;
#X connect 33 3 89 0;
#X connect 34 0 45 0;
#X connect 35 0 37 0;
#X connect 36 0 81 0;
#X connect 36 1 35 0;
#X connect 37 0 81 3;
#X connect 38 0 46 0;
#X connect 39 0 40 0;
#X connect 40 0 41 1;
#X connect 40 0 77 1;
#X connect 41 0 48 0;
#X connect 42 0 21 0;
#X connect 43 0 63 0;
#X connect 44 0 34 0;
#X connect 45 0 47 0;
#X connect 46 0 81 2;
#X connect 47 0 30 0;
#X connect 48 0 52 0;
#X connect 49 0 50 0;
#X connect 50 0 49 1;
#X connect 50 0 6 0;
#X connect 51 0 58 0;
#X connect 52 0 19 0;
#X connect 53 0 56 0;
#X connect 53 1 48 1;
#X connect 54 0 55 0;
#X connect 55 0 54 1;
#X connect 55 0 59 0;
#X connect 56 0 51 0;
#X connect 56 2 57 0;
#X connect 57 0 54 1;
#X connect 58 0 49 0;
#X connect 58 1 54 0;
#X connect 59 0 48 2;
#X connect 60 0 12 0;
#X connect 61 0 62 0;
#X connect 62 0 9 0;
#X connect 63 0 3 0;
#X connect 64 0 65 0;
#X connect 64 1 8 0;
#X connect 65 0 76 0;
#X connect 66 0 67 0;
#X connect 67 0 66 1;
#X connect 67 0 64 0;
#X connect 68 0 74 0;
#X connect 69 0 72 0;
#X connect 69 1 76 1;
#X connect 70 0 71 0;
#X connect 71 0 70 1;
#X connect 71 0 75 0;
#X connect 72 0 68 0;
#X connect 72 2 73 0;
#X connect 73 0 70 1;
#X connect 74 0 66 0;
#X connect 74 1 70 0;
#X connect 75 0 76 2;
#X connect 76 0 79 0;
#X connect 77 0 65 1;
#X connect 79 0 18 0;
#X connect 80 0 9 1;
#X connect 81 0 82 0;
#X connect 82 0 83 0;
#X connect 88 0 36 0;
#X connect 88 1 38 0;
#X connect 88 1 81 1;
#X connect 89 0 35 1;
#X connect 89 0 39 0;
#X connect 89 1 32 0;
#X connect 90 0 53 0;
#X connect 90 1 53 1;
#X connect 91 0 69 0;
#X connect 91 1 69 1;
#X connect 92 0 25 0;
#X restore 69 271 pd contruct-decoder;
#X obj 156 247 bng 15 250 50 0 empty empty empty 17 7 0 10 -262144
-1 -1;
#X text 174 246 clear before save !;
#X obj 44 85 r /amb/decinit;
#X obj 158 86 bng 15 250 50 0 empty empty empty 17 7 0 10 -262144 -1
-1;
#X text 174 84 reconstruct;
#X obj 356 134 amb/amb/weight \$1 \$2 \$3;
#N canvas 232 675 1659 343 \$0-blur 0;
#X restore 15 45 pd \$0-blur;
#X obj 354 65 r \$1/blur;
#X obj 354 87 * 0.01;
#X obj 354 109 change 1;
#X obj 566 185 print weight;
#X obj 566 160 spigot;
#X obj 593 122 r \$1/verbose;
#X text 14 4 amb/decoder/blur~ <ID> <dimen> <order> <ambibus ID> <out-id>
, f 71;
#X text 18 23 Status: experimental untestet;
#X text 21 341 TODO: only a multiline~ is needed with coeffs;
#X text 23 362 part of acre/amb library (c) GPL \, winfried ritsch
;
#X obj 95 143 i \$3;
#X obj 356 172 amb/amb/foreach_order;
#X obj 361 277 s;
#X obj 358 204 swap;
#X obj 382 231 pack 0 \$0;
#X msg 382 253 symbol \$2-weight-\$1;
#X obj 94 216 list append 1;
#X obj 176 193 t l;
#X obj 95 165 until;
#X msg 95 187 list 1;
#X obj 70 248 list;
#X obj 61 119 t b b;
#X connect 1 0 0 1;
#X connect 3 0 29 0;
#X connect 4 0 29 0;
#X connect 6 0 12 0;
#X connect 6 0 19 0;
#X connect 8 0 9 0;
#X connect 9 0 10 0;
#X connect 10 0 6 0;
#X connect 12 0 11 0;
#X connect 13 0 12 1;
#X connect 18 0 26 0;
#X connect 19 0 21 0;
#X connect 19 2 21 1;
#X connect 21 0 20 0;
#X connect 21 1 22 0;
#X connect 22 0 23 0;
#X connect 23 0 20 1;
#X connect 24 0 25 0;
#X connect 24 0 28 1;
#X connect 25 0 24 1;
#X connect 26 0 27 0;
#X connect 27 0 24 0;
#X connect 28 0 0 0;
#X connect 29 0 28 0;
#X connect 29 1 18 0;
