#N canvas 1369 339 933 463 10;
#X obj 15 181 mtx;
#N canvas 1029 426 893 552 contruct-decoder 0;
#X msg 135 101 clear;
#X obj 41 15 inlet;
#X msg 428 125 connect 0 0 1 0;
#X obj 527 276 t f f b;
#X obj 391 347 t f f;
#X obj 391 390 pack 0 1;
#X obj 391 230 acre/count_until;
#X obj 391 323 * 1;
#X obj 528 424 pack 70 10 1 s;
#X obj 528 320 t f f;
#X obj 527 297 - 1;
#X obj 391 302 + -1;
#X obj 391 253 t f f;
#X obj 563 348 % 8;
#X obj 563 397 + 10;
#X obj 528 397 + 40;
#X obj 425 369 + 1;
#X msg 391 450 connect \$1 0 1 \$2;
#X obj 391 369 + 2;
#X obj 177 235 t f f b;
#X obj 41 291 t f f;
#X obj 41 351 pack 0 1;
#X obj 41 178 acre/count_until;
#X obj 41 269 * 1;
#X obj 177 381 pack 70 10 1 s;
#X obj 177 277 t f f;
#X obj 177 256 - 1;
#X obj 212 332 * 20;
#X obj 41 203 t f f;
#X obj 212 304 % 8;
#X obj 73 315 + 1;
#X obj 177 354 + 10;
#X obj 212 354 + 230;
#X msg 41 407 connect 1 \$1 \$2 0;
#X obj 41 243 + -1;
#X obj 41 321 + 0;
#X obj 106 294 + 2;
#X obj 135 15 inlet;
#X obj 468 37 i \$0;
#X text 512 24 [r \$0-decoder];
#X text 546 226 [r~ \$3-n~];
#X text 504 81 [mtx_mul~ ];
#X obj 621 363 symbol \$4;
#X obj 272 351 symbol \$5;
#X obj 135 121 s pd-\$0-blur;
#X obj 41 459 s pd-\$0-blur;
#X obj 391 471 s pd-\$0-blur;
#X obj 427 151 s pd-\$0-blur;
#X msg 468 62 obj 10 180 r \$1-blur;
#X msg 448 101 obj 10 200 mtx_mul~ \$1 \$1 50 _________________________________
, f 63;
#X obj 40 40 t f f f b;
#X obj 428 14 t b f b b;
#X obj 563 375 * 20;
#X obj 528 375 * 15;
#X obj 177 332 * 15;
#X msg 528 450 obj \$1 \$2 r~ \$4-\$3~;
#X msg 176 407 obj \$1 \$2 s~ \$4-\$3~;
#X connect 0 0 44 0;
#X connect 1 0 50 0;
#X connect 2 0 47 0;
#X connect 3 0 10 0;
#X connect 3 1 8 2;
#X connect 3 2 42 0;
#X connect 4 0 18 0;
#X connect 4 1 16 0;
#X connect 5 0 17 0;
#X connect 6 0 12 0;
#X connect 6 0 36 0;
#X connect 7 0 4 0;
#X connect 8 0 55 0;
#X connect 9 0 53 0;
#X connect 9 1 13 0;
#X connect 10 0 9 0;
#X connect 11 0 7 0;
#X connect 12 0 11 0;
#X connect 12 1 3 0;
#X connect 13 0 52 0;
#X connect 14 0 8 1;
#X connect 15 0 8 0;
#X connect 16 0 5 1;
#X connect 17 0 46 0;
#X connect 18 0 5 0;
#X connect 19 0 26 0;
#X connect 19 1 24 2;
#X connect 19 2 43 0;
#X connect 20 0 35 0;
#X connect 20 1 30 0;
#X connect 21 0 33 0;
#X connect 22 0 28 0;
#X connect 23 0 20 0;
#X connect 24 0 56 0;
#X connect 25 0 54 0;
#X connect 25 1 29 0;
#X connect 26 0 25 0;
#X connect 27 0 32 0;
#X connect 28 0 34 0;
#X connect 28 1 19 0;
#X connect 29 0 27 0;
#X connect 30 0 21 1;
#X connect 31 0 24 0;
#X connect 32 0 24 1;
#X connect 33 0 45 0;
#X connect 34 0 23 0;
#X connect 35 0 21 0;
#X connect 36 0 30 1;
#X connect 37 0 0 0;
#X connect 38 0 48 0;
#X connect 42 0 8 3;
#X connect 43 0 24 3;
#X connect 48 0 47 0;
#X connect 49 0 47 0;
#X connect 50 0 22 0;
#X connect 50 1 6 0;
#X connect 50 2 51 0;
#X connect 50 3 0 0;
#X connect 51 0 2 0;
#X connect 51 1 49 0;
#X connect 51 2 38 0;
#X connect 52 0 14 0;
#X connect 53 0 15 0;
#X connect 54 0 31 0;
#X connect 55 0 46 0;
#X connect 56 0 45 0;
#X restore 267 174 pd contruct-decoder;
#X obj 28 205 s \$0-decoder;
#X msg 247 198 zeros \$2 \$1;
#X obj 15 300 mtx_print decoder_matrix_\$1_\$2_\$3;
#X obj 317 143 bng 15 250 50 0 empty empty empty 17 7 0 10 -262144
-1 -1;
#X text 335 142 clear before save !;
#X obj 227 48 r /amb/decinit;
#X text 28 354 (c) GPL - acre \, ritsch;
#X obj 341 49 bng 15 250 50 0 empty empty empty 17 7 0 10 -262144 -1
-1;
#X text 45 259 prevent first output before initialization;
#X text 357 47 reconstruct;
#X obj 227 73 amb/amb/n \$2 \$3;
#X obj 15 238 r \$1/print;
#X obj 29 151 r \$1/decoder;
#N canvas 6 149 290 220 read 0;
#X obj 14 115 symbol decoder.mtx;
#X msg 16 135 read \$1;
#X obj 14 69 r \$1/load;
#X obj 36 91 r \$1/file;
#X obj 16 165 outlet;
#X text 22 48 Read a file into mtx;
#X obj 176 144 print r;
#X connect 0 0 1 0;
#X connect 1 0 4 0;
#X connect 1 0 6 0;
#X connect 2 0 0 0;
#X connect 3 0 0 1;
#X restore 16 95 pd read file;
#X obj 15 258 t b;
#X obj 15 279 mtx;
#X obj 19 122 r \$1/init;
#X obj 534 93 amb/amb/weight \$1 \$2 \$3;
#X obj 227 143 t b f f b;
#N canvas 193 382 491 402 \$0-blur 0;
#X restore 15 45 pd \$0-blur;
#X obj 555 236 list split 1;
#X obj 534 147 until;
#X obj 555 209 list append;
#X obj 673 221 bang;
#X obj 534 116 t b l b;
#X obj 485 209 i 0;
#X obj 523 211 + 1;
#X obj 534 169 t b b;
#X obj 488 306 f 1;
#X obj 489 280 until;
#X obj 489 232 * 2;
#X obj 489 254 + 1;
#X msg 626 146 0;
#X obj 488 332 list prepend;
#X obj 563 301 t l;
#X msg 674 150 diag;
#X obj 463 364 list;
#X obj 464 427 s \$0-blur;
#X obj 532 24 r \$1/blur;
#X obj 532 46 * 0.01;
#X obj 532 68 change 1;
#X text 524 257 each order: (n+1)²-n²=n²+2n+1-n²=2n+1;
#X obj 755 158 print weight;
#X obj 744 119 spigot;
#X obj 771 81 r \$1/verbose;
#X obj 463 386 list trim;
#X obj 463 407 mtx;
#X text 14 4 amb/decoder/blur~ <ID> <dimen> <order> <ambibus ID> <out-id>
, f 71;
#X text 18 23 Status: experimental untestet;
#X text 32 388 TODO: only a multiline~ is needed with coeffs;
#X obj 167 186 s \$1/blur;
#X msg 167 164 100;
#X obj 246 104 s \$1/channels;
#X connect 0 0 2 0;
#X connect 0 0 17 1;
#X connect 3 0 0 0;
#X connect 5 0 1 1;
#X connect 7 0 12 0;
#X connect 9 0 12 0;
#X connect 12 0 20 0;
#X connect 12 0 54 0;
#X connect 13 0 16 0;
#X connect 14 0 0 0;
#X connect 15 0 0 0;
#X connect 16 0 17 0;
#X connect 17 0 4 0;
#X connect 18 0 0 0;
#X connect 19 0 26 0;
#X connect 19 0 45 0;
#X connect 20 0 53 0;
#X connect 20 1 3 0;
#X connect 20 2 1 0;
#X connect 22 0 30 1;
#X connect 22 1 24 1;
#X connect 22 2 25 0;
#X connect 22 2 38 0;
#X connect 23 0 29 0;
#X connect 24 0 22 0;
#X connect 25 0 23 1;
#X connect 26 0 23 0;
#X connect 26 1 24 1;
#X connect 26 2 34 0;
#X connect 26 2 37 0;
#X connect 27 0 28 0;
#X connect 27 0 32 0;
#X connect 28 0 27 1;
#X connect 29 0 27 0;
#X connect 29 1 24 0;
#X connect 30 0 35 0;
#X connect 31 0 30 0;
#X connect 32 0 33 0;
#X connect 33 0 31 0;
#X connect 34 0 27 1;
#X connect 35 0 36 0;
#X connect 35 0 38 1;
#X connect 36 0 35 1;
#X connect 37 0 35 1;
#X connect 38 0 47 0;
#X connect 40 0 41 0;
#X connect 41 0 42 0;
#X connect 42 0 19 0;
#X connect 45 0 44 0;
#X connect 46 0 45 1;
#X connect 47 0 48 0;
#X connect 48 0 39 0;
#X connect 53 0 52 0;
