#N canvas 547 127 499 242 10;
#X obj 101 101 cnv 15 98 48 empty empty dec_\$1 2 8 0 10 -233017 -66577
0;
#X text 33 165 Note: to extended with extra graphical GUIs;
#X obj 168 116 nbx 3 10 -1e+37 1e+37 0 0 \$1/channels \$1/channels
n -5 7 0 8 -228856 -1 -1 0 256;
#X text 38 28 amb/decoder/blur_ctl <ID>;
#X obj 180 130 tgl 15 0 \$1/verbose \$1/verbose v 5 7 0 10 -257985
-1 -1 0 1;
#X obj 105 131 nbx 5 14 0 100 0 0 \$1/blur \$1/blur blur 0 -8 0 10
-262144 -1 -1 0 256;
#X text 25 207 part of acre/amb library (c) GPL \, winfried ritsch
;
#X coords 0 -1 1 1 100 50 2 100 100;
