#N canvas 1157 490 747 397 10;
#N canvas 402 235 1056 733 contruct-decoder 0;
#X msg 101 72 clear;
#X obj 41 15 inlet;
#X obj 615 500 t f f b;
#X obj 616 648 pack 70 10 1 s;
#X obj 616 544 t f f;
#X obj 615 521 - 1;
#X obj 454 511 t f f;
#X obj 651 621 + 10;
#X obj 191 461 t f f b;
#X obj 191 607 pack 70 10 1 s;
#X obj 191 503 t f f;
#X obj 191 482 - 1;
#X obj 226 558 * 20;
#X obj 100 48 inlet;
#X text 586 466 [r~ \$3-n~];
#X obj 710 572 symbol \$4;
#X obj 286 577 symbol \$5;
#X obj 101 92 s pd-\$0-blur;
#X obj 55 685 s pd-\$0-blur;
#X obj 479 695 s pd-\$0-blur;
#X obj 565 252 s pd-\$0-blur;
#X obj 651 599 * 20;
#X msg 616 674 obj \$1 \$2 r~ \$4-\$3~;
#X msg 190 633 obj \$1 \$2 s~ \$4-\$3~;
#X text 659 113 [multiline];
#X obj 41 44 t l b b;
#X msg 64 135 0;
#X obj 605 130 until;
#X msg 605 161 add2 1;
#X msg 585 198 add2 50;
#X msg 565 229 obj 1210 120 multiline~ 1 1 1 1 1 1 1 1 1 1 1 50;
#X obj 565 130 * 100;
#X obj 565 77 t f b f f;
#X obj 301 13 t l l l l;
#X obj 647 73 * 120;
#X obj 230 117 + 1;
#X obj 212 85 t f f;
#X obj 230 139 + 1;
#X obj 285 117 * 135;
#X obj 523 270 * 2;
#X obj 523 292 + 1;
#X obj 463 568 + 1;
#X obj 651 572 % 4;
#X obj 616 599 * 40;
#X obj 645 46 - 1;
#X obj 647 95 + 10;
#X obj 285 140 - 20;
#X msg 653 132 set obj \$1 120 multiline~, f 26;
#X obj 478 622 pack 1 2 3;
#X obj 451 460 i 0;
#X obj 452 485 + 1;
#X obj 445 409 until;
#X msg 479 654 connect \$1 0 \$2 \$3;
#X obj 441 362 swap;
#X obj 505 458 i 0;
#X obj 505 480 + 1;
#X obj 441 384 t f f b;
#X msg 510 405 0;
#X obj 448 431 t b b;
#X obj 550 586 - 1;
#X obj 226 530 % 4;
#X obj 191 558 * 40;
#X obj 191 580 + 10;
#X obj 616 621 + 10;
#X obj 37 520 t f f;
#X obj 46 577 + 1;
#X obj 34 469 i 0;
#X obj 35 494 + 1;
#X obj 28 418 until;
#X obj 24 371 swap;
#X obj 88 467 i 0;
#X obj 88 489 + 1;
#X obj 24 393 t f f b;
#X msg 93 414 0;
#X obj 31 440 t b b;
#X obj 108 568 - 1;
#X obj 41 607 pack 1 2 3;
#X obj 259 387 + 10;
#X text 295 388 object number;
#X msg 55 633 connect \$2 \$3 \$1 0;
#X obj 226 580 + 180;
#X obj 210 169 pack 1 2 120 2 \$0;
#X msg 210 195 obj \$3 100 r \$5-weight-\$1 \, connect \$4 0 \$1 \$2
;
#X obj 208 219 s pd-\$0-blur;
#X text 551 5 first construct multiline;
#X text 346 112 2nd connect weight-ctl;
#X text 571 383 connect r~;
#X text 153 346 connect sends;
#X obj 213 62 amb/amb/foreach_order;
#X obj 560 22 amb/amb/foreach_order;
#X obj 440 333 amb/amb/foreach_order;
#X obj 52 313 amb/amb/foreach_order;
#X msg 101 10 1 1 0.5 0.25 0.333 0.125;
#X connect 0 0 17 0;
#X connect 1 0 25 0;
#X connect 2 0 5 0;
#X connect 2 1 3 2;
#X connect 2 2 15 0;
#X connect 3 0 22 0;
#X connect 4 0 43 0;
#X connect 4 1 42 0;
#X connect 5 0 4 0;
#X connect 6 0 41 0;
#X connect 6 0 77 0;
#X connect 6 1 2 0;
#X connect 7 0 3 1;
#X connect 8 0 11 0;
#X connect 8 1 9 2;
#X connect 8 2 16 0;
#X connect 9 0 23 0;
#X connect 10 0 61 0;
#X connect 10 1 60 0;
#X connect 11 0 10 0;
#X connect 12 0 80 0;
#X connect 13 0 0 0;
#X connect 15 0 3 3;
#X connect 16 0 9 3;
#X connect 21 0 7 0;
#X connect 22 0 19 0;
#X connect 23 0 18 0;
#X connect 25 0 33 0;
#X connect 25 1 26 0;
#X connect 25 2 0 0;
#X connect 26 0 49 1;
#X connect 26 0 66 1;
#X connect 27 0 28 0;
#X connect 28 0 30 0;
#X connect 29 0 30 0;
#X connect 30 0 20 0;
#X connect 31 0 30 0;
#X connect 32 0 31 0;
#X connect 32 1 29 0;
#X connect 32 2 27 0;
#X connect 32 3 44 0;
#X connect 33 0 91 0;
#X connect 33 1 90 0;
#X connect 33 2 88 0;
#X connect 33 3 89 0;
#X connect 34 0 45 0;
#X connect 35 0 37 0;
#X connect 36 0 81 0;
#X connect 36 1 35 0;
#X connect 37 0 81 3;
#X connect 38 0 46 0;
#X connect 39 0 40 0;
#X connect 40 0 41 1;
#X connect 40 0 77 1;
#X connect 41 0 48 0;
#X connect 42 0 21 0;
#X connect 43 0 63 0;
#X connect 44 0 34 0;
#X connect 45 0 47 0;
#X connect 46 0 81 2;
#X connect 47 0 30 0;
#X connect 48 0 52 0;
#X connect 49 0 50 0;
#X connect 50 0 49 1;
#X connect 50 0 6 0;
#X connect 51 0 58 0;
#X connect 52 0 19 0;
#X connect 53 0 56 0;
#X connect 53 1 48 1;
#X connect 54 0 55 0;
#X connect 55 0 54 1;
#X connect 55 0 59 0;
#X connect 56 0 51 0;
#X connect 56 2 57 0;
#X connect 57 0 54 1;
#X connect 58 0 49 0;
#X connect 58 1 54 0;
#X connect 59 0 48 2;
#X connect 60 0 12 0;
#X connect 61 0 62 0;
#X connect 62 0 9 0;
#X connect 63 0 3 0;
#X connect 64 0 65 0;
#X connect 64 1 8 0;
#X connect 65 0 76 0;
#X connect 66 0 67 0;
#X connect 67 0 66 1;
#X connect 67 0 64 0;
#X connect 68 0 74 0;
#X connect 69 0 72 0;
#X connect 69 1 76 1;
#X connect 70 0 71 0;
#X connect 71 0 70 1;
#X connect 71 0 75 0;
#X connect 72 0 68 0;
#X connect 72 2 73 0;
#X connect 73 0 70 1;
#X connect 74 0 66 0;
#X connect 74 1 70 0;
#X connect 75 0 76 2;
#X connect 76 0 79 0;
#X connect 77 0 65 1;
#X connect 79 0 18 0;
#X connect 80 0 9 1;
#X connect 81 0 82 0;
#X connect 82 0 83 0;
#X connect 88 0 36 0;
#X connect 88 1 38 0;
#X connect 88 1 81 1;
#X connect 89 0 35 1;
#X connect 89 0 39 0;
#X connect 89 1 32 0;
#X connect 90 0 53 0;
#X connect 90 1 53 1;
#X connect 91 0 69 0;
#X connect 91 1 69 1;
#X connect 92 0 25 0;
#X restore 69 271 pd contruct-decoder;
#X obj 156 247 bng 15 250 50 0 empty empty empty 17 7 0 10 -262144
-1 -1;
#X text 174 246 clear before save !;
#X obj 44 85 r /amb/decinit;
#X obj 158 86 bng 15 250 50 0 empty empty empty 17 7 0 10 -262144 -1
-1;
#X text 174 84 reconstruct;
#X obj 356 134 amb/amb/weight \$1 \$2 \$3;
#N canvas 231 670 1659 343 \$0-blur 0;
#X obj 10 120 multiline~ 1 50;
#X obj 250 120 multiline~ 1 1 1 50;
#X obj 490 120 multiline~ 1 1 1 1 1 50;
#X obj 730 120 multiline~ 1 1 1 1 1 1 1 50;
#X obj 970 120 multiline~ 1 1 1 1 1 1 1 1 1 50;
#X obj 1210 120 multiline~ 1 1 1 1 1 1 1 1 1 1 1 50;
#X obj 115 100 r 1360-weight-0;
#X obj 385 100 r 1360-weight-1;
#X obj 655 100 r 1360-weight-2;
#X obj 925 100 r 1360-weight-3;
#X obj 1195 100 r 1360-weight-4;
#X obj 1465 100 r 1360-weight-5;
#X obj 10 10 r~ AMBI-1~;
#X obj 50 30 r~ AMBI-2~;
#X obj 90 50 r~ AMBI-3~;
#X obj 130 70 r~ AMBI-4~;
#X obj 170 10 r~ AMBI-5~;
#X obj 210 30 r~ AMBI-6~;
#X obj 250 50 r~ AMBI-7~;
#X obj 290 70 r~ AMBI-8~;
#X obj 330 10 r~ AMBI-9~;
#X obj 370 30 r~ AMBI-10~;
#X obj 410 50 r~ AMBI-11~;
#X obj 450 70 r~ AMBI-12~;
#X obj 490 10 r~ AMBI-13~;
#X obj 530 30 r~ AMBI-14~;
#X obj 570 50 r~ AMBI-15~;
#X obj 610 70 r~ AMBI-16~;
#X obj 650 10 r~ AMBI-17~;
#X obj 690 30 r~ AMBI-18~;
#X obj 730 50 r~ AMBI-19~;
#X obj 770 70 r~ AMBI-20~;
#X obj 810 10 r~ AMBI-21~;
#X obj 850 30 r~ AMBI-22~;
#X obj 890 50 r~ AMBI-23~;
#X obj 930 70 r~ AMBI-24~;
#X obj 970 10 r~ AMBI-25~;
#X obj 1010 30 r~ AMBI-26~;
#X obj 1050 50 r~ AMBI-27~;
#X obj 1090 70 r~ AMBI-28~;
#X obj 1130 10 r~ AMBI-29~;
#X obj 1170 30 r~ AMBI-30~;
#X obj 1210 50 r~ AMBI-31~;
#X obj 1250 70 r~ AMBI-32~;
#X obj 1290 10 r~ AMBI-33~;
#X obj 1330 30 r~ AMBI-34~;
#X obj 1370 50 r~ AMBI-35~;
#X obj 1410 70 r~ AMBI-36~;
#X obj 10 180 s~ AMBIBLURRED-1~;
#X obj 50 200 s~ AMBIBLURRED-2~;
#X obj 90 220 s~ AMBIBLURRED-3~;
#X obj 130 240 s~ AMBIBLURRED-4~;
#X obj 170 180 s~ AMBIBLURRED-5~;
#X obj 210 200 s~ AMBIBLURRED-6~;
#X obj 250 220 s~ AMBIBLURRED-7~;
#X obj 290 240 s~ AMBIBLURRED-8~;
#X obj 330 180 s~ AMBIBLURRED-9~;
#X obj 370 200 s~ AMBIBLURRED-10~;
#X obj 410 220 s~ AMBIBLURRED-11~;
#X obj 450 240 s~ AMBIBLURRED-12~;
#X obj 490 180 s~ AMBIBLURRED-13~;
#X obj 530 200 s~ AMBIBLURRED-14~;
#X obj 570 220 s~ AMBIBLURRED-15~;
#X obj 610 240 s~ AMBIBLURRED-16~;
#X obj 650 180 s~ AMBIBLURRED-17~;
#X obj 690 200 s~ AMBIBLURRED-18~;
#X obj 730 220 s~ AMBIBLURRED-19~;
#X obj 770 240 s~ AMBIBLURRED-20~;
#X obj 810 180 s~ AMBIBLURRED-21~;
#X obj 850 200 s~ AMBIBLURRED-22~;
#X obj 890 220 s~ AMBIBLURRED-23~;
#X obj 930 240 s~ AMBIBLURRED-24~;
#X obj 970 180 s~ AMBIBLURRED-25~;
#X obj 1010 200 s~ AMBIBLURRED-26~;
#X obj 1050 220 s~ AMBIBLURRED-27~;
#X obj 1090 240 s~ AMBIBLURRED-28~;
#X obj 1130 180 s~ AMBIBLURRED-29~;
#X obj 1170 200 s~ AMBIBLURRED-30~;
#X obj 1210 220 s~ AMBIBLURRED-31~;
#X obj 1250 240 s~ AMBIBLURRED-32~;
#X obj 1290 180 s~ AMBIBLURRED-33~;
#X obj 1330 200 s~ AMBIBLURRED-34~;
#X obj 1370 220 s~ AMBIBLURRED-35~;
#X obj 1410 240 s~ AMBIBLURRED-36~;
#X connect 0 0 48 0;
#X connect 1 0 49 0;
#X connect 1 1 50 0;
#X connect 1 2 51 0;
#X connect 2 0 52 0;
#X connect 2 1 53 0;
#X connect 2 2 54 0;
#X connect 2 3 55 0;
#X connect 2 4 56 0;
#X connect 3 0 57 0;
#X connect 3 1 58 0;
#X connect 3 2 59 0;
#X connect 3 3 60 0;
#X connect 3 4 61 0;
#X connect 3 5 62 0;
#X connect 3 6 63 0;
#X connect 4 0 64 0;
#X connect 4 1 65 0;
#X connect 4 2 66 0;
#X connect 4 3 67 0;
#X connect 4 4 68 0;
#X connect 4 5 69 0;
#X connect 4 6 70 0;
#X connect 4 7 71 0;
#X connect 4 8 72 0;
#X connect 5 0 73 0;
#X connect 5 1 74 0;
#X connect 5 2 75 0;
#X connect 5 3 76 0;
#X connect 5 4 77 0;
#X connect 5 5 78 0;
#X connect 5 6 79 0;
#X connect 5 7 80 0;
#X connect 5 8 81 0;
#X connect 5 9 82 0;
#X connect 5 10 83 0;
#X connect 6 0 0 1;
#X connect 7 0 1 3;
#X connect 8 0 2 5;
#X connect 9 0 3 7;
#X connect 10 0 4 9;
#X connect 11 0 5 11;
#X connect 12 0 0 0;
#X connect 13 0 1 0;
#X connect 14 0 1 1;
#X connect 15 0 1 2;
#X connect 16 0 2 0;
#X connect 17 0 2 1;
#X connect 18 0 2 2;
#X connect 19 0 2 3;
#X connect 20 0 2 4;
#X connect 21 0 3 0;
#X connect 22 0 3 1;
#X connect 23 0 3 2;
#X connect 24 0 3 3;
#X connect 25 0 3 4;
#X connect 26 0 3 5;
#X connect 27 0 3 6;
#X connect 28 0 4 0;
#X connect 29 0 4 1;
#X connect 30 0 4 2;
#X connect 31 0 4 3;
#X connect 32 0 4 4;
#X connect 33 0 4 5;
#X connect 34 0 4 6;
#X connect 35 0 4 7;
#X connect 36 0 4 8;
#X connect 37 0 5 0;
#X connect 38 0 5 1;
#X connect 39 0 5 2;
#X connect 40 0 5 3;
#X connect 41 0 5 4;
#X connect 42 0 5 5;
#X connect 43 0 5 6;
#X connect 44 0 5 7;
#X connect 45 0 5 8;
#X connect 46 0 5 9;
#X connect 47 0 5 10;
#X restore 15 45 pd \$0-blur;
#X obj 354 65 r \$1/blur;
#X obj 354 87 * 0.01;
#X obj 354 109 change 1;
#X obj 566 185 print weight;
#X obj 566 160 spigot;
#X obj 593 122 r \$1/verbose;
#X text 14 4 amb/decoder/blur~ <ID> <dimen> <order> <ambibus ID> <out-id>
, f 71;
#X text 18 23 Status: experimental untestet;
#X text 21 341 TODO: only a multiline~ is needed with coeffs;
#X text 23 362 part of acre/amb library (c) GPL \, winfried ritsch
;
#X obj 95 143 i \$3;
#X obj 356 172 amb/amb/foreach_order;
#X obj 361 277 s;
#X obj 358 204 swap;
#X obj 382 231 pack 0 \$0;
#X msg 382 253 symbol \$2-weight-\$1;
#X obj 94 216 list append 1;
#X obj 176 193 t l;
#X obj 95 165 until;
#X msg 95 187 list 1;
#X obj 70 248 list;
#X obj 61 119 t b b;
#X connect 1 0 0 1;
#X connect 3 0 29 0;
#X connect 4 0 29 0;
#X connect 6 0 12 0;
#X connect 6 0 19 0;
#X connect 8 0 9 0;
#X connect 9 0 10 0;
#X connect 10 0 6 0;
#X connect 12 0 11 0;
#X connect 13 0 12 1;
#X connect 18 0 26 0;
#X connect 19 0 21 0;
#X connect 19 2 21 1;
#X connect 21 0 20 0;
#X connect 21 1 22 0;
#X connect 22 0 23 0;
#X connect 23 0 20 1;
#X connect 24 0 25 0;
#X connect 24 0 28 1;
#X connect 25 0 24 1;
#X connect 26 0 27 0;
#X connect 27 0 24 0;
#X connect 28 0 0 0;
#X connect 29 0 28 0;
#X connect 29 1 18 0;
