#N canvas 543 165 499 289 10;
#X obj 101 101 cnv 15 98 48 empty empty dec_\$1 2 8 0 10 -233017 -66577
0;
#X text 48 237 Note: to extended with extra graphical GUIs;
#X obj 181 132 bng 15 250 50 0 \$1/print $/print P 5 7 0 10 -262130
-1 -1;
#X obj 102 115 bng 15 250 50 0 empty empty load 17 7 0 10 -13381 -1
-1;
#X obj 102 132 bng 15 250 50 0 empty empty reload 17 7 0 10 -13381
-1 -1;
#X obj 239 183 openpanel;
#X obj 237 87 route bang;
#X obj 258 157 symbol;
#X obj 236 65 r \$1/filename;
#X obj 239 204 s \$1/load;
#X obj 169 102 nbx 3 10 -1e+37 1e+37 0 0 \$1/amb/n \$1/amb/n empty
0 -8 0 8 -228856 -1 -1 7 256;
#X obj 170 119 nbx 3 10 -1e+37 1e+37 0 0 \$1/channels \$1/channels
x 0 -4 0 8 -228856 -1 -1 7 256;
#X text 54 15 amb/decoder/ctl <ID>;
#X text 46 256 part of acre/amb library (c) GPL \, winfried ritsch
;
#X obj 142 134 bng 15 250 50 0 \$1/init empty init 17 7 0 10 -262144
-1 -1;
#X connect 3 0 7 0;
#X connect 4 0 9 0;
#X connect 5 0 9 0;
#X connect 6 1 7 1;
#X connect 7 0 5 0;
#X connect 8 0 6 0;
#X coords 0 -1 1 1 100 50 2 100 100;
