#N canvas 115 407 528 372 10;
#X obj 15 181 mtx;
#N canvas 187 352 491 402 \$0-decoder 0;
#X obj 10 180 r 1373-decoder;
#X obj 10 200 mtx_mul~ 35 36 50 _________________________________;
#X obj 40 10 r~ AMBI-1~;
#X obj 51 30 r~ AMBI-2~;
#X obj 62 50 r~ AMBI-3~;
#X obj 73 70 r~ AMBI-4~;
#X obj 84 90 r~ AMBI-5~;
#X obj 95 110 r~ AMBI-6~;
#X obj 106 130 r~ AMBI-7~;
#X obj 117 150 r~ AMBI-8~;
#X obj 128 10 r~ AMBI-9~;
#X obj 139 30 r~ AMBI-10~;
#X obj 150 50 r~ AMBI-11~;
#X obj 161 70 r~ AMBI-12~;
#X obj 172 90 r~ AMBI-13~;
#X obj 183 110 r~ AMBI-14~;
#X obj 194 130 r~ AMBI-15~;
#X obj 205 150 r~ AMBI-16~;
#X obj 216 10 r~ AMBI-17~;
#X obj 227 30 r~ AMBI-18~;
#X obj 238 50 r~ AMBI-19~;
#X obj 249 70 r~ AMBI-20~;
#X obj 260 90 r~ AMBI-21~;
#X obj 271 110 r~ AMBI-22~;
#X obj 282 130 r~ AMBI-23~;
#X obj 293 150 r~ AMBI-24~;
#X obj 304 10 r~ AMBI-25~;
#X obj 315 30 r~ AMBI-26~;
#X obj 326 50 r~ AMBI-27~;
#X obj 337 70 r~ AMBI-28~;
#X obj 348 90 r~ AMBI-29~;
#X obj 359 110 r~ AMBI-30~;
#X obj 370 130 r~ AMBI-31~;
#X obj 381 150 r~ AMBI-32~;
#X obj 392 10 r~ AMBI-33~;
#X obj 403 30 r~ AMBI-34~;
#X obj 414 50 r~ AMBI-35~;
#X obj 425 70 r~ AMBI-36~;
#X obj 10 230 throw~ out-1~;
#X obj 23 250 throw~ out-2~;
#X obj 36 270 throw~ out-3~;
#X obj 49 290 throw~ out-4~;
#X obj 62 310 throw~ out-5~;
#X obj 75 330 throw~ out-6~;
#X obj 88 350 throw~ out-7~;
#X obj 101 370 throw~ out-8~;
#X obj 114 230 throw~ out-9~;
#X obj 127 250 throw~ out-10~;
#X obj 140 270 throw~ out-11~;
#X obj 153 290 throw~ out-12~;
#X obj 166 310 throw~ out-13~;
#X obj 179 330 throw~ out-14~;
#X obj 192 350 throw~ out-15~;
#X obj 205 370 throw~ out-16~;
#X obj 218 230 throw~ out-17~;
#X obj 231 250 throw~ out-18~;
#X obj 244 270 throw~ out-19~;
#X obj 257 290 throw~ out-20~;
#X obj 270 310 throw~ out-21~;
#X obj 283 330 throw~ out-22~;
#X obj 296 350 throw~ out-23~;
#X obj 309 370 throw~ out-24~;
#X obj 322 230 throw~ out-25~;
#X obj 335 250 throw~ out-26~;
#X obj 348 270 throw~ out-27~;
#X obj 361 290 throw~ out-28~;
#X obj 374 310 throw~ out-29~;
#X obj 387 330 throw~ out-30~;
#X obj 400 350 throw~ out-31~;
#X obj 413 370 throw~ out-32~;
#X obj 426 230 throw~ out-33~;
#X obj 439 250 throw~ out-34~;
#X obj 452 270 throw~ out-35~;
#X connect 0 0 1 0;
#X connect 1 0 38 0;
#X connect 1 1 39 0;
#X connect 1 2 40 0;
#X connect 1 3 41 0;
#X connect 1 4 42 0;
#X connect 1 5 43 0;
#X connect 1 6 44 0;
#X connect 1 7 45 0;
#X connect 1 8 46 0;
#X connect 1 9 47 0;
#X connect 1 10 48 0;
#X connect 1 11 49 0;
#X connect 1 12 50 0;
#X connect 1 13 51 0;
#X connect 1 14 52 0;
#X connect 1 15 53 0;
#X connect 1 16 54 0;
#X connect 1 17 55 0;
#X connect 1 18 56 0;
#X connect 1 19 57 0;
#X connect 1 20 58 0;
#X connect 1 21 59 0;
#X connect 1 22 60 0;
#X connect 1 23 61 0;
#X connect 1 24 62 0;
#X connect 1 25 63 0;
#X connect 1 26 64 0;
#X connect 1 27 65 0;
#X connect 1 28 66 0;
#X connect 1 29 67 0;
#X connect 1 30 68 0;
#X connect 1 31 69 0;
#X connect 1 32 70 0;
#X connect 1 33 71 0;
#X connect 1 34 72 0;
#X connect 2 0 1 1;
#X connect 3 0 1 2;
#X connect 4 0 1 3;
#X connect 5 0 1 4;
#X connect 6 0 1 5;
#X connect 7 0 1 6;
#X connect 8 0 1 7;
#X connect 9 0 1 8;
#X connect 10 0 1 9;
#X connect 11 0 1 10;
#X connect 12 0 1 11;
#X connect 13 0 1 12;
#X connect 14 0 1 13;
#X connect 15 0 1 14;
#X connect 16 0 1 15;
#X connect 17 0 1 16;
#X connect 18 0 1 17;
#X connect 19 0 1 18;
#X connect 20 0 1 19;
#X connect 21 0 1 20;
#X connect 22 0 1 21;
#X connect 23 0 1 22;
#X connect 24 0 1 23;
#X connect 25 0 1 24;
#X connect 26 0 1 25;
#X connect 27 0 1 26;
#X connect 28 0 1 27;
#X connect 29 0 1 28;
#X connect 30 0 1 29;
#X connect 31 0 1 30;
#X connect 32 0 1 31;
#X connect 33 0 1 32;
#X connect 34 0 1 33;
#X connect 35 0 1 34;
#X connect 36 0 1 35;
#X connect 37 0 1 36;
#X restore 15 45 pd \$0-decoder;
#N canvas 1025 406 893 552 contruct-decoder 1;
#X msg 135 101 clear;
#X obj 41 15 inlet;
#X obj 428 14 t b l b b;
#X obj 135 121 s pd-\$0-decoder;
#X obj 427 151 s pd-\$0-decoder;
#X msg 428 125 connect 0 0 1 0;
#X obj 527 276 t f f b;
#X obj 391 347 t f f;
#X obj 391 390 pack 0 1;
#X obj 391 230 acre/count_until;
#X obj 391 323 * 1;
#X obj 528 424 pack 70 10 1 s;
#X obj 528 320 t f f;
#X obj 527 297 - 1;
#X obj 563 375 * 20;
#X obj 391 302 + -1;
#X obj 391 253 t f f;
#X obj 391 471 s pd-\$0-decoder;
#X obj 40 40 t l l l b;
#X obj 391 207 unpack 11 8;
#X msg 528 450 obj \$1 \$2 r~ \$4-\$3~;
#X obj 563 348 % 8;
#X obj 528 375 * 11;
#X obj 563 397 + 10;
#X obj 528 397 + 40;
#X obj 425 369 + 1;
#X msg 391 450 connect \$1 0 1 \$2;
#X obj 391 369 + 2;
#X obj 37 100 unpack 11 8;
#X obj 177 235 t f f b;
#X obj 41 291 t f f;
#X obj 41 351 pack 0 1;
#X obj 41 178 acre/count_until;
#X obj 41 269 * 1;
#X obj 177 381 pack 70 10 1 s;
#X obj 177 277 t f f;
#X obj 177 256 - 1;
#X obj 212 332 * 20;
#X obj 41 203 t f f;
#X obj 41 459 s pd-\$0-decoder;
#X obj 212 304 % 8;
#X obj 73 315 + 1;
#X obj 177 354 + 10;
#X obj 212 354 + 230;
#X msg 41 407 connect 1 \$1 \$2 0;
#X obj 41 243 + -1;
#X obj 41 321 + 0;
#X obj 106 294 + 2;
#X obj 177 332 * 13;
#X obj 135 15 inlet;
#X msg 468 62 obj 10 180 r \$1-decoder;
#X obj 468 37 i \$0;
#X msg 176 407 obj \$1 \$2 throw~ \$4-\$3~;
#X text 512 24 [r \$0-decoder];
#X text 546 226 [r~ \$3-n~];
#X text 504 81 [mtx_mul~ ];
#X msg 448 101 obj 10 200 mtx_mul~ \$2 \$1 50 _________________________________
, f 63;
#X obj 621 363 symbol \$4;
#X obj 272 351 symbol \$5;
#X connect 0 0 3 0;
#X connect 1 0 18 0;
#X connect 2 0 5 0;
#X connect 2 1 56 0;
#X connect 2 2 51 0;
#X connect 5 0 4 0;
#X connect 6 0 13 0;
#X connect 6 1 11 2;
#X connect 6 2 57 0;
#X connect 7 0 27 0;
#X connect 7 1 25 0;
#X connect 8 0 26 0;
#X connect 9 0 16 0;
#X connect 9 0 47 0;
#X connect 10 0 7 0;
#X connect 11 0 20 0;
#X connect 12 0 22 0;
#X connect 12 1 21 0;
#X connect 13 0 12 0;
#X connect 14 0 23 0;
#X connect 15 0 10 0;
#X connect 16 0 15 0;
#X connect 16 1 6 0;
#X connect 18 0 28 0;
#X connect 18 1 19 0;
#X connect 18 2 2 0;
#X connect 18 3 0 0;
#X connect 19 0 9 0;
#X connect 20 0 17 0;
#X connect 21 0 14 0;
#X connect 22 0 24 0;
#X connect 23 0 11 1;
#X connect 24 0 11 0;
#X connect 25 0 8 1;
#X connect 26 0 17 0;
#X connect 27 0 8 0;
#X connect 28 1 32 0;
#X connect 29 0 36 0;
#X connect 29 1 34 2;
#X connect 29 2 58 0;
#X connect 30 0 46 0;
#X connect 30 1 41 0;
#X connect 31 0 44 0;
#X connect 32 0 38 0;
#X connect 33 0 30 0;
#X connect 34 0 52 0;
#X connect 35 0 48 0;
#X connect 35 1 40 0;
#X connect 36 0 35 0;
#X connect 37 0 43 0;
#X connect 38 0 45 0;
#X connect 38 1 29 0;
#X connect 40 0 37 0;
#X connect 41 0 31 1;
#X connect 42 0 34 0;
#X connect 43 0 34 1;
#X connect 44 0 39 0;
#X connect 45 0 33 0;
#X connect 46 0 31 0;
#X connect 47 0 41 1;
#X connect 48 0 42 0;
#X connect 49 0 0 0;
#X connect 50 0 4 0;
#X connect 51 0 50 0;
#X connect 52 0 39 0;
#X connect 56 0 4 0;
#X connect 57 0 11 3;
#X connect 58 0 34 3;
#X restore 267 174 pd contruct-decoder;
#X obj 28 205 s \$0-decoder;
#X msg 247 198 zeros \$2 \$1;
#X obj 15 300 mtx_print decoder_matrix_\$1_\$2_\$3;
#X obj 317 143 bng 15 250 50 0 empty empty empty 17 7 0 10 -262144
-1 -1;
#X text 335 142 clear before save !;
#X obj 227 48 r /amb/decinit;
#X text 28 354 (c) GPL - acre \, ritsch;
#X obj 341 49 bng 15 250 50 0 empty empty empty 17 7 0 10 -262144 -1
-1;
#X text 45 259 prevent first output before initialization;
#X text 357 47 reconstruct;
#X obj 227 95 pack 13 \$6;
#X text 13 19 amb/decoder/dsp~ <ID> <dimen> <order> <ambibus ID> <out-id>
<nr outs>, f 71;
#X obj 227 73 amb/amb/n \$2 \$3;
#X obj 15 238 r \$1/print;
#X obj 29 151 r \$1/decoder;
#N canvas 6 149 290 220 read 1;
#X obj 14 115 symbol decoder.mtx;
#X msg 16 135 read \$1;
#X obj 14 69 r \$1/load;
#X obj 36 91 r \$1/file;
#X obj 16 165 outlet;
#X text 22 48 Read a file into mtx;
#X obj 176 144 print r;
#X connect 0 0 1 0;
#X connect 1 0 4 0;
#X connect 1 0 6 0;
#X connect 2 0 0 0;
#X connect 3 0 0 1;
#X restore 16 95 pd read file;
#X obj 227 143 t b l l b;
#X obj 15 258 t b;
#X obj 15 279 mtx;
#X obj 176 177 s \$1/load;
#X obj 19 122 r \$1/init;
#X obj 331 108 s \$1/amb/n;
#X obj 412 110 s \$1/channels;
#X obj 357 82 unpack 13 16;
#X text 385 66 Info only;
#X connect 0 0 3 0;
#X connect 0 0 21 1;
#X connect 4 0 0 0;
#X connect 6 0 2 1;
#X connect 8 0 15 0;
#X connect 10 0 15 0;
#X connect 13 0 19 0;
#X connect 13 0 26 0;
#X connect 15 0 13 0;
#X connect 16 0 20 0;
#X connect 17 0 0 0;
#X connect 18 0 0 0;
#X connect 19 0 22 0;
#X connect 19 1 4 0;
#X connect 19 2 2 0;
#X connect 20 0 21 0;
#X connect 21 0 5 0;
#X connect 23 0 0 0;
#X connect 26 0 24 0;
#X connect 26 1 25 0;
