#N canvas 696 104 724 372 10;
#N canvas 131 571 491 402 \$0-decoder 0;
#X restore 15 45 pd \$0-decoder;
#N canvas 977 292 893 634 contruct-decoder 0;
#X msg 135 101 clear;
#X obj 41 15 inlet;
#X obj 428 14 t b l b b;
#X obj 135 121 s pd-\$0-decoder;
#X obj 427 170 s pd-\$0-decoder;
#X msg 428 144 connect 0 0 1 0;
#X obj 527 276 t f f b;
#X obj 391 347 t f f;
#X obj 391 390 pack 0 1;
#X obj 391 230 acre/count_until;
#X obj 391 323 * 1;
#X obj 528 424 pack 70 10 1 s;
#X obj 528 320 t f f;
#X obj 527 297 - 1;
#X obj 563 375 * 20;
#X obj 391 302 + -1;
#X obj 391 253 t f f;
#X obj 391 471 s pd-\$0-decoder;
#X obj 40 40 t l l l b;
#X obj 391 207 unpack 11 8;
#X msg 528 450 obj \$1 \$2 r~ \$4-\$3~;
#X obj 563 348 % 8;
#X obj 528 375 * 11;
#X obj 563 397 + 10;
#X obj 528 397 + 40;
#X msg 391 450 connect \$1 0 1 \$2;
#X obj 391 369 + 2;
#X obj 37 100 unpack 11 8;
#X obj 223 202 t f f b;
#X obj 87 258 t f f;
#X obj 87 321 pack 0 1;
#X obj 87 158 acre/count_until;
#X obj 87 236 * 1;
#X obj 223 348 pack 70 10 1 s;
#X obj 223 244 t f f;
#X obj 223 223 - 1;
#X obj 258 299 * 20;
#X obj 87 183 t f f;
#X obj 87 399 s pd-\$0-decoder;
#X obj 258 271 % 8;
#X obj 119 282 + 1;
#X obj 223 321 + 10;
#X obj 258 321 + 230;
#X msg 87 374 connect 1 \$1 \$2 0;
#X obj 87 210 + -1;
#X obj 87 288 + 0;
#X obj 152 261 + 2;
#X obj 223 299 * 13;
#X obj 135 15 inlet;
#X msg 468 62 obj 10 180 r \$1-decoder;
#X obj 468 37 i \$0;
#X text 512 24 [r \$0-decoder];
#X text 546 226 [r~ \$3-n~];
#X text 504 81 [mtx_mul~ ];
#X obj 621 363 symbol \$4;
#X obj 318 318 symbol \$5;
#X msg 222 374 obj \$1 \$2 s~ \$4-\$3~;
#X obj 425 369 + 0;
#X floatatom 621 37 5 0 0 0 - - - 0;
#X msg 448 101 obj 10 200 vstplugin~ -e SimpleDecoder \$1 \$2 __________________
, f 63;
#X obj 201 421 + 13;
#X obj 249 420 + 20;
#X obj 26 541 s pd-\$0-decoder;
#X obj 116 456 symbol \$1;
#X obj 26 403 t b b;
#X obj 27 494 pack f f s f f;
#X obj 25 463 f;
#X msg 28 516 obj \$4 \$5 print \$3 \, connect 1 \$1 \$2 0;
#X obj 65 459 + 1;
#X obj 38 437 + 1;
#X connect 0 0 3 0;
#X connect 1 0 18 0;
#X connect 2 0 5 0;
#X connect 2 1 59 0;
#X connect 2 2 50 0;
#X connect 5 0 4 0;
#X connect 6 0 13 0;
#X connect 6 1 11 2;
#X connect 6 2 54 0;
#X connect 7 0 26 0;
#X connect 7 1 57 0;
#X connect 8 0 25 0;
#X connect 9 0 16 0;
#X connect 9 0 46 0;
#X connect 10 0 7 0;
#X connect 11 0 20 0;
#X connect 12 0 22 0;
#X connect 12 1 21 0;
#X connect 13 0 12 0;
#X connect 14 0 23 0;
#X connect 15 0 10 0;
#X connect 16 0 15 0;
#X connect 16 1 6 0;
#X connect 18 0 27 0;
#X connect 18 1 19 0;
#X connect 18 2 2 0;
#X connect 18 3 0 0;
#X connect 19 0 9 0;
#X connect 20 0 17 0;
#X connect 21 0 14 0;
#X connect 22 0 24 0;
#X connect 23 0 11 1;
#X connect 24 0 11 0;
#X connect 25 0 17 0;
#X connect 26 0 8 0;
#X connect 27 0 64 0;
#X connect 27 1 31 0;
#X connect 28 0 35 0;
#X connect 28 1 33 2;
#X connect 28 2 55 0;
#X connect 29 0 45 0;
#X connect 29 1 40 0;
#X connect 30 0 43 0;
#X connect 31 0 37 0;
#X connect 32 0 29 0;
#X connect 33 0 56 0;
#X connect 34 0 47 0;
#X connect 34 1 39 0;
#X connect 35 0 34 0;
#X connect 36 0 42 0;
#X connect 37 0 44 0;
#X connect 37 1 28 0;
#X connect 39 0 36 0;
#X connect 40 0 30 1;
#X connect 40 0 68 0;
#X connect 41 0 33 0;
#X connect 41 0 60 0;
#X connect 42 0 33 1;
#X connect 42 0 61 0;
#X connect 43 0 38 0;
#X connect 44 0 32 0;
#X connect 45 0 30 0;
#X connect 45 0 69 0;
#X connect 46 0 40 1;
#X connect 47 0 41 0;
#X connect 48 0 0 0;
#X connect 49 0 4 0;
#X connect 50 0 49 0;
#X connect 50 0 58 0;
#X connect 54 0 11 3;
#X connect 55 0 33 3;
#X connect 56 0 38 0;
#X connect 57 0 8 1;
#X connect 59 0 4 0;
#X connect 60 0 65 3;
#X connect 61 0 65 4;
#X connect 63 0 65 2;
#X connect 64 0 66 0;
#X connect 64 1 63 0;
#X connect 65 0 67 0;
#X connect 66 0 65 0;
#X connect 67 0 62 0;
#X connect 68 0 65 1;
#X connect 69 0 66 1;
#X restore 267 174 pd contruct-decoder;
#X obj 15 150 s \$0-decoder;
#X msg 247 198 zeros \$2 \$1;
#X obj 317 143 bng 15 250 50 0 empty empty empty 17 7 0 10 #fcfcfc
#000000 #000000;
#X text 335 142 clear before save !;
#X obj 227 48 r /amb/decinit;
#X obj 341 49 bng 15 250 50 0 empty empty empty 17 7 0 10 #fcfcfc #000000
#000000;
#X text 45 259 prevent first output before initialization;
#X text 357 47 reconstruct;
#X obj 227 95 pack 13 \$6;
#X obj 227 73 amb/amb/n \$2 \$3;
#X obj 15 238 r \$1/print;
#N canvas 907 486 290 220 read 0;
#X obj 14 69 r \$1/load;
#X obj 119 67 r \$1/file;
#X obj 14 164 outlet;
#X msg 14 138 program_read \$1;
#X obj 14 115 symbol decoder.fxb;
#X text 22 48 Read a file into plugin;
#X connect 0 0 4 0;
#X connect 1 0 4 1;
#X connect 3 0 2 0;
#X connect 4 0 3 0;
#X restore 16 95 pd read file;
#X obj 227 143 t b l l b;
#X obj 15 258 t b;
#X obj 331 108 s \$1/amb/n;
#X obj 412 110 s \$1/channels;
#X obj 357 82 unpack 13 16;
#X text 385 66 Info only;
#X obj 176 177 s \$1/init;
#X text 16 326 part of acre/amb library (c) GPL \, winfried ritsch
;
#X text 13 19 amb/decoder/SimpleDecoder~ <ID> <dimen> <order> <ambibus
ID> <out-id> <nr outs incl. sub>, f 91;
#X msg 14 278 print;
#X obj 15 300 s \$0-decoder;
#N canvas 912 461 878 254 helper 0;
#X msg 20 41 input_count;
#X msg 34 65 output_count;
#X msg 147 44 input_list;
#X msg 218 46 output_list;
#X msg 54 90 print;
#X msg 148 114 param_count;
#X msg 230 112 param_list;
#X msg 304 112 param_dump;
#X msg 150 194 param_get \$1;
#X obj 150 170 nbx 5 14 -1e+37 1e+37 0 0 empty empty empty 0 -8 0 10
#fcfcfc #000000 #000000 0 256;
#X obj 398 51 bng 15 250 50 0 empty empty empty 17 7 0 10 #fcfcfc #000000
#000000;
#X obj 398 71 savepanel;
#X msg 521 100 set program_read \$1;
#X msg 398 101 program_write \$1;
#X obj 18 189 s \$0-decoder;
#X obj 146 86 s \$0-decoder;
#X obj 148 144 s \$0-decoder;
#X obj 150 219 s \$0-decoder;
#X obj 521 55 bng 15 250 50 0 empty empty empty 17 7 0 10 #fcfcfc #000000
#000000;
#X obj 521 75 openpanel;
#X obj 398 131 s \$0-decoder;
#X obj 521 213 s \$0-decoder;
#X msg 521 125 program_read /home/iem/projects/monolog-cello/data/decoder/cube_decoder-o4_setup.fxb
;
#X connect 0 0 14 0;
#X connect 1 0 14 0;
#X connect 2 0 15 0;
#X connect 3 0 15 0;
#X connect 4 0 14 0;
#X connect 5 0 16 0;
#X connect 6 0 16 0;
#X connect 7 0 16 0;
#X connect 8 0 17 0;
#X connect 9 0 8 0;
#X connect 10 0 11 0;
#X connect 11 0 13 0;
#X connect 12 0 22 0;
#X connect 13 0 20 0;
#X connect 18 0 19 0;
#X connect 19 0 12 0;
#X connect 22 0 21 0;
#X restore 16 71 pd helper;
#X connect 4 0 1 1;
#X connect 6 0 11 0;
#X connect 7 0 11 0;
#X connect 10 0 14 0;
#X connect 10 0 18 0;
#X connect 11 0 10 0;
#X connect 12 0 15 0;
#X connect 13 0 2 0;
#X connect 14 0 20 0;
#X connect 14 1 3 0;
#X connect 14 2 1 0;
#X connect 15 0 23 0;
#X connect 18 0 16 0;
#X connect 18 1 17 0;
#X connect 23 0 24 0;
