#N canvas 759 371 450 131 10;
#X text 45 92 (c) GPL \, acre winfried ritsch;
#X text 38 6 amb/bus/SimpleDecoder_ds <domain> <id>;
#X obj 42 38 ds/register_map \$1 \$2/on;
#X obj 41 60 ds/register_map \$1 \$2/file;
#X text 208 59 note not loaded only set !!!;
