#N canvas 1533 390 628 450 10;
#X obj 16 177 mtx;
#X obj 14 356 mtx_print decoder_matrix_\$1_\$2_\$3;
#X obj 14 325 spigot;
#X text 73 325 prevent first output before initialization;
#X obj 40 73 r \$1/print;
#X obj 66 103 r \$1/decoder;
#N canvas 652 458 290 220 read 0;
#X msg 16 167 read \$1;
#X obj 14 69 r \$1/load;
#X obj 36 91 r \$1/file;
#X obj 16 197 outlet;
#X text 22 48 Read a file into mtx;
#X obj 181 67 r \$1/open;
#X obj 62 126 bng 15 250 50 0 empty empty empty 17 7 0 10 -262144 -1
-1;
#X obj 14 147 symbol ../../../../data/decoder.mtx;
#X connect 0 0 3 0;
#X connect 1 0 7 0;
#X connect 2 0 7 1;
#X connect 6 0 7 0;
#X connect 7 0 0 0;
#X restore 16 50 pd read file;
#X text 18 8 amb/decoder/split <decoder ID> <dimen> <order> <slitted
decoder> <out count> <out offset>, f 90;
#X msg 233 281 1;
#X obj 157 100 t b b b b;
#X msg 295 285 0;
#X obj 144 220 t f f;
#X msg 142 248 row \$1;
#X obj 30 251 pp 1;
#X obj 30 273 pp row;
#X obj 30 296 s \$4/decoder;
#X obj 144 198 for++ 1 8;
#X obj 164 146 f \$6;
#X obj 211 145 f \$6;
#X obj 194 172 + \$5;
#X obj 156 31 r /amb/inited;
#X obj 177 73 bng 15 250 50 0 empty empty empty 17 7 0 10 -262144 -1
-1;
#X obj 265 44 r \$1/range;
#X obj 291 98 unpack 8 16;
#X obj 264 67 t b l;
#N canvas 4 85 290 217 serialze 0;
#X obj 35 125 list split 1;
#X obj 35 72 until;
#X obj 35 100 list append;
#X obj 35 49 t b l;
#X obj 116 155 bang;
#X obj 35 29 inlet;
#X obj 35 183 outlet;
#X text 105 38 see list-help example 3;
#X connect 0 0 6 0;
#X connect 0 1 2 1;
#X connect 0 2 4 0;
#X connect 1 0 2 0;
#X connect 2 0 0 0;
#X connect 3 0 1 0;
#X connect 3 1 2 1;
#X connect 4 0 1 1;
#X restore 420 195 pd serialze;
#X obj 397 69 t b l b;
#X obj 398 46 r \$1/outlist;
#X obj 172 50 r \$1/split;
#X text 16 386 part of acre/amb library (c) GPL \, winfried ritsch
;
#X connect 0 0 13 0;
#X connect 0 0 2 0;
#X connect 2 0 1 0;
#X connect 4 0 0 0;
#X connect 5 0 0 0;
#X connect 6 0 0 0;
#X connect 8 0 2 1;
#X connect 9 0 8 0;
#X connect 9 1 17 0;
#X connect 9 2 18 0;
#X connect 9 3 10 0;
#X connect 10 0 2 1;
#X connect 11 0 12 0;
#X connect 11 1 13 1;
#X connect 12 0 0 0;
#X connect 13 0 14 0;
#X connect 14 0 15 0;
#X connect 16 0 11 0;
#X connect 16 1 15 0;
#X connect 17 0 16 0;
#X connect 18 0 19 0;
#X connect 19 0 16 1;
#X connect 20 0 9 0;
#X connect 21 0 9 0;
#X connect 22 0 24 0;
#X connect 23 0 17 1;
#X connect 23 1 18 1;
#X connect 24 0 9 0;
#X connect 24 1 23 0;
#X connect 25 0 11 0;
#X connect 26 0 8 0;
#X connect 26 1 25 0;
#X connect 26 2 10 0;
#X connect 27 0 26 0;
#X connect 28 0 9 0;
