#N canvas 661 291 536 404 10;
#X obj 188 196 s /amb/businit;
#X obj 128 271 s /amb/guiinit;
#X obj 168 218 s /amb/encinit;
#X obj 148 245 s /amb/decinit;
#X obj 48 176 i 0;
#X text 71 156 old_state;
#X obj 48 218 s /mxr/dsp;
#X msg 92 112 0;
#X obj 239 157 bng 15 250 50 0 empty empty empty 17 7 0 10 -262144
-1 -1;
#X obj 133 121 r /mxr/dsp/state;
#X obj 133 98 s /mxr/dsp/state/get;
#X obj 38 1 inlet;
#X text 264 156 can drop errors;
#X text 133 336 (c) GPL - acre \, ritsch;
#X text 193 17 amb/amb/initbangs;
#X obj 128 173 t b b b b;
#X obj 39 45 r /amb/initbang;
#X obj 37 23 s /amb/initbang;
#X obj 39 298 s /amb/inited;
#X obj 39 68 t b b b b b;
#X obj 39 353 outlet;
#X obj 38 324 r /amb/inited;
#X text 133 64 try to init objects with DSP off so no r~/s~ and throw~/catch~
errors are thrown;
#X text 146 299 comment;
#X connect 4 0 6 0;
#X connect 7 0 6 0;
#X connect 8 0 15 0;
#X connect 9 0 4 1;
#X connect 11 0 17 0;
#X connect 15 0 1 0;
#X connect 15 1 3 0;
#X connect 15 2 2 0;
#X connect 15 3 0 0;
#X connect 16 0 19 0;
#X connect 19 0 18 0;
#X connect 19 1 4 0;
#X connect 19 2 15 0;
#X connect 19 3 7 0;
#X connect 19 4 10 0;
#X connect 21 0 20 0;
