#N canvas 810 123 524 258 10;
#X text 126 79 open_close_EDIT;
#X obj 129 62 abs/rrr_ctl \$1;
#X obj 295 111 t f b;
#X obj 293 131 pack f s;
#X msg 293 153 \; \$2 vis \$1;
#X obj 339 106 symbol \$1-PRE-equalizer;
#X obj 293 65 r \$1/eq/vis;
#X obj 135 130 t f b;
#X obj 133 150 pack f s;
#X msg 133 172 \; \$2 vis \$1;
#X obj 180 125 symbol \$1-EDIT;
#X obj 10 10 abs/master_ctl \$1;
#X obj 135 101 r \$1/vis;
#X text 127 17 amb/rrr/ctl <ID>;
#X text 126 33 RRR-Reverb with for 6 feeds \, 12 first reflections
and \, 6 late reverbs;
#X connect 2 0 3 0;
#X connect 2 1 5 0;
#X connect 3 0 4 0;
#X connect 5 0 3 1;
#X connect 6 0 2 0;
#X connect 7 0 8 0;
#X connect 7 1 10 0;
#X connect 8 0 9 0;
#X connect 10 0 8 1;
#X connect 12 0 7 0;
#X coords 0 -1 1 1 100 200 2 10 10;
