#N canvas 1700 751 450 300 10;
#X obj 40 172 abs/rev_parameter_ds \$1 \$2;
#X text 32 24 Parameter for RRR;
#X obj 40 194 abs/eq_ds \$1 \$2;
#X obj 41 215 ds/register_map \$1 \$2/spat/jitter;
#X obj 39 63 ds/register_map \$1 \$2/on;
#X obj 38 86 # ds/register_map \$1 \$2/gain;
#X text 37 6 amb/rrr/ds <domain> <id>;
#X text 39 240 (c) GPL \, acre winfried ritsch;
#X text 212 83 always 0 on init !!!;
#X obj 40 137 abs/spat_ds \$1 \$2;
