#N canvas 284 97 699 774 10;
#X obj 497 178 switch~;
#X obj 497 64 t b b;
#X msg 527 84 0;
#X msg 497 154 0;
#X obj 497 43 select 0;
#X obj 548 63 t f f;
#X obj 497 130 del 60;
#X obj 527 108 f;
#X obj 558 178 f 0;
#X obj 558 134 sel 1;
#X obj 599 157 dbtorms;
#N canvas 1454 76 958 679 analys 0;
#X obj 483 135 for++ 0 2047;
#X obj 484 110 bng 15 250 50 0 empty empty empty 0 -6 0 8 -262144 -1
-1;
#X obj 482 84 loadbang;
#X obj 482 158 t f f;
#X obj 484 192 / 2048;
#X obj 484 217 * 3.14159;
#X obj 484 241 sin;
#X obj 485 266 t f f;
#X obj 483 291 *;
#X obj 125 91 *~;
#X obj 124 122 rfft~;
#X obj 116 159 *~;
#X obj 151 160 *~;
#X obj 123 186 +~;
#X obj 123 210 powtodb~;
#N canvas 0 50 450 300 (subpatch) 0;
#X array \$0_spec1024 1024 float 0;
#X coords 0 140 1023 0 800 140 1;
#X restore 33 502 graph;
#X obj 126 38 inlet~;
#N canvas 0 50 450 300 (subpatch) 0;
#X array \$0_spec128 128 float 0;
#X coords 0 140 127 0 512 140 1;
#X restore 33 334 graph;
#X obj 765 90 osc~ 100;
#X floatatom 767 63 8 0 0 0 - - -, f 8;
#X obj 34 263 tgl 55 0 empty empty empty 0 -6 0 8 -262144 -1 -1 0 1
;
#X obj 801 140 * 0.2;
#X obj 763 161 *~ 0;
#X obj 145 67 tabreceive~ \$0_hann;
#X obj 478 49 table \$0_hann 2048;
#X obj 124 238 tabsend~ \$0_spec1024;
#X obj 287 240 tabsend~ \$0_spec128;
#X obj 482 312 tabwrite \$0_hann;
#X obj 328 52 switch~ 2048 1;
#X obj 328 25 tgl 15 0 empty empty empty 0 -6 0 8 -262144 -1 -1 0 1
;
#X connect 0 0 3 0;
#X connect 1 0 0 0;
#X connect 2 0 1 0;
#X connect 3 0 4 0;
#X connect 3 1 27 1;
#X connect 4 0 5 0;
#X connect 5 0 6 0;
#X connect 6 0 7 0;
#X connect 7 0 8 0;
#X connect 7 1 8 1;
#X connect 8 0 27 0;
#X connect 9 0 10 0;
#X connect 10 0 11 0;
#X connect 10 0 11 1;
#X connect 10 1 12 0;
#X connect 10 1 12 1;
#X connect 11 0 13 0;
#X connect 12 0 13 1;
#X connect 13 0 14 0;
#X connect 14 0 25 0;
#X connect 14 0 26 0;
#X connect 16 0 9 0;
#X connect 18 0 22 0;
#X connect 19 0 18 0;
#X connect 20 0 21 0;
#X connect 21 0 22 1;
#X connect 22 0 9 0;
#X connect 23 0 9 1;
#X connect 29 0 28 0;
#X restore 20 448 pd analys;
#X obj 92 258 multiline~ 0 0 0 0 0 0 0 0 0 0 0 0 0 0 0 0 0 0 200;
#X msg 553 206 \$1;
#X obj 91 191 abs/REV_6_12_6~ _____________________;
#N canvas 911 220 877 285 Encode_18_outs_of_RRR 0;
#X obj 313 196 pp col;
#X obj 313 221 ambi_encode 3;
#X obj 313 246 outlet;
#X obj 33 137 t l;
#X text 197 20 1...12: early;
#X text 623 14 13..18: diffuse;
#X obj 313 137 t l;
#X obj 603 137 t l;
#X obj 33 46 abs/rrr_pack_elv_azm 1 \$1;
#X obj 53 66 abs/rrr_pack_elv_azm 2 \$1;
#X obj 73 86 abs/rrr_pack_elv_azm 3 \$1;
#X obj 93 106 abs/rrr_pack_elv_azm 4 \$1;
#X obj 103 126 abs/rrr_pack_elv_azm 5 \$1;
#X obj 122 146 abs/rrr_pack_elv_azm 6 \$1;
#X obj 315 46 abs/rrr_pack_elv_azm 7 \$1;
#X obj 334 66 abs/rrr_pack_elv_azm 8 \$1;
#X obj 353 86 abs/rrr_pack_elv_azm 9 \$1;
#X obj 373 106 abs/rrr_pack_elv_azm 10 \$1;
#X obj 384 126 abs/rrr_pack_elv_azm 11 \$1;
#X obj 403 146 abs/rrr_pack_elv_azm 12 \$1;
#X obj 602 46 abs/rrr_pack_elv_azm 13 \$1;
#X obj 623 66 abs/rrr_pack_elv_azm 14 \$1;
#X obj 643 86 abs/rrr_pack_elv_azm 15 \$1;
#X obj 664 106 abs/rrr_pack_elv_azm 16 \$1;
#X obj 673 126 abs/rrr_pack_elv_azm 17 \$1;
#X obj 693 146 abs/rrr_pack_elv_azm 18 \$1;
#X connect 0 0 1 0;
#X connect 1 0 2 0;
#X connect 3 0 0 0;
#X connect 6 0 0 0;
#X connect 7 0 0 0;
#X connect 8 0 3 0;
#X connect 9 0 3 0;
#X connect 10 0 3 0;
#X connect 11 0 3 0;
#X connect 12 0 3 0;
#X connect 13 0 3 0;
#X connect 14 0 6 0;
#X connect 15 0 6 0;
#X connect 16 0 6 0;
#X connect 17 0 6 0;
#X connect 18 0 6 0;
#X connect 19 0 6 0;
#X connect 20 0 7 0;
#X connect 21 0 7 0;
#X connect 22 0 7 0;
#X connect 23 0 7 0;
#X connect 24 0 7 0;
#X connect 25 0 7 0;
#X restore 457 312 pd Encode_18_outs_of_RRR;
#X obj 75 342 mtx_*~ 16 18 200 ______________________________;
#X obj 24 75 abs/dither~;
#X obj 171 721 throw~ \$3-1~;
#X obj 185 700 throw~ \$3-2~;
#X obj 200 678 throw~ \$3-3~;
#X obj 215 655 throw~ \$3-4~;
#X obj 230 634 throw~ \$3-5~;
#X obj 245 611 throw~ \$3-6~;
#X obj 260 589 throw~ \$3-7~;
#X obj 276 569 throw~ \$3-8~;
#X obj 297 548 throw~ \$3-9~;
#X obj 311 525 throw~ \$3-10~;
#X obj 329 504 throw~ \$3-11~;
#X obj 342 482 throw~ \$3-12~;
#X obj 357 461 throw~ \$3-13~;
#X obj 372 438 throw~ \$3-14~;
#X obj 387 416 throw~ \$3-15~;
#X obj 402 394 throw~ \$3-16~;
#X text 47 19 RRR/dsp~ <id> <in channel prefix> <Ambisonics bus>;
#X text 54 34 Room in Room Reverberation (RRR) GPL \, author Thomas
Musil;
#X text 56 52 3D 3rd order adapted \, renamed und modified winfried
ritsch;
#N canvas 585 61 573 644 REV 0;
#X obj 151 68 pp gain;
#X obj 251 68 r \$1/early/gain;
#X obj 103 473 pp del_time;
#X obj 337 585 pp del_mod_amp;
#X obj 217 524 pp del_mod_freq;
#X obj 80 324 pp reverb;
#X obj 12 324 pp early;
#X obj 149 92 pp cutoff;
#X obj 156 167 pp cutoff;
#X obj 158 143 pp gain;
#X obj 150 219 pp dec_l_time;
#X obj 149 115 pp Q;
#X obj 156 190 pp Q;
#X obj 146 262 pp dec_m_time;
#X obj 147 304 pp dec_h_time;
#X obj 144 284 pp dec_mh_freq;
#X obj 146 240 pp dec_lm_freq;
#X obj 103 450 abs/exp_uzi 12;
#X obj 337 562 abs/exp_uzi 12;
#X obj 217 502 abs/exp_uzi 12;
#N canvas 734 54 792 228 receive 0;
#X obj 190 171 pp damp;
#X obj 190 201 outlet;
#X obj 26 116 t l;
#X obj 276 116 t l;
#X obj 516 116 t l;
#X obj 6 27 abs/rrr_pack_earlydamp \$1 1;
#X obj 26 47 abs/rrr_pack_earlydamp \$1 2;
#X obj 46 67 abs/rrr_pack_earlydamp \$1 3;
#X obj 67 87 abs/rrr_pack_earlydamp \$1 4;
#X obj 257 27 abs/rrr_pack_earlydamp \$1 5;
#X obj 276 47 abs/rrr_pack_earlydamp \$1 6;
#X obj 296 67 abs/rrr_pack_earlydamp \$1 7;
#X obj 317 87 abs/rrr_pack_earlydamp \$1 8;
#X obj 496 27 abs/rrr_pack_earlydamp \$1 9;
#X obj 516 47 abs/rrr_pack_earlydamp \$1 10;
#X obj 536 67 abs/rrr_pack_earlydamp \$1 11;
#X obj 556 87 abs/rrr_pack_earlydamp \$1 12;
#X connect 0 0 1 0;
#X connect 2 0 0 0;
#X connect 3 0 0 0;
#X connect 4 0 0 0;
#X connect 5 0 2 0;
#X connect 6 0 2 0;
#X connect 7 0 2 0;
#X connect 8 0 2 0;
#X connect 9 0 3 0;
#X connect 10 0 3 0;
#X connect 11 0 3 0;
#X connect 12 0 3 0;
#X connect 13 0 4 0;
#X connect 14 0 4 0;
#X connect 15 0 4 0;
#X connect 16 0 4 0;
#X restore 12 29 pd receive parameter damp 12x;
#N canvas 841 351 782 177 receive 0;
#X obj 36 150 outlet;
#X obj 36 106 t l;
#X obj 286 106 t l;
#X obj 526 106 t l;
#X obj 36 130 pp delay;
#X obj 16 17 abs/rrr_pack_earlydel \$1 1;
#X obj 37 36 abs/rrr_pack_earlydel \$1 2;
#X obj 56 57 abs/rrr_pack_earlydel \$1 3;
#X obj 77 77 abs/rrr_pack_earlydel \$1 4;
#X obj 267 17 abs/rrr_pack_earlydel \$1 5;
#X obj 286 37 abs/rrr_pack_earlydel \$1 6;
#X obj 306 57 abs/rrr_pack_earlydel \$1 7;
#X obj 327 77 abs/rrr_pack_earlydel \$1 8;
#X obj 506 17 abs/rrr_pack_earlydel \$1 9;
#X obj 526 37 abs/rrr_pack_earlydel \$1 10;
#X obj 546 57 abs/rrr_pack_earlydel \$1 11;
#X obj 566 77 abs/rrr_pack_earlydel \$1 12;
#X connect 1 0 4 0;
#X connect 2 0 4 0;
#X connect 3 0 4 0;
#X connect 4 0 0 0;
#X connect 5 0 1 0;
#X connect 6 0 1 0;
#X connect 7 0 1 0;
#X connect 8 0 1 0;
#X connect 9 0 2 0;
#X connect 10 0 2 0;
#X connect 11 0 2 0;
#X connect 12 0 2 0;
#X connect 13 0 3 0;
#X connect 14 0 3 0;
#X connect 15 0 3 0;
#X connect 16 0 3 0;
#X restore 37 46 pd receive parameter del_time 12x;
#X obj 251 112 r \$1/early/q;
#X obj 252 90 r \$1/early/cutoff;
#X obj 250 145 r \$1/rev/gain;
#X obj 250 165 r \$1/rev/cutoff;
#X obj 251 186 r \$1/rev/q;
#X obj 253 284 r \$1/rev/dec/mh/freq;
#X obj 255 240 r \$1/rev/dec/lm/freq;
#X obj 255 219 r \$1/rev/dec/l/time;
#X obj 253 262 r \$1/rev/dec/m/time;
#X obj 253 306 r \$1/rev/dec/h/time;
#X obj 115 349 r \$1/rev/del/time/max;
#X obj 155 368 r \$1/rev/del/time/min;
#X obj 155 390 t b f;
#X obj 252 447 t b f;
#X obj 240 402 r \$1/rev/mod/freq/max;
#X obj 252 425 r \$1/rev/mod/freq/min;
#X obj 115 426 pack 0.1 1000;
#X obj 239 476 pack 0.01 10;
#X obj 350 506 t b f;
#X obj 337 535 pack 0.01 10;
#X obj 338 461 r \$1/rev/mod/amp/max;
#X obj 350 484 r \$1/rev/mod/amp/min;
#X obj 9 407 outlet;
#X floatatom 387 112 5 0 0 0 - - -, f 5;
#X connect 0 0 6 0;
#X connect 1 0 0 0;
#X connect 2 0 5 0;
#X connect 3 0 5 0;
#X connect 4 0 5 0;
#X connect 5 0 44 0;
#X connect 6 0 44 0;
#X connect 7 0 6 0;
#X connect 8 0 5 0;
#X connect 9 0 5 0;
#X connect 10 0 5 0;
#X connect 11 0 6 0;
#X connect 12 0 5 0;
#X connect 13 0 5 0;
#X connect 14 0 5 0;
#X connect 15 0 5 0;
#X connect 16 0 5 0;
#X connect 17 0 2 0;
#X connect 18 0 3 0;
#X connect 19 0 4 0;
#X connect 20 0 6 0;
#X connect 21 0 6 0;
#X connect 22 0 11 0;
#X connect 22 0 45 0;
#X connect 23 0 7 0;
#X connect 24 0 9 0;
#X connect 25 0 8 0;
#X connect 26 0 12 0;
#X connect 27 0 15 0;
#X connect 28 0 16 0;
#X connect 29 0 10 0;
#X connect 30 0 13 0;
#X connect 31 0 14 0;
#X connect 32 0 38 0;
#X connect 33 0 34 0;
#X connect 34 0 38 0;
#X connect 34 1 38 1;
#X connect 35 0 39 0;
#X connect 35 1 39 1;
#X connect 36 0 39 0;
#X connect 37 0 35 0;
#X connect 38 0 17 0;
#X connect 39 0 19 0;
#X connect 40 0 41 0;
#X connect 40 1 41 1;
#X connect 41 0 18 0;
#X connect 42 0 41 0;
#X connect 43 0 40 0;
#X restore 347 167 pd REV PARAMETER;
#X obj 497 17 r \$1/on;
#X obj 600 133 r \$1/gain;
#X obj 91 170 abs/eq_dsp \$1 _________________;
#X obj 36 367 pvu~;
#X obj 22 174 pvu~;
#X obj 21 398 pack;
#X obj 21 420 s \$1/vu;
#X obj 91 98 catch~ \$2-1~;
#X obj 176 142 catch~ \$2-3~;
#X obj 261 116 catch~ \$2-5~;
#X obj 305 139 catch~ \$2-6~;
#X obj 220 95 catch~ \$2-4~;
#X obj 133 120 catch~ \$2-2~;
#X text 398 629 should be choosable in future;
#X text 401 606 Note: Ambi channel ordering is SID;
#X connect 1 0 6 0;
#X connect 1 1 2 0;
#X connect 2 0 7 0;
#X connect 3 0 0 0;
#X connect 4 0 1 0;
#X connect 4 1 5 0;
#X connect 5 0 7 0;
#X connect 5 1 0 0;
#X connect 6 0 3 0;
#X connect 7 0 9 0;
#X connect 8 0 13 0;
#X connect 9 0 8 0;
#X connect 9 1 13 0;
#X connect 10 0 8 0;
#X connect 12 0 16 1;
#X connect 12 1 16 2;
#X connect 12 2 16 3;
#X connect 12 3 16 4;
#X connect 12 4 16 5;
#X connect 12 5 16 6;
#X connect 12 6 16 7;
#X connect 12 7 16 8;
#X connect 12 8 16 9;
#X connect 12 9 16 10;
#X connect 12 10 16 11;
#X connect 12 11 16 12;
#X connect 12 12 16 13;
#X connect 12 13 16 14;
#X connect 12 14 16 15;
#X connect 12 15 16 16;
#X connect 12 16 16 17;
#X connect 12 17 16 18;
#X connect 13 0 12 18;
#X connect 14 0 12 0;
#X connect 14 1 12 1;
#X connect 14 2 12 2;
#X connect 14 3 12 3;
#X connect 14 4 12 4;
#X connect 14 5 12 5;
#X connect 14 6 12 6;
#X connect 14 7 12 7;
#X connect 14 8 12 8;
#X connect 14 9 12 9;
#X connect 14 10 12 10;
#X connect 14 11 12 11;
#X connect 14 12 12 12;
#X connect 14 13 12 13;
#X connect 14 14 12 14;
#X connect 14 15 12 15;
#X connect 14 16 12 16;
#X connect 14 17 12 17;
#X connect 15 0 16 0;
#X connect 16 0 11 0;
#X connect 16 0 18 0;
#X connect 16 0 41 0;
#X connect 16 1 19 0;
#X connect 16 2 20 0;
#X connect 16 3 21 0;
#X connect 16 4 22 0;
#X connect 16 5 23 0;
#X connect 16 6 24 0;
#X connect 16 7 25 0;
#X connect 16 8 26 0;
#X connect 16 9 27 0;
#X connect 16 10 28 0;
#X connect 16 11 29 0;
#X connect 16 12 30 0;
#X connect 16 13 31 0;
#X connect 16 14 32 0;
#X connect 16 15 33 0;
#X connect 17 0 14 0;
#X connect 37 0 14 6;
#X connect 38 0 4 0;
#X connect 39 0 10 0;
#X connect 40 0 14 0;
#X connect 40 1 14 1;
#X connect 40 2 14 2;
#X connect 40 3 14 3;
#X connect 40 4 14 4;
#X connect 40 5 14 5;
#X connect 41 0 43 1;
#X connect 42 0 43 0;
#X connect 43 0 44 0;
#X connect 45 0 40 0;
#X connect 45 0 42 0;
#X connect 46 0 40 2;
#X connect 46 0 42 0;
#X connect 47 0 40 4;
#X connect 47 0 42 0;
#X connect 48 0 40 5;
#X connect 48 0 42 0;
#X connect 49 0 40 3;
#X connect 49 0 42 0;
#X connect 50 0 40 1;
#X connect 50 0 42 0;
