#N canvas 554 146 608 463 10;
#X obj 31 31 cnv 15 98 98 empty empty \$1 2 7 0 8 -233017 -66577 0
;
#X obj 34 139 s \$0_sphere_fromgui;
#X obj 34 4 r \$0_sphere_togui;
#X text 39 94 not found;
#X text 34 79 cube_sphere;
#X text 41 72 iemgui or;
#X obj 37 45 cube_sphere 1 42 12 225279 233016 354 39 6;
#X obj 199 48 r \$0_sphere_fromgui;
#X obj 199 70 route 1;
#X obj 199 92 unpack 0 0;
#X obj 199 162 s \$1/elevation;
#X obj 317 160 s \$1/azimuth;
#X obj 196 187 r \$1/elevation;
#X obj 318 191 r \$1/azimuth;
#X obj 316 225 t b f;
#X obj 199 279 pack 0 0;
#X obj 199 346 s \$0_sphere_togui;
#X obj 448 62 r \$1/dist;
#X obj 448 84 min 1;
#X obj 448 106 max 0;
#X obj 448 128 * -1;
#X obj 448 150 + 1;
#X obj 448 172 * 100;
#X obj 461 287 s \$0_sphere_togui;
#X msg 461 265 src_font \$1;
#X obj 448 194 max 10;
#X obj 198 242 + 0;
#X obj 225 219 t b f;
#X msg 199 301 src_dp 1 \$1 \$2;
#X obj 413 241 + 4;
#X obj 413 219 * 0.7;
#X obj 91 31 nbx 4 14 0 100 0 0 \$1/dist \$1/dist dist -20 8 0 8 -262144
-1 -1 1 256;
#X text 63 406 (c) GPL \, acre winfried ritsch;
#X obj 460 219 * 0.8;
#X obj 458 242 + 4;
#N canvas 5 61 450 300 configure 0;
#X obj 39 200 s \$0_sphere_togui;
#X msg 45 162 size \$1;
#X floatatom 50 138 5 0 0 0 - - -;
#X text 33 8 parameter are stored in object !;
#X msg 139 163 frame_col \$1;
#X floatatom 144 130 5 0 0 0 - - -;
#X connect 1 0 0 0;
#X connect 2 0 1 0;
#X connect 4 0 0 0;
#X connect 5 0 4 0;
#X restore 36 234 pd configure;
#X text 183 10 amb/spat/ch_hemi <id> [type optional];
#X text 59 382 Note on 3D the font size shows distance;
#X connect 2 0 6 0;
#X connect 6 0 1 0;
#X connect 7 0 8 0;
#X connect 8 0 9 0;
#X connect 9 0 10 0;
#X connect 9 1 11 0;
#X connect 12 0 26 0;
#X connect 13 0 14 0;
#X connect 14 0 15 0;
#X connect 14 1 15 1;
#X connect 15 0 28 0;
#X connect 17 0 18 0;
#X connect 18 0 19 0;
#X connect 19 0 20 0;
#X connect 20 0 21 0;
#X connect 21 0 22 0;
#X connect 22 0 25 0;
#X connect 24 0 23 0;
#X connect 25 0 30 0;
#X connect 25 0 33 0;
#X connect 26 0 15 0;
#X connect 27 0 26 0;
#X connect 27 1 26 1;
#X connect 28 0 16 0;
#X connect 29 0 27 0;
#X connect 30 0 29 0;
#X connect 33 0 34 0;
#X connect 34 0 24 0;
#X coords 0 -1 1 1 100 100 2 30 30;
