#N canvas 1244 148 661 382 10;
#X obj 159 142 encode\$2 \$1 \$3;
#X text 32 31 amb/encode~ <ch id> <dimen> <order> <ambisonic bus ID>
;
#N canvas 196 107 491 791 \$0-encode 1;
#X obj 200 5 r~ 1595-encode~;
#X obj 10 5 r 1595-encode;
#X obj 10 30 mtx_*~ 36 1 50 __________________________________;
#X obj 10 50 throw~ AMB-1~;
#X obj 20 70 throw~ AMB-2~;
#X obj 30 90 throw~ AMB-3~;
#X obj 40 110 throw~ AMB-4~;
#X obj 50 130 throw~ AMB-5~;
#X obj 60 150 throw~ AMB-6~;
#X obj 70 170 throw~ AMB-7~;
#X obj 80 190 throw~ AMB-8~;
#X obj 90 210 throw~ AMB-9~;
#X obj 100 230 throw~ AMB-10~;
#X obj 110 250 throw~ AMB-11~;
#X obj 120 270 throw~ AMB-12~;
#X obj 130 290 throw~ AMB-13~;
#X obj 140 310 throw~ AMB-14~;
#X obj 150 330 throw~ AMB-15~;
#X obj 160 350 throw~ AMB-16~;
#X obj 170 370 throw~ AMB-17~;
#X obj 180 390 throw~ AMB-18~;
#X obj 190 410 throw~ AMB-19~;
#X obj 200 430 throw~ AMB-20~;
#X obj 210 450 throw~ AMB-21~;
#X obj 220 470 throw~ AMB-22~;
#X obj 230 490 throw~ AMB-23~;
#X obj 240 510 throw~ AMB-24~;
#X obj 250 530 throw~ AMB-25~;
#X obj 260 550 throw~ AMB-26~;
#X obj 270 570 throw~ AMB-27~;
#X obj 280 590 throw~ AMB-28~;
#X obj 290 610 throw~ AMB-29~;
#X obj 300 630 throw~ AMB-30~;
#X obj 310 650 throw~ AMB-31~;
#X obj 320 670 throw~ AMB-32~;
#X obj 330 690 throw~ AMB-33~;
#X obj 340 710 throw~ AMB-34~;
#X obj 350 730 throw~ AMB-35~;
#X obj 360 750 throw~ AMB-36~;
#X connect 0 0 2 1;
#X connect 1 0 2 0;
#X connect 2 0 3 0;
#X connect 2 1 4 0;
#X connect 2 2 5 0;
#X connect 2 3 6 0;
#X connect 2 4 7 0;
#X connect 2 5 8 0;
#X connect 2 6 9 0;
#X connect 2 7 10 0;
#X connect 2 8 11 0;
#X connect 2 9 12 0;
#X connect 2 10 13 0;
#X connect 2 11 14 0;
#X connect 2 12 15 0;
#X connect 2 13 16 0;
#X connect 2 14 17 0;
#X connect 2 15 18 0;
#X connect 2 16 19 0;
#X connect 2 17 20 0;
#X connect 2 18 21 0;
#X connect 2 19 22 0;
#X connect 2 20 23 0;
#X connect 2 21 24 0;
#X connect 2 22 25 0;
#X connect 2 23 26 0;
#X connect 2 24 27 0;
#X connect 2 25 28 0;
#X connect 2 26 29 0;
#X connect 2 27 30 0;
#X connect 2 28 31 0;
#X connect 2 29 32 0;
#X connect 2 30 33 0;
#X connect 2 31 34 0;
#X connect 2 32 35 0;
#X connect 2 33 36 0;
#X connect 2 34 37 0;
#X connect 2 35 38 0;
#X restore 25 215 pd \$0-encode;
#N canvas 447 200 835 463 contruct-ambibus 0;
#X msg 151 20 clear;
#X obj 175 204 t f f b;
#X obj 39 238 t f f;
#X obj 41 15 inlet;
#X obj 37 296 pack 0 1;
#X obj 37 404 s pd-\$0-encode;
#X obj 151 40 s pd-\$0-encode;
#X obj 38 127 acre/count_until;
#X obj 282 209 s pd-\$0-encode;
#X obj 40 40 t f f b;
#X msg 305 159 obj 10 30 mtx_*~ \$1 1 50 __________________________________
;
#X obj 39 216 * 1;
#X msg 174 354 obj \$1 \$2 throw~ \$4-\$3~;
#X obj 175 328 pack 70 10 1 s;
#X obj 269 259 symbol \$4;
#X obj 176 248 t f f;
#X obj 175 301 + 10;
#X obj 175 225 - 1;
#X obj 210 301 + 50;
#X obj 210 279 * 20;
#X obj 41 190 + -1;
#X obj 175 279 * 10;
#X obj 38 150 t f f;
#X obj 283 61 t b f b b;
#X obj 71 262 + 3;
#X msg 39 354 connect 2 \$1 \$2 0;
#X msg 283 183 connect 1 0 2 0 \, connect 0 0 2 1;
#X msg 7 15 5;
#X obj 357 80 f \$0;
#X msg 356 101 obj 200 5 r~ \$1-encode~;
#X msg 322 129 obj 10 5 r \$1-encode;
#X obj 321 99 f \$0;
#X obj 322 16 inlet;
#X connect 0 0 6 0;
#X connect 1 0 17 0;
#X connect 1 1 13 2;
#X connect 1 2 14 0;
#X connect 2 0 4 0;
#X connect 2 1 24 0;
#X connect 3 0 9 0;
#X connect 4 0 25 0;
#X connect 7 0 22 0;
#X connect 9 0 7 0;
#X connect 9 1 23 0;
#X connect 9 2 0 0;
#X connect 10 0 8 0;
#X connect 11 0 2 0;
#X connect 12 0 5 0;
#X connect 13 0 12 0;
#X connect 14 0 13 3;
#X connect 15 0 21 0;
#X connect 15 1 19 0;
#X connect 16 0 13 0;
#X connect 17 0 15 0;
#X connect 18 0 13 1;
#X connect 19 0 18 0;
#X connect 20 0 11 0;
#X connect 21 0 16 0;
#X connect 22 0 20 0;
#X connect 22 1 1 0;
#X connect 23 0 26 0;
#X connect 23 1 10 0;
#X connect 23 2 31 0;
#X connect 23 3 28 0;
#X connect 24 0 4 1;
#X connect 25 0 5 0;
#X connect 26 0 8 0;
#X connect 27 0 9 0;
#X connect 28 0 29 0;
#X connect 29 0 8 0;
#X connect 30 0 8 0;
#X connect 31 0 30 0;
#X connect 32 0 0 0;
#X restore 295 231 pd contruct-ambibus;
#X obj 26 132 inlet~;
#X msg 207 176 zeros \$1 1;
#X obj 158 211 mtx;
#X obj 26 154 s~ \$0-encode~;
#X obj 210 311 s \$0-encode;
#X obj 443 236 bng 15 250 50 0 empty empty clear 17 7 0 10 -262144
-1 -1;
#X text 493 236 before save !;
#X obj 294 164 r /amb/encinit;
#X obj 295 188 amb/amb/n \$2 \$3;
#X text 26 257 (c) GPL - acre \, ritsch;
#X obj 433 198 bng 15 250 50 0 empty empty empty 17 7 0 10 -262144
-1 -1;
#X text 453 198 reinit;
#X obj 345 98 amb/amb/weight \$1 \$2 \$3;
#X obj 345 72 r \$1/dist;
#X obj 17 57 r \$1/azimuth;
#X obj 161 58 r \$1/elevation;
#X floatatom 252 96 5 0 0 0 - - -, f 5;
#X obj 398 137 print yyyy;
#X msg 223 213 bang;
#X obj 231 267 list prepend 36 1;
#X obj 107 327 print mtx;
#X msg 147 107 0;
#X msg 207 112 0;
#X msg 433 58 1, f 9;
#X obj 352 305 print enc;
#X connect 0 0 6 0;
#X connect 0 0 28 0;
#X connect 4 0 7 0;
#X connect 5 0 6 0;
#X connect 6 0 8 0;
#X connect 6 0 24 0;
#X connect 9 0 3 1;
#X connect 11 0 12 0;
#X connect 12 0 5 0;
#X connect 12 0 3 0;
#X connect 14 0 12 0;
#X connect 16 0 0 2;
#X connect 16 0 21 0;
#X connect 17 0 16 0;
#X connect 18 0 0 0;
#X connect 19 0 0 1;
#X connect 22 0 6 0;
#X connect 25 0 0 0;
#X connect 26 0 0 1;
#X connect 27 0 16 0;
