#N canvas 1953 657 732 358 10;
#X obj 159 142 encode\$2 \$1 \$3;
#N canvas 196 107 491 791 \$0-encode 0;
#X obj 200 5 r~ 3306-encode~;
#X obj 10 5 r 3306-encode;
#X obj 10 30 mtx_*~ 16 1 50 __________________________________;
#X obj 10 50 s~ /musician/0-1~;
#X obj 20 70 s~ /musician/0-4~;
#X obj 30 90 s~ /musician/0-2~;
#X obj 40 110 s~ /musician/0-3~;
#X obj 50 130 s~ /musician/0-9~;
#X obj 60 150 s~ /musician/0-5~;
#X obj 70 170 s~ /musician/0-8~;
#X obj 80 190 s~ /musician/0-6~;
#X obj 90 210 s~ /musician/0-7~;
#X obj 100 230 s~ /musician/0-16~;
#X obj 110 250 s~ /musician/0-10~;
#X obj 120 270 s~ /musician/0-15~;
#X obj 130 290 s~ /musician/0-11~;
#X obj 140 310 s~ /musician/0-14~;
#X obj 150 330 s~ /musician/0-12~;
#X obj 160 350 s~ /musician/0-13~;
#X connect 0 0 2 1;
#X connect 1 0 2 0;
#X connect 2 0 3 0;
#X connect 2 1 4 0;
#X connect 2 2 5 0;
#X connect 2 3 6 0;
#X connect 2 4 7 0;
#X connect 2 5 8 0;
#X connect 2 6 9 0;
#X connect 2 7 10 0;
#X connect 2 8 11 0;
#X connect 2 9 12 0;
#X connect 2 10 13 0;
#X connect 2 11 14 0;
#X connect 2 12 15 0;
#X connect 2 13 16 0;
#X connect 2 14 17 0;
#X connect 2 15 18 0;
#X restore 25 215 pd \$0-encode;
#N canvas 527 265 835 463 contruct-ambibus 0;
#X msg 210 8 clear;
#X obj 175 204 t f f b;
#X obj 39 238 t f f;
#X obj 41 15 inlet;
#X obj 37 296 pack 0 1;
#X obj 37 404 s pd-\$0-encode;
#X obj 210 28 s pd-\$0-encode;
#X obj 38 127 acre/count_until;
#X obj 240 201 s pd-\$0-encode;
#X obj 40 40 t f f b;
#X msg 263 151 obj 10 30 mtx_*~ \$1 1 50 __________________________________
;
#X obj 39 216 * 1;
#X obj 173 345 pack 70 10 1 s;
#X obj 278 252 symbol \$4;
#X obj 176 248 t f f;
#X obj 175 301 + 10;
#X obj 175 225 - 1;
#X obj 210 301 + 50;
#X obj 210 279 * 20;
#X obj 41 190 + -1;
#X obj 175 279 * 10;
#X obj 38 150 t f f;
#X obj 241 53 t b f b b;
#X obj 71 262 + 3;
#X msg 37 372 connect 2 \$1 \$2 0;
#X msg 241 175 connect 1 0 2 0 \, connect 0 0 2 1;
#X msg 7 15 5;
#X obj 315 72 f \$0;
#X msg 314 93 obj 200 5 r~ \$1-encode~;
#X msg 280 121 obj 10 5 r \$1-encode;
#X obj 279 91 f \$0;
#X obj 322 16 inlet;
#X obj 248 294 tabread \$1-channel-order;
#X obj 249 275 - 1;
#X obj 248 315 + 1;
#X msg 172 371 obj \$1 \$2 s~ \$4-\$3~;
#X connect 0 0 6 0;
#X connect 1 0 16 0;
#X connect 1 1 33 0;
#X connect 1 2 13 0;
#X connect 2 0 4 0;
#X connect 2 1 23 0;
#X connect 3 0 9 0;
#X connect 4 0 24 0;
#X connect 7 0 21 0;
#X connect 9 0 7 0;
#X connect 9 1 22 0;
#X connect 9 2 0 0;
#X connect 10 0 8 0;
#X connect 11 0 2 0;
#X connect 12 0 35 0;
#X connect 13 0 12 3;
#X connect 14 0 20 0;
#X connect 14 1 18 0;
#X connect 15 0 12 0;
#X connect 16 0 14 0;
#X connect 17 0 12 1;
#X connect 18 0 17 0;
#X connect 19 0 11 0;
#X connect 20 0 15 0;
#X connect 21 0 19 0;
#X connect 21 1 1 0;
#X connect 22 0 25 0;
#X connect 22 1 10 0;
#X connect 22 2 30 0;
#X connect 22 3 27 0;
#X connect 23 0 4 1;
#X connect 24 0 5 0;
#X connect 25 0 8 0;
#X connect 26 0 9 0;
#X connect 27 0 28 0;
#X connect 28 0 8 0;
#X connect 29 0 8 0;
#X connect 30 0 29 0;
#X connect 31 0 0 0;
#X connect 32 0 34 0;
#X connect 33 0 32 0;
#X connect 34 0 12 2;
#X connect 35 0 5 0;
#X restore 315 184 pd contruct-ambibus;
#X obj 26 132 inlet~;
#X msg 207 176 zeros \$1 1;
#X obj 158 211 mtx;
#X obj 26 154 s~ \$0-encode~;
#X obj 158 239 s \$0-encode;
#X obj 430 165 bng 15 250 50 0 empty empty clear 17 7 0 10 -262144
-1 -1;
#X text 447 174 before save !;
#X obj 304 59 r /amb/encinit;
#X obj 305 83 amb/amb/n \$2 \$3;
#X text 26 257 (c) GPL - acre \, ritsch;
#X obj 437 55 bng 15 250 50 0 empty empty empty 17 7 0 10 -262144 -1
-1;
#X text 457 58 reinit;
#X obj 528 115 amb/amb/weight \$1 \$2 \$3;
#X obj 528 89 r \$1/dist;
#X obj 17 57 r \$1/azimuth;
#X obj 207 58 r \$1/elevation;
#X msg 191 210 bang;
#X msg 177 102 0;
#X obj 365 144 amb/amb/channel_order_table \$1 \$5;
#X text 377 121 default is SID;
#X obj 304 279 s \$1/weightinit;
#X obj 304 103 t b f f b b;
#X text 23 4 amb/spat/dsp~ <ch id> <dimen> <order> <ambisonic signal
ID> [channel order: 0=SID \, 1=ACN \, 2=FUMA], f 101;
#X obj 27 294 outlet~;
#X text 37 275 for order forcing if needed;
#X connect 0 0 5 0;
#X connect 3 0 6 0;
#X connect 4 0 5 0;
#X connect 5 0 7 0;
#X connect 8 0 2 1;
#X connect 10 0 11 0;
#X connect 11 0 24 0;
#X connect 13 0 11 0;
#X connect 15 0 0 2;
#X connect 16 0 15 0;
#X connect 17 0 0 0;
#X connect 18 0 0 1;
#X connect 19 0 5 0;
#X connect 20 0 0 1;
#X connect 20 0 0 0;
#X connect 24 0 23 0;
#X connect 24 1 2 0;
#X connect 24 2 4 0;
#X connect 24 3 20 0;
#X connect 24 4 21 0;
