#N canvas 607 787 536 228 10;
#X obj 57 207 outlet;
#X obj 58 163 ambi_encode \$2;
#X text 27 37 amb/encode3D <order> <ch-id>;
#X obj 62 93 t b f;
#X obj 59 141 pack 0 0;
#X obj 57 57 inlet azimuth;
#X obj 168 59 inlet elevation;
#X obj 303 81 pp ambi_weight;
#X obj 304 60 inlet weight;
#X obj 58 186 round_zero 1e-06;
#X connect 1 0 9 0;
#X connect 3 0 4 0;
#X connect 3 1 4 1;
#X connect 4 0 1 0;
#X connect 5 0 3 0;
#X connect 6 0 4 0;
#X connect 7 0 1 0;
#X connect 8 0 7 0;
#X connect 9 0 0 0;
