#N canvas 213 365 486 228 10;
#X text 37 16 amb/encode2D <order> <ch-id>;
#X obj 35 154 outlet;
#X obj 35 129 ambi_encode \$2;
#X obj 38 52 inlet azimuth;
#X obj 288 44 inlet dist;
#X obj 281 91 pp ambi_weight;
#X obj 149 52 inlet elevation;
#X connect 2 0 1 0;
#X connect 3 0 2 0;
#X connect 4 0 5 0;
#X connect 5 0 2 0;
