#N canvas 1246 595 780 333 10;
#X obj 159 162 encode\$2 \$1 \$3;
#N canvas 1098 753 835 463 contruct-ambibus 1;
#X msg 210 8 clear;
#X obj 175 204 t f f b;
#X obj 39 238 t f f;
#X obj 41 15 inlet;
#X obj 37 296 pack 0 1;
#X obj 38 127 acre/count_until;
#X obj 40 40 t f f b;
#X obj 39 216 * 1;
#X obj 173 365 pack 70 10 1 s;
#X obj 278 252 symbol \$4;
#X obj 176 248 t f f;
#X obj 175 225 - 1;
#X obj 210 279 * 20;
#X obj 41 190 + -1;
#X obj 38 150 t f f;
#X obj 71 262 + 3;
#X msg 7 15 5;
#X obj 276 78 f \$0;
#X obj 299 4 inlet;
#X obj 248 294 tabread \$1-channel-order;
#X obj 249 275 - 1;
#X obj 248 315 + 1;
#X obj 210 28 s pd-\$0-decode;
#X obj 267 206 s pd-\$0-decode;
#X obj 41 417 s pd-\$0-decode;
#X msg 172 391 obj \$1 \$2 r~ \$4-\$3~;
#X msg 39 354 connect \$2 0 2 \$1;
#X msg 277 101 obj 10 5 r \$1-decode;
#X msg 268 180 connect 1 0 2 0 \, connect 2 0 0 0;
#X obj 383 62 pack 500 \$0;
#X obj 241 53 t b f b f;
#X obj 342 19 * 20;
#X msg 381 88 obj 10 \$1 s~ \$2-decode~;
#X obj 272 128 pack 5 500;
#X msg 278 152 obj 10 \$2 mtx_*~ 1 \$1 50 __________________________________
;
#X obj 211 302 + 30;
#X obj 380 38 + 70;
#X obj 340 52 + 50;
#X obj 175 301 + 30;
#X obj 176 279 * 15;
#X connect 0 0 22 0;
#X connect 1 0 11 0;
#X connect 1 1 20 0;
#X connect 1 2 9 0;
#X connect 2 0 4 0;
#X connect 2 1 15 0;
#X connect 3 0 6 0;
#X connect 4 0 26 0;
#X connect 5 0 14 0;
#X connect 6 0 5 0;
#X connect 6 1 30 0;
#X connect 6 2 0 0;
#X connect 7 0 2 0;
#X connect 8 0 25 0;
#X connect 9 0 8 3;
#X connect 10 0 39 0;
#X connect 10 1 12 0;
#X connect 11 0 10 0;
#X connect 12 0 35 0;
#X connect 13 0 7 0;
#X connect 14 0 13 0;
#X connect 14 1 1 0;
#X connect 15 0 4 1;
#X connect 16 0 6 0;
#X connect 17 0 27 0;
#X connect 18 0 0 0;
#X connect 19 0 21 0;
#X connect 20 0 19 0;
#X connect 21 0 8 2;
#X connect 25 0 24 0;
#X connect 26 0 24 0;
#X connect 27 0 23 0;
#X connect 28 0 23 0;
#X connect 29 0 32 0;
#X connect 30 0 28 0;
#X connect 30 1 33 0;
#X connect 30 2 17 0;
#X connect 30 3 31 0;
#X connect 31 0 36 0;
#X connect 31 0 37 0;
#X connect 32 0 23 0;
#X connect 33 0 34 0;
#X connect 34 0 23 0;
#X connect 35 0 8 1;
#X connect 36 0 29 0;
#X connect 37 0 33 1;
#X connect 38 0 8 0;
#X connect 39 0 38 0;
#X restore 319 204 pd contruct-ambibus;
#X obj 158 231 mtx;
#X obj 430 185 bng 15 250 50 0 empty empty clear 17 7 0 10 #fcfcfc
#000000 #000000;
#X text 447 194 before save !;
#X obj 304 79 r /amb/encinit;
#X obj 305 103 amb/amb/n \$2 \$3;
#X text 26 277 (c) GPL - acre \, ritsch;
#X obj 437 75 bng 15 250 50 0 empty empty empty 17 7 0 10 #fcfcfc #000000
#000000;
#X text 457 78 reinit;
#X obj 528 135 amb/amb/weight \$1 \$2 \$3;
#X obj 528 109 r \$1/dist;
#X obj 17 77 r \$1/azimuth;
#X obj 207 78 r \$1/elevation;
#X msg 191 230 bang;
#X msg 160 135 0;
#X obj 367 164 amb/amb/channel_order_table \$1 \$5;
#X text 377 141 default is SID;
#X obj 304 227 s \$1/weightinit;
#X obj 304 123 t b f f b b;
#X text 29 35 Note: signals are throw~n at ambisonic bus \, which needs
catch~es \, for send~s see amb/spat/dsp~, f 68;
#X obj 255 278 outlet~;
#X text 9 110 for order forcing if needed;
#X text 328 277 Note since of s~ \, r~ \, on buffer delay !;
#N canvas 576 354 483 498 \$0-decode 0;
#X restore 20 191 pd \$0-decode;
#X msg 207 196 zeros 1 \$1;
#X obj 9 132 inlet~;
#X text 18 12 amb/spat/mic~ <ch id> <dimen> <order> <ambisonic bus
ID> [channel order: 0=SID \, 1=ACN \, 2=FUMA], f 101;
#X obj 158 259 s \$0-decode;
#X obj 256 251 r~ \$0-decode~;
#X connect 0 0 2 0;
#X connect 2 0 28 0;
#X connect 3 0 1 1;
#X connect 5 0 6 0;
#X connect 6 0 19 0;
#X connect 8 0 6 0;
#X connect 10 0 0 2;
#X connect 11 0 10 0;
#X connect 12 0 0 0;
#X connect 13 0 0 1;
#X connect 14 0 2 0;
#X connect 15 0 0 1;
#X connect 15 0 0 0;
#X connect 19 0 18 0;
#X connect 19 1 1 0;
#X connect 19 2 25 0;
#X connect 19 3 15 0;
#X connect 19 4 16 0;
#X connect 25 0 2 0;
#X connect 29 0 21 0;
