#N canvas 536 73 404 300 10;
#X obj 86 119 metro 100;
#X obj 86 164 f 0;
#X obj 168 157 + 1;
#X obj 168 133 r \$1/azimuth;
#X obj 141 91 r /mxr/fadetime;
#X text 94 268 (c) GPL \, acre winfried ritsch;
#X text 92 31 simple rotate around z-axis;
#X text 86 10 spat/rotz_ctl <channel ID>;
#X obj 85 220 s \$1/azimuth;
#X obj 84 65 r \$1/azimuth/rotz;
#X obj 209 155 r \$1/azimuth/rotz/incr;
#X obj 166 181 moses 360;
#X obj 227 206 - 360;
#X connect 0 0 1 0;
#X connect 1 0 8 0;
#X connect 2 0 11 0;
#X connect 3 0 2 0;
#X connect 4 0 0 1;
#X connect 9 0 0 0;
#X connect 10 0 2 1;
#X connect 11 0 1 1;
#X connect 11 1 12 0;
#X connect 12 0 1 1;
#X coords 0 300 1 299 100 50 0;
