#N canvas 1325 455 591 483 10;
#X obj 55 105 bng 15 250 50 0 empty empty empty 17 7 0 10 -262144 -1
-1;
#X obj 173 164 bng 15 250 50 0 empty empty empty 17 7 0 10 -262144
-1 -1;
#X text 194 164 clear before save !;
#X obj 31 84 r /amb/businit;
#X obj 172 109 max 1;
#X text 73 108 reconstruct;
#X obj 172 87 r \$1/channels;
#X text 170 68 dyn set channel count;
#X text 28 403 (c) GPL - acre \, ritsch;
#X obj 31 217 acre/count_until \$2;
#N canvas 73 805 306 562 \$0-dsp-spats 0;
#X restore 31 56 pd \$0-dsp-spats;
#N canvas 618 176 886 452 contruct-spats 0;
#X msg 156 150 clear;
#X obj 81 15 bng 15 250 50 0 empty empty empty 17 7 0 10 -262144 -1
-1;
#X obj 37 15 inlet;
#X obj 108 220 t f f b;
#X obj 160 16 inlet;
#X obj 33 100 i \$2;
#X obj 33 126 t f b;
#X obj 33 175 acre/count_until;
#X obj 145 245 + 0;
#X obj 182 243 symbol \$1;
#X obj 236 100 i \$7;
#X obj 109 378 s pd-\$0-dsp-spats;
#X obj 156 174 s pd-\$0-dsp-spats;
#X obj 107 284 pack 10 1 s;
#X obj 109 303 list append \$3 \$4 \$5 \$6;
#X obj 33 196 t f f f;
#X obj 353 245 t f f b;
#X obj 390 270 + 0;
#X obj 353 376 s pd-\$0-dsp-spats;
#X obj 354 307 pack 10 1 s;
#X obj 427 268 symbol \$3;
#X obj 353 269 * 40;
#X obj 108 244 * 40;
#X obj 108 265 + 20;
#X obj 33 381 pack 0 1;
#X obj 33 421 s pd-\$0-dsp-spats;
#X obj 33 316 * 2;
#X obj 33 337 t f f;
#X obj 33 358 + 1;
#X msg 33 401 connect \$2 0 \$1 0;
#X obj 36 246 - 1;
#X msg 354 358 obj 10 \$1 r~ \$3-\$2~;
#X text 264 146 BUS offset;
#X msg 108 357 obj 10 \$1 amb/spat/ch~ \$3-\$2 \$5 \$6 \$7 \$8;
#X obj 109 328 list append \$8;
#X obj 236 122 max 0;
#X obj 236 144 + 0;
#X obj 55 77 bng 15 250 50 0 empty empty empty 17 7 0 10 -262144 -1
-1;
#X obj 37 36 t a b;
#X obj 98 100 i \$8;
#X connect 0 0 12 0;
#X connect 1 0 38 0;
#X connect 2 0 38 0;
#X connect 3 0 22 0;
#X connect 3 1 8 0;
#X connect 3 2 9 0;
#X connect 4 0 0 0;
#X connect 5 0 6 0;
#X connect 6 0 7 0;
#X connect 6 1 0 0;
#X connect 7 0 15 0;
#X connect 8 0 13 1;
#X connect 9 0 13 2;
#X connect 10 0 35 0;
#X connect 13 0 14 0;
#X connect 14 0 34 0;
#X connect 15 0 30 0;
#X connect 15 1 3 0;
#X connect 15 2 16 0;
#X connect 16 0 21 0;
#X connect 16 1 17 0;
#X connect 16 2 20 0;
#X connect 17 0 19 1;
#X connect 19 0 31 0;
#X connect 20 0 19 2;
#X connect 21 0 19 0;
#X connect 22 0 23 0;
#X connect 23 0 13 0;
#X connect 24 0 29 0;
#X connect 26 0 27 0;
#X connect 27 0 28 0;
#X connect 27 1 24 1;
#X connect 28 0 24 0;
#X connect 29 0 25 0;
#X connect 30 0 26 0;
#X connect 31 0 18 0;
#X connect 33 0 11 0;
#X connect 34 0 33 0;
#X connect 35 0 36 0;
#X connect 36 0 17 1;
#X connect 37 0 5 0;
#X connect 38 0 5 0;
#X connect 38 1 10 0;
#X connect 38 1 39 0;
#X connect 39 0 34 1;
#X restore 61 186 pd contruct-spats;
#X obj 56 296 symbol \$1;
#X obj 31 242 t f b f f;
#X obj 28 321 pack 0 s 0;
#X obj 142 297 * 15;
#X msg 163 243 360 \$1;
#X obj 163 219 i \$2;
#X obj 163 264 /;
#X obj 31 123 t b b b;
#X msg 28 341 \; \$2-\$1/azimuth \$3 \; \$2-\$1/elevation 0 \; \$2-\$1/dist
1;
#X text 25 25 create a set of spats from a bus in with optional offset
;
#X text 24 4 amb/spat/spats~ <ID> <nr channels> <bus ID> <AMBI bus>
<dimen> <order> [in offset] [ch order], f 93;
#X connect 0 0 19 0;
#X connect 1 0 11 1;
#X connect 3 0 19 0;
#X connect 4 0 11 0;
#X connect 6 0 4 0;
#X connect 9 0 13 0;
#X connect 12 0 14 1;
#X connect 13 0 14 0;
#X connect 13 1 12 0;
#X connect 13 3 15 0;
#X connect 14 0 20 0;
#X connect 15 0 14 2;
#X connect 16 0 18 0;
#X connect 17 0 16 0;
#X connect 18 0 15 1;
#X connect 19 0 9 0;
#X connect 19 1 11 0;
#X connect 19 2 17 0;
