#N canvas 850 349 859 586 10;
#X declare -lib iemlib1;
#X declare -stdpath iemlib;
#X declare -lib iemlib2;
#X declare -lib iemmatrix;
#X declare -lib iem_ambi;
#X declare -path iemlib;
#X declare -lib Gem;
#X declare -stdpath iemmatrix;
#X declare -path iemmatrix;
#X declare -lib zexy;
#X declare -lib iemmatrix/mtx_mul~;
#X declare -lib iemmatrix/mtx_add;
#X declare -lib iemmatrix/mtx_mul;
#X declare -lib iemmatrix/mtx_0x210x3d;
#X declare -lib iemmatrix/mtx_0x21;
#X declare -lib iemmatrix/mtx_0x260x26;
#X declare -lib iemmatrix/mtx_0x26;
#X declare -lib iemmatrix/mtx_0x2a0x7e;
#X declare -lib iemmatrix/mtx_0x2a;
#X declare -lib iemmatrix/mtx_0x2b;
#X declare -lib iemmatrix/mtx_0x2d;
#X declare -lib iemmatrix/mtx_0x2e0x2a;
#X declare -lib iemmatrix/mtx_0x2e0x2f;
#X declare -lib iemmatrix/mtx_0x2e0x5e;
#X declare -lib iemmatrix/mtx_0x2f;
#X declare -lib iemmatrix/mtx_0x3a;
#X declare -lib iemmatrix/mtx_0x3c0x3c;
#X declare -lib iemmatrix/mtx_0x3c0x3d;
#X declare -lib iemmatrix/mtx_0x3c;
#X declare -lib iemmatrix/mtx_0x3d0x3d;
#X declare -lib iemmatrix/mtx_0x3e0x3d;
#X declare -lib iemmatrix/mtx_0x3e0x3e;
#X declare -lib iemmatrix/mtx_0x3e;
#X declare -lib iemmatrix/mtx_0x7c0x7c;
#X declare -lib iemmatrix/mtx_0x7c;
#X declare -path vi;
#X obj 20 21 encoder;
#X obj 168 360 vradio 15 1 0 3 weighting weighting weighting 0 -8 0
10 -262144 -1 -1 1;
#X text 190 359 no;
#X text 187 372 max-re;
#X text 187 388 in-phase;
#X msg 550 80 destroy;
#N canvas 467 203 487 436 input 0;
#X obj 61 372 throw~ ch1;
#X obj 73 342 throw~ ch2;
#X obj 101 322 throw~ ch3;
#X obj 129 302 throw~ ch4;
#X obj 135 280 throw~ ch5;
#X obj 163 259 throw~ ch6;
#X obj 191 239 throw~ ch7;
#X obj 219 219 throw~ ch8;
#X obj 231 194 throw~ ch9;
#X obj 240 174 throw~ ch10;
#X obj 255 152 throw~ ch11;
#X obj 262 132 throw~ ch12;
#X obj 271 112 throw~ ch13;
#X obj 273 91 throw~ ch14;
#X obj 281 69 throw~ ch15;
#X obj 298 47 throw~ ch16;
#X obj 60 3 adc~ 1 2 3 4 5 6 7 8 9 10 11 12 13 14 15 16;
#X connect 16 0 0 0;
#X connect 16 1 1 0;
#X connect 16 2 2 0;
#X connect 16 3 3 0;
#X connect 16 4 4 0;
#X connect 16 5 5 0;
#X connect 16 6 6 0;
#X connect 16 7 7 0;
#X connect 16 8 8 0;
#X connect 16 9 9 0;
#X connect 16 10 10 0;
#X connect 16 11 11 0;
#X connect 16 12 12 0;
#X connect 16 13 13 0;
#X connect 16 14 14 0;
#X connect 16 15 15 0;
#X restore 88 20 pd input;
#X obj 469 74 tgl 15 0 empty empty empty 17 7 0 10 -262144 -1 -1 0
1;
#X obj 169 447 nbx 5 14 -1e+37 1e+37 0 0 lowpass lowpass lowpass 0
-8 0 10 -257985 -1 -1 0 256;
#X obj 171 477 nbx 5 14 -1e+37 1e+37 0 0 highpass highpass highpass
0 -8 0 10 -159808 -1 -1 0 256;
#X obj 17 300 vsl 15 128 -20 40 0 0 rms-gain rms-gain rms 0 -9 0 10
-262144 -1 -1 7665 1;
#X text 169 413 FILTER;
#X msg 618 326 \; pd dsp \$1 \;;
#X obj 618 305 tgl 15 0 empty empty empty 17 7 0 10 -262144 -1 -1 1
1;
#X obj 167 323 nbx 5 14 0 1 0 0 sphere-alpha sphere-alpha sphere-alpha
0 -8 0 10 -262144 -1 -1 0.51 256;
#X obj 168 274 tgl 25 0 freeze freeze freeze 17 7 0 10 -257985 -1 -1
1 1;
#X text 224 274 (free dsp power);
#X text 217 414 (4th order);
#X text 229 444 high cut;
#X text 228 475 low cut;
#N canvas 610 162 799 521 texture-gemheads 0;
#X obj 22 55 gemhead;
#X obj 22 147 gemframebuffer;
#X obj 99 34 loadbang;
#X obj 22 209 translateXYZ 0 0 -4;
#X obj 50 269 s gemhead_rect;
#X obj 171 299 pix_texture;
#X obj 354 239 pix_texture;
#X obj 354 80 alpha;
#N canvas 0 50 450 300 ortho-man 0;
#X obj 212 24 ortho 0;
#X obj 157 3 tgl 15 0 empty empty empty 17 7 0 10 -262144 -1 -1 1 1
;
#X obj 55 40 ortho 0;
#X msg 291 -10 compat \$1;
#X obj 291 -30 tgl 15 1 empty empty empty 0 -6 0 8 -262144 -1 -1 0
1;
#X msg 157 -24 1;
#X msg 291 -53 0;
#X obj 157 -58 loadbang;
#X obj 61 -63 inlet;
#X obj 57 80 outlet;
#X connect 1 0 0 0;
#X connect 1 0 2 0;
#X connect 2 0 9 0;
#X connect 3 0 0 0;
#X connect 3 0 2 0;
#X connect 4 0 3 0;
#X connect 5 0 1 0;
#X connect 6 0 4 0;
#X connect 7 0 5 0;
#X connect 7 0 6 0;
#X connect 8 0 2 0;
#X restore 354 59 pd ortho-man;
#X obj 171 348 rectangle 4 1.5;
#X obj 171 245 translateXYZ 0 -2 0;
#X obj 354 4 tgl 15 0 empty empty empty 17 7 0 10 -262144 -1 -1 0 1
;
#X obj 354 35 gemhead 20;
#X obj 354 114 translateXYZ 0 1.7 0;
#X msg 102 98 color 1 1 1 1;
#X obj 383 138 r gemmousex;
#X obj 413 156 r gemmousey;
#X obj 354 192 rotateXYZ 0 0 0;
#X obj 354 333 color 1 1 1 0.8;
#X msg 441 311 1 1 1 \$1;
#X floatatom 463 84 5 0 0 0 - - -, f 5;
#X floatatom 402 87 5 0 0 0 - - -, f 5;
#X obj 22 235 t a a;
#X text 58 360 get blobs;
#N canvas 120 77 536 571 BLOB-TRACKING 0;
#X obj 29 42 t b a;
#X obj 29 74 spigot 0;
#X obj 74 52 tgl 15 0 empty empty empty 17 7 0 10 -262144 -1 -1 0 1
;
#X obj 29 107 pix_snap 0 0 25 10;
#X floatatom 163 147 3 0 100 2 threshold - -, f 3;
#X obj 163 164 / 100;
#X msg 163 185 threshold \$1;
#X floatatom 253 147 3 0 100 2 blobsize - -, f 3;
#X obj 253 164 / 100;
#X msg 253 185 blobSize \$1;
#X obj 32 412 gemframebuffer;
#X obj 101 299 loadbang;
#X obj 116 251 s multiblob;
#X msg 40 503 draw line;
#X obj 226 276 r multiblob;
#X obj 226 372 matrix;
#X obj 226 305 t b a;
#X obj 226 395 unpack 0 0 0;
#X obj 326 481 pix_texture;
#X obj 32 446 color 1 1 1 1;
#X floatatom 224 486 5 0 0 0 - - -, f 5;
#X floatatom 261 484 5 0 0 0 - - -, f 5;
#X obj 326 503 rectangle 1 0.5;
#X obj 326 449 translateXYZ 2.5 3.2 0;
#X floatatom 118 497 5 0 0 0 - - -, f 5;
#X obj 32 288 tgl 15 0 empty empty empty 17 7 0 10 -262144 -1 -1 0
1;
#X obj 32 479 translateXYZ 0 0 -4;
#X msg 101 332 dimen 500 200;
#X msg 112 362 color 0 0 0 0;
#X obj 32 352 alpha;
#X text 133 317 25x10 x20;
#X obj 337 377 print;
#X obj 32 528 circle 1;
#X obj 260 422 * 8;
#X obj 225 445 - 4;
#X obj 260 443 - 4;
#X obj 32 320 gemhead 22;
#X obj 191 240 mtx_print;
#X obj 29 221 pix_multiblob 4;
#X obj 326 413 gemhead 25;
#X obj 29 143 pix_grey;
#X msg 226 337 row 1;
#X msg 232 112 40;
#X msg 191 111 20;
#X obj 31 7 inlet;
#X obj 213 66 loadbang;
#X obj 121 438 s frame-blob;
#X obj 225 423 * 8;
#X obj 29 181 pix_movement 0.2;
#X obj 140 519 * 20;
#X obj 32 268 r blob;
#X obj 74 30 r blob;
#X obj 402 481 r frame-blob;
#X connect 0 0 1 0;
#X connect 0 1 3 0;
#X connect 1 0 3 0;
#X connect 2 0 1 1;
#X connect 3 0 40 0;
#X connect 4 0 5 0;
#X connect 5 0 6 0;
#X connect 6 0 38 0;
#X connect 7 0 8 0;
#X connect 8 0 9 0;
#X connect 9 0 38 0;
#X connect 10 0 19 0;
#X connect 10 1 46 0;
#X connect 11 0 27 0;
#X connect 11 0 28 0;
#X connect 11 0 13 0;
#X connect 13 0 32 0;
#X connect 14 0 16 0;
#X connect 15 0 17 0;
#X connect 16 0 41 0;
#X connect 16 1 15 1;
#X connect 17 0 47 0;
#X connect 17 1 33 0;
#X connect 17 2 49 0;
#X connect 18 0 22 0;
#X connect 19 0 26 0;
#X connect 23 0 18 0;
#X connect 24 0 32 1;
#X connect 25 0 36 0;
#X connect 26 0 32 0;
#X connect 27 0 10 0;
#X connect 28 0 10 0;
#X connect 29 0 10 0;
#X connect 33 0 35 0;
#X connect 34 0 20 0;
#X connect 34 0 26 1;
#X connect 35 0 21 0;
#X connect 35 0 26 2;
#X connect 36 0 29 0;
#X connect 38 1 12 0;
#X connect 40 0 48 0;
#X connect 41 0 15 0;
#X connect 42 0 7 0;
#X connect 43 0 4 0;
#X connect 44 0 0 0;
#X connect 45 0 43 0;
#X connect 45 0 42 0;
#X connect 47 0 34 0;
#X connect 48 0 38 0;
#X connect 49 0 32 1;
#X connect 50 0 25 0;
#X connect 51 0 2 0;
#X connect 52 0 18 1;
#X restore 22 400 pd BLOB-TRACKING;
#X obj 651 35 r frame-blob;
#X obj 187 167 tgl 15 0 empty empty empty 17 7 0 10 -262144 -1 -1 1
1;
#X text 381 12 sphere with texture;
#X obj 579 283 pix_texture;
#X obj 579 145 alpha;
#N canvas 0 50 450 300 ortho-man 0;
#X obj 212 24 ortho 0;
#X obj 157 3 tgl 15 0 empty empty empty 17 7 0 10 -262144 -1 -1 1 1
;
#X obj 55 40 ortho 0;
#X msg 291 -10 compat \$1;
#X obj 291 -30 tgl 15 1 empty empty empty 0 -6 0 8 -262144 -1 -1 0
1;
#X msg 157 -24 1;
#X msg 291 -53 0;
#X obj 157 -58 loadbang;
#X obj 61 -63 inlet;
#X obj 57 80 outlet;
#X connect 1 0 0 0;
#X connect 1 0 2 0;
#X connect 2 0 9 0;
#X connect 3 0 0 0;
#X connect 3 0 2 0;
#X connect 4 0 3 0;
#X connect 5 0 1 0;
#X connect 6 0 4 0;
#X connect 7 0 5 0;
#X connect 7 0 6 0;
#X connect 8 0 2 0;
#X restore 579 124 pd ortho-man;
#X obj 579 69 tgl 15 0 empty empty empty 17 7 0 10 -262144 -1 -1 0
1;
#X obj 579 100 gemhead 20;
#X obj 579 179 translateXYZ 0 1.7 0;
#X obj 608 203 r gemmousex;
#X obj 643 221 r gemmousey;
#X obj 579 257 rotateXYZ 0 0 0;
#X obj 666 300 r tex-alpha;
#X msg 666 326 1 1 1 \$1;
#X floatatom 688 149 5 0 0 0 - - -, f 5;
#X floatatom 627 152 5 0 0 0 - - -, f 5;
#X obj 579 370 sphere 2 100;
#X obj 700 258 r frame-blob;
#X obj 579 348 color 1 1 1 1;
#X obj 579 45 r blob;
#X text 606 77 sphere with blob texture;
#X msg 91 67 dimen 40 15;
#X obj 233 399 r setSpherical;
#X obj 233 444 spigot 0;
#N canvas 1897 715 450 300 switch 0;
#X obj 39 28 inlet;
#X obj 54 125 outlet;
#X obj 125 27 inlet;
#X obj 281 23 inlet;
#X obj 39 61 spigot 0;
#X obj 125 60 spigot 1;
#X obj 245 56 == 0;
#X connect 0 0 4 0;
#X connect 2 0 5 0;
#X connect 3 0 4 1;
#X connect 3 0 6 0;
#X connect 4 0 1 0;
#X connect 5 0 1 0;
#X connect 6 0 5 1;
#X restore 354 307 pd switch;
#X obj 405 266 r show-texture;
#X obj 441 289 r sphere-alpha;
#X obj 278 421 r directional-plot;
#X obj 295 481 sphere3d 2 40 15;
#N canvas 1897 715 450 300 switch2 0;
#X obj 39 28 inlet;
#X obj 54 125 outlet;
#X obj 281 23 inlet;
#X obj 39 61 spigot 0;
#X obj 125 60 spigot 1;
#X obj 245 56 == 0;
#X obj 142 125 outlet;
#X connect 0 0 3 0;
#X connect 0 0 4 0;
#X connect 2 0 3 1;
#X connect 2 0 5 0;
#X connect 3 0 1 0;
#X connect 4 0 6 0;
#X connect 5 0 4 1;
#X restore 354 360 pd switch2;
#X obj 423 396 sphere 2 100;
#X text 391 453 resolution/2 offset;
#X obj 295 457 rotateXYZ 0 0 87;
#X obj 95 174 s tex-plain;
#X obj 124 453 circle 1;
#X obj 124 420 scaleXYZ 3 1 1;
#X obj 201 122 r mollweide-proj;
#X obj 201 145 == 0;
#X text 206 165 texture;
#N canvas 552 50 617 677 mollweide-shader 0;
#X obj 84 392 glsl_program;
#X obj 157 291 pack 0 0;
#X obj 178 271 t b f;
#X obj 178 226 change;
#X obj 156 131 change;
#X msg 157 314 link \$1 \$2;
#X floatatom 178 252 2 0 0 0 ID - -, f 2;
#X floatatom 156 154 2 0 0 0 ID - -, f 2;
#X obj 84 206 glsl_fragment;
#X obj 84 112 glsl_vertex;
#X obj 134 69 bng 15 250 50 0 empty empty empty 0 -6 0 8 -262144 -1
-1;
#X obj 84 34 alpha;
#X obj 205 487 tgl 15 0 empty empty empty 17 7 0 10 -262144 -1 -1 0
1;
#X floatatom 371 362 5 0 0 0 - - -, f 5;
#X floatatom 486 363 5 0 0 0 - - -, f 5;
#X msg 205 465 0;
#N canvas 0 50 450 300 load_shader 0;
#X obj 89 99 t b b;
#X msg 119 126 0;
#X obj 89 154 outlet;
#X obj 89 71 gemhead 1;
#X connect 0 0 2 0;
#X connect 0 1 1 0;
#X connect 1 0 3 0;
#X connect 3 0 0 0;
#X restore 134 48 pd load_shader;
#N canvas 0 50 450 300 init_shader 0;
#X obj 89 154 outlet;
#X obj 89 45 inlet;
#X obj 89 73 change;
#X obj 89 100 t b;
#X connect 1 0 2 0;
#X connect 2 0 3 0;
#X connect 3 0 0 0;
#X restore 165 415 pd init_shader;
#X obj 205 444 loadbang;
#X text 426 361 <- 2;
#X msg 371 383 K1 \$1;
#X msg 371 337 1;
#X msg 486 385 seed \$1;
#X msg 205 507 rectangle \$1;
#X msg 95 176 open T_mollweide.frag;
#X msg 98 90 open T_mollweide.vert;
#X obj 300 512 r tex-plain;
#X obj 84 9 gemhead 10;
#X obj 84 547 pix_texture;
#X obj 84 493 translateXYZ 0 -2 0;
#X obj 84 601 rectangle 4 1.5;
#X obj 83 -16 tgl 15 0 empty empty empty 17 7 0 10 -262144 -1 -1 0
1;
#X obj 83 -36 r mollweide-proj;
#X obj 84 577 scaleXYZ -1 1 1;
#X connect 0 0 29 0;
#X connect 0 1 17 0;
#X connect 1 0 5 0;
#X connect 2 0 1 0;
#X connect 2 1 1 1;
#X connect 3 0 6 0;
#X connect 4 0 7 0;
#X connect 5 0 0 0;
#X connect 6 0 2 0;
#X connect 7 0 1 0;
#X connect 8 0 0 0;
#X connect 8 1 3 0;
#X connect 9 0 8 0;
#X connect 9 1 4 0;
#X connect 10 0 25 0;
#X connect 10 0 24 0;
#X connect 11 0 9 0;
#X connect 12 0 23 0;
#X connect 13 0 20 0;
#X connect 14 0 22 0;
#X connect 15 0 12 0;
#X connect 16 0 10 0;
#X connect 17 0 21 0;
#X connect 18 0 15 0;
#X connect 20 0 0 0;
#X connect 21 0 13 0;
#X connect 22 0 0 0;
#X connect 23 0 28 0;
#X connect 24 0 8 0;
#X connect 25 0 9 0;
#X connect 26 0 28 1;
#X connect 27 0 11 0;
#X connect 28 0 33 0;
#X connect 29 0 28 0;
#X connect 31 0 27 0;
#X connect 32 0 31 0;
#X connect 33 0 30 0;
#X restore 201 96 pd mollweide-shader;
#X obj 171 194 gemhead 12;
#X obj 171 323 rotateXYZ 180 0 180;
#X connect 0 0 1 0;
#X connect 1 0 3 0;
#X connect 1 1 5 1;
#X connect 1 1 6 1;
#X connect 1 1 58 0;
#X connect 2 0 46 0;
#X connect 2 0 14 0;
#X connect 3 0 22 0;
#X connect 5 0 66 0;
#X connect 6 0 49 0;
#X connect 7 0 13 0;
#X connect 8 0 7 0;
#X connect 10 0 5 0;
#X connect 11 0 12 0;
#X connect 12 0 8 0;
#X connect 13 0 17 0;
#X connect 14 0 1 0;
#X connect 15 0 17 1;
#X connect 16 0 17 3;
#X connect 17 0 6 0;
#X connect 17 0 49 1;
#X connect 18 0 54 0;
#X connect 19 0 18 1;
#X connect 20 0 13 3;
#X connect 21 0 13 1;
#X connect 22 0 24 0;
#X connect 22 1 4 0;
#X connect 26 0 65 0;
#X connect 28 0 43 0;
#X connect 29 0 33 0;
#X connect 30 0 29 0;
#X connect 31 0 32 0;
#X connect 32 0 30 0;
#X connect 33 0 36 0;
#X connect 34 0 36 1;
#X connect 35 0 36 3;
#X connect 36 0 28 0;
#X connect 37 0 38 0;
#X connect 38 0 43 1;
#X connect 39 0 33 3;
#X connect 40 0 33 1;
#X connect 42 0 28 1;
#X connect 43 0 41 0;
#X connect 44 0 31 0;
#X connect 46 0 1 0;
#X connect 47 0 48 0;
#X connect 48 0 53 0;
#X connect 49 0 18 0;
#X connect 50 0 49 2;
#X connect 51 0 19 0;
#X connect 52 0 48 1;
#X connect 52 0 54 1;
#X connect 54 0 57 0;
#X connect 54 1 55 0;
#X connect 57 0 53 0;
#X connect 60 0 59 0;
#X connect 61 0 62 0;
#X connect 62 0 26 0;
#X connect 65 0 10 0;
#X connect 66 0 9 0;
#X restore 17 192 pd texture-gemheads;
#N canvas 1730 604 450 300 old 1;
#X obj 132 220 sphere 2 100;
#X obj 132 171 alpha;
#X obj 132 108 gemhead 10;
#N canvas 0 50 450 300 ortho-man 0;
#X obj 212 24 ortho 0;
#X obj 157 3 tgl 15 0 empty empty empty 17 7 0 10 -262144 -1 -1 1 1
;
#X obj 55 40 ortho 0;
#X msg 291 -10 compat \$1;
#X obj 291 -30 tgl 15 1 empty empty empty 0 -6 0 8 -262144 -1 -1 0
1;
#X msg 157 -24 1;
#X msg 291 -53 0;
#X obj 157 -58 loadbang;
#X obj 61 -63 inlet;
#X obj 57 80 outlet;
#X connect 1 0 0 0;
#X connect 1 0 2 0;
#X connect 2 0 9 0;
#X connect 3 0 0 0;
#X connect 3 0 2 0;
#X connect 4 0 3 0;
#X connect 5 0 1 0;
#X connect 6 0 4 0;
#X connect 7 0 5 0;
#X connect 7 0 6 0;
#X connect 8 0 2 0;
#X restore 132 149 pd ortho-man;
#X obj 132 192 color 1 1 1 0.8;
#X obj 132 89 tgl 15 0 empty empty empty 17 7 0 10 -262144 -1 -1 0
1;
#X obj 132 35 loadbang;
#X msg 132 65 0;
#X obj 132 128 translateXYZ 0 1.7 0;
#X connect 1 0 4 0;
#X connect 2 0 8 0;
#X connect 3 0 1 0;
#X connect 4 0 0 0;
#X connect 5 0 2 0;
#X connect 6 0 7 0;
#X connect 7 0 5 0;
#X connect 8 0 3 0;
#X restore 614 193 pd old;
#N canvas 175 225 401 461 GEM-STUFF 0;
#X obj 223 27 gemhead;
#X obj 223 49 world_light;
#N canvas 576 174 440 300 mouse-rotate 0;
#X obj 101 136 spigot;
#X obj 99 51 t f f;
#X obj 101 83 -;
#X obj 101 175 +;
#X obj 99 14 gemmouse 1 1;
#X obj 159 135 spigot;
#X obj 157 50 t f f;
#X obj 159 82 -;
#X obj 159 174 +;
#X obj 101 269 s gemmousex;
#X obj 189 246 s gemmousey;
#X obj 214 152 r gemmousey;
#X obj 15 141 r gemmousex;
#X obj 314 59 sel 1;
#X obj 311 83 t b b;
#X floatatom 68 209 5 0 0 0 - - -, f 5;
#X floatatom 194 204 5 0 0 0 - - -, f 5;
#X obj 325 24 r reset-view;
#X obj 159 104 * 100;
#X obj 101 105 * 100;
#X msg 292 116 90;
#X msg 344 110 180;
#X connect 0 0 3 0;
#X connect 1 0 2 1;
#X connect 1 1 2 0;
#X connect 2 0 19 0;
#X connect 3 0 15 0;
#X connect 3 0 9 0;
#X connect 4 0 6 0;
#X connect 4 1 1 0;
#X connect 4 2 0 1;
#X connect 4 2 5 1;
#X connect 4 3 13 0;
#X connect 4 4 13 0;
#X connect 5 0 8 0;
#X connect 6 0 7 1;
#X connect 6 1 7 0;
#X connect 7 0 18 0;
#X connect 8 0 10 0;
#X connect 8 0 16 0;
#X connect 11 0 8 1;
#X connect 12 0 3 1;
#X connect 13 0 14 0;
#X connect 14 0 20 0;
#X connect 14 1 21 0;
#X connect 17 0 14 0;
#X connect 18 0 5 0;
#X connect 19 0 0 0;
#X connect 20 0 9 0;
#X connect 21 0 10 0;
#X restore 49 15 pd mouse-rotate;
#X obj 48 153 cnv 15 220 210 empty empty empty 20 12 0 14 -24198 -66577
0;
#X obj 59 84 gemhead;
#X msg 65 272 1 1 1;
#X obj 58 341 tgl 15 0 empty empty empty 0 -6 0 8 -262144 -1 -1 0 1
;
#X msg 76 341 debug \$1;
#X floatatom 156 81 5 0 0 0 - - -, f 5;
#X msg 65 291 1 1 0;
#X obj 60 318 spot_light;
#X floatatom 74 167 5 0 0 1 linear_attenuation - -, f 5;
#X floatatom 126 204 5 0 0 2 cone_cutoff_angle - -, f 5;
#X floatatom 164 234 5 0 0 2 decay_at_edges - -, f 5;
#X obj 164 253 t b f;
#X obj 126 273 t b f;
#X text 66 255 color;
#X obj 59 106 rotateXYZ -33 0 0;
#X obj 124 293 pack 0 90 3;
#X obj 68 221 tgl 20 0 empty \$0-onoff empty 17 7 0 10 -262144 -1 -1
0 1;
#X floatatom 109 70 5 0 0 0 - - -, f 5;
#X floatatom 202 83 5 0 0 0 - - -, f 5;
#X obj 59 132 translateXYZ 0 0 -3;
#X connect 0 0 1 0;
#X connect 4 0 17 0;
#X connect 5 0 10 1;
#X connect 6 0 7 0;
#X connect 7 0 10 0;
#X connect 8 0 17 2;
#X connect 9 0 10 1;
#X connect 11 0 18 0;
#X connect 12 0 15 0;
#X connect 13 0 14 0;
#X connect 14 0 18 0;
#X connect 14 1 18 2;
#X connect 15 0 18 0;
#X connect 15 1 18 1;
#X connect 17 0 22 0;
#X connect 18 0 10 2;
#X connect 19 0 10 0;
#X connect 20 0 17 1;
#X connect 21 0 17 3;
#X connect 22 0 10 0;
#X restore 451 136 pd GEM-STUFF;
#N canvas 147 782 259 267 decoder-gemhead 0;
#X obj 63 78 alpha;
#N canvas 4 57 450 300 ortho-man 0;
#X obj 185 155 ortho 0;
#X obj 157 103 tgl 15 0 empty empty empty 17 7 0 10 -262144 -1 -1 1
1;
#X obj 55 140 ortho 0;
#X msg 291 90 compat \$1;
#X obj 291 70 tgl 15 1 empty empty empty 0 -6 0 8 -262144 -1 -1 0 1
;
#X msg 157 76 1;
#X msg 291 47 0;
#X obj 157 42 loadbang;
#X obj 61 37 inlet;
#X obj 57 180 outlet;
#X connect 1 0 0 0;
#X connect 1 0 2 0;
#X connect 2 0 9 0;
#X connect 3 0 0 0;
#X connect 3 0 2 0;
#X connect 4 0 3 0;
#X connect 5 0 1 0;
#X connect 6 0 4 0;
#X connect 7 0 5 0;
#X connect 7 0 6 0;
#X connect 8 0 2 0;
#X restore 63 57 pd ortho-man;
#X obj 63 207 s gemhead_decoder;
#X obj 63 17 tgl 15 0 empty empty empty 17 7 0 10 -262144 -1 -1 0 1
;
#X obj 63 36 gemhead 5;
#X obj 63 129 translateXYZ 0 1.7 0;
#X obj 92 148 r gemmousex;
#X obj 156 166 r gemmousey;
#X obj 63 187 rotateXYZ 0 0 0;
#X connect 0 0 5 0;
#X connect 1 0 0 0;
#X connect 3 0 4 0;
#X connect 4 0 1 0;
#X connect 5 0 8 0;
#X connect 6 0 8 1;
#X connect 7 0 8 3;
#X connect 8 0 2 0;
#X restore 17 170 pd decoder-gemhead;
#X obj 171 522 nbx 5 14 -1e+37 1e+37 0 0 release_time release_time
release_time_(vu) 0 -8 0 10 -4032 -1 -1 200 256;
#X obj 13 518 tgl 15 0 rms-grey rms-grey grey 17 7 0 10 -262144 -1
-1 0 1;
#X obj 14 494 nbx 5 14 -1e+37 1e+37 0 0 rms-range rms-range range 0
-8 0 10 -262144 -1 -1 26 256;
#N canvas 1469 331 224 335 init 0;
#X obj 47 19 loadbang;
#X obj 47 49 delay 1000;
#X msg 47 88 \; rms-range 26 \; peak-range 26 \; rms-gain 37 \; peak-gain
37 \; freeze 1 \; sphere-alpha 0.51 \; points-alpha 1 \; show-texture
1 \; weighting 1 \; blob 0 \; peak-release 0.48 \; release_time 200
\; reset-view bang \; metro_time 50 \; mollweide-proj 1 \;;
#X connect 0 0 1 0;
#X connect 1 0 2 0;
#X restore 564 15 pd init;
#X obj 14 458 nbx 5 14 -1e+37 1e+37 0 0 rms-gain rms-gain gain 0 -8
0 10 -262144 -1 -1 16.2126 256;
#N canvas 402 206 450 300 auto-level 0;
#X obj 59 59 r~ ch1;
#X obj 59 103 * -1;
#X text 55 41 AUTO LEVELING;
#X obj 59 166 line 0 30;
#X obj 59 81 pvu~ 100 300;
#X obj 59 126 + 85;
#X obj 59 146 pack 0 300;
#X connect 0 0 4 0;
#X connect 1 0 5 0;
#X connect 4 0 1 0;
#X connect 5 0 6 0;
#X connect 6 0 3 0;
#X restore 194 178 pd auto-level;
#N canvas 758 123 529 416 text 0;
#X obj 50 213 r gemmousex;
#X obj 29 47 color 1 1 1;
#X obj 50 359 text3d;
#X obj 29 25 gemhead 100;
#X obj 29 94 t a a;
#X msg 115 341 5;
#X obj 133 276 loadbang;
#X obj 50 291 int;
#X msg 130 301 justify right base;
#X obj 29 69 translateXYZ -3 3.3 0;
#X obj 232 179 text3d;
#X msg 326 162 5;
#X obj 323 109 loadbang;
#X obj 232 106 int;
#X msg 320 134 justify right base;
#X obj 29 191 translateXYZ 0 -0.3 0;
#X obj 232 26 r gemmousey;
#X msg 232 131 text \$1 °;
#X msg 50 317 text \$1 °;
#X obj 232 48 * -1;
#X text 330 71 azimuth;
#X text 91 236 zenith;
#X obj 232 75 + 180;
#X obj 50 241 * -1;
#X obj 50 268 + 180;
#X connect 0 0 23 0;
#X connect 1 0 9 0;
#X connect 3 0 1 0;
#X connect 4 0 15 0;
#X connect 4 1 10 0;
#X connect 5 0 2 1;
#X connect 6 0 8 0;
#X connect 6 0 5 0;
#X connect 7 0 18 0;
#X connect 8 0 2 0;
#X connect 9 0 4 0;
#X connect 11 0 10 1;
#X connect 12 0 14 0;
#X connect 12 0 11 0;
#X connect 13 0 17 0;
#X connect 14 0 10 0;
#X connect 15 0 2 0;
#X connect 16 0 19 0;
#X connect 17 0 10 0;
#X connect 18 0 2 0;
#X connect 19 0 22 0;
#X connect 22 0 13 0;
#X connect 23 0 24 0;
#X connect 24 0 7 0;
#X restore 451 160 pd text;
#N canvas 764 214 760 655 audio-file-player 0;
#X obj 25 601 throw~ ch1;
#X obj 37 571 throw~ ch2;
#X obj 65 551 throw~ ch3;
#X obj 93 531 throw~ ch4;
#X obj 151 607 throw~ ch5;
#X obj 179 586 throw~ ch6;
#X obj 207 566 throw~ ch7;
#X obj 235 546 throw~ ch8;
#X obj 264 526 throw~ ch9;
#X obj 265 481 throw~ ch10;
#X obj 293 460 throw~ ch11;
#X obj 321 440 throw~ ch12;
#X obj 349 420 throw~ ch13;
#X obj 378 400 throw~ ch14;
#X obj 396 376 throw~ ch15;
#X obj 425 356 throw~ ch16;
#X msg 290 207 1;
#X msg 329 205 0;
#X msg 256 135 open ../mtx_sphh_audio/mtx_sph_hm_counting.wav \, 1
;
#X msg 266 155 open ../mtx_sphh_audio/mtx_sph_hm_durufle.wav \, 1;
#X msg 276 175 open ../mtx_sphh_audio/mtx_sph_hm_spatial-test-tones.wav
\, 1;
#X obj 273 251 readsf~ 36 1e+06 aaaaaaaaaaaaaaaaaaaaaaaaaaaaaaaaaaaaaaaaaaa
;
#X text 589 135 3rd order;
#X connect 16 0 21 0;
#X connect 17 0 21 0;
#X connect 18 0 21 0;
#X connect 19 0 21 0;
#X connect 20 0 21 0;
#X connect 21 0 0 0;
#X connect 21 1 1 0;
#X connect 21 2 2 0;
#X connect 21 3 3 0;
#X connect 21 4 4 0;
#X connect 21 5 5 0;
#X connect 21 6 6 0;
#X connect 21 7 7 0;
#X connect 21 8 8 0;
#X connect 21 9 9 0;
#X connect 21 10 10 0;
#X connect 21 11 11 0;
#X connect 21 12 12 0;
#X connect 21 13 13 0;
#X connect 21 14 14 0;
#X connect 21 15 15 0;
#X connect 21 36 18 0;
#X restore 137 54 pd audio-file-player;
#X obj 14 538 tgl 15 0 blob blob blob 17 7 0 10 -262144 -1 -1 0 1;
#N canvas 532 61 519 601 signal-level-decoders 0;
#X obj 317 10 namecanvas signal-decoders;
#X restore 24 111 pd signal-level-decoders;
#N canvas 749 62 441 578 create-signal-decoders 0;
#X obj 43 32 bng 15 250 50 0 empty empty empty 17 7 0 10 -262144 -1
-1;
#X obj 43 144 until;
#X obj 70 190 int 0;
#X obj 70 212 t f f;
#X obj 120 202 + 1;
#X msg 90 144 0;
#X obj 43 457 pack 0 0 0;
#X obj 100 435 * 20;
#X obj 43 50 t b b b;
#X obj 43 301 textfile;
#X obj 43 164 t b b;
#X msg 43 479 \; signal-decoders obj 10 \$3 dec_o5 \$1 \$2;
#X msg 205 214 read des.3.24.7.txt_sph.txt cr \, rewind;
#X connect 0 0 8 0;
#X connect 1 0 10 0;
#X connect 2 0 3 0;
#X connect 3 0 7 0;
#X connect 3 1 4 0;
#X connect 4 0 2 1;
#X connect 5 0 2 1;
#X connect 6 0 11 0;
#X connect 7 0 6 2;
#X connect 8 0 1 0;
#X connect 8 1 5 0;
#X connect 8 2 12 0;
#X connect 9 0 6 0;
#X connect 9 1 1 1;
#X connect 10 0 9 0;
#X connect 10 1 2 0;
#X connect 12 0 9 0;
#X restore 237 108 pd create-signal-decoders;
#X obj 97 299 vsl 15 128 -20 40 0 0 peak-gain peak-gain peak 0 -9 0
10 -262144 -1 -1 8965 1;
#X text 30 263 GAIN;
#X obj 84 458 nbx 5 14 -1e+37 1e+37 0 0 peak-gain peak-gain gain 0
-8 0 10 -262144 -1 -1 22.3543 256;
#X obj 85 495 nbx 5 14 -1e+37 1e+37 0 0 peak-range peak-range range
0 -8 0 10 -262144 -1 -1 26 256;
#X obj 83 518 tgl 15 0 peak-grey peak-grey grey 17 7 0 10 -262144 -1
-1 0 1;
#X text 231 345 audio dec;
#X obj 412 460 r rms-gain;
#X obj 412 508 s peak-gain;
#X obj 412 485 - 0;
#X obj 173 555 nbx 5 14 -1e+37 1e+37 0 0 peak-release peak-release
peak-release 0 -8 0 10 -262144 -1 -1 0.48 256;
#N canvas 297 322 514 301 distorted-sphere 0;
#X obj 38 70 gemhead;
#N canvas 0 50 450 300 ortho-man 0;
#X obj 212 24 ortho 0;
#X obj 157 3 tgl 15 0 empty empty empty 17 7 0 10 -262144 -1 -1 1 1
;
#X obj 55 40 ortho 0;
#X msg 291 -10 compat \$1;
#X obj 291 -30 tgl 15 1 empty empty empty 0 -6 0 8 -262144 -1 -1 0
1;
#X msg 157 -24 1;
#X msg 291 -53 0;
#X obj 157 -58 loadbang;
#X obj 61 -63 inlet;
#X obj 57 80 outlet;
#X connect 1 0 0 0;
#X connect 1 0 2 0;
#X connect 2 0 9 0;
#X connect 3 0 0 0;
#X connect 3 0 2 0;
#X connect 4 0 3 0;
#X connect 5 0 1 0;
#X connect 6 0 4 0;
#X connect 7 0 5 0;
#X connect 7 0 6 0;
#X connect 8 0 2 0;
#X restore 38 174 pd ortho-man;
#X msg 169 190 draw line;
#X msg 169 214 draw fill;
#X msg 169 234 draw point;
#X obj 181 144 r setSpherical;
#X obj 253 217 print;
#X msg 305 140 setSpherical 0 10 3 25 -80;
#X obj 38 50 tgl 15 0 empty empty empty 17 7 0 10 -262144 -1 -1 0 1
;
#X obj 67 94 r gemmousex;
#X obj 97 112 r gemmousey;
#X obj 38 148 rotateXYZ 0 0 0;
#X obj 38 10 loadbang;
#X msg 38 31 0;
#X obj 38 242 sphere3d 2 40 15;
#X connect 0 0 11 0;
#X connect 1 0 14 0;
#X connect 2 0 14 0;
#X connect 3 0 14 0;
#X connect 4 0 14 0;
#X connect 7 0 14 0;
#X connect 8 0 0 0;
#X connect 9 0 11 1;
#X connect 10 0 11 3;
#X connect 11 0 1 0;
#X connect 12 0 13 0;
#X connect 13 0 8 0;
#X restore 18 212 pd distorted-sphere;
#X msg 623 96 lighting 0;
#N canvas 385 147 416 222 catch-filter-send 0;
#X obj 133 37 c~ 8;
#X obj 39 34 c~ 1;
#X obj 66 55 c~ 2;
#X obj 76 76 c~ 3;
#X obj 105 95 c~ 4;
#X obj 115 115 c~ 5;
#X obj 148 132 c~ 6;
#X obj 158 153 c~ 7;
#X obj 143 57 c~ 9;
#X obj 194 77 c~ 10;
#X obj 204 97 c~ 11;
#X obj 214 117 c~ 12;
#X obj 224 137 c~ 13;
#X obj 234 157 c~ 14;
#X obj 225 32 c~ 15;
#X obj 236 52 c~ 16;
#X restore 161 19 pd catch-filter-send;
#N canvas 502 238 663 357 visual-decoders 0;
#X obj 506 14 namecanvas decoders;
#X obj 10 0 decoder 4.5 0;
#X obj 10 11120 decoder 328.5 167.143;
#X obj 10 20 decoder 13.5 0;
#X obj 10 40 decoder 22.5 0;
#X obj 10 60 decoder 31.5 0;
#X obj 10 80 decoder 40.5 0;
#X obj 10 100 decoder 49.5 0;
#X obj 10 120 decoder 58.5 0;
#X obj 10 140 decoder 67.5 0;
#X obj 10 160 decoder 76.5 0;
#X obj 10 180 decoder 85.5 0;
#X obj 10 200 decoder 94.5 0;
#X obj 10 220 decoder 103.5 0;
#X obj 10 240 decoder 112.5 0;
#X obj 10 260 decoder 121.5 0;
#X obj 10 280 decoder 130.5 0;
#X obj 10 300 decoder 139.5 0;
#X obj 10 320 decoder 148.5 0;
#X obj 10 340 decoder 157.5 0;
#X obj 10 360 decoder 166.5 0;
#X obj 10 380 decoder 175.5 0;
#X obj 10 400 decoder 184.5 0;
#X obj 10 420 decoder 193.5 0;
#X obj 10 440 decoder 202.5 0;
#X obj 10 460 decoder 211.5 0;
#X obj 10 480 decoder 220.5 0;
#X obj 10 500 decoder 229.5 0;
#X obj 10 520 decoder 238.5 0;
#X obj 10 540 decoder 247.5 0;
#X obj 10 560 decoder 256.5 0;
#X obj 10 580 decoder 265.5 0;
#X obj 10 600 decoder 274.5 0;
#X obj 10 620 decoder 283.5 0;
#X obj 10 640 decoder 292.5 0;
#X obj 10 660 decoder 301.5 0;
#X obj 10 680 decoder 310.5 0;
#X obj 10 700 decoder 319.5 0;
#X obj 10 720 decoder 328.5 0;
#X obj 10 740 decoder 337.5 0;
#X obj 10 760 decoder 346.5 0;
#X obj 10 780 decoder 355.5 0;
#X obj 10 800 decoder 4.5 12.8571;
#X obj 10 820 decoder 13.5 12.8571;
#X obj 10 840 decoder 22.5 12.8571;
#X obj 10 860 decoder 31.5 12.8571;
#X obj 10 880 decoder 40.5 12.8571;
#X obj 10 900 decoder 49.5 12.8571;
#X obj 10 920 decoder 58.5 12.8571;
#X obj 10 940 decoder 67.5 12.8571;
#X obj 10 960 decoder 76.5 12.8571;
#X obj 10 980 decoder 85.5 12.8571;
#X obj 10 1000 decoder 94.5 12.8571;
#X obj 10 1020 decoder 103.5 12.8571;
#X obj 10 1040 decoder 112.5 12.8571;
#X obj 10 1060 decoder 121.5 12.8571;
#X obj 10 1080 decoder 130.5 12.8571;
#X obj 10 1100 decoder 139.5 12.8571;
#X obj 10 1120 decoder 148.5 12.8571;
#X obj 10 1140 decoder 157.5 12.8571;
#X obj 10 1160 decoder 166.5 12.8571;
#X obj 10 1180 decoder 175.5 12.8571;
#X obj 10 1200 decoder 184.5 12.8571;
#X obj 10 1220 decoder 193.5 12.8571;
#X obj 10 1240 decoder 202.5 12.8571;
#X obj 10 1260 decoder 211.5 12.8571;
#X obj 10 1280 decoder 220.5 12.8571;
#X obj 10 1300 decoder 229.5 12.8571;
#X obj 10 1320 decoder 238.5 12.8571;
#X obj 10 1340 decoder 247.5 12.8571;
#X obj 10 1360 decoder 256.5 12.8571;
#X obj 10 1380 decoder 265.5 12.8571;
#X obj 10 1400 decoder 274.5 12.8571;
#X obj 10 1420 decoder 283.5 12.8571;
#X obj 10 1440 decoder 292.5 12.8571;
#X obj 10 1460 decoder 301.5 12.8571;
#X obj 10 1480 decoder 310.5 12.8571;
#X obj 10 1500 decoder 319.5 12.8571;
#X obj 10 1520 decoder 328.5 12.8571;
#X obj 10 1540 decoder 337.5 12.8571;
#X obj 10 1560 decoder 346.5 12.8571;
#X obj 10 1580 decoder 355.5 12.8571;
#X obj 10 1600 decoder 4.5 25.7143;
#X obj 10 1620 decoder 13.5 25.7143;
#X obj 10 1640 decoder 22.5 25.7143;
#X obj 10 1660 decoder 31.5 25.7143;
#X obj 10 1680 decoder 40.5 25.7143;
#X obj 10 1700 decoder 49.5 25.7143;
#X obj 10 1720 decoder 58.5 25.7143;
#X obj 10 1740 decoder 67.5 25.7143;
#X obj 10 1760 decoder 76.5 25.7143;
#X obj 10 1780 decoder 85.5 25.7143;
#X obj 10 1800 decoder 94.5 25.7143;
#X obj 10 1820 decoder 103.5 25.7143;
#X obj 10 1840 decoder 112.5 25.7143;
#X obj 10 1860 decoder 121.5 25.7143;
#X obj 10 1880 decoder 130.5 25.7143;
#X obj 10 1900 decoder 139.5 25.7143;
#X obj 10 1920 decoder 148.5 25.7143;
#X obj 10 1940 decoder 157.5 25.7143;
#X obj 10 1960 decoder 166.5 25.7143;
#X obj 10 1980 decoder 175.5 25.7143;
#X obj 10 2000 decoder 184.5 25.7143;
#X obj 10 2020 decoder 193.5 25.7143;
#X obj 10 2040 decoder 202.5 25.7143;
#X obj 10 2060 decoder 211.5 25.7143;
#X obj 10 2080 decoder 220.5 25.7143;
#X obj 10 2100 decoder 229.5 25.7143;
#X obj 10 2120 decoder 238.5 25.7143;
#X obj 10 2140 decoder 247.5 25.7143;
#X obj 10 2160 decoder 256.5 25.7143;
#X obj 10 2180 decoder 265.5 25.7143;
#X obj 10 2200 decoder 274.5 25.7143;
#X obj 10 2220 decoder 283.5 25.7143;
#X obj 10 2240 decoder 292.5 25.7143;
#X obj 10 2260 decoder 301.5 25.7143;
#X obj 10 2280 decoder 310.5 25.7143;
#X obj 10 2300 decoder 319.5 25.7143;
#X obj 10 2320 decoder 328.5 25.7143;
#X obj 10 2340 decoder 337.5 25.7143;
#X obj 10 2360 decoder 346.5 25.7143;
#X obj 10 2380 decoder 355.5 25.7143;
#X obj 10 2400 decoder 4.5 38.5714;
#X obj 10 2420 decoder 13.5 38.5714;
#X obj 10 2440 decoder 22.5 38.5714;
#X obj 10 2460 decoder 31.5 38.5714;
#X obj 10 2480 decoder 40.5 38.5714;
#X obj 10 2500 decoder 49.5 38.5714;
#X obj 10 2520 decoder 58.5 38.5714;
#X obj 10 2540 decoder 67.5 38.5714;
#X obj 10 2560 decoder 76.5 38.5714;
#X obj 10 2580 decoder 85.5 38.5714;
#X obj 10 2600 decoder 94.5 38.5714;
#X obj 10 2620 decoder 103.5 38.5714;
#X obj 10 2640 decoder 112.5 38.5714;
#X obj 10 2660 decoder 121.5 38.5714;
#X obj 10 2680 decoder 130.5 38.5714;
#X obj 10 2700 decoder 139.5 38.5714;
#X obj 10 2720 decoder 148.5 38.5714;
#X obj 10 2740 decoder 157.5 38.5714;
#X obj 10 2760 decoder 166.5 38.5714;
#X obj 10 2780 decoder 175.5 38.5714;
#X obj 10 2800 decoder 184.5 38.5714;
#X obj 10 2820 decoder 193.5 38.5714;
#X obj 10 2840 decoder 202.5 38.5714;
#X obj 10 2860 decoder 211.5 38.5714;
#X obj 10 2880 decoder 220.5 38.5714;
#X obj 10 2900 decoder 229.5 38.5714;
#X obj 10 2920 decoder 238.5 38.5714;
#X obj 10 2940 decoder 247.5 38.5714;
#X obj 10 2960 decoder 256.5 38.5714;
#X obj 10 2980 decoder 265.5 38.5714;
#X obj 10 3000 decoder 274.5 38.5714;
#X obj 10 3020 decoder 283.5 38.5714;
#X obj 10 3040 decoder 292.5 38.5714;
#X obj 10 3060 decoder 301.5 38.5714;
#X obj 10 3080 decoder 310.5 38.5714;
#X obj 10 3100 decoder 319.5 38.5714;
#X obj 10 3120 decoder 328.5 38.5714;
#X obj 10 3140 decoder 337.5 38.5714;
#X obj 10 3160 decoder 346.5 38.5714;
#X obj 10 3180 decoder 355.5 38.5714;
#X obj 10 3200 decoder 4.5 51.4286;
#X obj 10 3220 decoder 13.5 51.4286;
#X obj 10 3240 decoder 22.5 51.4286;
#X obj 10 3260 decoder 31.5 51.4286;
#X obj 10 3280 decoder 40.5 51.4286;
#X obj 10 3300 decoder 49.5 51.4286;
#X obj 10 3320 decoder 58.5 51.4286;
#X obj 10 3340 decoder 67.5 51.4286;
#X obj 10 3360 decoder 76.5 51.4286;
#X obj 10 3380 decoder 85.5 51.4286;
#X obj 10 3400 decoder 94.5 51.4286;
#X obj 10 3420 decoder 103.5 51.4286;
#X obj 10 3440 decoder 112.5 51.4286;
#X obj 10 3460 decoder 121.5 51.4286;
#X obj 10 3480 decoder 130.5 51.4286;
#X obj 10 3500 decoder 139.5 51.4286;
#X obj 10 3520 decoder 148.5 51.4286;
#X obj 10 3540 decoder 157.5 51.4286;
#X obj 10 3560 decoder 166.5 51.4286;
#X obj 10 3580 decoder 175.5 51.4286;
#X obj 10 3600 decoder 184.5 51.4286;
#X obj 10 3620 decoder 193.5 51.4286;
#X obj 10 3640 decoder 202.5 51.4286;
#X obj 10 3660 decoder 211.5 51.4286;
#X obj 10 3680 decoder 220.5 51.4286;
#X obj 10 3700 decoder 229.5 51.4286;
#X obj 10 3720 decoder 238.5 51.4286;
#X obj 10 3740 decoder 247.5 51.4286;
#X obj 10 3760 decoder 256.5 51.4286;
#X obj 10 3780 decoder 265.5 51.4286;
#X obj 10 3800 decoder 274.5 51.4286;
#X obj 10 3820 decoder 283.5 51.4286;
#X obj 10 3840 decoder 292.5 51.4286;
#X obj 10 3860 decoder 301.5 51.4286;
#X obj 10 3880 decoder 310.5 51.4286;
#X obj 10 3900 decoder 319.5 51.4286;
#X obj 10 3920 decoder 328.5 51.4286;
#X obj 10 3940 decoder 337.5 51.4286;
#X obj 10 3960 decoder 346.5 51.4286;
#X obj 10 3980 decoder 355.5 51.4286;
#X obj 10 4000 decoder 4.5 64.2857;
#X obj 10 4020 decoder 13.5 64.2857;
#X obj 10 4040 decoder 22.5 64.2857;
#X obj 10 4060 decoder 31.5 64.2857;
#X obj 10 4080 decoder 40.5 64.2857;
#X obj 10 4100 decoder 49.5 64.2857;
#X obj 10 4120 decoder 58.5 64.2857;
#X obj 10 4140 decoder 67.5 64.2857;
#X obj 10 4160 decoder 76.5 64.2857;
#X obj 10 4180 decoder 85.5 64.2857;
#X obj 10 4200 decoder 94.5 64.2857;
#X obj 10 4220 decoder 103.5 64.2857;
#X obj 10 4240 decoder 112.5 64.2857;
#X obj 10 4260 decoder 121.5 64.2857;
#X obj 10 4280 decoder 130.5 64.2857;
#X obj 10 4300 decoder 139.5 64.2857;
#X obj 10 4320 decoder 148.5 64.2857;
#X obj 10 4340 decoder 157.5 64.2857;
#X obj 10 4360 decoder 166.5 64.2857;
#X obj 10 4380 decoder 175.5 64.2857;
#X obj 10 4400 decoder 184.5 64.2857;
#X obj 10 4420 decoder 193.5 64.2857;
#X obj 10 4440 decoder 202.5 64.2857;
#X obj 10 4460 decoder 211.5 64.2857;
#X obj 10 4480 decoder 220.5 64.2857;
#X obj 10 4500 decoder 229.5 64.2857;
#X obj 10 4520 decoder 238.5 64.2857;
#X obj 10 4540 decoder 247.5 64.2857;
#X obj 10 4560 decoder 256.5 64.2857;
#X obj 10 4580 decoder 265.5 64.2857;
#X obj 10 4600 decoder 274.5 64.2857;
#X obj 10 4620 decoder 283.5 64.2857;
#X obj 10 4640 decoder 292.5 64.2857;
#X obj 10 4660 decoder 301.5 64.2857;
#X obj 10 4680 decoder 310.5 64.2857;
#X obj 10 4700 decoder 319.5 64.2857;
#X obj 10 4720 decoder 328.5 64.2857;
#X obj 10 4740 decoder 337.5 64.2857;
#X obj 10 4760 decoder 346.5 64.2857;
#X obj 10 4780 decoder 355.5 64.2857;
#X obj 10 4800 decoder 4.5 77.1429;
#X obj 10 4820 decoder 13.5 77.1429;
#X obj 10 4840 decoder 22.5 77.1429;
#X obj 10 4860 decoder 31.5 77.1429;
#X obj 10 4880 decoder 40.5 77.1429;
#X obj 10 4900 decoder 49.5 77.1429;
#X obj 10 4920 decoder 58.5 77.1429;
#X obj 10 4940 decoder 67.5 77.1429;
#X obj 10 4960 decoder 76.5 77.1429;
#X obj 10 4980 decoder 85.5 77.1429;
#X obj 10 5000 decoder 94.5 77.1429;
#X obj 10 5020 decoder 103.5 77.1429;
#X obj 10 5040 decoder 112.5 77.1429;
#X obj 10 5060 decoder 121.5 77.1429;
#X obj 10 5080 decoder 130.5 77.1429;
#X obj 10 5100 decoder 139.5 77.1429;
#X obj 10 5120 decoder 148.5 77.1429;
#X obj 10 5140 decoder 157.5 77.1429;
#X obj 10 5160 decoder 166.5 77.1429;
#X obj 10 5180 decoder 175.5 77.1429;
#X obj 10 5200 decoder 184.5 77.1429;
#X obj 10 5220 decoder 193.5 77.1429;
#X obj 10 5240 decoder 202.5 77.1429;
#X obj 10 5260 decoder 211.5 77.1429;
#X obj 10 5280 decoder 220.5 77.1429;
#X obj 10 5300 decoder 229.5 77.1429;
#X obj 10 5320 decoder 238.5 77.1429;
#X obj 10 5340 decoder 247.5 77.1429;
#X obj 10 5360 decoder 256.5 77.1429;
#X obj 10 5380 decoder 265.5 77.1429;
#X obj 10 5400 decoder 274.5 77.1429;
#X obj 10 5420 decoder 283.5 77.1429;
#X obj 10 5440 decoder 292.5 77.1429;
#X obj 10 5460 decoder 301.5 77.1429;
#X obj 10 5480 decoder 310.5 77.1429;
#X obj 10 5500 decoder 319.5 77.1429;
#X obj 10 5520 decoder 328.5 77.1429;
#X obj 10 5540 decoder 337.5 77.1429;
#X obj 10 5560 decoder 346.5 77.1429;
#X obj 10 5580 decoder 355.5 77.1429;
#X obj 10 5600 decoder 4.5 90;
#X obj 10 5620 decoder 13.5 90;
#X obj 10 5640 decoder 22.5 90;
#X obj 10 5660 decoder 31.5 90;
#X obj 10 5680 decoder 40.5 90;
#X obj 10 5700 decoder 49.5 90;
#X obj 10 5720 decoder 58.5 90;
#X obj 10 5740 decoder 67.5 90;
#X obj 10 5760 decoder 76.5 90;
#X obj 10 5780 decoder 85.5 90;
#X obj 10 5800 decoder 94.5 90;
#X obj 10 5820 decoder 103.5 90;
#X obj 10 5840 decoder 112.5 90;
#X obj 10 5860 decoder 121.5 90;
#X obj 10 5880 decoder 130.5 90;
#X obj 10 5900 decoder 139.5 90;
#X obj 10 5920 decoder 148.5 90;
#X obj 10 5940 decoder 157.5 90;
#X obj 10 5960 decoder 166.5 90;
#X obj 10 5980 decoder 175.5 90;
#X obj 10 6000 decoder 184.5 90;
#X obj 10 6020 decoder 193.5 90;
#X obj 10 6040 decoder 202.5 90;
#X obj 10 6060 decoder 211.5 90;
#X obj 10 6080 decoder 220.5 90;
#X obj 10 6100 decoder 229.5 90;
#X obj 10 6120 decoder 238.5 90;
#X obj 10 6140 decoder 247.5 90;
#X obj 10 6160 decoder 256.5 90;
#X obj 10 6180 decoder 265.5 90;
#X obj 10 6200 decoder 274.5 90;
#X obj 10 6220 decoder 283.5 90;
#X obj 10 6240 decoder 292.5 90;
#X obj 10 6260 decoder 301.5 90;
#X obj 10 6280 decoder 310.5 90;
#X obj 10 6300 decoder 319.5 90;
#X obj 10 6320 decoder 328.5 90;
#X obj 10 6340 decoder 337.5 90;
#X obj 10 6360 decoder 346.5 90;
#X obj 10 6380 decoder 355.5 90;
#X obj 10 6400 decoder 4.5 102.857;
#X obj 10 6420 decoder 13.5 102.857;
#X obj 10 6440 decoder 22.5 102.857;
#X obj 10 6460 decoder 31.5 102.857;
#X obj 10 6480 decoder 40.5 102.857;
#X obj 10 6500 decoder 49.5 102.857;
#X obj 10 6520 decoder 58.5 102.857;
#X obj 10 6540 decoder 67.5 102.857;
#X obj 10 6560 decoder 76.5 102.857;
#X obj 10 6580 decoder 85.5 102.857;
#X obj 10 6600 decoder 94.5 102.857;
#X obj 10 6620 decoder 103.5 102.857;
#X obj 10 6640 decoder 112.5 102.857;
#X obj 10 6660 decoder 121.5 102.857;
#X obj 10 6680 decoder 130.5 102.857;
#X obj 10 6700 decoder 139.5 102.857;
#X obj 10 6720 decoder 148.5 102.857;
#X obj 10 6740 decoder 157.5 102.857;
#X obj 10 6760 decoder 166.5 102.857;
#X obj 10 6780 decoder 175.5 102.857;
#X obj 10 6800 decoder 184.5 102.857;
#X obj 10 6820 decoder 193.5 102.857;
#X obj 10 6840 decoder 202.5 102.857;
#X obj 10 6860 decoder 211.5 102.857;
#X obj 10 6880 decoder 220.5 102.857;
#X obj 10 6900 decoder 229.5 102.857;
#X obj 10 6920 decoder 238.5 102.857;
#X obj 10 6940 decoder 247.5 102.857;
#X obj 10 6960 decoder 256.5 102.857;
#X obj 10 6980 decoder 265.5 102.857;
#X obj 10 7000 decoder 274.5 102.857;
#X obj 10 7020 decoder 283.5 102.857;
#X obj 10 7040 decoder 292.5 102.857;
#X obj 10 7060 decoder 301.5 102.857;
#X obj 10 7080 decoder 310.5 102.857;
#X obj 10 7100 decoder 319.5 102.857;
#X obj 10 7120 decoder 328.5 102.857;
#X obj 10 7140 decoder 337.5 102.857;
#X obj 10 7160 decoder 346.5 102.857;
#X obj 10 7180 decoder 355.5 102.857;
#X obj 10 7200 decoder 4.5 115.714;
#X obj 10 7220 decoder 13.5 115.714;
#X obj 10 7240 decoder 22.5 115.714;
#X obj 10 7260 decoder 31.5 115.714;
#X obj 10 7280 decoder 40.5 115.714;
#X obj 10 7300 decoder 49.5 115.714;
#X obj 10 7320 decoder 58.5 115.714;
#X obj 10 7340 decoder 67.5 115.714;
#X obj 10 7360 decoder 76.5 115.714;
#X obj 10 7380 decoder 85.5 115.714;
#X obj 10 7400 decoder 94.5 115.714;
#X obj 10 7420 decoder 103.5 115.714;
#X obj 10 7440 decoder 112.5 115.714;
#X obj 10 7460 decoder 121.5 115.714;
#X obj 10 7480 decoder 130.5 115.714;
#X obj 10 7500 decoder 139.5 115.714;
#X obj 10 7520 decoder 148.5 115.714;
#X obj 10 7540 decoder 157.5 115.714;
#X obj 10 7560 decoder 166.5 115.714;
#X obj 10 7580 decoder 175.5 115.714;
#X obj 10 7600 decoder 184.5 115.714;
#X obj 10 7620 decoder 193.5 115.714;
#X obj 10 7640 decoder 202.5 115.714;
#X obj 10 7660 decoder 211.5 115.714;
#X obj 10 7680 decoder 220.5 115.714;
#X obj 10 7700 decoder 229.5 115.714;
#X obj 10 7720 decoder 238.5 115.714;
#X obj 10 7740 decoder 247.5 115.714;
#X obj 10 7760 decoder 256.5 115.714;
#X obj 10 7780 decoder 265.5 115.714;
#X obj 10 7800 decoder 274.5 115.714;
#X obj 10 7820 decoder 283.5 115.714;
#X obj 10 7840 decoder 292.5 115.714;
#X obj 10 7860 decoder 301.5 115.714;
#X obj 10 7880 decoder 310.5 115.714;
#X obj 10 7900 decoder 319.5 115.714;
#X obj 10 7920 decoder 328.5 115.714;
#X obj 10 7940 decoder 337.5 115.714;
#X obj 10 7960 decoder 346.5 115.714;
#X obj 10 7980 decoder 355.5 115.714;
#X obj 10 8000 decoder 4.5 128.571;
#X obj 10 8020 decoder 13.5 128.571;
#X obj 10 8040 decoder 22.5 128.571;
#X obj 10 8060 decoder 31.5 128.571;
#X obj 10 8080 decoder 40.5 128.571;
#X obj 10 8100 decoder 49.5 128.571;
#X obj 10 8120 decoder 58.5 128.571;
#X obj 10 8140 decoder 67.5 128.571;
#X obj 10 8160 decoder 76.5 128.571;
#X obj 10 8180 decoder 85.5 128.571;
#X obj 10 8200 decoder 94.5 128.571;
#X obj 10 8220 decoder 103.5 128.571;
#X obj 10 8240 decoder 112.5 128.571;
#X obj 10 8260 decoder 121.5 128.571;
#X obj 10 8280 decoder 130.5 128.571;
#X obj 10 8300 decoder 139.5 128.571;
#X obj 10 8320 decoder 148.5 128.571;
#X obj 10 8340 decoder 157.5 128.571;
#X obj 10 8360 decoder 166.5 128.571;
#X obj 10 8380 decoder 175.5 128.571;
#X obj 10 8400 decoder 184.5 128.571;
#X obj 10 8420 decoder 193.5 128.571;
#X obj 10 8440 decoder 202.5 128.571;
#X obj 10 8460 decoder 211.5 128.571;
#X obj 10 8480 decoder 220.5 128.571;
#X obj 10 8500 decoder 229.5 128.571;
#X obj 10 8520 decoder 238.5 128.571;
#X obj 10 8540 decoder 247.5 128.571;
#X obj 10 8560 decoder 256.5 128.571;
#X obj 10 8580 decoder 265.5 128.571;
#X obj 10 8600 decoder 274.5 128.571;
#X obj 10 8620 decoder 283.5 128.571;
#X obj 10 8640 decoder 292.5 128.571;
#X obj 10 8660 decoder 301.5 128.571;
#X obj 10 8680 decoder 310.5 128.571;
#X obj 10 8700 decoder 319.5 128.571;
#X obj 10 8720 decoder 328.5 128.571;
#X obj 10 8740 decoder 337.5 128.571;
#X obj 10 8760 decoder 346.5 128.571;
#X obj 10 8780 decoder 355.5 128.571;
#X obj 10 8800 decoder 4.5 141.429;
#X obj 10 8820 decoder 13.5 141.429;
#X obj 10 8840 decoder 22.5 141.429;
#X obj 10 8860 decoder 31.5 141.429;
#X obj 10 8880 decoder 40.5 141.429;
#X obj 10 8900 decoder 49.5 141.429;
#X obj 10 8920 decoder 58.5 141.429;
#X obj 10 8940 decoder 67.5 141.429;
#X obj 10 8960 decoder 76.5 141.429;
#X obj 10 8980 decoder 85.5 141.429;
#X obj 10 9000 decoder 94.5 141.429;
#X obj 10 9020 decoder 103.5 141.429;
#X obj 10 9040 decoder 112.5 141.429;
#X obj 10 9060 decoder 121.5 141.429;
#X obj 10 9080 decoder 130.5 141.429;
#X obj 10 9100 decoder 139.5 141.429;
#X obj 10 9120 decoder 148.5 141.429;
#X obj 10 9140 decoder 157.5 141.429;
#X obj 10 9160 decoder 166.5 141.429;
#X obj 10 9180 decoder 175.5 141.429;
#X obj 10 9200 decoder 184.5 141.429;
#X obj 10 9220 decoder 193.5 141.429;
#X obj 10 9240 decoder 202.5 141.429;
#X obj 10 9260 decoder 211.5 141.429;
#X obj 10 9280 decoder 220.5 141.429;
#X obj 10 9300 decoder 229.5 141.429;
#X obj 10 9320 decoder 238.5 141.429;
#X obj 10 9340 decoder 247.5 141.429;
#X obj 10 9360 decoder 256.5 141.429;
#X obj 10 9380 decoder 265.5 141.429;
#X obj 10 9400 decoder 274.5 141.429;
#X obj 10 9420 decoder 283.5 141.429;
#X obj 10 9440 decoder 292.5 141.429;
#X obj 10 9460 decoder 301.5 141.429;
#X obj 10 9480 decoder 310.5 141.429;
#X obj 10 9500 decoder 319.5 141.429;
#X obj 10 9520 decoder 328.5 141.429;
#X obj 10 9540 decoder 337.5 141.429;
#X obj 10 9560 decoder 346.5 141.429;
#X obj 10 9580 decoder 355.5 141.429;
#X obj 10 9600 decoder 4.5 154.286;
#X obj 10 9620 decoder 13.5 154.286;
#X obj 10 9640 decoder 22.5 154.286;
#X obj 10 9660 decoder 31.5 154.286;
#X obj 10 9680 decoder 40.5 154.286;
#X obj 10 9700 decoder 49.5 154.286;
#X obj 10 9720 decoder 58.5 154.286;
#X obj 10 9740 decoder 67.5 154.286;
#X obj 10 9760 decoder 76.5 154.286;
#X obj 10 9780 decoder 85.5 154.286;
#X obj 10 9800 decoder 94.5 154.286;
#X obj 10 9820 decoder 103.5 154.286;
#X obj 10 9840 decoder 112.5 154.286;
#X obj 10 9860 decoder 121.5 154.286;
#X obj 10 9880 decoder 130.5 154.286;
#X obj 10 9900 decoder 139.5 154.286;
#X obj 10 9920 decoder 148.5 154.286;
#X obj 10 9940 decoder 157.5 154.286;
#X obj 10 9960 decoder 166.5 154.286;
#X obj 10 9980 decoder 175.5 154.286;
#X obj 10 10000 decoder 184.5 154.286;
#X obj 10 10020 decoder 193.5 154.286;
#X obj 10 10040 decoder 202.5 154.286;
#X obj 10 10060 decoder 211.5 154.286;
#X obj 10 10080 decoder 220.5 154.286;
#X obj 10 10100 decoder 229.5 154.286;
#X obj 10 10120 decoder 238.5 154.286;
#X obj 10 10140 decoder 247.5 154.286;
#X obj 10 10160 decoder 256.5 154.286;
#X obj 10 10180 decoder 265.5 154.286;
#X obj 10 10200 decoder 274.5 154.286;
#X obj 10 10220 decoder 283.5 154.286;
#X obj 10 10240 decoder 292.5 154.286;
#X obj 10 10260 decoder 301.5 154.286;
#X obj 10 10280 decoder 310.5 154.286;
#X obj 10 10300 decoder 319.5 154.286;
#X obj 10 10320 decoder 328.5 154.286;
#X obj 10 10340 decoder 337.5 154.286;
#X obj 10 10360 decoder 346.5 154.286;
#X obj 10 10380 decoder 355.5 154.286;
#X obj 10 10400 decoder 4.5 167.143;
#X obj 10 10420 decoder 13.5 167.143;
#X obj 10 10440 decoder 22.5 167.143;
#X obj 10 10460 decoder 31.5 167.143;
#X obj 10 10480 decoder 40.5 167.143;
#X obj 10 10500 decoder 49.5 167.143;
#X obj 10 10520 decoder 58.5 167.143;
#X obj 10 10540 decoder 67.5 167.143;
#X obj 10 10560 decoder 76.5 167.143;
#X obj 10 10580 decoder 85.5 167.143;
#X obj 10 10600 decoder 94.5 167.143;
#X obj 10 10620 decoder 103.5 167.143;
#X obj 10 10640 decoder 112.5 167.143;
#X obj 10 10660 decoder 121.5 167.143;
#X obj 10 10680 decoder 130.5 167.143;
#X obj 10 10700 decoder 139.5 167.143;
#X obj 10 10720 decoder 148.5 167.143;
#X obj 10 10740 decoder 157.5 167.143;
#X obj 10 10760 decoder 166.5 167.143;
#X obj 10 10780 decoder 175.5 167.143;
#X obj 10 10800 decoder 184.5 167.143;
#X obj 10 10820 decoder 193.5 167.143;
#X obj 10 10840 decoder 202.5 167.143;
#X obj 10 10860 decoder 211.5 167.143;
#X obj 10 10880 decoder 220.5 167.143;
#X obj 10 10900 decoder 229.5 167.143;
#X obj 10 10920 decoder 238.5 167.143;
#X obj 10 10940 decoder 247.5 167.143;
#X obj 10 10960 decoder 256.5 167.143;
#X obj 10 10980 decoder 265.5 167.143;
#X obj 10 11000 decoder 274.5 167.143;
#X obj 10 11020 decoder 283.5 167.143;
#X obj 10 11040 decoder 292.5 167.143;
#X obj 10 11060 decoder 301.5 167.143;
#X obj 10 11080 decoder 310.5 167.143;
#X obj 10 11100 decoder 319.5 167.143;
#X obj 10 11140 decoder 337.5 167.143;
#X obj 10 11160 decoder 346.5 167.143;
#X obj 10 11180 decoder 355.5 167.143;
#X obj 10 11200 decoder 4.5 180;
#X obj 10 11220 decoder 13.5 180;
#X obj 10 11240 decoder 22.5 180;
#X obj 10 11260 decoder 31.5 180;
#X obj 10 11280 decoder 40.5 180;
#X obj 10 11300 decoder 49.5 180;
#X obj 10 11320 decoder 58.5 180;
#X obj 10 11340 decoder 67.5 180;
#X obj 10 11360 decoder 76.5 180;
#X obj 10 11380 decoder 85.5 180;
#X obj 10 11400 decoder 94.5 180;
#X obj 10 11420 decoder 103.5 180;
#X obj 10 11440 decoder 112.5 180;
#X obj 10 11460 decoder 121.5 180;
#X obj 10 11480 decoder 130.5 180;
#X obj 10 11500 decoder 139.5 180;
#X obj 10 11520 decoder 148.5 180;
#X obj 10 11540 decoder 157.5 180;
#X obj 10 11560 decoder 166.5 180;
#X obj 10 11580 decoder 175.5 180;
#X obj 10 11600 decoder 184.5 180;
#X obj 10 11620 decoder 193.5 180;
#X obj 10 11640 decoder 202.5 180;
#X obj 10 11660 decoder 211.5 180;
#X obj 10 11680 decoder 220.5 180;
#X obj 10 11700 decoder 229.5 180;
#X obj 10 11720 decoder 238.5 180;
#X obj 10 11740 decoder 247.5 180;
#X obj 10 11760 decoder 256.5 180;
#X obj 10 11780 decoder 265.5 180;
#X obj 10 11800 decoder 274.5 180;
#X obj 10 11820 decoder 283.5 180;
#X obj 10 11840 decoder 292.5 180;
#X obj 10 11860 decoder 301.5 180;
#X obj 10 11880 decoder 310.5 180;
#X obj 10 11900 decoder 319.5 180;
#X obj 10 11920 decoder 328.5 180;
#X obj 10 11940 decoder 337.5 180;
#X obj 10 11960 decoder 346.5 180;
#X obj 10 11980 decoder 355.5 180;
#X restore 25 137 pd visual-decoders;
#N canvas 1734 114 455 676 create-visual-decoders 0;
#X obj 45 25 bng 15 250 50 0 empty empty empty 17 7 0 10 -262144 -1
-1;
#X obj 45 215 *;
#X obj 45 237 until;
#X obj 45 259 int 0;
#X obj 45 281 t f f;
#X obj 112 271 + 1;
#X msg 91 235 0;
#X text 138 69 divisions;
#X obj 129 381 int;
#X obj 66 404 /;
#X obj 44 446 * 18;
#X msg 66 382 360 \$1;
#X obj 45 312 t f f f;
#X obj 45 550 pack 0 0 0;
#X obj 102 528 * 20;
#X msg 45 572 \; decoders obj 10 \$3 decoder \$1 \$2;
#X text 14 76 h;
#X text 116 70 v;
#X obj 93 182 s divisions-h;
#X obj 234 183 s divisions-v;
#X obj 45 43 t b b b;
#X obj 88 99 t f f;
#X obj 45 95 t f f;
#X obj 126 295 r divisions-h;
#X obj 129 408 / 9;
#X obj 176 343 r divisions-v;
#X obj 176 377 - 1;
#X obj 129 441 * 180;
#X obj 45 352 mod 25;
#X obj 129 359 / 25;
#X msg 45 73 40;
#X msg 86 73 15;
#X obj 44 497 +;
#X obj 59 474 / 2;
#X obj 65 424 t f f;
#X connect 0 0 20 0;
#X connect 1 0 2 0;
#X connect 2 0 3 0;
#X connect 3 0 4 0;
#X connect 4 0 12 0;
#X connect 4 1 5 0;
#X connect 5 0 3 1;
#X connect 6 0 3 1;
#X connect 8 0 24 0;
#X connect 9 0 34 0;
#X connect 10 0 32 0;
#X connect 11 0 9 0;
#X connect 12 0 28 0;
#X connect 12 1 29 0;
#X connect 12 2 14 0;
#X connect 13 0 15 0;
#X connect 14 0 13 2;
#X connect 20 0 30 0;
#X connect 20 1 31 0;
#X connect 20 2 6 0;
#X connect 21 0 1 1;
#X connect 21 1 19 0;
#X connect 22 0 1 0;
#X connect 22 1 18 0;
#X connect 23 0 28 1;
#X connect 23 0 29 1;
#X connect 23 0 11 0;
#X connect 24 0 27 0;
#X connect 25 0 26 0;
#X connect 26 0 24 1;
#X connect 27 0 13 1;
#X connect 28 0 10 0;
#X connect 29 0 8 0;
#X connect 30 0 22 0;
#X connect 31 0 21 0;
#X connect 32 0 13 0;
#X connect 33 0 32 1;
#X connect 34 0 10 1;
#X connect 34 1 33 0;
#X restore 237 129 pd create-visual-decoders;
#X obj 255 323 nbx 5 14 0 1 0 0 points-alpha points-alpha points-alpha
0 -8 0 10 -262144 -1 -1 1 256;
#X obj 340 319 tgl 15 0 show-texture show-texture show-texture 17 7
0 10 -262144 -1 -1 1 1;
#X obj 339 339 tgl 15 0 directional-plot directional-plot directional-plot
17 7 0 10 -262144 -1 -1 0 1;
#X text 548 497 Ambisonics Visualizer;
#X msg 435 29 dimen;
#X msg 493 50 dimen 600 600 \, lighting 1 \, create \, 1;
#X obj 20 86 signal-level-decoders-24-3o;
#X obj 237 83 # signal-level-decoders-74-5o;
#X text 398 2 3rd order now!;
#X obj 282 459 tgl 15 0 filter filter filter_on/off 17 7 0 10 -262144
-1 -1 0 1;
#X text 196 258 uncheck this to start the visualization!;
#X obj 295 550 nbx 5 14 -1e+37 1e+37 0 0 metro_time metro_time metro_time
0 -8 0 10 -262144 -1 -1 50 256;
#X obj 493 99 gemwin 20;
#X obj 339 381 tgl 15 0 mollweide-proj mollweide-proj mollweide-proj
17 7 0 10 -4034 -1 -1 0 1;
#N canvas 1500 641 450 300 settings 0;
#X restore 336 46 pd settings;
#N canvas 1157 634 411 393 declares 0;
#X obj 18 102 declare -lib iemlib1;
#X obj 18 81 declare -stdpath iemlib;
#X text 23 42 for acre;
#X obj 18 121 declare -lib iemlib2;
#X obj 20 189 declare -lib iemmatrix;
#X text 23 314 for binaural tools;
#X obj 18 294 declare -lib iem_ambi;
#X obj 18 63 declare -path iemlib;
#X obj 11 397 declare -lib Gem;
#X obj 21 334 # declare -lib iem_bin_ambi;
#X obj 21 208 declare -stdpath iemmatrix;
#X obj 20 228 declare -path iemmatrix;
#X obj 19 147 declare -lib zexy;
#N canvas 1182 245 619 374 matrix_specialnames 0;
#X obj 43 15 declare -lib iemmatrix/mtx_mul~;
#X obj 43 35 declare -lib iemmatrix/mtx_add;
#X obj 43 55 declare -lib iemmatrix/mtx_mul;
#X obj 42 80 declare -lib iemmatrix/mtx_0x210x3d;
#X obj 42 100 declare -lib iemmatrix/mtx_0x21;
#X obj 42 120 declare -lib iemmatrix/mtx_0x260x26;
#X obj 42 140 declare -lib iemmatrix/mtx_0x26;
#X obj 42 180 declare -lib iemmatrix/mtx_0x2a0x7e;
#X obj 42 200 declare -lib iemmatrix/mtx_0x2a;
#X obj 42 220 declare -lib iemmatrix/mtx_0x2b;
#X obj 42 240 declare -lib iemmatrix/mtx_0x2d;
#X obj 42 280 declare -lib iemmatrix/mtx_0x2e0x2a;
#X obj 42 300 declare -lib iemmatrix/mtx_0x2e0x2f;
#X obj 42 320 declare -lib iemmatrix/mtx_0x2e0x5e;
#X obj 42 340 declare -lib iemmatrix/mtx_0x2f;
#X obj 42 380 declare -lib iemmatrix/mtx_0x3a;
#X obj 42 400 declare -lib iemmatrix/mtx_0x3c0x3c;
#X obj 42 420 declare -lib iemmatrix/mtx_0x3c0x3d;
#X obj 42 440 declare -lib iemmatrix/mtx_0x3c;
#X obj 42 480 declare -lib iemmatrix/mtx_0x3d0x3d;
#X obj 42 500 declare -lib iemmatrix/mtx_0x3e0x3d;
#X obj 42 520 declare -lib iemmatrix/mtx_0x3e0x3e;
#X obj 42 540 declare -lib iemmatrix/mtx_0x3e;
#X obj 42 580 declare -lib iemmatrix/mtx_0x7c0x7c;
#X obj 42 600 declare -lib iemmatrix/mtx_0x7c;
#X restore 22 252 pd matrix_specialnames;
#X text 29 172 for ambi;
#X text 181 252 if old format;
#X obj 22 14 declare -path vi;
#X restore 25 51 pd declares;
#X text 549 521 2013 GPL \, Matthias Kronlachner;
#X connect 5 0 62 0;
#X connect 7 0 62 0;
#X connect 13 0 12 0;
#X connect 41 0 43 0;
#X connect 43 0 42 0;
#X connect 46 0 62 0;
#X connect 55 0 62 0;
